<svg width="167" height="74" viewBox="0 0 167 74" fill="none" xmlns="http://www.w3.org/2000/svg">
<rect width="167" height="74" rx="6" fill="black" fill-opacity="0.05"/>
<path d="M17.8857 22H16.2379L18.7486 14.7273H20.7301L23.2372 22H21.5895L19.7678 16.3892H19.7109L17.8857 22ZM17.7827 19.1413H21.6747V20.3416H17.7827V19.1413ZM24.1126 22V14.7273H28.9279V15.995H25.6502V17.728H28.6083V18.9957H25.6502V22H24.1126ZM29.6852 15.995V14.7273H35.6582V15.995H33.4316V22H31.9118V15.995H29.6852ZM36.6419 22V14.7273H41.5424V15.995H38.1795V17.728H41.2903V18.9957H38.1795V20.7322H41.5566V22H36.6419ZM42.7649 22V14.7273H45.6342C46.1835 14.7273 46.6522 14.8255 47.0405 15.022C47.4311 15.2161 47.7282 15.492 47.9318 15.8494C48.1378 16.2045 48.2408 16.6224 48.2408 17.103C48.2408 17.5859 48.1366 18.0014 47.9283 18.3494C47.7199 18.6951 47.4181 18.9602 47.0227 19.1449C46.6297 19.3295 46.1539 19.4219 45.5952 19.4219H43.674V18.1861H45.3466C45.6402 18.1861 45.884 18.1458 46.0781 18.0653C46.2723 17.9848 46.4167 17.8641 46.5114 17.7031C46.6084 17.5421 46.657 17.3421 46.657 17.103C46.657 16.8615 46.6084 16.6579 46.5114 16.4922C46.4167 16.3265 46.2711 16.201 46.0746 16.1158C45.8804 16.0282 45.6354 15.9844 45.3395 15.9844H44.3026V22H42.7649ZM46.6925 18.6903L48.5 22H46.8026L45.0341 18.6903H46.6925Z" fill="black" fill-opacity="0.5"/>
<rect x="16" y="34" width="3" height="24" rx="1.5" fill="#00CC52"/>
<rect x="21" y="34" width="3" height="24" rx="1.5" fill="#00CC52"/>
<rect x="26" y="34" width="3" height="24" rx="1.5" fill="#00CC52"/>
<rect x="31" y="34" width="3" height="24" rx="1.5" fill="#00CC52"/>
<rect x="36" y="34" width="3" height="24" rx="1.5" fill="#00CC52"/>
<rect x="41" y="34" width="3" height="24" rx="1.5" fill="#00CC52"/>
<rect x="46" y="34" width="3" height="24" rx="1.5" fill="#00CC52"/>
<rect x="51" y="34" width="3" height="24" rx="1.5" fill="#00CC52"/>
<rect x="56" y="34" width="3" height="24" rx="1.5" fill="#00CC52"/>
<rect x="61" y="34" width="3" height="24" rx="1.5" fill="#00CC52"/>
<rect x="66" y="34" width="3" height="24" rx="1.5" fill="#00CC52"/>
<rect x="71" y="34" width="3" height="24" rx="1.5" fill="#00CC52"/>
<rect x="76" y="34" width="3" height="24" rx="1.5" fill="#00CC52"/>
<rect x="81" y="34" width="3" height="24" rx="1.5" fill="#00CC52"/>
<rect x="86" y="34" width="3" height="24" rx="1.5" fill="#00CC52"/>
<rect x="91" y="34" width="3" height="24" rx="1.5" fill="#00CC52"/>
<rect x="96" y="34" width="3" height="24" rx="1.5" fill="#00CC52"/>
<rect x="101" y="34" width="3" height="24" rx="1.5" fill="#00CC52"/>
<rect x="106" y="34" width="3" height="24" rx="1.5" fill="#00CC52"/>
<rect x="111" y="34" width="3" height="24" rx="1.5" fill="#00CC52"/>
<rect x="116" y="34" width="3" height="24" rx="1.5" fill="#00CC52"/>
<rect x="121" y="34" width="3" height="24" rx="1.5" fill="#00CC52"/>
<rect x="126" y="34" width="3" height="24" rx="1.5" fill="#00CC52"/>
<rect x="131" y="34" width="3" height="24" rx="1.5" fill="#00CC52"/>
<rect x="136" y="34" width="3" height="24" rx="1.5" fill="#00CC52"/>
<rect x="141" y="34" width="3" height="24" rx="1.5" fill="#D9D9D9"/>
<rect x="146" y="34" width="3" height="24" rx="1.5" fill="#D9D9D9"/>
</svg>
