<svg width="167" height="74" viewBox="0 0 167 74" fill="none" xmlns="http://www.w3.org/2000/svg">
<rect width="167" height="74" rx="6" fill="black" fill-opacity="0.05"/>
<path d="M16.6321 22V14.7273H19.544C20.0791 14.7273 20.5253 14.8066 20.8828 14.9652C21.2403 15.1238 21.509 15.344 21.6889 15.6257C21.8688 15.9051 21.9588 16.227 21.9588 16.5916C21.9588 16.8757 21.902 17.1255 21.7884 17.3409C21.6747 17.554 21.5185 17.7292 21.3196 17.8665C21.1231 18.0014 20.8982 18.0973 20.6449 18.1541V18.2251C20.9219 18.237 21.1811 18.3151 21.4226 18.4595C21.6664 18.6039 21.8641 18.8063 22.0156 19.0668C22.1671 19.3248 22.2429 19.6326 22.2429 19.9901C22.2429 20.3759 22.147 20.7204 21.9553 21.0234C21.7659 21.3241 21.4853 21.562 21.1136 21.7372C20.742 21.9124 20.2839 22 19.7393 22H16.6321ZM18.1697 20.7429H19.4233C19.8518 20.7429 20.1643 20.6612 20.3608 20.4979C20.5573 20.3321 20.6555 20.112 20.6555 19.8374C20.6555 19.6361 20.607 19.4586 20.5099 19.3047C20.4129 19.1508 20.2744 19.0301 20.0945 18.9425C19.9169 18.8549 19.705 18.8111 19.4588 18.8111H18.1697V20.7429ZM18.1697 17.7706H19.3097C19.5204 17.7706 19.7074 17.7339 19.8707 17.6605C20.0365 17.5848 20.1667 17.4782 20.2614 17.3409C20.3584 17.2036 20.407 17.0391 20.407 16.8473C20.407 16.5845 20.3134 16.3726 20.1264 16.2116C19.9418 16.0507 19.679 15.9702 19.3381 15.9702H18.1697V17.7706ZM23.2434 22V14.7273H28.144V15.995H24.7811V17.728H27.8919V18.9957H24.7811V20.7322H28.1582V22H23.2434ZM29.3665 22V14.7273H34.1818V15.995H30.9041V17.728H33.8622V18.9957H30.9041V22H29.3665ZM41.8993 18.3636C41.8993 19.1567 41.749 19.8314 41.4483 20.3878C41.15 20.9441 40.7428 21.3691 40.2267 21.6626C39.713 21.9538 39.1354 22.0994 38.4938 22.0994C37.8475 22.0994 37.2675 21.9527 36.7537 21.6591C36.24 21.3655 35.834 20.9406 35.5357 20.3842C35.2374 19.8279 35.0882 19.1544 35.0882 18.3636C35.0882 17.5705 35.2374 16.8958 35.5357 16.3395C35.834 15.7831 36.24 15.3594 36.7537 15.0682C37.2675 14.7746 37.8475 14.6278 38.4938 14.6278C39.1354 14.6278 39.713 14.7746 40.2267 15.0682C40.7428 15.3594 41.15 15.7831 41.4483 16.3395C41.749 16.8958 41.8993 17.5705 41.8993 18.3636ZM40.3404 18.3636C40.3404 17.8499 40.2634 17.4167 40.1096 17.0639C39.958 16.7112 39.7438 16.4437 39.4668 16.2614C39.1898 16.0791 38.8655 15.9879 38.4938 15.9879C38.1221 15.9879 37.7978 16.0791 37.5208 16.2614C37.2438 16.4437 37.0283 16.7112 36.8745 17.0639C36.723 17.4167 36.6472 17.8499 36.6472 18.3636C36.6472 18.8774 36.723 19.3106 36.8745 19.6634C37.0283 20.0161 37.2438 20.2836 37.5208 20.4659C37.7978 20.6482 38.1221 20.7393 38.4938 20.7393C38.8655 20.7393 39.1898 20.6482 39.4668 20.4659C39.7438 20.2836 39.958 20.0161 40.1096 19.6634C40.2634 19.3106 40.3404 18.8774 40.3404 18.3636ZM43.0384 22V14.7273H45.9077C46.4569 14.7273 46.9257 14.8255 47.3139 15.022C47.7045 15.2161 48.0017 15.492 48.2053 15.8494C48.4112 16.2045 48.5142 16.6224 48.5142 17.103C48.5142 17.5859 48.41 18.0014 48.2017 18.3494C47.9934 18.6951 47.6915 18.9602 47.2962 19.1449C46.9032 19.3295 46.4273 19.4219 45.8686 19.4219H43.9474V18.1861H45.62C45.9136 18.1861 46.1574 18.1458 46.3516 18.0653C46.5457 17.9848 46.6901 17.8641 46.7848 17.7031C46.8819 17.5421 46.9304 17.3421 46.9304 17.103C46.9304 16.8615 46.8819 16.6579 46.7848 16.4922C46.6901 16.3265 46.5445 16.201 46.348 16.1158C46.1539 16.0282 45.9089 15.9844 45.6129 15.9844H44.576V22H43.0384ZM46.9659 18.6903L48.7734 22H47.076L45.3075 18.6903H46.9659ZM49.6009 22V14.7273H54.5014V15.995H51.1385V17.728H54.2493V18.9957H51.1385V20.7322H54.5156V22H49.6009Z" fill="black" fill-opacity="0.5"/>
<rect x="16" y="34" width="3" height="24" rx="1.5" fill="#F27245"/>
<rect x="21" y="34" width="3" height="24" rx="1.5" fill="#F27245"/>
<rect x="26" y="34" width="3" height="24" rx="1.5" fill="#F27245"/>
<rect x="31" y="34" width="3" height="24" rx="1.5" fill="#F27245"/>
<rect x="36" y="34" width="3" height="24" rx="1.5" fill="#F27245"/>
<rect x="41" y="34" width="3" height="24" rx="1.5" fill="#F27245"/>
<rect x="46" y="34" width="3" height="24" rx="1.5" fill="#D9D9D9"/>
<rect x="51" y="34" width="3" height="24" rx="1.5" fill="#D9D9D9"/>
<rect x="56" y="34" width="3" height="24" rx="1.5" fill="#D9D9D9"/>
<rect x="61" y="34" width="3" height="24" rx="1.5" fill="#D9D9D9"/>
<rect x="66" y="34" width="3" height="24" rx="1.5" fill="#D9D9D9"/>
<rect x="71" y="34" width="3" height="24" rx="1.5" fill="#D9D9D9"/>
<rect x="76" y="34" width="3" height="24" rx="1.5" fill="#D9D9D9"/>
<rect x="81" y="34" width="3" height="24" rx="1.5" fill="#D9D9D9"/>
<rect x="86" y="34" width="3" height="24" rx="1.5" fill="#D9D9D9"/>
<rect x="91" y="34" width="3" height="24" rx="1.5" fill="#D9D9D9"/>
<rect x="96" y="34" width="3" height="24" rx="1.5" fill="#D9D9D9"/>
<rect x="101" y="34" width="3" height="24" rx="1.5" fill="#D9D9D9"/>
<rect x="106" y="34" width="3" height="24" rx="1.5" fill="#D9D9D9"/>
<rect x="111" y="34" width="3" height="24" rx="1.5" fill="#D9D9D9"/>
<rect x="116" y="34" width="3" height="24" rx="1.5" fill="#D9D9D9"/>
<rect x="121" y="34" width="3" height="24" rx="1.5" fill="#D9D9D9"/>
<rect x="126" y="34" width="3" height="24" rx="1.5" fill="#D9D9D9"/>
<rect x="131" y="34" width="3" height="24" rx="1.5" fill="#D9D9D9"/>
<rect x="136" y="34" width="3" height="24" rx="1.5" fill="#D9D9D9"/>
<rect x="141" y="34" width="3" height="24" rx="1.5" fill="#D9D9D9"/>
<rect x="146" y="34" width="3" height="24" rx="1.5" fill="#D9D9D9"/>
</svg>
