<svg width="182" height="16" viewBox="0 0 182 16" fill="none" xmlns="http://www.w3.org/2000/svg">
<g clip-path="url(#clip0_809_9044)">
<path fill-rule="evenodd" clip-rule="evenodd" d="M0 0.328174H6.54667C10.188 0.328174 12.092 2.21084 12.092 4.52284C12.092 6.11884 11.192 7.20284 9.944 7.77617V7.81751C11.54 8.39084 12.44 9.65884 12.44 11.2748C12.44 13.5868 10.66 15.6122 6.81333 15.6122H0V0.328174ZM6.34267 6.38417C7.42667 6.38417 7.91867 5.83217 7.91867 5.21751C7.91867 4.60284 7.428 4.03084 6.34267 4.03084H4.42V6.38417H6.34267ZM6.404 11.9082C7.54933 11.9082 8.10267 11.3562 8.10267 10.6402C8.10267 9.92418 7.52933 9.37217 6.42533 9.37217H4.42V11.9095H6.404V11.9082ZM13.38 9.39217V0.328174H17.84V9.35084C17.84 11.0495 18.6787 11.9495 20.1107 11.9495C21.5427 11.9495 22.4427 11.0495 22.4427 9.33084V0.328174H26.924V9.39217C26.924 13.2388 24.3467 16.0015 20.1107 16.0015C15.8747 16.0015 13.3787 13.2388 13.3787 9.39217H13.38ZM38.28 1.06417V4.99217C37.3187 4.31751 35.6813 3.84684 34.352 3.84684C33.1453 3.84684 32.5307 4.23617 32.5307 4.74684C32.5307 5.25751 33.2053 5.52417 34.4133 5.95351C36.46 6.66951 39.2413 7.63084 39.2413 10.8842C39.2413 13.7895 37.052 15.9375 33.2053 15.9375C31.2213 15.9375 29.4 15.3642 28.2747 14.6082V10.4748C29.38 11.3748 31.0573 12.0908 32.6733 12.0908C34.044 12.0908 34.6787 11.5788 34.6787 11.0068C34.6787 10.2708 33.6347 9.94284 32.3867 9.49218C30.7493 8.89884 28.152 7.83484 28.152 4.86817C28.152 2.18817 30.26 -0.00115967 34.024 -0.00115967C35.6813 -0.00115967 37.1747 0.428174 38.28 1.06284V1.06417ZM40.3867 0.328174H44.8467V15.6122H40.3867V0.328174ZM60.704 15.6122H56.448L50.944 7.40817H50.924V15.6122H46.6893V0.328174H50.9453L56.4493 8.38951H56.4693V0.328174H60.704V15.6122ZM62.5453 0.328174H73.1027V4.29751H67.0053V6.13884H72.488V9.74018H67.0053V11.6428H73.1027V15.6122H62.5453V0.328174ZM84.2947 1.06417V4.99217C83.3333 4.31751 81.696 3.84684 80.3667 3.84684C79.16 3.84684 78.5453 4.23617 78.5453 4.74684C78.5453 5.25751 79.22 5.52417 80.428 5.95351C82.4747 6.66951 85.256 7.63084 85.256 10.8842C85.256 13.7895 83.0667 15.9375 79.22 15.9375C77.236 15.9375 75.4147 15.3642 74.2893 14.6082V10.4748C75.3947 11.3748 77.072 12.0908 78.688 12.0908C80.0587 12.0908 80.6933 11.5788 80.6933 11.0068C80.6933 10.2708 79.6493 9.94284 78.4013 9.49218C76.764 8.89884 74.1667 7.83484 74.1667 4.86817C74.1667 2.18817 76.2747 -0.00115967 80.0387 -0.00115967C81.696 -0.00115967 83.1893 0.428174 84.2947 1.06284V1.06417ZM96.1 1.06417V4.99217C95.1387 4.31751 93.5013 3.84684 92.172 3.84684C90.9653 3.84684 90.3507 4.23617 90.3507 4.74684C90.3507 5.25751 91.0253 5.52417 92.2333 5.95351C94.28 6.66951 97.0613 7.63084 97.0613 10.8842C97.0613 13.7895 94.872 15.9375 91.0253 15.9375C89.0413 15.9375 87.22 15.3642 86.0947 14.6082V10.4748C87.2 11.3748 88.8773 12.0908 90.4933 12.0908C91.864 12.0908 92.4987 11.5788 92.4987 11.0068C92.4987 10.2708 91.4547 9.94284 90.2067 9.49218C88.5693 8.89884 85.972 7.83484 85.972 4.86817C85.972 2.18817 88.08 -0.00115967 91.844 -0.00115967C93.5013 -0.00115967 94.9947 0.428174 96.1 1.06284V1.06417ZM102.229 15.6415H106.689V0.35884H102.229V15.6428V15.6415ZM122.544 0.35884H118.309V8.42017H118.289L112.785 0.35884H108.529V15.6428H112.764V7.43884H112.784L118.288 15.6428H122.544V0.35884ZM129.723 0.0308403C125.957 0.0308403 123.851 2.22017 123.851 4.90017C123.851 7.86684 126.449 8.93084 128.085 9.52417C129.333 9.97484 130.377 10.3015 130.377 11.0388C130.377 11.6122 129.743 12.1228 128.372 12.1228C126.756 12.1228 125.077 11.4068 123.973 10.5068V14.6402C125.099 15.3975 126.92 15.9695 128.904 15.9695C132.751 15.9695 134.94 13.8215 134.94 10.9162C134.94 7.66284 132.157 6.70151 130.112 5.98551C128.905 5.55617 128.229 5.31084 128.229 4.77884C128.229 4.24684 128.843 3.87884 130.051 3.87884C131.38 3.87884 133.017 4.34951 133.979 5.02417V1.09484C132.873 0.460174 131.38 0.0308403 129.723 0.0308403ZM135.981 15.6415H140.441V0.35884H135.981V15.6428V15.6415ZM146.743 11.6108H147.603C149.915 11.6108 151.408 10.3015 151.408 8.00951C151.408 5.71751 149.915 4.38817 147.603 4.38817H146.743V11.6108ZM155.909 8.00951C155.909 12.6135 152.431 15.6415 147.439 15.6415H142.283V0.35884H147.439C152.431 0.35884 155.909 3.40684 155.909 8.01084V8.00951ZM157.119 15.6415H167.676V11.6722H161.579V9.76951H167.061V6.16817H161.579V4.32684H167.676V0.35884H157.119V15.6428V15.6415ZM174.696 7.58017C175.821 7.58017 176.701 7.04817 176.701 5.98417C176.701 4.92017 175.821 4.38817 174.676 4.38817H173.735V7.58017H174.696ZM182 15.6415H176.741L173.836 10.9148H173.733V15.6415H169.273V0.35884H174.716C178.543 0.35884 181.201 2.05751 181.201 5.67884C181.201 7.11084 180.567 9.19751 178.029 10.2615L181.999 15.6428L182 15.6415Z" fill="white"/>
</g>
<defs>
<clipPath id="clip0_809_9044">
<rect width="182" height="16" fill="white"/>
</clipPath>
</defs>
</svg>
