<svg width="278" height="156" viewBox="0 0 278 156" fill="none" xmlns="http://www.w3.org/2000/svg">
<path d="M40.8598 15.0369C40.1372 12.0134 41.6135 9.19381 43.1512 6.90854C44.844 4.39266 47.6684 2.16267 50.8227 1.36084C50.2496 4.21324 48.5794 6.67365 46.9718 8.98684C45.3751 11.2849 43.3611 13.6125 40.8598 15.0369Z" fill="#F0F5FA"/>
<path d="M38.6587 20.8366C39.2228 18.4423 39.2103 15.821 38.6732 13.5752C38.201 11.6015 37.5138 8.81149 35.2521 7.87006C33.6081 10.4986 32.9472 14.078 33.9053 16.7601C34.5981 18.7001 35.844 21.2651 38.4279 21.6621C40.7988 22.2069 43.1963 20.9462 45.0898 19.9054C47.1952 18.7483 49.2575 16.9073 50.5105 14.7186C48.212 13.5622 45.5944 14.5007 43.6251 15.4C41.5023 16.3696 39.5522 18.4497 38.6587 20.8366Z" fill="#F0F5FA"/>
<path d="M31.3577 27.2976C32.5237 29.0707 34.3279 31.2915 36.9586 31.2283C39.3509 31.3474 41.4177 29.7201 43.0452 28.3619C44.7981 26.8991 46.3803 24.76 47.0483 22.4474C44.6015 21.7378 42.2589 23.0523 40.512 24.2921C38.6878 25.5869 37.2848 27.9567 36.9835 30.3899C36.9609 27.9522 36.2989 25.4345 35.2317 23.4063C34.256 21.5521 32.8964 19.0457 30.4707 18.5446C29.515 21.4298 29.8199 24.9599 31.3577 27.2976Z" fill="#F0F5FA"/>
<path d="M37.7368 40.7777C35.2953 41.1855 32.9137 39.6944 31.367 37.9406C29.3756 35.6825 28.1908 32.6532 28.4324 29.6207C30.9406 29.6842 32.8403 31.8453 34.2443 33.4795C35.7565 35.2395 36.9955 37.5551 37.5899 39.9438C37.3285 37.5633 38.1303 34.9927 39.6188 33.4043C41.0555 31.871 43.0681 30.1999 45.5722 30.4681C45.5183 32.882 44.3043 35.1818 43.0522 36.9042C41.8852 38.5094 40.0873 40.4948 37.7368 40.7777Z" fill="#F0F5FA"/>
<path d="M33.2266 48.7986C35.4753 50.2579 38.2026 51.7022 41.0688 50.6091C43.4201 49.7799 44.9151 47.4207 45.8346 45.2553C46.8086 42.961 47.4592 40.3153 47.0088 37.8041C44.4249 38.0327 42.2823 39.8753 41.1444 42.1247C39.9547 44.4762 39.7265 47.2752 40.6404 49.7406C39.2901 47.2043 37.3154 45.152 35.2236 43.2558C33.3221 41.5321 30.583 39.7162 27.8242 40.0577C28.3491 43.4574 30.4305 46.9843 33.2266 48.7986Z" fill="#F0F5FA"/>
<path d="M46.8608 59.7997C49.0736 58.4812 49.9641 55.7067 50.3281 53.3293C50.7204 50.7654 50.7036 47.9378 49.6353 45.5055C47.0681 46.2202 45.3059 48.5234 44.724 51.0459C44.1093 53.7111 44.628 56.5516 46.1234 58.8208C44.1356 56.5477 41.4924 54.6708 38.9593 53.3547C36.5125 52.0834 33.5107 50.5501 30.5723 51.4761C31.9892 54.923 35.0203 58.1322 38.3797 59.4596C40.9813 60.4874 44.1462 61.5039 46.8608 59.7997Z" fill="#F0F5FA"/>
<path d="M57.3512 60.692C57.6759 63.1667 57.6668 66.3056 55.7391 68.2104C53.3302 70.668 49.6022 70.1938 46.7269 69.6531C42.8667 68.9266 38.5214 66.3024 36.1924 62.8082C39.0368 61.2472 42.5155 62.2458 45.3314 63.0541L45.4922 63.1001C48.6355 64.0015 51.9852 65.4533 54.7866 67.437C52.551 65.4235 50.9221 62.4682 50.8423 59.4894C50.7706 56.8252 51.9308 53.9748 54.4275 52.7049C56.1705 54.9851 56.9867 57.9127 57.3512 60.692Z" fill="#F0F5FA"/>
<path d="M68.5387 75.2177C69.9583 72.5243 68.5519 69.3631 67.4311 67.0266C66.1061 64.2645 64.2957 61.4495 61.7047 59.4278C59.2169 61.5649 59.4534 64.6228 60.1931 67.2803C61.0726 70.4402 64.1218 73.1338 67.2793 74.6688C63.6225 73.3095 59.6288 72.4937 55.8291 72.2529L55.4443 72.2281C52.3917 72.0299 48.4178 71.7719 45.9854 73.9986C49.6631 77.1149 54.887 78.9129 59.4912 78.8194C62.5766 78.7569 66.8098 78.393 68.5387 75.2177Z" fill="#F0F5FA"/>
<path d="M111.052 9.63226H114.861C115.549 9.63226 116.13 9.75706 116.604 10.0067C117.077 10.2563 117.43 10.5963 117.662 11.0266C117.903 11.4483 118.024 11.9217 118.024 12.4467C118.024 13.1439 117.826 13.7421 117.43 14.2413C117.034 14.7405 116.457 15.0589 115.7 15.1966L118.282 18.9277H117.081L114.564 15.2741H112.072V18.9277H111.052V9.63226ZM114.861 14.3446C115.558 14.3446 116.083 14.1724 116.436 13.8281C116.789 13.4753 116.965 13.0148 116.965 12.4467C116.965 11.8787 116.789 11.4225 116.436 11.0782C116.083 10.734 115.558 10.5618 114.861 10.5618H112.072V14.3446H114.861ZM124.396 18.9277V17.8045C124.146 18.2091 123.828 18.5232 123.441 18.747C123.053 18.9708 122.597 19.0827 122.072 19.0827C121.418 19.0827 120.858 18.932 120.394 18.6308C119.929 18.3296 119.576 17.9121 119.335 17.3785C119.094 16.8449 118.974 16.2424 118.974 15.571C118.974 14.8997 119.094 14.2972 119.335 13.7636C119.576 13.23 119.929 12.8125 120.394 12.5113C120.858 12.2101 121.418 12.0594 122.072 12.0594C122.58 12.0594 123.023 12.1627 123.402 12.3693C123.789 12.5758 124.103 12.8728 124.344 13.2601V12.2144H125.313V18.9277H124.396ZM119.993 15.571C119.993 16.3543 120.178 16.9912 120.549 17.4818C120.927 17.9638 121.47 18.2048 122.175 18.2048C122.89 18.2048 123.432 17.9638 123.802 17.4818C124.181 16.9912 124.37 16.3543 124.37 15.571C124.37 14.7878 124.181 14.1552 123.802 13.6732C123.432 13.1826 122.89 12.9373 122.175 12.9373C121.47 12.9373 120.927 13.1826 120.549 13.6732C120.178 14.1552 119.993 14.7878 119.993 15.571ZM130.848 14.6286C130.848 14.1036 130.711 13.6904 130.435 13.3892C130.168 13.088 129.773 12.9373 129.248 12.9373C128.981 12.9373 128.697 13.0019 128.395 13.131C128.094 13.2601 127.832 13.4925 127.608 13.8281C127.384 14.1552 127.272 14.6028 127.272 15.1708V18.9277H126.304V12.2144H127.234V13.2472C127.466 12.8857 127.767 12.5974 128.137 12.3822C128.507 12.167 128.938 12.0594 129.428 12.0594C129.962 12.0594 130.405 12.1756 130.758 12.408C131.12 12.6318 131.386 12.933 131.558 13.3117C131.731 13.6818 131.817 14.0864 131.817 14.5253V18.9277H130.848V14.6286ZM133.105 9.63226H134.125V15.4807L137.339 12.2144H138.605L135.984 14.8352L138.837 18.9277H137.649L135.3 15.5323L134.125 16.7072V18.9277H133.105V9.63226ZM142.203 19.0827C141.583 19.0827 141.037 18.932 140.563 18.6308C140.099 18.3209 139.737 17.8992 139.479 17.3656C139.229 16.832 139.105 16.2338 139.105 15.571C139.105 14.9083 139.229 14.3101 139.479 13.7765C139.737 13.2429 140.099 12.8254 140.563 12.5242C141.037 12.2144 141.583 12.0594 142.203 12.0594C142.823 12.0594 143.369 12.2144 143.843 12.5242C144.316 12.8254 144.678 13.2429 144.927 13.7765C145.185 14.3101 145.314 14.9083 145.314 15.571V15.9067H140.124C140.176 16.5953 140.383 17.1504 140.744 17.5721C141.106 17.9939 141.592 18.2048 142.203 18.2048C142.668 18.2048 143.072 18.0843 143.417 17.8433C143.77 17.6023 144.023 17.2709 144.178 16.8492H145.172C144.966 17.5291 144.6 18.0713 144.075 18.4759C143.55 18.8804 142.926 19.0827 142.203 19.0827ZM144.256 15.0288C144.178 14.3919 143.963 13.8841 143.61 13.5054C143.257 13.1267 142.788 12.9373 142.203 12.9373C141.626 12.9373 141.157 13.1267 140.796 13.5054C140.443 13.8841 140.228 14.3919 140.15 15.0288H144.256ZM151.403 18.9277V17.8174C151.162 18.222 150.844 18.5361 150.448 18.7599C150.061 18.9751 149.609 19.0827 149.092 19.0827C148.438 19.0827 147.879 18.932 147.414 18.6308C146.949 18.3296 146.596 17.9121 146.355 17.3785C146.114 16.8449 145.994 16.2424 145.994 15.571C145.994 14.8997 146.114 14.2972 146.355 13.7636C146.596 13.23 146.949 12.8125 147.414 12.5113C147.879 12.2101 148.438 12.0594 149.092 12.0594C149.6 12.0594 150.043 12.1627 150.422 12.3693C150.809 12.5758 151.123 12.8728 151.364 13.2601V9.63226H152.333V18.9277H151.403ZM147.014 15.571C147.014 16.3543 147.199 16.9912 147.569 17.4818C147.948 17.9638 148.49 18.2048 149.196 18.2048C149.91 18.2048 150.452 17.9638 150.822 17.4818C151.201 16.9912 151.39 16.3543 151.39 15.571C151.39 14.7878 151.201 14.1552 150.822 13.6732C150.452 13.1826 149.91 12.9373 149.196 12.9373C148.49 12.9373 147.948 13.1826 147.569 13.6732C147.199 14.1552 147.014 14.7878 147.014 15.571ZM160.027 16.1778H157.896L157.367 18.9277H156.399L156.928 16.1778H155.534L155.702 15.3387H157.096L157.509 13.2085H156.115L156.283 12.3822H157.677L158.206 9.63226H159.175L158.645 12.3822H160.775L161.305 9.63226H162.273L161.744 12.3822H163.138L162.97 13.2085H161.576L161.163 15.3387H162.544L162.389 16.1778H160.995L160.466 18.9277H159.497L160.027 16.1778ZM160.194 15.3387L160.608 13.2085H158.477L158.064 15.3387H160.194ZM165.982 10.8459L163.865 12.408V11.2461L166.047 9.63226H166.989V18.9277H165.982V10.8459Z" fill="#F0F5FA"/>
<path d="M83.918 37.5833H79.8384V35.8619H89.9428V37.5833H85.8632V48.2559H83.918V37.5833ZM94.8668 48.4624C93.9602 48.4624 93.1741 48.2616 92.5085 47.8599C91.8429 47.4583 91.3322 46.9017 90.9765 46.1902C90.6207 45.4787 90.4429 44.6754 90.4429 43.7803C90.4429 42.8852 90.6207 42.0818 90.9765 41.3703C91.3322 40.6588 91.8429 40.1023 92.5085 39.7006C93.1741 39.2989 93.9602 39.0981 94.8668 39.0981C95.7734 39.0981 96.5595 39.2989 97.2251 39.7006C97.9022 40.1023 98.4186 40.6588 98.7743 41.3703C99.1301 42.0818 99.308 42.8852 99.308 43.7803C99.308 44.6754 99.1301 45.4787 98.7743 46.1902C98.4186 46.9017 97.9022 47.4583 97.2251 47.8599C96.5595 48.2616 95.7734 48.4624 94.8668 48.4624ZM92.3019 43.7803C92.3019 44.7328 92.52 45.4959 92.9561 46.0697C93.3922 46.632 94.0291 46.9132 94.8668 46.9132C95.716 46.9132 96.3587 46.632 96.7947 46.0697C97.2308 45.4959 97.4489 44.7328 97.4489 43.7803C97.4489 42.8278 97.2308 42.0704 96.7947 41.5081C96.3587 40.9343 95.716 40.6474 94.8668 40.6474C94.0291 40.6474 93.3922 40.9343 92.9561 41.5081C92.52 42.0704 92.3019 42.8278 92.3019 43.7803ZM102.234 39.3047V40.5785C102.555 40.108 102.962 39.7465 103.456 39.494C103.949 39.2301 104.517 39.0981 105.16 39.0981C106.021 39.0981 106.755 39.2989 107.363 39.7006C107.983 40.1023 108.448 40.6588 108.758 41.3703C109.079 42.0704 109.24 42.8737 109.24 43.7803C109.24 44.6869 109.079 45.4959 108.758 46.2074C108.448 46.9074 107.983 47.4583 107.363 47.8599C106.755 48.2616 106.021 48.4624 105.16 48.4624C103.909 48.4624 102.957 47.9977 102.303 47.0681V51.6986H100.495V39.3047H102.234ZM102.251 43.7803C102.251 44.7328 102.469 45.4959 102.905 46.0697C103.341 46.632 103.978 46.9132 104.816 46.9132C105.654 46.9132 106.29 46.632 106.727 46.0697C107.163 45.4959 107.381 44.7328 107.381 43.7803C107.381 42.8278 107.163 42.0704 106.727 41.5081C106.29 40.9343 105.654 40.6474 104.816 40.6474C103.978 40.6474 103.341 40.9343 102.905 41.5081C102.469 42.0704 102.251 42.8278 102.251 43.7803ZM113.675 35.8619H122.196V37.5833H115.585V40.9916H121.851V42.6786H115.585V48.2559H113.675V35.8619ZM124.917 44.882C124.917 45.4902 125.072 45.9722 125.381 46.3279C125.691 46.6837 126.162 46.8615 126.793 46.8615C127.091 46.8615 127.413 46.7927 127.757 46.655C128.113 46.5058 128.423 46.2418 128.686 45.8631C128.95 45.473 129.082 44.9393 129.082 44.2623H129.1V39.3047H130.907V48.2559H129.168V46.982C128.847 47.4296 128.445 47.7911 127.964 48.0665C127.482 48.3305 126.931 48.4624 126.311 48.4624C125.278 48.4624 124.486 48.1411 123.935 47.4985C123.396 46.8558 123.126 46.0468 123.126 45.0713V39.3047H124.917V44.882ZM132.497 35.8619H134.304V48.2559H132.497V35.8619ZM135.883 35.8619H137.69V48.2559H135.883V35.8619ZM147.119 48.4624C145.582 48.4624 144.336 48.0952 143.384 47.3607C142.443 46.6263 141.949 45.5361 141.904 44.0901H143.832C143.866 45.077 144.187 45.7828 144.796 46.2074C145.404 46.6205 146.19 46.8271 147.154 46.8271C147.992 46.8271 148.663 46.655 149.168 46.3107C149.673 45.9664 149.925 45.473 149.925 44.8303C149.925 44.4746 149.839 44.1819 149.667 43.9524C149.495 43.7114 149.174 43.4934 148.703 43.2983C148.233 43.1032 147.544 42.9138 146.637 42.7302C145.123 42.4319 144.015 42.0073 143.315 41.4564C142.627 40.8941 142.282 40.0736 142.282 38.9948C142.282 38.3292 142.466 37.744 142.833 37.239C143.212 36.7341 143.734 36.3439 144.4 36.0685C145.065 35.7931 145.823 35.6554 146.672 35.6554C148.301 35.6554 149.524 36.0283 150.338 36.7743C151.165 37.5202 151.595 38.5129 151.629 39.7522H149.736C149.678 38.926 149.403 38.312 148.91 37.9104C148.428 37.4972 147.682 37.2907 146.672 37.2907C145.949 37.2907 145.364 37.4399 144.916 37.7382C144.48 38.0366 144.262 38.444 144.262 38.9604C144.262 39.3391 144.336 39.649 144.486 39.89C144.635 40.1195 144.927 40.3318 145.364 40.5269C145.811 40.7105 146.477 40.8884 147.36 41.0605C148.542 41.3015 149.46 41.5884 150.115 41.9212C150.78 42.254 151.245 42.6499 151.509 43.1089C151.773 43.568 151.905 44.1245 151.905 44.7787C151.905 45.5246 151.704 46.1787 151.302 46.741C150.901 47.2919 150.338 47.7165 149.615 48.0149C148.892 48.3132 148.06 48.4624 147.119 48.4624ZM156.841 48.4624C155.98 48.4624 155.223 48.2616 154.569 47.8599C153.914 47.4583 153.409 46.9017 153.054 46.1902C152.709 45.4787 152.537 44.6754 152.537 43.7803C152.537 42.8852 152.709 42.0818 153.054 41.3703C153.409 40.6588 153.914 40.1023 154.569 39.7006C155.223 39.2989 155.98 39.0981 156.841 39.0981C157.713 39.0981 158.47 39.2989 159.113 39.7006C159.767 40.1023 160.266 40.6646 160.611 41.3876C160.966 42.1105 161.144 42.9368 161.144 43.8663V44.3828H154.379C154.471 45.1746 154.723 45.8 155.137 46.2591C155.561 46.7181 156.129 46.9476 156.841 46.9476C157.392 46.9476 157.862 46.8271 158.252 46.5861C158.654 46.3337 158.952 45.9779 159.147 45.5189H160.955C160.668 46.4255 160.163 47.1427 159.44 47.6706C158.717 48.1985 157.851 48.4624 156.841 48.4624ZM159.268 42.954C159.153 42.231 158.883 41.663 158.459 41.2498C158.046 40.8252 157.506 40.6129 156.841 40.6129C156.175 40.6129 155.63 40.8252 155.205 41.2498C154.792 41.663 154.528 42.231 154.414 42.954H159.268ZM162.337 39.3047H164.076V40.8539C164.65 39.7522 165.573 39.2014 166.847 39.2014H167.536V40.9056H166.796C165.969 40.9056 165.321 41.1179 164.851 41.5425C164.38 41.9671 164.145 42.6843 164.145 43.6942V48.2559H162.337V39.3047ZM167.703 39.3047H169.648L172.196 46.4312L174.709 39.3047H176.654L173.16 48.2559H171.198L167.703 39.3047ZM177.329 39.3047H179.136V48.2559H177.329V39.3047ZM177.329 35.8619H179.136V37.7554H177.329V35.8619ZM184.641 48.4624C183.78 48.4624 183.023 48.2616 182.369 47.8599C181.726 47.4583 181.227 46.9017 180.871 46.1902C180.527 45.4787 180.354 44.6754 180.354 43.7803C180.354 42.8852 180.527 42.0818 180.871 41.3703C181.227 40.6588 181.726 40.1023 182.369 39.7006C183.023 39.2989 183.78 39.0981 184.641 39.0981C185.777 39.0981 186.689 39.4022 187.378 40.0105C188.078 40.6072 188.497 41.4105 188.634 42.4204H186.792C186.678 41.8695 186.431 41.4392 186.052 41.1293C185.685 40.808 185.215 40.6474 184.641 40.6474C183.86 40.6474 183.258 40.9343 182.833 41.5081C182.42 42.0704 182.214 42.8278 182.214 43.7803C182.214 44.7328 182.42 45.4959 182.833 46.0697C183.258 46.632 183.86 46.9132 184.641 46.9132C185.215 46.9132 185.691 46.7525 186.069 46.4312C186.448 46.0984 186.689 45.6451 186.792 45.0713H188.634C188.497 46.0927 188.066 46.9132 187.343 47.5329C186.632 48.1526 185.731 48.4624 184.641 48.4624ZM193.607 48.4624C192.746 48.4624 191.989 48.2616 191.335 47.8599C190.681 47.4583 190.176 46.9017 189.82 46.1902C189.476 45.4787 189.304 44.6754 189.304 43.7803C189.304 42.8852 189.476 42.0818 189.82 41.3703C190.176 40.6588 190.681 40.1023 191.335 39.7006C191.989 39.2989 192.746 39.0981 193.607 39.0981C194.479 39.0981 195.237 39.2989 195.879 39.7006C196.533 40.1023 197.033 40.6646 197.377 41.3876C197.733 42.1105 197.91 42.9368 197.91 43.8663V44.3828H191.145C191.237 45.1746 191.49 45.8 191.903 46.2591C192.327 46.7181 192.895 46.9476 193.607 46.9476C194.158 46.9476 194.628 46.8271 195.018 46.5861C195.42 46.3337 195.719 45.9779 195.914 45.5189H197.721C197.434 46.4255 196.929 47.1427 196.206 47.6706C195.483 48.1985 194.617 48.4624 193.607 48.4624ZM196.034 42.954C195.919 42.231 195.65 41.663 195.225 41.2498C194.812 40.8252 194.273 40.6129 193.607 40.6129C192.941 40.6129 192.396 40.8252 191.972 41.2498C191.559 41.663 191.295 42.231 191.18 42.954H196.034ZM77.2217 56.8619H81.5423C82.8965 56.8619 84.0326 57.1316 84.9506 57.671C85.8802 58.2103 86.5687 58.9505 87.0163 59.8916C87.4753 60.8211 87.7049 61.8769 87.7049 63.0589C87.7049 64.2409 87.4753 65.3024 87.0163 66.2434C86.5687 67.173 85.8802 67.9074 84.9506 68.4468C84.0326 68.9862 82.8965 69.2559 81.5423 69.2559H77.2217V56.8619ZM81.5423 67.5689C82.9424 67.5689 83.9867 67.1558 84.6752 66.3295C85.3638 65.4918 85.7081 64.4016 85.7081 63.0589C85.7081 61.7162 85.3638 60.6317 84.6752 59.8055C83.9867 58.9677 82.9424 58.5489 81.5423 58.5489H79.1324V67.5689H81.5423ZM88.8579 60.3047H90.6654V69.2559H88.8579V60.3047ZM88.8579 56.8619H90.6654V58.7554H88.8579V56.8619ZM96.2043 72.9052C94.9993 72.9052 94.0583 72.6355 93.3812 72.0961C92.7156 71.5682 92.3369 70.8281 92.2451 69.8756H94.0181C94.1788 70.9199 94.919 71.442 96.2387 71.442C97.9372 71.442 98.7864 70.633 98.7864 69.0149V67.9476C98.1322 68.8772 97.174 69.3419 95.9117 69.3419C95.051 69.3419 94.3108 69.1468 93.6911 68.7567C93.0829 68.355 92.6181 67.8099 92.2968 67.1213C91.9869 66.4213 91.832 65.6237 91.832 64.7286C91.832 63.8335 91.9869 63.0359 92.2968 62.3359C92.6181 61.6359 93.0829 61.0908 93.6911 60.7006C94.3108 60.2989 95.051 60.0981 95.9117 60.0981C96.5658 60.0981 97.1396 60.2301 97.633 60.494C98.1265 60.7465 98.5339 61.1137 98.8552 61.5957V60.3047H100.577V69.0149C100.577 70.3116 100.175 71.2813 99.3716 71.924C98.5683 72.5781 97.5125 72.9052 96.2043 72.9052ZM93.6911 64.7286C93.6911 65.6697 93.9091 66.4213 94.3452 66.9836C94.7813 67.546 95.4182 67.8271 96.2559 67.8271C97.0937 67.8271 97.7306 67.546 98.1667 66.9836C98.6028 66.4213 98.8208 65.6697 98.8208 64.7286C98.8208 63.7761 98.6028 63.0245 98.1667 62.4736C97.7306 61.9113 97.0937 61.6301 96.2559 61.6301C95.4182 61.6301 94.7813 61.9113 94.3452 62.4736C93.9091 63.0245 93.6911 63.7761 93.6911 64.7286ZM102.119 60.3047H103.926V69.2559H102.119V60.3047ZM102.119 56.8619H103.926V58.7554H102.119V56.8619ZM108.191 57.5505V60.3047H110.532V61.7851H108.191V66.8976C108.191 67.2074 108.26 67.4312 108.398 67.5689C108.536 67.7066 108.765 67.7755 109.087 67.7755H110.532V69.2559H108.673C107.893 69.2559 107.313 69.0895 106.935 68.7567C106.568 68.4239 106.384 67.873 106.384 67.1041V61.7851H104.783V60.3047H106.384V57.5505H108.191ZM118.605 69.2559V67.9476C118.283 68.4296 117.876 68.8026 117.382 69.0665C116.889 69.3305 116.315 69.4624 115.661 69.4624C114.8 69.4624 114.06 69.2616 113.44 68.8599C112.832 68.4583 112.367 67.9074 112.046 67.2074C111.736 66.4959 111.581 65.6869 111.581 64.7803C111.581 63.8737 111.736 63.0704 112.046 62.3703C112.367 61.6588 112.832 61.1023 113.44 60.7006C114.06 60.2989 114.8 60.0981 115.661 60.0981C116.292 60.0981 116.849 60.2244 117.331 60.4768C117.813 60.7178 118.214 61.0621 118.536 61.5097V60.3047H120.343V69.2559H118.605ZM113.44 64.7803C113.44 65.7328 113.658 66.4959 114.095 67.0697C114.531 67.632 115.167 67.9132 116.005 67.9132C116.843 67.9132 117.48 67.632 117.916 67.0697C118.352 66.4959 118.57 65.7328 118.57 64.7803C118.57 63.8278 118.352 63.0704 117.916 62.5081C117.48 61.9343 116.843 61.6474 116.005 61.6474C115.167 61.6474 114.531 61.9343 114.095 62.5081C113.658 63.0704 113.44 63.8278 113.44 64.7803ZM121.54 56.8619H123.348V69.2559H121.54V56.8619ZM133.672 69.4624C132.398 69.4624 131.308 69.1755 130.401 68.6017C129.494 68.0279 128.812 67.2591 128.353 66.2951C127.894 65.3196 127.664 64.2409 127.664 63.0589C127.664 61.8769 127.894 60.8039 128.353 59.8399C128.812 58.8645 129.494 58.0898 130.401 57.5161C131.308 56.9423 132.398 56.6554 133.672 56.6554C134.624 56.6554 135.473 56.8447 136.219 57.2234C136.977 57.6021 137.585 58.13 138.044 58.8071C138.515 59.4727 138.819 60.2301 138.956 61.0793H137.011C136.851 60.276 136.472 59.6276 135.875 59.1341C135.29 58.6407 134.555 58.394 133.672 58.394C132.788 58.394 132.042 58.6005 131.434 59.0137C130.837 59.4268 130.39 59.9891 130.091 60.7006C129.804 61.4006 129.661 62.1867 129.661 63.0589C129.661 63.9311 129.804 64.7229 130.091 65.4344C130.39 66.1344 130.837 66.691 131.434 67.1041C132.042 67.5173 132.788 67.7238 133.672 67.7238C134.613 67.7238 135.382 67.4427 135.978 66.8804C136.587 66.318 136.96 65.5836 137.097 64.677H139.025C138.91 65.5836 138.624 66.4041 138.164 67.1386C137.705 67.8615 137.092 68.4296 136.323 68.8427C135.554 69.2559 134.67 69.4624 133.672 69.4624ZM144.249 69.4624C143.342 69.4624 142.556 69.2616 141.891 68.8599C141.225 68.4583 140.714 67.9017 140.359 67.1902C140.003 66.4787 139.825 65.6754 139.825 64.7803C139.825 63.8852 140.003 63.0818 140.359 62.3703C140.714 61.6588 141.225 61.1023 141.891 60.7006C142.556 60.2989 143.342 60.0981 144.249 60.0981C145.156 60.0981 145.942 60.2989 146.607 60.7006C147.284 61.1023 147.801 61.6588 148.157 62.3703C148.512 63.0818 148.69 63.8852 148.69 64.7803C148.69 65.6754 148.512 66.4787 148.157 67.1902C147.801 67.9017 147.284 68.4583 146.607 68.8599C145.942 69.2616 145.156 69.4624 144.249 69.4624ZM141.684 64.7803C141.684 65.7328 141.902 66.4959 142.338 67.0697C142.774 67.632 143.411 67.9132 144.249 67.9132C145.098 67.9132 145.741 67.632 146.177 67.0697C146.613 66.4959 146.831 65.7328 146.831 64.7803C146.831 63.8278 146.613 63.0704 146.177 62.5081C145.741 61.9343 145.098 61.6474 144.249 61.6474C143.411 61.6474 142.774 61.9343 142.338 62.5081C141.902 63.0704 141.684 63.8278 141.684 64.7803ZM161.066 63.6786C161.066 63.0818 160.923 62.6056 160.636 62.2498C160.349 61.8826 159.936 61.699 159.397 61.699C158.892 61.699 158.41 61.8941 157.951 62.2843C157.503 62.663 157.279 63.3343 157.279 64.2983V69.2559H155.472V63.6786C155.472 63.0818 155.328 62.6056 155.041 62.2498C154.755 61.8826 154.341 61.699 153.802 61.699C153.297 61.699 152.815 61.8941 152.356 62.2843C151.909 62.663 151.685 63.3343 151.685 64.2983V69.2559H149.877V60.3047H151.616V61.5613C151.891 61.1137 152.253 60.758 152.7 60.494C153.148 60.2301 153.676 60.0981 154.284 60.0981C154.915 60.0981 155.455 60.253 155.902 60.5629C156.361 60.8613 156.705 61.2744 156.935 61.8023C157.256 61.2859 157.658 60.8727 158.14 60.5629C158.633 60.253 159.213 60.0981 159.878 60.0981C160.51 60.0981 161.049 60.253 161.497 60.5629C161.956 60.8613 162.3 61.2687 162.529 61.7851C162.759 62.29 162.874 62.8581 162.874 63.4892V69.2559H161.066V63.6786ZM166.198 60.3047V61.5785C166.519 61.108 166.926 60.7465 167.42 60.494C167.913 60.2301 168.481 60.0981 169.124 60.0981C169.985 60.0981 170.719 60.2989 171.327 60.7006C171.947 61.1023 172.412 61.6588 172.722 62.3703C173.043 63.0704 173.204 63.8737 173.204 64.7803C173.204 65.6869 173.043 66.4959 172.722 67.2074C172.412 67.9074 171.947 68.4583 171.327 68.8599C170.719 69.2616 169.985 69.4624 169.124 69.4624C167.873 69.4624 166.921 68.9977 166.266 68.0681V72.6986H164.459V60.3047H166.198ZM166.215 64.7803C166.215 65.7328 166.433 66.4959 166.869 67.0697C167.305 67.632 167.942 67.9132 168.78 67.9132C169.617 67.9132 170.254 67.632 170.69 67.0697C171.126 66.4959 171.344 65.7328 171.344 64.7803C171.344 63.8278 171.126 63.0704 170.69 62.5081C170.254 61.9343 169.617 61.6474 168.78 61.6474C167.942 61.6474 167.305 61.9343 166.869 62.5081C166.433 63.0704 166.215 63.8278 166.215 64.7803ZM181.407 69.2559V67.9476C181.086 68.4296 180.679 68.8026 180.185 69.0665C179.692 69.3305 179.118 69.4624 178.464 69.4624C177.603 69.4624 176.863 69.2616 176.243 68.8599C175.635 68.4583 175.17 67.9074 174.849 67.2074C174.539 66.4959 174.384 65.6869 174.384 64.7803C174.384 63.8737 174.539 63.0704 174.849 62.3703C175.17 61.6588 175.635 61.1023 176.243 60.7006C176.863 60.2989 177.603 60.0981 178.464 60.0981C179.095 60.0981 179.652 60.2244 180.134 60.4768C180.616 60.7178 181.017 61.0621 181.339 61.5097V60.3047H183.146V69.2559H181.407ZM176.243 64.7803C176.243 65.7328 176.461 66.4959 176.897 67.0697C177.333 67.632 177.97 67.9132 178.808 67.9132C179.646 67.9132 180.283 67.632 180.719 67.0697C181.155 66.4959 181.373 65.7328 181.373 64.7803C181.373 63.8278 181.155 63.0704 180.719 62.5081C180.283 61.9343 179.646 61.6474 178.808 61.6474C177.97 61.6474 177.333 61.9343 176.897 62.5081C176.461 63.0704 176.243 63.8278 176.243 64.7803ZM190.316 63.6786C190.316 63.0704 190.161 62.5884 189.851 62.2326C189.542 61.8769 189.071 61.699 188.44 61.699C188.142 61.699 187.814 61.7736 187.459 61.9228C187.114 62.0605 186.81 62.3244 186.546 62.7146C186.282 63.0933 186.15 63.6212 186.15 64.2983V69.2559H184.343V60.3047H186.082V61.5613C186.403 61.1137 186.799 60.758 187.269 60.494C187.751 60.2301 188.302 60.0981 188.922 60.0981C189.955 60.0981 190.741 60.4194 191.28 61.0621C191.831 61.7047 192.106 62.5138 192.106 63.4892V69.2559H190.316V63.6786ZM196.468 69.0665L192.836 60.3047H194.781L197.346 66.9664L199.876 60.3047H201.821L196.795 72.6986H195.022L196.468 69.0665Z" fill="#F0F5FA"/>
<path d="M234.941 6.91474C236.475 9.20149 237.947 12.0225 237.223 15.0456C234.725 13.619 232.715 11.2898 231.122 8.99041C229.517 6.67555 227.851 4.21402 227.28 1.36084C230.431 2.16497 233.253 4.39718 234.941 6.91474Z" fill="#F0F5FA"/>
<path d="M239.418 20.8495C238.528 18.4607 236.58 16.3778 234.46 15.4063C232.491 14.5054 229.877 13.5652 227.58 14.7197C228.83 16.9094 230.888 18.752 232.991 19.911C234.882 20.953 237.276 22.2154 239.645 21.6728C242.228 21.2782 243.476 18.7135 244.17 16.7734C245.131 14.0924 244.474 10.5119 242.834 7.88159C240.573 8.82179 239.882 11.6113 239.41 13.5849C238.871 15.8315 238.856 18.4538 239.418 20.8495Z" fill="#F0F5FA"/>
<path d="M237.561 24.3017C239.382 25.5972 240.78 27.9659 241.08 30.3976C241.106 27.961 241.771 25.4455 242.838 23.4192C243.814 21.5654 245.176 19.0599 247.6 18.5605C248.551 21.4468 248.244 24.977 246.704 27.3136C245.54 29.0836 243.737 31.3 241.114 31.2407C238.72 31.3626 236.652 29.7312 235.025 28.3702C233.275 26.9058 231.696 24.7653 231.032 22.4522C233.477 21.7441 235.816 23.0605 237.561 24.3017Z" fill="#F0F5FA"/>
<path d="M240.464 39.9655C240.731 37.5827 239.933 35.0065 238.444 33.4148C237.011 31.8802 235.001 30.2076 232.499 30.4739C232.549 32.888 233.76 35.1891 235.01 36.9126C236.175 38.518 237.968 40.5036 240.315 40.7897C242.756 41.202 245.139 39.7116 246.687 37.9578C248.678 35.7012 249.865 32.6726 249.628 29.6395C247.12 29.7013 245.221 31.8609 243.816 33.4941C242.301 35.2554 241.06 37.5737 240.464 39.9655Z" fill="#F0F5FA"/>
<path d="M236.912 42.1351C238.098 44.4882 238.324 47.2879 237.408 49.7528C238.759 47.2166 240.735 45.1655 242.827 43.2704C244.728 41.5479 247.467 39.7343 250.223 40.0777C249.697 43.4774 247.613 47.0031 244.818 48.8154C242.571 50.271 239.849 51.7125 236.988 50.6238C234.635 49.796 233.141 47.4318 232.223 45.2625C231.25 42.9672 230.603 40.321 231.056 37.8098C233.637 38.0404 235.777 39.8849 236.912 42.1351Z" fill="#F0F5FA"/>
<path d="M231.924 58.8239C233.417 56.5567 233.937 53.7187 233.327 51.0547C232.749 48.5313 230.989 46.2267 228.424 45.5101C227.354 47.9415 227.336 50.7691 227.724 53.3338C228.086 55.7067 228.97 58.4758 231.168 59.7992C233.883 61.5169 237.054 60.501 239.656 59.4735C243.015 58.1483 246.047 54.9411 247.465 51.4947C244.53 50.5668 241.53 52.098 239.084 53.3675C236.553 54.6811 233.911 56.5542 231.924 58.8239Z" fill="#F0F5FA"/>
<path d="M220.699 60.6921C220.372 63.1665 220.378 66.3054 222.303 68.2121C224.707 70.6718 228.433 70.2001 231.306 69.6612C235.165 68.9377 239.509 66.316 241.84 62.8237C239 61.2606 235.522 62.2563 232.708 63.0625L232.545 63.1086C229.405 64.0073 226.058 65.4563 223.257 67.4372C225.492 65.4252 227.121 62.472 227.203 59.4942C227.278 56.8299 226.121 53.9784 223.628 52.7063C221.884 54.9854 221.066 57.9129 220.699 60.6921Z" fill="#F0F5FA"/>
<path d="M218.544 78.8192C215.461 78.7542 211.231 78.3873 209.507 75.2103L209.483 75.1667C208.105 72.4812 209.505 69.3425 210.621 67.0197C211.947 64.2583 213.759 61.4444 216.349 59.4247C218.835 61.5637 218.594 64.6216 217.853 67.2786C216.971 70.4381 213.922 73.1301 210.764 74.6626C214.42 73.306 218.411 72.4932 222.208 72.2549L222.594 72.2303C225.645 72.0345 229.616 71.7799 232.044 74.008C228.366 77.1214 223.145 78.916 218.544 78.8192Z" fill="#F0F5FA"/>
<mask id="mask0_815_9040" style="mask-type:luminance" maskUnits="userSpaceOnUse" x="107" y="96" width="64" height="18">
<path d="M170.209 96.0366H107.836V113.756H170.209V96.0366Z" fill="white"/>
</mask>
<g mask="url(#mask0_815_9040)">
<path d="M126.898 96.0366H124.059V113.756H126.898V96.0366Z" fill="#F0F5FA"/>
<path d="M136.844 108.104C136.844 110.816 134.56 111.032 133.881 111.032C132.184 111.032 131.875 109.446 131.875 108.489V101.707H129.035V108.475C129.035 110.154 129.563 111.541 130.489 112.465C131.307 113.282 132.532 113.729 133.86 113.729C134.801 113.729 136.134 113.436 136.844 112.789V113.756H139.684V101.707H136.844V108.104Z" fill="#F0F5FA"/>
<path d="M145.36 97.4536H142.52V101.706H140.391V104.541H142.52V113.756H145.36V104.541H147.49V101.706H145.36V97.4536Z" fill="#F0F5FA"/>
<path d="M156.435 110.153C155.817 110.708 155 111.016 154.104 111.016C152.13 111.016 150.679 109.568 150.679 107.58C150.679 105.592 152.083 104.205 154.104 104.205C154.985 104.205 155.817 104.497 156.451 105.052L156.882 105.422L158.796 103.511L158.317 103.08C157.19 102.064 155.695 101.494 154.104 101.494C150.554 101.494 147.977 104.051 147.977 107.565C147.977 111.063 150.616 113.712 154.104 113.712C155.725 113.712 157.236 113.142 158.348 112.11L158.811 111.679L156.867 109.769L156.435 110.153Z" fill="#F0F5FA"/>
<path d="M168.93 102.757C168.113 101.941 167.154 101.494 165.827 101.494C164.885 101.494 163.819 101.787 163.109 102.433V96.0366H160.27V113.756H163.109V107.119C163.109 104.407 165.039 104.191 165.718 104.191C167.415 104.191 167.369 105.778 167.369 106.734V113.756H170.208V106.749C170.208 105.069 169.857 103.682 168.93 102.757Z" fill="#F0F5FA"/>
<path d="M154.009 105.561C155.144 105.561 156.063 106.477 156.063 107.611C156.063 108.743 155.144 109.661 154.009 109.661C152.876 109.661 151.957 108.743 151.957 107.611C151.958 106.478 152.876 105.561 154.009 105.561Z" fill="#FF3D2E"/>
<path d="M120.09 109.305C119.01 110.415 117.543 111.016 116 111.016C112.837 111.016 110.536 108.535 110.536 105.13C110.536 101.709 112.837 99.2285 116 99.2285C117.528 99.2285 118.979 99.8288 120.075 100.923L120.506 101.355L122.405 99.4595L121.988 99.0279C120.414 97.4097 118.284 96.5322 116 96.5322C111.339 96.5322 107.836 100.23 107.836 105.145C107.836 110.045 111.355 113.727 116 113.727C118.3 113.727 120.43 112.834 122.004 111.216L122.42 110.785L120.538 108.859L120.09 109.305Z" fill="#F0F5FA"/>
</g>
<path d="M156.173 130.97H121.87C119.493 130.97 117.566 132.897 117.566 135.273V150.336C117.566 152.712 119.493 154.639 121.87 154.639H156.173C158.55 154.639 160.477 152.712 160.477 150.336V135.273C160.477 132.897 158.55 130.97 156.173 130.97Z" fill="#8DA5B9" fill-opacity="0.08"/>
<path d="M156.174 131.185H121.871C119.613 131.185 117.782 133.015 117.782 135.273V150.335C117.782 152.593 119.613 154.424 121.871 154.424H156.174C158.432 154.424 160.262 152.593 160.262 150.335V135.273C160.262 133.015 158.432 131.185 156.174 131.185Z" stroke="#8DA5B9" stroke-opacity="0.12" stroke-width="0.430345"/>
<path d="M124.555 146.109L127.94 142.961C128.247 142.662 128.488 142.362 128.662 142.062C128.835 141.762 128.922 141.447 128.922 141.115C128.922 140.737 128.796 140.441 128.543 140.228C128.291 140.007 127.944 139.896 127.502 139.896C127.028 139.896 126.65 140.034 126.366 140.311C126.09 140.587 125.955 140.993 125.963 141.529H124.555C124.555 140.622 124.815 139.916 125.336 139.411C125.857 138.898 126.579 138.642 127.502 138.642C128.062 138.642 128.555 138.748 128.981 138.961C129.415 139.174 129.75 139.466 129.987 139.837C130.224 140.2 130.342 140.606 130.342 141.056C130.342 141.979 129.853 142.89 128.875 143.79L126.449 146.05H130.437V147.305H124.555V146.109ZM135.054 147.447C133.942 147.447 133.133 147.056 132.628 146.275C132.123 145.486 131.871 144.409 131.871 143.044C131.871 141.679 132.123 140.606 132.628 139.825C133.133 139.036 133.942 138.642 135.054 138.642C136.167 138.642 136.975 139.036 137.48 139.825C137.993 140.606 138.25 141.679 138.25 143.044C138.25 144.409 137.993 145.486 137.48 146.275C136.975 147.056 136.167 147.447 135.054 147.447ZM133.386 143.044C133.386 144.07 133.512 144.851 133.764 145.388C134.017 145.924 134.447 146.192 135.054 146.192C135.67 146.192 136.104 145.924 136.356 145.388C136.608 144.851 136.735 144.07 136.735 143.044C136.735 142.019 136.608 141.238 136.356 140.701C136.104 140.165 135.67 139.896 135.054 139.896C134.447 139.896 134.017 140.165 133.764 140.701C133.512 141.238 133.386 142.019 133.386 143.044ZM139.752 146.109L143.136 142.961C143.444 142.662 143.685 142.362 143.858 142.062C144.032 141.762 144.119 141.447 144.119 141.115C144.119 140.737 143.992 140.441 143.74 140.228C143.487 140.007 143.14 139.896 142.698 139.896C142.225 139.896 141.846 140.034 141.562 140.311C141.286 140.587 141.152 140.993 141.16 141.529H139.752C139.752 140.622 140.012 139.916 140.533 139.411C141.053 138.898 141.775 138.642 142.698 138.642C143.259 138.642 143.752 138.748 144.178 138.961C144.612 139.174 144.947 139.466 145.184 139.837C145.42 140.2 145.539 140.606 145.539 141.056C145.539 141.979 145.05 142.89 144.071 143.79L141.645 146.05H145.633V147.305H139.752V146.109ZM146.902 144.121L150.973 138.784H152.547V144.228H153.707V145.482H152.547V147.305H151.091V145.482H146.902V144.121ZM151.115 144.228V140.417L148.263 144.228H151.115Z" fill="#8DA5B9"/>
</svg>
