<svg width="277" height="156" viewBox="0 0 277 156" fill="none" xmlns="http://www.w3.org/2000/svg">
<path d="M40.5864 15.0369C39.8637 12.0134 41.34 9.19381 42.8778 6.90854C44.5706 4.39266 47.3949 2.16267 50.5492 1.36084C49.9762 4.21324 48.306 6.67365 46.6984 8.98684C45.1016 11.2849 43.0877 13.6125 40.5864 15.0369Z" fill="#F0F5FA"/>
<path d="M38.3851 20.8366C38.9493 18.4423 38.9367 15.821 38.3997 13.5752C37.9274 11.6015 37.2403 8.81149 34.9785 7.87006C33.3345 10.4986 32.6737 14.078 33.6318 16.7601C34.3246 18.7001 35.5705 21.2651 38.1543 21.6621C40.5253 22.2069 42.9228 20.9462 44.8163 19.9054C46.9217 18.7483 48.984 16.9073 50.237 14.7186C47.9385 13.5622 45.3208 14.5007 43.3515 15.4C41.2287 16.3696 39.2787 18.4497 38.3851 20.8366Z" fill="#F0F5FA"/>
<path d="M31.0843 27.2976C32.2502 29.0707 34.0545 31.2915 36.6852 31.2283C39.0774 31.3474 41.1442 29.7201 42.7718 28.3619C44.5247 26.8991 46.1069 24.76 46.7748 22.4474C44.328 21.7378 41.9855 23.0523 40.2386 24.2921C38.4144 25.5869 37.0114 27.9567 36.71 30.3899C36.6874 27.9522 36.0255 25.4345 34.9583 23.4063C33.9826 21.5521 32.623 19.0457 30.1973 18.5446C29.2416 21.4298 29.5465 24.9599 31.0843 27.2976Z" fill="#F0F5FA"/>
<path d="M37.4634 40.7777C35.0218 41.1855 32.6402 39.6944 31.0935 37.9406C29.1022 35.6825 27.9173 32.6532 28.159 29.6207C30.6672 29.6842 32.5668 31.8453 33.9709 33.4795C35.4831 35.2395 36.7221 37.5551 37.3164 39.9438C37.055 37.5633 37.8569 34.9927 39.3453 33.4043C40.7821 31.871 42.7947 30.1999 45.2988 30.4681C45.2448 32.882 44.0309 35.1818 42.7788 36.9042C41.6117 38.5094 39.8138 40.4948 37.4634 40.7777Z" fill="#F0F5FA"/>
<path d="M32.9532 48.7986C35.2019 50.2579 37.9291 51.7022 40.7953 50.6091C43.1467 49.7799 44.6417 47.4207 45.5612 45.2553C46.5352 42.961 47.1858 40.3153 46.7353 37.8041C44.1515 38.0327 42.0089 39.8753 40.8709 42.1247C39.6813 44.4762 39.4531 47.2752 40.3669 49.7406C39.0167 47.2043 37.0419 45.152 34.9501 43.2558C33.0486 41.5321 30.3096 39.7162 27.5508 40.0577C28.0757 43.4574 30.157 46.9843 32.9532 48.7986Z" fill="#F0F5FA"/>
<path d="M46.5873 59.7997C48.8001 58.4812 49.6906 55.7067 50.0545 53.3293C50.4469 50.7654 50.4301 47.9378 49.3618 45.5055C46.7945 46.2202 45.0323 48.5234 44.4504 51.0459C43.8357 53.7111 44.3545 56.5516 45.8498 58.8208C43.862 56.5477 41.2188 54.6708 38.6858 53.3547C36.239 52.0834 33.2372 50.5501 30.2988 51.4761C31.7157 54.923 34.7468 58.1322 38.1061 59.4596C40.7077 60.4874 43.8727 61.5039 46.5873 59.7997Z" fill="#F0F5FA"/>
<path d="M57.0776 60.692C57.4024 63.1667 57.3932 66.3056 55.4656 68.2104C53.0567 70.668 49.3287 70.1938 46.4534 69.6531C42.5932 68.9266 38.2479 66.3024 35.9189 62.8082C38.7633 61.2472 42.2419 62.2458 45.0579 63.0541L45.2187 63.1001C48.362 64.0015 51.7116 65.4533 54.513 67.437C52.2774 65.4235 50.6485 62.4682 50.5688 59.4894C50.4971 56.8252 51.6573 53.9748 54.1539 52.7049C55.8969 54.9851 56.7131 57.9127 57.0776 60.692Z" fill="#F0F5FA"/>
<path d="M68.2653 75.2177C69.6849 72.5243 68.2784 69.3631 67.1576 67.0266C65.8325 64.2645 64.0221 61.4495 61.4312 59.4278C58.9433 61.5649 59.1799 64.6228 59.9196 67.2803C60.7991 70.4402 63.8483 73.1338 67.0058 74.6688C63.3489 73.3095 59.3553 72.4937 55.5556 72.2529L55.1707 72.2281C52.1182 72.0299 48.1443 71.7719 45.7119 73.9986C49.3896 77.1149 54.6135 78.9129 59.2176 78.8194C62.303 78.7569 66.5363 78.393 68.2653 75.2177Z" fill="#F0F5FA"/>
<path d="M110.279 9.63226H114.087C114.776 9.63226 115.357 9.75706 115.83 10.0067C116.304 10.2563 116.657 10.5963 116.889 11.0266C117.13 11.4483 117.25 11.9217 117.25 12.4467C117.25 13.1439 117.053 13.7421 116.657 14.2413C116.261 14.7405 115.684 15.0589 114.927 15.1966L117.509 18.9277H116.308L113.79 15.2741H111.299V18.9277H110.279V9.63226ZM114.087 14.3446C114.785 14.3446 115.31 14.1724 115.662 13.8281C116.015 13.4753 116.192 13.0148 116.192 12.4467C116.192 11.8787 116.015 11.4225 115.662 11.0782C115.31 10.734 114.785 10.5618 114.087 10.5618H111.299V14.3446H114.087ZM123.622 18.9277V17.8045C123.373 18.2091 123.054 18.5232 122.667 18.747C122.28 18.9708 121.824 19.0827 121.299 19.0827C120.644 19.0827 120.085 18.932 119.62 18.6308C119.155 18.3296 118.803 17.9121 118.562 17.3785C118.321 16.8449 118.2 16.2424 118.2 15.571C118.2 14.8997 118.321 14.2972 118.562 13.7636C118.803 13.23 119.155 12.8125 119.62 12.5113C120.085 12.2101 120.644 12.0594 121.299 12.0594C121.806 12.0594 122.25 12.1627 122.628 12.3693C123.016 12.5758 123.33 12.8728 123.571 13.2601V12.2144H124.539V18.9277H123.622ZM119.22 15.571C119.22 16.3543 119.405 16.9912 119.775 17.4818C120.154 17.9638 120.696 18.2048 121.402 18.2048C122.116 18.2048 122.658 17.9638 123.029 17.4818C123.407 16.9912 123.597 16.3543 123.597 15.571C123.597 14.7878 123.407 14.1552 123.029 13.6732C122.658 13.1826 122.116 12.9373 121.402 12.9373C120.696 12.9373 120.154 13.1826 119.775 13.6732C119.405 14.1552 119.22 14.7878 119.22 15.571ZM130.075 14.6286C130.075 14.1036 129.937 13.6904 129.662 13.3892C129.395 13.088 128.999 12.9373 128.474 12.9373C128.207 12.9373 127.923 13.0019 127.622 13.131C127.321 13.2601 127.058 13.4925 126.834 13.8281C126.611 14.1552 126.499 14.6028 126.499 15.1708V18.9277H125.531V12.2144H126.46V13.2472C126.692 12.8857 126.994 12.5974 127.364 12.3822C127.734 12.167 128.164 12.0594 128.655 12.0594C129.188 12.0594 129.632 12.1756 129.985 12.408C130.346 12.6318 130.613 12.933 130.785 13.3117C130.957 13.6818 131.043 14.0864 131.043 14.5253V18.9277H130.075V14.6286ZM132.331 9.63226H133.351V15.4807L136.566 12.2144H137.831L135.21 14.8352L138.064 18.9277H136.876L134.526 15.5323L133.351 16.7072V18.9277H132.331V9.63226ZM141.43 19.0827C140.81 19.0827 140.263 18.932 139.79 18.6308C139.325 18.3209 138.964 17.8992 138.706 17.3656C138.456 16.832 138.331 16.2338 138.331 15.571C138.331 14.9083 138.456 14.3101 138.706 13.7765C138.964 13.2429 139.325 12.8254 139.79 12.5242C140.263 12.2144 140.81 12.0594 141.43 12.0594C142.049 12.0594 142.596 12.2144 143.069 12.5242C143.543 12.8254 143.904 13.2429 144.154 13.7765C144.412 14.3101 144.541 14.9083 144.541 15.571V15.9067H139.351C139.403 16.5953 139.609 17.1504 139.971 17.5721C140.332 17.9939 140.819 18.2048 141.43 18.2048C141.894 18.2048 142.299 18.0843 142.643 17.8433C142.996 17.6023 143.25 17.2709 143.405 16.8492H144.399C144.192 17.5291 143.827 18.0713 143.302 18.4759C142.777 18.8804 142.153 19.0827 141.43 19.0827ZM143.482 15.0288C143.405 14.3919 143.19 13.8841 142.837 13.5054C142.484 13.1267 142.015 12.9373 141.43 12.9373C140.853 12.9373 140.384 13.1267 140.022 13.5054C139.67 13.8841 139.454 14.3919 139.377 15.0288H143.482ZM150.63 18.9277V17.8174C150.389 18.222 150.07 18.5361 149.674 18.7599C149.287 18.9751 148.835 19.0827 148.319 19.0827C147.665 19.0827 147.105 18.932 146.64 18.6308C146.176 18.3296 145.823 17.9121 145.582 17.3785C145.341 16.8449 145.22 16.2424 145.22 15.571C145.22 14.8997 145.341 14.2972 145.582 13.7636C145.823 13.23 146.176 12.8125 146.64 12.5113C147.105 12.2101 147.665 12.0594 148.319 12.0594C148.827 12.0594 149.27 12.1627 149.649 12.3693C150.036 12.5758 150.35 12.8728 150.591 13.2601V9.63226H151.559V18.9277H150.63ZM146.24 15.571C146.24 16.3543 146.425 16.9912 146.795 17.4818C147.174 17.9638 147.716 18.2048 148.422 18.2048C149.136 18.2048 149.679 17.9638 150.049 17.4818C150.427 16.9912 150.617 16.3543 150.617 15.571C150.617 14.7878 150.427 14.1552 150.049 13.6732C149.679 13.1826 149.136 12.9373 148.422 12.9373C147.716 12.9373 147.174 13.1826 146.795 13.6732C146.425 14.1552 146.24 14.7878 146.24 15.571ZM159.253 16.1778H157.123L156.594 18.9277H155.625L156.155 16.1778H154.76L154.928 15.3387H156.323L156.736 13.2085H155.341L155.509 12.3822H156.903L157.433 9.63226H158.401L157.872 12.3822H160.002L160.531 9.63226H161.5L160.97 12.3822H162.365L162.197 13.2085H160.802L160.389 15.3387H161.771L161.616 16.1778H160.221L159.692 18.9277H158.724L159.253 16.1778ZM159.421 15.3387L159.834 13.2085H157.704L157.291 15.3387H159.421ZM165.209 10.8459L163.092 12.408V11.2461L165.274 9.63226H166.216V18.9277H165.209V10.8459Z" fill="#F0F5FA"/>
<path d="M80.4282 37.5833H76.3486V35.8619H86.4531V37.5833H82.3734V48.2559H80.4282V37.5833ZM91.377 48.4624C90.4704 48.4624 89.6843 48.2616 89.0187 47.8599C88.3531 47.4583 87.8424 46.9017 87.4867 46.1902C87.1309 45.4787 86.9531 44.6754 86.9531 43.7803C86.9531 42.8852 87.1309 42.0818 87.4867 41.3703C87.8424 40.6588 88.3531 40.1023 89.0187 39.7006C89.6843 39.2989 90.4704 39.0981 91.377 39.0981C92.2836 39.0981 93.0697 39.2989 93.7353 39.7006C94.4124 40.1023 94.9288 40.6588 95.2845 41.3703C95.6403 42.0818 95.8182 42.8852 95.8182 43.7803C95.8182 44.6754 95.6403 45.4787 95.2845 46.1902C94.9288 46.9017 94.4124 47.4583 93.7353 47.8599C93.0697 48.2616 92.2836 48.4624 91.377 48.4624ZM88.8122 43.7803C88.8122 44.7328 89.0302 45.4959 89.4663 46.0697C89.9024 46.632 90.5393 46.9132 91.377 46.9132C92.2262 46.9132 92.8689 46.632 93.305 46.0697C93.741 45.4959 93.9591 44.7328 93.9591 43.7803C93.9591 42.8278 93.741 42.0704 93.305 41.5081C92.8689 40.9343 92.2262 40.6474 91.377 40.6474C90.5393 40.6474 89.9024 40.9343 89.4663 41.5081C89.0302 42.0704 88.8122 42.8278 88.8122 43.7803ZM98.7438 39.3047V40.5785C99.0652 40.108 99.4726 39.7465 99.966 39.494C100.46 39.2301 101.028 39.0981 101.67 39.0981C102.531 39.0981 103.266 39.2989 103.874 39.7006C104.494 40.1023 104.958 40.6588 105.268 41.3703C105.589 42.0704 105.75 42.8737 105.75 43.7803C105.75 44.6869 105.589 45.4959 105.268 46.2074C104.958 46.9074 104.494 47.4583 103.874 47.8599C103.266 48.2616 102.531 48.4624 101.67 48.4624C100.42 48.4624 99.4668 47.9977 98.8127 47.0681V51.6986H97.0053V39.3047H98.7438ZM98.7611 43.7803C98.7611 44.7328 98.9791 45.4959 99.4152 46.0697C99.8513 46.632 100.488 46.9132 101.326 46.9132C102.164 46.9132 102.801 46.632 103.237 46.0697C103.673 45.4959 103.891 44.7328 103.891 43.7803C103.891 42.8278 103.673 42.0704 103.237 41.5081C102.801 40.9343 102.164 40.6474 101.326 40.6474C100.488 40.6474 99.8513 40.9343 99.4152 41.5081C98.9791 42.0704 98.7611 42.8278 98.7611 43.7803ZM117.587 38.3407L115.005 48.2559H112.87L109.307 35.8619H111.321L113.989 45.7254L116.571 35.8619H118.62L121.202 45.7254L123.87 35.8619H125.867L122.321 48.2559H120.169L117.587 38.3407ZM130.605 48.4624C129.744 48.4624 128.987 48.2616 128.333 47.8599C127.678 47.4583 127.173 46.9017 126.818 46.1902C126.473 45.4787 126.301 44.6754 126.301 43.7803C126.301 42.8852 126.473 42.0818 126.818 41.3703C127.173 40.6588 127.678 40.1023 128.333 39.7006C128.987 39.2989 129.744 39.0981 130.605 39.0981C131.477 39.0981 132.234 39.2989 132.877 39.7006C133.531 40.1023 134.03 40.6646 134.375 41.3876C134.73 42.1105 134.908 42.9368 134.908 43.8663V44.3828H128.143C128.235 45.1746 128.487 45.8 128.901 46.2591C129.325 46.7181 129.893 46.9476 130.605 46.9476C131.156 46.9476 131.626 46.8271 132.016 46.5861C132.418 46.3337 132.716 45.9779 132.911 45.5189H134.719C134.432 46.4255 133.927 47.1427 133.204 47.6706C132.481 48.1985 131.615 48.4624 130.605 48.4624ZM133.032 42.954C132.917 42.231 132.647 41.663 132.223 41.2498C131.81 40.8252 131.27 40.6129 130.605 40.6129C129.939 40.6129 129.394 40.8252 128.969 41.2498C128.556 41.663 128.292 42.231 128.178 42.954H133.032ZM136.101 35.8619H137.909V40.4924C138.563 39.5629 139.515 39.0981 140.766 39.0981C141.627 39.0981 142.361 39.2989 142.97 39.7006C143.589 40.1023 144.054 40.6588 144.364 41.3703C144.685 42.0704 144.846 42.8737 144.846 43.7803C144.846 44.6869 144.685 45.4959 144.364 46.2074C144.054 46.9074 143.589 47.4583 142.97 47.8599C142.361 48.2616 141.627 48.4624 140.766 48.4624C140.124 48.4624 139.556 48.3362 139.062 48.0837C138.569 47.8198 138.161 47.4525 137.84 46.982V48.2559H136.101V35.8619ZM137.857 43.7803C137.857 44.7328 138.075 45.4959 138.511 46.0697C138.947 46.632 139.584 46.9132 140.422 46.9132C141.26 46.9132 141.897 46.632 142.333 46.0697C142.769 45.4959 142.987 44.7328 142.987 43.7803C142.987 42.8278 142.769 42.0704 142.333 41.5081C141.897 40.9343 141.26 40.6474 140.422 40.6474C139.584 40.6474 138.947 40.9343 138.511 41.5081C138.075 42.0704 137.857 42.8278 137.857 43.7803ZM149.281 35.8619H153.602C154.956 35.8619 156.092 36.1316 157.01 36.671C157.939 37.2103 158.628 37.9505 159.076 38.8916C159.535 39.8211 159.764 40.8769 159.764 42.0589C159.764 43.2409 159.535 44.3024 159.076 45.2434C158.628 46.173 157.939 46.9074 157.01 47.4468C156.092 47.9862 154.956 48.2559 153.602 48.2559H149.281V35.8619ZM153.602 46.5689C155.002 46.5689 156.046 46.1558 156.734 45.3295C157.423 44.4918 157.767 43.4016 157.767 42.0589C157.767 40.7162 157.423 39.6317 156.734 38.8055C156.046 37.9677 155.002 37.5489 153.602 37.5489H151.192V46.5689H153.602ZM164.859 48.4624C163.998 48.4624 163.241 48.2616 162.587 47.8599C161.933 47.4583 161.428 46.9017 161.072 46.1902C160.728 45.4787 160.556 44.6754 160.556 43.7803C160.556 42.8852 160.728 42.0818 161.072 41.3703C161.428 40.6588 161.933 40.1023 162.587 39.7006C163.241 39.2989 163.998 39.0981 164.859 39.0981C165.731 39.0981 166.489 39.2989 167.131 39.7006C167.785 40.1023 168.285 40.6646 168.629 41.3876C168.985 42.1105 169.163 42.9368 169.163 43.8663V44.3828H162.398C162.489 45.1746 162.742 45.8 163.155 46.2591C163.58 46.7181 164.148 46.9476 164.859 46.9476C165.41 46.9476 165.88 46.8271 166.271 46.5861C166.672 46.3337 166.971 45.9779 167.166 45.5189H168.973C168.686 46.4255 168.181 47.1427 167.458 47.6706C166.735 48.1985 165.869 48.4624 164.859 48.4624ZM167.286 42.954C167.171 42.231 166.902 41.663 166.477 41.2498C166.064 40.8252 165.525 40.6129 164.859 40.6129C164.193 40.6129 163.648 40.8252 163.224 41.2498C162.811 41.663 162.547 42.231 162.432 42.954H167.286ZM173.695 48.4624C172.513 48.4624 171.572 48.21 170.872 47.705C170.172 47.1886 169.793 46.3968 169.736 45.3295H171.509C171.578 45.9492 171.79 46.391 172.146 46.655C172.513 46.9189 173.041 47.0509 173.73 47.0509C174.326 47.0509 174.791 46.9476 175.124 46.741C175.468 46.523 175.64 46.2246 175.64 45.8459C175.64 45.5935 175.589 45.3926 175.485 45.2434C175.382 45.0828 175.176 44.9451 174.866 44.8303C174.567 44.7156 174.103 44.6065 173.471 44.5033C172.565 44.3541 171.859 44.1532 171.354 43.9008C170.849 43.6483 170.493 43.3499 170.287 43.0057C170.08 42.6499 169.977 42.2196 169.977 41.7146C169.977 40.9113 170.293 40.2744 170.924 39.8039C171.566 39.3334 172.41 39.0981 173.454 39.0981C174.659 39.0981 175.589 39.3621 176.243 39.89C176.897 40.4178 177.235 41.1523 177.258 42.0933H175.52C175.508 41.5081 175.319 41.1007 174.952 40.8711C174.585 40.6301 174.085 40.5097 173.454 40.5097C172.961 40.5097 172.553 40.6129 172.232 40.8195C171.911 41.0261 171.75 41.3072 171.75 41.663C171.75 41.9154 171.813 42.122 171.939 42.2827C172.066 42.4319 172.284 42.5638 172.593 42.6786C172.915 42.7819 173.391 42.8852 174.022 42.9884C174.906 43.1376 175.594 43.3327 176.088 43.5737C176.593 43.8032 176.943 44.0959 177.138 44.4516C177.344 44.7959 177.448 45.2262 177.448 45.7426C177.448 46.6033 177.098 47.2747 176.398 47.7567C175.709 48.2272 174.808 48.4624 173.695 48.4624ZM178.381 39.3047H180.188V48.2559H178.381V39.3047ZM178.381 35.8619H180.188V37.7554H178.381V35.8619ZM185.727 51.9052C184.522 51.9052 183.581 51.6355 182.904 51.0961C182.238 50.5682 181.86 49.8281 181.768 48.8756H183.541C183.701 49.9199 184.442 50.442 185.761 50.442C187.46 50.442 188.309 49.633 188.309 48.0149V46.9476C187.655 47.8772 186.697 48.3419 185.434 48.3419C184.574 48.3419 183.833 48.1468 183.214 47.7567C182.605 47.355 182.141 46.8099 181.819 46.1213C181.51 45.4213 181.355 44.6237 181.355 43.7286C181.355 42.8335 181.51 42.0359 181.819 41.3359C182.141 40.6359 182.605 40.0908 183.214 39.7006C183.833 39.2989 184.574 39.0981 185.434 39.0981C186.088 39.0981 186.662 39.2301 187.156 39.494C187.649 39.7465 188.057 40.1137 188.378 40.5957V39.3047H190.099V48.0149C190.099 49.3116 189.698 50.2813 188.894 50.924C188.091 51.5781 187.035 51.9052 185.727 51.9052ZM183.214 43.7286C183.214 44.6697 183.432 45.4213 183.868 45.9836C184.304 46.546 184.941 46.8271 185.779 46.8271C186.616 46.8271 187.253 46.546 187.689 45.9836C188.125 45.4213 188.343 44.6697 188.343 43.7286C188.343 42.7761 188.125 42.0245 187.689 41.4736C187.253 40.9113 186.616 40.6301 185.779 40.6301C184.941 40.6301 184.304 40.9113 183.868 41.4736C183.432 42.0245 183.214 42.7761 183.214 43.7286ZM197.649 42.6786C197.649 42.0704 197.494 41.5884 197.184 41.2326C196.874 40.8769 196.404 40.699 195.773 40.699C195.474 40.699 195.147 40.7736 194.791 40.9228C194.447 41.0605 194.143 41.3244 193.879 41.7146C193.615 42.0933 193.483 42.6212 193.483 43.2983V48.2559H191.676V39.3047H193.414V40.5613C193.736 40.1137 194.132 39.758 194.602 39.494C195.084 39.2301 195.635 39.0981 196.255 39.0981C197.287 39.0981 198.074 39.4194 198.613 40.0621C199.164 40.7047 199.439 41.5138 199.439 42.4892V48.2559H197.649V42.6786ZM107.419 69.4624C106.145 69.4624 105.055 69.1755 104.148 68.6017C103.242 68.0279 102.559 67.2591 102.1 66.2951C101.641 65.3196 101.411 64.2409 101.411 63.0589C101.411 61.8769 101.641 60.8039 102.1 59.8399C102.559 58.8645 103.242 58.0898 104.148 57.5161C105.055 56.9423 106.145 56.6554 107.419 56.6554C108.371 56.6554 109.221 56.8447 109.967 57.2234C110.724 57.6021 111.332 58.13 111.791 58.8071C112.262 59.4727 112.566 60.2301 112.704 61.0793H110.758C110.598 60.276 110.219 59.6276 109.622 59.1341C109.037 58.6407 108.303 58.394 107.419 58.394C106.535 58.394 105.789 58.6005 105.181 59.0137C104.584 59.4268 104.137 59.9891 103.838 60.7006C103.552 61.4006 103.408 62.1867 103.408 63.0589C103.408 63.9311 103.552 64.7229 103.838 65.4344C104.137 66.1344 104.584 66.691 105.181 67.1041C105.789 67.5173 106.535 67.7238 107.419 67.7238C108.36 67.7238 109.129 67.4427 109.726 66.8804C110.334 66.318 110.707 65.5836 110.844 64.677H112.772C112.658 65.5836 112.371 66.4041 111.912 67.1386C111.453 67.8615 110.839 68.4296 110.07 68.8427C109.301 69.2559 108.417 69.4624 107.419 69.4624ZM117.996 69.4624C117.09 69.4624 116.304 69.2616 115.638 68.8599C114.972 68.4583 114.462 67.9017 114.106 67.1902C113.75 66.4787 113.572 65.6754 113.572 64.7803C113.572 63.8852 113.75 63.0818 114.106 62.3703C114.462 61.6588 114.972 61.1023 115.638 60.7006C116.304 60.2989 117.09 60.0981 117.996 60.0981C118.903 60.0981 119.689 60.2989 120.355 60.7006C121.032 61.1023 121.548 61.6588 121.904 62.3703C122.26 63.0818 122.437 63.8852 122.437 64.7803C122.437 65.6754 122.26 66.4787 121.904 67.1902C121.548 67.9017 121.032 68.4583 120.355 68.8599C119.689 69.2616 118.903 69.4624 117.996 69.4624ZM115.431 64.7803C115.431 65.7328 115.649 66.4959 116.085 67.0697C116.522 67.632 117.158 67.9132 117.996 67.9132C118.845 67.9132 119.488 67.632 119.924 67.0697C120.36 66.4959 120.578 65.7328 120.578 64.7803C120.578 63.8278 120.36 63.0704 119.924 62.5081C119.488 61.9343 118.845 61.6474 117.996 61.6474C117.158 61.6474 116.522 61.9343 116.085 62.5081C115.649 63.0704 115.431 63.8278 115.431 64.7803ZM134.813 63.6786C134.813 63.0818 134.67 62.6056 134.383 62.2498C134.096 61.8826 133.683 61.699 133.144 61.699C132.639 61.699 132.157 61.8941 131.698 62.2843C131.25 62.663 131.026 63.3343 131.026 64.2983V69.2559H129.219V63.6786C129.219 63.0818 129.075 62.6056 128.789 62.2498C128.502 61.8826 128.089 61.699 127.549 61.699C127.044 61.699 126.562 61.8941 126.103 62.2843C125.656 62.663 125.432 63.3343 125.432 64.2983V69.2559H123.624V60.3047H125.363V61.5613C125.638 61.1137 126 60.758 126.448 60.494C126.895 60.2301 127.423 60.0981 128.031 60.0981C128.662 60.0981 129.202 60.253 129.649 60.5629C130.108 60.8613 130.453 61.2744 130.682 61.8023C131.003 61.2859 131.405 60.8727 131.887 60.5629C132.381 60.253 132.96 60.0981 133.626 60.0981C134.257 60.0981 134.796 60.253 135.244 60.5629C135.703 60.8613 136.047 61.2687 136.277 61.7851C136.506 62.29 136.621 62.8581 136.621 63.4892V69.2559H134.813V63.6786ZM139.945 60.3047V61.5785C140.266 61.108 140.673 60.7465 141.167 60.494C141.66 60.2301 142.228 60.0981 142.871 60.0981C143.732 60.0981 144.466 60.2989 145.074 60.7006C145.694 61.1023 146.159 61.6588 146.469 62.3703C146.79 63.0704 146.951 63.8737 146.951 64.7803C146.951 65.6869 146.79 66.4959 146.469 67.2074C146.159 67.9074 145.694 68.4583 145.074 68.8599C144.466 69.2616 143.732 69.4624 142.871 69.4624C141.62 69.4624 140.668 68.9977 140.014 68.0681V72.6986H138.206V60.3047H139.945ZM139.962 64.7803C139.962 65.7328 140.18 66.4959 140.616 67.0697C141.052 67.632 141.689 67.9132 142.527 67.9132C143.365 67.9132 144.001 67.632 144.438 67.0697C144.874 66.4959 145.092 65.7328 145.092 64.7803C145.092 63.8278 144.874 63.0704 144.438 62.5081C144.001 61.9343 143.365 61.6474 142.527 61.6474C141.689 61.6474 141.052 61.9343 140.616 62.5081C140.18 63.0704 139.962 63.8278 139.962 64.7803ZM155.155 69.2559V67.9476C154.833 68.4296 154.426 68.8026 153.932 69.0665C153.439 69.3305 152.865 69.4624 152.211 69.4624C151.35 69.4624 150.61 69.2616 149.99 68.8599C149.382 68.4583 148.917 67.9074 148.596 67.2074C148.286 66.4959 148.131 65.6869 148.131 64.7803C148.131 63.8737 148.286 63.0704 148.596 62.3703C148.917 61.6588 149.382 61.1023 149.99 60.7006C150.61 60.2989 151.35 60.0981 152.211 60.0981C152.842 60.0981 153.399 60.2244 153.881 60.4768C154.363 60.7178 154.764 61.0621 155.086 61.5097V60.3047H156.893V69.2559H155.155ZM149.99 64.7803C149.99 65.7328 150.209 66.4959 150.645 67.0697C151.081 67.632 151.718 67.9132 152.555 67.9132C153.393 67.9132 154.03 67.632 154.466 67.0697C154.902 66.4959 155.12 65.7328 155.12 64.7803C155.12 63.8278 154.902 63.0704 154.466 62.5081C154.03 61.9343 153.393 61.6474 152.555 61.6474C151.718 61.6474 151.081 61.9343 150.645 62.5081C150.209 63.0704 149.99 63.8278 149.99 64.7803ZM164.063 63.6786C164.063 63.0704 163.909 62.5884 163.599 62.2326C163.289 61.8769 162.818 61.699 162.187 61.699C161.889 61.699 161.562 61.7736 161.206 61.9228C160.862 62.0605 160.558 62.3244 160.294 62.7146C160.03 63.0933 159.898 63.6212 159.898 64.2983V69.2559H158.09V60.3047H159.829V61.5613C160.15 61.1137 160.546 60.758 161.017 60.494C161.499 60.2301 162.049 60.0981 162.669 60.0981C163.702 60.0981 164.488 60.4194 165.027 61.0621C165.578 61.7047 165.854 62.5138 165.854 63.4892V69.2559H164.063V63.6786ZM170.215 69.0665L166.583 60.3047H168.528L171.093 66.9664L173.623 60.3047H175.568L170.542 72.6986H168.769L170.215 69.0665Z" fill="#F0F5FA"/>
<path d="M233.668 6.91474C235.202 9.20149 236.674 12.0225 235.95 15.0456C233.451 13.619 231.442 11.2898 229.848 8.99041C228.244 6.67555 226.577 4.21402 226.006 1.36084C229.158 2.16497 231.979 4.39718 233.668 6.91474Z" fill="#F0F5FA"/>
<path d="M238.144 20.8495C237.254 18.4607 235.306 16.3778 233.186 15.4063C231.218 14.5054 228.604 13.5652 226.307 14.7197C227.557 16.9094 229.615 18.752 231.718 19.911C233.608 20.953 236.002 22.2154 238.372 21.6728C240.954 21.2782 242.203 18.7135 242.897 16.7734C243.858 14.0924 243.201 10.5119 241.561 7.88159C239.299 8.82179 238.609 11.6113 238.137 13.5849C237.598 15.8315 237.583 18.4538 238.144 20.8495Z" fill="#F0F5FA"/>
<path d="M236.288 24.3017C238.109 25.5972 239.506 27.9659 239.807 30.3976C239.833 27.961 240.497 25.4455 241.564 23.4192C242.54 21.5654 243.902 19.0599 246.326 18.5605C247.278 21.4468 246.97 24.977 245.431 27.3136C244.266 29.0836 242.464 31.3 239.84 31.2407C237.446 31.3626 235.379 29.7312 233.752 28.3702C232.002 26.9058 230.423 24.7653 229.759 22.4522C232.203 21.7441 234.543 23.0605 236.288 24.3017Z" fill="#F0F5FA"/>
<path d="M239.191 39.9655C239.458 37.5827 238.659 35.0065 237.17 33.4148C235.737 31.8802 233.728 30.2076 231.225 30.4739C231.276 32.888 232.487 35.1891 233.737 36.9126C234.901 38.518 236.694 40.5036 239.042 40.7897C241.482 41.202 243.865 39.7116 245.414 37.9578C247.405 35.7012 248.592 32.6726 248.355 29.6395C245.847 29.7013 243.947 31.8609 242.542 33.4941C241.027 35.2554 239.786 37.5737 239.191 39.9655Z" fill="#F0F5FA"/>
<path d="M235.638 42.1351C236.825 44.4882 237.051 47.2879 236.135 49.7528C237.486 47.2166 239.462 45.1655 241.553 43.2704C243.455 41.5479 246.194 39.7343 248.95 40.0777C248.424 43.4774 246.339 47.0031 243.544 48.8154C241.298 50.271 238.575 51.7125 235.715 50.6238C233.362 49.796 231.867 47.4318 230.949 45.2625C229.977 42.9672 229.33 40.321 229.783 37.8098C232.364 38.0404 234.504 39.8849 235.638 42.1351Z" fill="#F0F5FA"/>
<path d="M230.651 58.8239C232.143 56.5567 232.664 53.7187 232.054 51.0547C231.475 48.5313 229.716 46.2267 227.15 45.5101C226.081 47.9415 226.062 50.7691 226.45 53.3338C226.812 55.7067 227.697 58.4758 229.895 59.7992C232.61 61.5169 235.78 60.501 238.383 59.4735C241.742 58.1483 244.774 54.9411 246.192 51.4947C243.257 50.5668 240.256 52.098 237.81 53.3675C235.28 54.6811 232.638 56.5542 230.651 58.8239Z" fill="#F0F5FA"/>
<path d="M219.425 60.6921C219.099 63.1665 219.104 66.3054 221.03 68.2121C223.433 70.6718 227.159 70.2001 230.033 69.6612C233.892 68.9377 238.236 66.316 240.566 62.8237C237.726 61.2606 234.248 62.2563 231.434 63.0625L231.272 63.1086C228.132 64.0073 224.784 65.4563 221.983 67.4372C224.219 65.4252 225.848 62.472 225.93 59.4942C226.004 56.8299 224.848 53.9784 222.355 52.7063C220.61 54.9854 219.793 57.9129 219.425 60.6921Z" fill="#F0F5FA"/>
<path d="M217.27 78.8192C214.188 78.7542 209.957 78.3873 208.233 75.2103L208.209 75.1667C206.832 72.4812 208.232 69.3425 209.347 67.0197C210.674 64.2583 212.486 61.4444 215.076 59.4247C217.561 61.5637 217.32 64.6216 216.58 67.2786C215.697 70.4381 212.648 73.1301 209.491 74.6626C213.146 73.306 217.138 72.4932 220.935 72.2549L221.321 72.2303C224.372 72.0345 228.343 71.7799 230.77 74.008C227.092 77.1214 221.871 78.916 217.27 78.8192Z" fill="#F0F5FA"/>
<mask id="mask0_815_9007" style="mask-type:luminance" maskUnits="userSpaceOnUse" x="107" y="96" width="63" height="18">
<path d="M169.435 96.0366H107.062V113.756H169.435V96.0366Z" fill="white"/>
</mask>
<g mask="url(#mask0_815_9007)">
<path d="M126.12 96.0366H123.28V113.756H126.12V96.0366Z" fill="#F0F5FA"/>
<path d="M136.067 108.104C136.067 110.816 133.783 111.032 133.104 111.032C131.406 111.032 131.097 109.446 131.097 108.489V101.707H128.258V108.475C128.258 110.154 128.786 111.541 129.712 112.465C130.53 113.282 131.755 113.729 133.082 113.729C134.024 113.729 135.357 113.436 136.067 112.789V113.756H138.906V101.707H136.067V108.104Z" fill="#F0F5FA"/>
<path d="M144.582 97.4536H141.742V101.706H139.612V104.541H141.742V113.756H144.582V104.541H146.711V101.706H144.582V97.4536Z" fill="#F0F5FA"/>
<path d="M155.657 110.153C155.038 110.708 154.222 111.016 153.326 111.016C151.351 111.016 149.901 109.568 149.901 107.58C149.901 105.592 151.305 104.205 153.326 104.205C154.206 104.205 155.038 104.497 155.672 105.052L156.103 105.422L158.018 103.511L157.539 103.08C156.412 102.064 154.916 101.494 153.325 101.494C149.776 101.494 147.198 104.051 147.198 107.565C147.198 111.063 149.838 113.712 153.325 113.712C154.946 113.712 156.458 113.142 157.57 112.11L158.033 111.679L156.088 109.769L155.657 110.153Z" fill="#F0F5FA"/>
<path d="M168.152 102.757C167.334 101.941 166.376 101.494 165.048 101.494C164.107 101.494 163.041 101.787 162.331 102.433V96.0366H159.491V113.756H162.331V107.119C162.331 104.407 164.26 104.191 164.94 104.191C166.637 104.191 166.59 105.778 166.59 106.734V113.756H169.43V106.749C169.43 105.069 169.079 103.682 168.152 102.757Z" fill="#F0F5FA"/>
<path d="M153.232 105.561C154.366 105.561 155.286 106.477 155.286 107.611C155.286 108.743 154.366 109.661 153.232 109.661C152.098 109.661 151.18 108.743 151.18 107.611C151.18 106.478 152.099 105.561 153.232 105.561Z" fill="#FF3D2E"/>
<path d="M119.316 109.305C118.236 110.415 116.77 111.016 115.226 111.016C112.063 111.016 109.763 108.535 109.763 105.13C109.763 101.709 112.063 99.2285 115.226 99.2285C116.755 99.2285 118.205 99.8288 119.301 100.923L119.733 101.355L121.631 99.4595L121.215 99.0279C119.641 97.4097 117.511 96.5322 115.226 96.5322C110.566 96.5322 107.062 100.23 107.062 105.145C107.062 110.045 110.582 113.727 115.226 113.727C117.527 113.727 119.656 112.834 121.23 111.216L121.647 110.785L119.764 108.859L119.316 109.305Z" fill="#F0F5FA"/>
</g>
<path d="M155.4 130.97H121.096C118.72 130.97 116.793 132.897 116.793 135.273V150.336C116.793 152.712 118.72 154.639 121.096 154.639H155.4C157.777 154.639 159.703 152.712 159.703 150.336V135.273C159.703 132.897 157.777 130.97 155.4 130.97Z" fill="#8DA5B9" fill-opacity="0.08"/>
<path d="M155.4 131.185H121.096C118.838 131.185 117.008 133.015 117.008 135.273V150.335C117.008 152.593 118.838 154.424 121.096 154.424H155.4C157.657 154.424 159.488 152.593 159.488 150.335V135.273C159.488 133.015 157.657 131.185 155.4 131.185Z" stroke="#8DA5B9" stroke-opacity="0.12" stroke-width="0.430345"/>
<path d="M123.782 146.109L127.166 142.961C127.474 142.662 127.715 142.362 127.888 142.062C128.062 141.762 128.148 141.447 128.148 141.115C128.148 140.737 128.022 140.441 127.77 140.228C127.517 140.007 127.17 139.896 126.728 139.896C126.255 139.896 125.876 140.034 125.592 140.311C125.316 140.587 125.182 140.993 125.19 141.529H123.782C123.782 140.622 124.042 139.916 124.563 139.411C125.083 138.898 125.805 138.642 126.728 138.642C127.289 138.642 127.782 138.748 128.208 138.961C128.642 139.174 128.977 139.466 129.214 139.837C129.45 140.2 129.569 140.606 129.569 141.056C129.569 141.979 129.079 142.89 128.101 143.79L125.675 146.05H129.663V147.305H123.782V146.109ZM134.281 147.447C133.168 147.447 132.36 147.056 131.855 146.275C131.35 145.486 131.097 144.409 131.097 143.044C131.097 141.679 131.35 140.606 131.855 139.825C132.36 139.036 133.168 138.642 134.281 138.642C135.393 138.642 136.202 139.036 136.707 139.825C137.22 140.606 137.476 141.679 137.476 143.044C137.476 144.409 137.22 145.486 136.707 146.275C136.202 147.056 135.393 147.447 134.281 147.447ZM132.612 143.044C132.612 144.07 132.738 144.851 132.991 145.388C133.243 145.924 133.673 146.192 134.281 146.192C134.896 146.192 135.33 145.924 135.583 145.388C135.835 144.851 135.961 144.07 135.961 143.044C135.961 142.019 135.835 141.238 135.583 140.701C135.33 140.165 134.896 139.896 134.281 139.896C133.673 139.896 133.243 140.165 132.991 140.701C132.738 141.238 132.612 142.019 132.612 143.044ZM138.978 146.109L142.363 142.961C142.671 142.662 142.911 142.362 143.085 142.062C143.258 141.762 143.345 141.447 143.345 141.115C143.345 140.737 143.219 140.441 142.966 140.228C142.714 140.007 142.367 139.896 141.925 139.896C141.452 139.896 141.073 140.034 140.789 140.311C140.513 140.587 140.379 140.993 140.387 141.529H138.978C138.978 140.622 139.239 139.916 139.759 139.411C140.28 138.898 141.002 138.642 141.925 138.642C142.485 138.642 142.978 138.748 143.404 138.961C143.838 139.174 144.174 139.466 144.41 139.837C144.647 140.2 144.765 140.606 144.765 141.056C144.765 141.979 144.276 142.89 143.298 143.79L140.872 146.05H144.86V147.305H138.978V146.109ZM146.128 144.121L150.199 138.784H151.773V144.228H152.933V145.482H151.773V147.305H150.318V145.482H146.128V144.121ZM150.341 144.228V140.417L147.489 144.228H150.341Z" fill="#8DA5B9"/>
</svg>
