<svg width="278" height="156" viewBox="0 0 278 156" fill="none" xmlns="http://www.w3.org/2000/svg">
<path d="M52.1294 15.0369C51.4067 12.0134 52.883 9.19381 54.4208 6.90854C56.1135 4.39266 58.9379 2.16267 62.0922 1.36084C61.5191 4.21324 59.849 6.67365 58.2414 8.98684C56.6446 11.2849 54.6307 13.6125 52.1294 15.0369Z" fill="#F0F5FA"/>
<path d="M49.9282 20.8366C50.4923 18.4423 50.4798 15.821 49.9428 13.5752C49.4705 11.6015 48.7833 8.81149 46.5216 7.87006C44.8776 10.4986 44.2167 14.078 45.1749 16.7601C45.8677 18.7001 47.1135 21.2651 49.6974 21.6621C52.0684 22.2069 54.4658 20.9462 56.3593 19.9054C58.4648 18.7483 60.5271 16.9073 61.7801 14.7186C59.4815 13.5622 56.8639 14.5007 54.8946 15.4C52.7718 16.3696 50.8217 18.4497 49.9282 20.8366Z" fill="#F0F5FA"/>
<path d="M42.6272 27.2976C43.7932 29.0707 45.5974 31.2915 48.2282 31.2283C50.6204 31.3474 52.6872 29.7201 54.3148 28.3619C56.0676 26.8991 57.6499 24.76 58.3178 22.4474C55.871 21.7378 53.5284 23.0523 51.7815 24.2921C49.9573 25.5869 48.5544 27.9567 48.253 30.3899C48.2304 27.9522 47.5684 25.4345 46.5012 23.4063C45.5255 21.5521 44.1659 19.0457 41.7402 18.5446C40.7845 21.4298 41.0895 24.9599 42.6272 27.2976Z" fill="#F0F5FA"/>
<path d="M49.0065 40.7777C46.5649 41.1855 44.1833 39.6944 42.6366 37.9406C40.6452 35.6825 39.4604 32.6532 39.702 29.6207C42.2103 29.6842 44.1099 31.8453 45.514 33.4795C47.0262 35.2395 48.2651 37.5551 48.8595 39.9438C48.5981 37.5633 49.3999 34.9927 50.8884 33.4043C52.3251 31.871 54.3377 30.1999 56.8419 30.4681C56.7879 32.882 55.5739 35.1818 54.3219 36.9042C53.1548 38.5094 51.3569 40.4948 49.0065 40.7777Z" fill="#F0F5FA"/>
<path d="M44.4962 48.7986C46.7448 50.2579 49.472 51.7022 52.3382 50.6091C54.6895 49.7799 56.1845 47.4207 57.104 45.2553C58.078 42.961 58.7287 40.3153 58.2783 37.8041C55.6945 38.0327 53.5518 39.8753 52.4138 42.1247C51.2241 44.4762 50.996 47.2752 51.9099 49.7406C50.5596 47.2043 48.5848 45.152 46.493 43.2558C44.5915 41.5321 41.8526 39.7162 39.0938 40.0577C39.6187 43.4574 41.7 46.9843 44.4962 48.7986Z" fill="#F0F5FA"/>
<path d="M58.1303 59.7997C60.3431 58.4812 61.2337 55.7067 61.5976 53.3293C61.9899 50.7654 61.9731 47.9378 60.9048 45.5055C58.3376 46.2202 56.5754 48.5234 55.9935 51.0459C55.3788 53.7111 55.8975 56.5516 57.3929 58.8208C55.4051 56.5477 52.7619 54.6708 50.2288 53.3547C47.782 52.0834 44.7803 50.5501 41.8418 51.4761C43.2588 54.923 46.2898 58.1322 49.6492 59.4596C52.2508 60.4874 55.4158 61.5039 58.1303 59.7997Z" fill="#F0F5FA"/>
<path d="M68.6206 60.692C68.9453 63.1667 68.9362 66.3056 67.0085 68.2104C64.5996 70.668 60.8717 70.1938 57.9963 69.6531C54.1361 68.9266 49.7908 66.3024 47.4619 62.8082C50.3062 61.2472 53.7849 62.2458 56.6009 63.0541L56.7616 63.1001C59.9049 64.0015 63.2546 65.4533 66.056 67.437C63.8204 65.4235 62.1915 62.4682 62.1118 59.4894C62.0401 56.8252 63.2003 53.9748 65.6969 52.7049C67.4399 54.9851 68.2561 57.9127 68.6206 60.692Z" fill="#F0F5FA"/>
<path d="M79.8084 75.2177C81.2279 72.5243 79.8214 69.3631 78.7007 67.0266C77.3756 64.2645 75.5652 61.4495 72.9743 59.4278C70.4864 61.5649 70.723 64.6228 71.4626 67.2803C72.3421 70.4402 75.3913 73.1338 78.5488 74.6688C74.892 73.3095 70.8983 72.4937 67.0986 72.2529L66.7138 72.2281C63.6612 72.0299 59.6873 71.7719 57.2549 73.9986C60.9327 77.1149 66.1566 78.9129 70.7607 78.8194C73.8461 78.7569 78.0794 78.393 79.8084 75.2177Z" fill="#F0F5FA"/>
<path d="M110.822 9.63226H114.63C115.319 9.63226 115.9 9.75706 116.373 10.0067C116.847 10.2563 117.2 10.5963 117.432 11.0266C117.673 11.4483 117.793 11.9217 117.793 12.4467C117.793 13.1439 117.595 13.7421 117.2 14.2413C116.804 14.7405 116.227 15.0589 115.47 15.1966L118.052 18.9277H116.851L114.333 15.2741H111.842V18.9277H110.822V9.63226ZM114.63 14.3446C115.328 14.3446 115.853 14.1724 116.205 13.8281C116.558 13.4753 116.735 13.0148 116.735 12.4467C116.735 11.8787 116.558 11.4225 116.205 11.0782C115.853 10.734 115.328 10.5618 114.63 10.5618H111.842V14.3446H114.63ZM124.165 18.9277V17.8045C123.916 18.2091 123.597 18.5232 123.21 18.747C122.823 18.9708 122.367 19.0827 121.842 19.0827C121.187 19.0827 120.628 18.932 120.163 18.6308C119.698 18.3296 119.346 17.9121 119.105 17.3785C118.864 16.8449 118.743 16.2424 118.743 15.571C118.743 14.8997 118.864 14.2972 119.105 13.7636C119.346 13.23 119.698 12.8125 120.163 12.5113C120.628 12.2101 121.187 12.0594 121.842 12.0594C122.349 12.0594 122.793 12.1627 123.171 12.3693C123.559 12.5758 123.873 12.8728 124.114 13.2601V12.2144H125.082V18.9277H124.165ZM119.763 15.571C119.763 16.3543 119.948 16.9912 120.318 17.4818C120.697 17.9638 121.239 18.2048 121.945 18.2048C122.659 18.2048 123.201 17.9638 123.572 17.4818C123.95 16.9912 124.14 16.3543 124.14 15.571C124.14 14.7878 123.95 14.1552 123.572 13.6732C123.201 13.1826 122.659 12.9373 121.945 12.9373C121.239 12.9373 120.697 13.1826 120.318 13.6732C119.948 14.1552 119.763 14.7878 119.763 15.571ZM130.618 14.6286C130.618 14.1036 130.48 13.6904 130.205 13.3892C129.938 13.088 129.542 12.9373 129.017 12.9373C128.75 12.9373 128.466 13.0019 128.165 13.131C127.864 13.2601 127.601 13.4925 127.377 13.8281C127.154 14.1552 127.042 14.6028 127.042 15.1708V18.9277H126.074V12.2144H127.003V13.2472C127.235 12.8857 127.537 12.5974 127.907 12.3822C128.277 12.167 128.707 12.0594 129.198 12.0594C129.731 12.0594 130.175 12.1756 130.528 12.408C130.889 12.6318 131.156 12.933 131.328 13.3117C131.5 13.6818 131.586 14.0864 131.586 14.5253V18.9277H130.618V14.6286ZM132.874 9.63226H133.894V15.4807L137.109 12.2144H138.374L135.753 14.8352L138.607 18.9277H137.419L135.069 15.5323L133.894 16.7072V18.9277H132.874V9.63226ZM141.973 19.0827C141.353 19.0827 140.806 18.932 140.333 18.6308C139.868 18.3209 139.507 17.8992 139.249 17.3656C138.999 16.832 138.874 16.2338 138.874 15.571C138.874 14.9083 138.999 14.3101 139.249 13.7765C139.507 13.2429 139.868 12.8254 140.333 12.5242C140.806 12.2144 141.353 12.0594 141.973 12.0594C142.592 12.0594 143.139 12.2144 143.612 12.5242C144.086 12.8254 144.447 13.2429 144.697 13.7765C144.955 14.3101 145.084 14.9083 145.084 15.571V15.9067H139.894C139.946 16.5953 140.152 17.1504 140.514 17.5721C140.875 17.9939 141.362 18.2048 141.973 18.2048C142.437 18.2048 142.842 18.0843 143.186 17.8433C143.539 17.6023 143.793 17.2709 143.948 16.8492H144.942C144.735 17.5291 144.37 18.0713 143.845 18.4759C143.32 18.8804 142.696 19.0827 141.973 19.0827ZM144.025 15.0288C143.948 14.3919 143.733 13.8841 143.38 13.5054C143.027 13.1267 142.558 12.9373 141.973 12.9373C141.396 12.9373 140.927 13.1267 140.565 13.5054C140.212 13.8841 139.997 14.3919 139.92 15.0288H144.025ZM151.173 18.9277V17.8174C150.932 18.222 150.613 18.5361 150.217 18.7599C149.83 18.9751 149.378 19.0827 148.862 19.0827C148.208 19.0827 147.648 18.932 147.183 18.6308C146.719 18.3296 146.366 17.9121 146.125 17.3785C145.884 16.8449 145.763 16.2424 145.763 15.571C145.763 14.8997 145.884 14.2972 146.125 13.7636C146.366 13.23 146.719 12.8125 147.183 12.5113C147.648 12.2101 148.208 12.0594 148.862 12.0594C149.37 12.0594 149.813 12.1627 150.192 12.3693C150.579 12.5758 150.893 12.8728 151.134 13.2601V9.63226H152.102V18.9277H151.173ZM146.783 15.571C146.783 16.3543 146.968 16.9912 147.338 17.4818C147.717 17.9638 148.259 18.2048 148.965 18.2048C149.679 18.2048 150.222 17.9638 150.592 17.4818C150.97 16.9912 151.16 16.3543 151.16 15.571C151.16 14.7878 150.97 14.1552 150.592 13.6732C150.222 13.1826 149.679 12.9373 148.965 12.9373C148.259 12.9373 147.717 13.1826 147.338 13.6732C146.968 14.1552 146.783 14.7878 146.783 15.571ZM159.796 16.1778H157.666L157.137 18.9277H156.168L156.698 16.1778H155.303L155.471 15.3387H156.865L157.279 13.2085H155.884L156.052 12.3822H157.446L157.976 9.63226H158.944L158.415 12.3822H160.545L161.074 9.63226H162.043L161.513 12.3822H162.908L162.74 13.2085H161.345L160.932 15.3387H162.314L162.159 16.1778H160.764L160.235 18.9277H159.267L159.796 16.1778ZM159.964 15.3387L160.377 13.2085H158.247L157.834 15.3387H159.964ZM165.752 10.8459L163.635 12.408V11.2461L165.816 9.63226H166.759V18.9277H165.752V10.8459Z" fill="#F0F5FA"/>
<path d="M91.9723 37.5833H87.8926V35.8619H97.9971V37.5833H93.9175V48.2559H91.9723V37.5833ZM102.921 48.4624C102.015 48.4624 101.229 48.2616 100.563 47.8599C99.8972 47.4583 99.3865 46.9017 99.0308 46.1902C98.675 45.4787 98.4971 44.6754 98.4971 43.7803C98.4971 42.8852 98.675 42.0818 99.0308 41.3703C99.3865 40.6588 99.8972 40.1023 100.563 39.7006C101.229 39.2989 102.015 39.0981 102.921 39.0981C103.828 39.0981 104.614 39.2989 105.28 39.7006C105.957 40.1023 106.473 40.6588 106.829 41.3703C107.185 42.0818 107.363 42.8852 107.363 43.7803C107.363 44.6754 107.185 45.4787 106.829 46.1902C106.473 46.9017 105.957 47.4583 105.28 47.8599C104.614 48.2616 103.828 48.4624 102.921 48.4624ZM100.357 43.7803C100.357 44.7328 100.575 45.4959 101.011 46.0697C101.447 46.632 102.084 46.9132 102.921 46.9132C103.771 46.9132 104.413 46.632 104.849 46.0697C105.285 45.4959 105.503 44.7328 105.503 43.7803C105.503 42.8278 105.285 42.0704 104.849 41.5081C104.413 40.9343 103.771 40.6474 102.921 40.6474C102.084 40.6474 101.447 40.9343 101.011 41.5081C100.575 42.0704 100.357 42.8278 100.357 43.7803ZM110.288 39.3047V40.5785C110.61 40.108 111.017 39.7465 111.51 39.494C112.004 39.2301 112.572 39.0981 113.215 39.0981C114.075 39.0981 114.81 39.2989 115.418 39.7006C116.038 40.1023 116.502 40.6588 116.812 41.3703C117.134 42.0704 117.294 42.8737 117.294 43.7803C117.294 44.6869 117.134 45.4959 116.812 46.2074C116.502 46.9074 116.038 47.4583 115.418 47.8599C114.81 48.2616 114.075 48.4624 113.215 48.4624C111.964 48.4624 111.011 47.9977 110.357 47.0681V51.6986H108.55V39.3047H110.288ZM110.305 43.7803C110.305 44.7328 110.523 45.4959 110.96 46.0697C111.396 46.632 112.033 46.9132 112.87 46.9132C113.708 46.9132 114.345 46.632 114.781 46.0697C115.217 45.4959 115.435 44.7328 115.435 43.7803C115.435 42.8278 115.217 42.0704 114.781 41.5081C114.345 40.9343 113.708 40.6474 112.87 40.6474C112.033 40.6474 111.396 40.9343 110.96 41.5081C110.523 42.0704 110.305 42.8278 110.305 43.7803ZM121.729 35.8619H126.515C127.949 35.8619 129.039 36.166 129.785 36.7743C130.531 37.3825 130.904 38.1915 130.904 39.2014C130.904 40.3719 130.411 41.2269 129.424 41.7663C130.078 42.0302 130.571 42.4146 130.904 42.9196C131.248 43.4245 131.421 44.0213 131.421 44.7098C131.421 45.8 131.048 46.6665 130.302 47.3091C129.567 47.9403 128.477 48.2559 127.031 48.2559H121.729V35.8619ZM127.048 46.6033C128.678 46.6033 129.493 45.9607 129.493 44.6754C129.493 43.3901 128.678 42.7474 127.048 42.7474H123.64V46.6033H127.048ZM126.601 41.1293C127.415 41.1293 128.024 40.9744 128.425 40.6646C128.827 40.3433 129.028 39.8957 129.028 39.3219C129.028 38.7481 128.827 38.3063 128.425 37.9964C128.024 37.6751 127.415 37.5145 126.601 37.5145H123.64V41.1293H126.601ZM132.458 39.3047H134.197V40.8539C134.771 39.7522 135.695 39.2014 136.969 39.2014H137.657V40.9056H136.917C136.091 40.9056 135.442 41.1179 134.972 41.5425C134.501 41.9671 134.266 42.6843 134.266 43.6942V48.2559H132.458V39.3047ZM145.725 48.2559V46.9476C145.404 47.4296 144.997 47.8026 144.503 48.0665C144.01 48.3305 143.436 48.4624 142.782 48.4624C141.921 48.4624 141.181 48.2616 140.561 47.8599C139.953 47.4583 139.488 46.9074 139.167 46.2074C138.857 45.4959 138.702 44.6869 138.702 43.7803C138.702 42.8737 138.857 42.0704 139.167 41.3703C139.488 40.6588 139.953 40.1023 140.561 39.7006C141.181 39.2989 141.921 39.0981 142.782 39.0981C143.413 39.0981 143.97 39.2244 144.452 39.4768C144.934 39.7178 145.335 40.0621 145.657 40.5097V39.3047H147.464V48.2559H145.725ZM140.561 43.7803C140.561 44.7328 140.779 45.4959 141.215 46.0697C141.652 46.632 142.288 46.9132 143.126 46.9132C143.964 46.9132 144.601 46.632 145.037 46.0697C145.473 45.4959 145.691 44.7328 145.691 43.7803C145.691 42.8278 145.473 42.0704 145.037 41.5081C144.601 40.9343 143.964 40.6474 143.126 40.6474C142.288 40.6474 141.652 40.9343 141.215 41.5081C140.779 42.0704 140.561 42.8278 140.561 43.7803ZM154.634 42.6786C154.634 42.0704 154.479 41.5884 154.17 41.2326C153.86 40.8769 153.389 40.699 152.758 40.699C152.46 40.699 152.133 40.7736 151.777 40.9228C151.433 41.0605 151.128 41.3244 150.864 41.7146C150.601 42.0933 150.469 42.6212 150.469 43.2983V48.2559H148.661V39.3047H150.4V40.5613C150.721 40.1137 151.117 39.758 151.587 39.494C152.069 39.2301 152.62 39.0981 153.24 39.0981C154.273 39.0981 155.059 39.4194 155.598 40.0621C156.149 40.7047 156.425 41.5138 156.425 42.4892V48.2559H154.634V42.6786ZM164.642 48.2559V46.982C164.32 47.4525 163.913 47.8198 163.42 48.0837C162.926 48.3362 162.358 48.4624 161.715 48.4624C160.855 48.4624 160.114 48.2616 159.495 47.8599C158.887 47.4583 158.422 46.9074 158.1 46.2074C157.791 45.4959 157.636 44.6869 157.636 43.7803C157.636 42.8737 157.791 42.0704 158.1 41.3703C158.422 40.6588 158.887 40.1023 159.495 39.7006C160.114 39.2989 160.855 39.0981 161.715 39.0981C162.966 39.0981 163.919 39.5629 164.573 40.4924V35.8619H166.38V48.2559H164.642ZM159.495 43.7803C159.495 44.7328 159.713 45.4959 160.149 46.0697C160.585 46.632 161.222 46.9132 162.06 46.9132C162.897 46.9132 163.534 46.632 163.97 46.0697C164.406 45.4959 164.624 44.7328 164.624 43.7803C164.624 42.8278 164.406 42.0704 163.97 41.5081C163.534 40.9343 162.897 40.6474 162.06 40.6474C161.222 40.6474 160.585 40.9343 160.149 41.5081C159.713 42.0704 159.495 42.8278 159.495 43.7803ZM167.922 39.3047H169.73V48.2559H167.922V39.3047ZM167.922 35.8619H169.73V37.7554H167.922V35.8619ZM177.266 42.6786C177.266 42.0704 177.111 41.5884 176.801 41.2326C176.491 40.8769 176.02 40.699 175.389 40.699C175.091 40.699 174.764 40.7736 174.408 40.9228C174.064 41.0605 173.76 41.3244 173.496 41.7146C173.232 42.0933 173.1 42.6212 173.1 43.2983V48.2559H171.292V39.3047H173.031V40.5613C173.352 40.1137 173.748 39.758 174.219 39.494C174.701 39.2301 175.252 39.0981 175.871 39.0981C176.904 39.0981 177.69 39.4194 178.23 40.0621C178.78 40.7047 179.056 41.5138 179.056 42.4892V48.2559H177.266V42.6786ZM184.639 51.9052C183.434 51.9052 182.493 51.6355 181.816 51.0961C181.151 50.5682 180.772 49.8281 180.68 48.8756H182.453C182.614 49.9199 183.354 50.442 184.674 50.442C186.372 50.442 187.221 49.633 187.221 48.0149V46.9476C186.567 47.8772 185.609 48.3419 184.347 48.3419C183.486 48.3419 182.746 48.1468 182.126 47.7567C181.518 47.355 181.053 46.8099 180.732 46.1213C180.422 45.4213 180.267 44.6237 180.267 43.7286C180.267 42.8335 180.422 42.0359 180.732 41.3359C181.053 40.6359 181.518 40.0908 182.126 39.7006C182.746 39.2989 183.486 39.0981 184.347 39.0981C185.001 39.0981 185.575 39.2301 186.068 39.494C186.561 39.7465 186.969 40.1137 187.29 40.5957V39.3047H189.012V48.0149C189.012 49.3116 188.61 50.2813 187.807 50.924C187.003 51.5781 185.948 51.9052 184.639 51.9052ZM182.126 43.7286C182.126 44.6697 182.344 45.4213 182.78 45.9836C183.216 46.546 183.853 46.8271 184.691 46.8271C185.529 46.8271 186.166 46.546 186.602 45.9836C187.038 45.4213 187.256 44.6697 187.256 43.7286C187.256 42.7761 187.038 42.0245 186.602 41.4736C186.166 40.9113 185.529 40.6301 184.691 40.6301C183.853 40.6301 183.216 40.9113 182.78 41.4736C182.344 42.0245 182.126 42.7761 182.126 43.7286ZM108.168 69.4624C106.895 69.4624 105.804 69.1755 104.898 68.6017C103.991 68.0279 103.308 67.2591 102.849 66.2951C102.39 65.3196 102.161 64.2409 102.161 63.0589C102.161 61.8769 102.39 60.8039 102.849 59.8399C103.308 58.8645 103.991 58.0898 104.898 57.5161C105.804 56.9423 106.895 56.6554 108.168 56.6554C109.121 56.6554 109.97 56.8447 110.716 57.2234C111.473 57.6021 112.082 58.13 112.541 58.8071C113.011 59.4727 113.315 60.2301 113.453 61.0793H111.508C111.347 60.276 110.969 59.6276 110.372 59.1341C109.787 58.6407 109.052 58.394 108.168 58.394C107.285 58.394 106.539 58.6005 105.931 59.0137C105.334 59.4268 104.886 59.9891 104.588 60.7006C104.301 61.4006 104.158 62.1867 104.158 63.0589C104.158 63.9311 104.301 64.7229 104.588 65.4344C104.886 66.1344 105.334 66.691 105.931 67.1041C106.539 67.5173 107.285 67.7238 108.168 67.7238C109.109 67.7238 109.878 67.4427 110.475 66.8804C111.083 66.318 111.456 65.5836 111.594 64.677H113.522C113.407 65.5836 113.12 66.4041 112.661 67.1386C112.202 67.8615 111.588 68.4296 110.819 68.8427C110.05 69.2559 109.167 69.4624 108.168 69.4624ZM118.746 69.4624C117.839 69.4624 117.053 69.2616 116.387 68.8599C115.722 68.4583 115.211 67.9017 114.855 67.1902C114.5 66.4787 114.322 65.6754 114.322 64.7803C114.322 63.8852 114.5 63.0818 114.855 62.3703C115.211 61.6588 115.722 61.1023 116.387 60.7006C117.053 60.2989 117.839 60.0981 118.746 60.0981C119.652 60.0981 120.438 60.2989 121.104 60.7006C121.781 61.1023 122.298 61.6588 122.653 62.3703C123.009 63.0818 123.187 63.8852 123.187 64.7803C123.187 65.6754 123.009 66.4787 122.653 67.1902C122.298 67.9017 121.781 68.4583 121.104 68.8599C120.438 69.2616 119.652 69.4624 118.746 69.4624ZM116.181 64.7803C116.181 65.7328 116.399 66.4959 116.835 67.0697C117.271 67.632 117.908 67.9132 118.746 67.9132C119.595 67.9132 120.238 67.632 120.674 67.0697C121.11 66.4959 121.328 65.7328 121.328 64.7803C121.328 63.8278 121.11 63.0704 120.674 62.5081C120.238 61.9343 119.595 61.6474 118.746 61.6474C117.908 61.6474 117.271 61.9343 116.835 62.5081C116.399 63.0704 116.181 63.8278 116.181 64.7803ZM135.563 63.6786C135.563 63.0818 135.42 62.6056 135.133 62.2498C134.846 61.8826 134.433 61.699 133.893 61.699C133.388 61.699 132.906 61.8941 132.447 62.2843C132 62.663 131.776 63.3343 131.776 64.2983V69.2559H129.968V63.6786C129.968 63.0818 129.825 62.6056 129.538 62.2498C129.251 61.8826 128.838 61.699 128.299 61.699C127.794 61.699 127.312 61.8941 126.853 62.2843C126.405 62.663 126.181 63.3343 126.181 64.2983V69.2559H124.374V60.3047H126.113V61.5613C126.388 61.1137 126.75 60.758 127.197 60.494C127.645 60.2301 128.173 60.0981 128.781 60.0981C129.412 60.0981 129.951 60.253 130.399 60.5629C130.858 60.8613 131.202 61.2744 131.432 61.8023C131.753 61.2859 132.155 60.8727 132.637 60.5629C133.13 60.253 133.71 60.0981 134.375 60.0981C135.006 60.0981 135.546 60.253 135.993 60.5629C136.452 60.8613 136.797 61.2687 137.026 61.7851C137.256 62.29 137.37 62.8581 137.37 63.4892V69.2559H135.563V63.6786ZM140.694 60.3047V61.5785C141.016 61.108 141.423 60.7465 141.916 60.494C142.41 60.2301 142.978 60.0981 143.621 60.0981C144.481 60.0981 145.216 60.2989 145.824 60.7006C146.444 61.1023 146.908 61.6588 147.218 62.3703C147.54 63.0704 147.7 63.8737 147.7 64.7803C147.7 65.6869 147.54 66.4959 147.218 67.2074C146.908 67.9074 146.444 68.4583 145.824 68.8599C145.216 69.2616 144.481 69.4624 143.621 69.4624C142.37 69.4624 141.417 68.9977 140.763 68.0681V72.6986H138.956V60.3047H140.694ZM140.712 64.7803C140.712 65.7328 140.93 66.4959 141.366 67.0697C141.802 67.632 142.439 67.9132 143.276 67.9132C144.114 67.9132 144.751 67.632 145.187 67.0697C145.623 66.4959 145.841 65.7328 145.841 64.7803C145.841 63.8278 145.623 63.0704 145.187 62.5081C144.751 61.9343 144.114 61.6474 143.276 61.6474C142.439 61.6474 141.802 61.9343 141.366 62.5081C140.93 63.0704 140.712 63.8278 140.712 64.7803ZM155.904 69.2559V67.9476C155.583 68.4296 155.175 68.8026 154.682 69.0665C154.189 69.3305 153.615 69.4624 152.961 69.4624C152.1 69.4624 151.36 69.2616 150.74 68.8599C150.132 68.4583 149.667 67.9074 149.346 67.2074C149.036 66.4959 148.881 65.6869 148.881 64.7803C148.881 63.8737 149.036 63.0704 149.346 62.3703C149.667 61.6588 150.132 61.1023 150.74 60.7006C151.36 60.2989 152.1 60.0981 152.961 60.0981C153.592 60.0981 154.148 60.2244 154.63 60.4768C155.112 60.7178 155.514 61.0621 155.835 61.5097V60.3047H157.643V69.2559H155.904ZM150.74 64.7803C150.74 65.7328 150.958 66.4959 151.394 67.0697C151.83 67.632 152.467 67.9132 153.305 67.9132C154.143 67.9132 154.78 67.632 155.216 67.0697C155.652 66.4959 155.87 65.7328 155.87 64.7803C155.87 63.8278 155.652 63.0704 155.216 62.5081C154.78 61.9343 154.143 61.6474 153.305 61.6474C152.467 61.6474 151.83 61.9343 151.394 62.5081C150.958 63.0704 150.74 63.8278 150.74 64.7803ZM164.813 63.6786C164.813 63.0704 164.658 62.5884 164.348 62.2326C164.038 61.8769 163.568 61.699 162.937 61.699C162.638 61.699 162.311 61.7736 161.955 61.9228C161.611 62.0605 161.307 62.3244 161.043 62.7146C160.779 63.0933 160.647 63.6212 160.647 64.2983V69.2559H158.84V60.3047H160.578V61.5613C160.9 61.1137 161.296 60.758 161.766 60.494C162.248 60.2301 162.799 60.0981 163.419 60.0981C164.451 60.0981 165.238 60.4194 165.777 61.0621C166.328 61.7047 166.603 62.5138 166.603 63.4892V69.2559H164.813V63.6786ZM170.964 69.0665L167.332 60.3047H169.278L171.842 66.9664L174.373 60.3047H176.318L171.292 72.6986H169.519L170.964 69.0665Z" fill="#F0F5FA"/>
<path d="M223.211 6.91474C224.745 9.20149 226.217 12.0225 225.493 15.0456C222.994 13.619 220.985 11.2898 219.391 8.99041C217.787 6.67555 216.12 4.21402 215.549 1.36084C218.701 2.16497 221.522 4.39718 223.211 6.91474Z" fill="#F0F5FA"/>
<path d="M227.687 20.8495C226.797 18.4607 224.849 16.3778 222.729 15.4063C220.761 14.5054 218.147 13.5652 215.85 14.7197C217.1 16.9094 219.158 18.752 221.261 19.911C223.151 20.953 225.545 22.2154 227.915 21.6728C230.497 21.2782 231.746 18.7135 232.44 16.7734C233.401 14.0924 232.744 10.5119 231.104 7.88159C228.842 8.82179 228.152 11.6113 227.68 13.5849C227.14 15.8315 227.126 18.4538 227.687 20.8495Z" fill="#F0F5FA"/>
<path d="M225.831 24.3017C227.652 25.5972 229.049 27.9659 229.35 30.3976C229.376 27.961 230.04 25.4455 231.107 23.4192C232.083 21.5654 233.445 19.0599 235.869 18.5605C236.821 21.4468 236.513 24.977 234.974 27.3136C233.809 29.0836 232.007 31.3 229.383 31.2407C226.989 31.3626 224.922 29.7312 223.295 28.3702C221.545 26.9058 219.966 24.7653 219.302 22.4522C221.746 21.7441 224.086 23.0605 225.831 24.3017Z" fill="#F0F5FA"/>
<path d="M228.734 39.9655C229.001 37.5827 228.202 35.0065 226.713 33.4148C225.28 31.8802 223.271 30.2076 220.768 30.4739C220.819 32.888 222.03 35.1891 223.28 36.9126C224.444 38.518 226.237 40.5036 228.585 40.7897C231.025 41.202 233.408 39.7116 234.957 37.9578C236.948 35.7012 238.135 32.6726 237.898 29.6395C235.39 29.7013 233.49 31.8609 232.085 33.4941C230.57 35.2554 229.329 37.5737 228.734 39.9655Z" fill="#F0F5FA"/>
<path d="M225.181 42.1351C226.368 44.4882 226.594 47.2879 225.678 49.7528C227.029 47.2166 229.005 45.1655 231.096 43.2704C232.998 41.5479 235.737 39.7343 238.493 40.0777C237.967 43.4774 235.882 47.0031 233.087 48.8154C230.841 50.271 228.118 51.7125 225.258 50.6238C222.905 49.796 221.41 47.4318 220.492 45.2625C219.52 42.9672 218.873 40.321 219.326 37.8098C221.907 38.0404 224.047 39.8849 225.181 42.1351Z" fill="#F0F5FA"/>
<path d="M220.194 58.8239C221.686 56.5567 222.207 53.7187 221.597 51.0547C221.018 48.5313 219.259 46.2267 216.693 45.5101C215.624 47.9415 215.605 50.7691 215.993 53.3338C216.355 55.7067 217.24 58.4758 219.438 59.7992C222.153 61.5169 225.323 60.501 227.926 59.4735C231.285 58.1483 234.317 54.9411 235.735 51.4947C232.8 50.5668 229.799 52.098 227.353 53.3675C224.823 54.6811 222.181 56.5542 220.194 58.8239Z" fill="#F0F5FA"/>
<path d="M208.968 60.6921C208.642 63.1665 208.647 66.3054 210.573 68.2121C212.976 70.6718 216.702 70.2001 219.576 69.6612C223.435 68.9377 227.779 66.316 230.109 62.8237C227.269 61.2606 223.791 62.2563 220.977 63.0625L220.815 63.1086C217.675 64.0073 214.327 65.4563 211.526 67.4372C213.762 65.4252 215.391 62.472 215.473 59.4942C215.547 56.8299 214.391 53.9784 211.898 52.7063C210.153 54.9854 209.336 57.9129 208.968 60.6921Z" fill="#F0F5FA"/>
<path d="M206.813 78.8192C203.731 78.7542 199.5 78.3873 197.776 75.2103L197.752 75.1667C196.375 72.4812 197.774 69.3425 198.89 67.0197C200.217 64.2583 202.029 61.4444 204.619 59.4247C207.104 61.5637 206.863 64.6216 206.123 67.2786C205.24 70.4381 202.191 73.1301 199.034 74.6626C202.689 73.306 206.681 72.4932 210.478 72.2549L210.864 72.2303C213.915 72.0345 217.885 71.7799 220.313 74.008C216.635 77.1214 211.414 78.916 206.813 78.8192Z" fill="#F0F5FA"/>
<mask id="mask0_815_9073" style="mask-type:luminance" maskUnits="userSpaceOnUse" x="107" y="96" width="63" height="18">
<path d="M169.979 96.0366H107.605V113.756H169.979V96.0366Z" fill="white"/>
</mask>
<g mask="url(#mask0_815_9073)">
<path d="M126.668 96.0366H123.828V113.756H126.668V96.0366Z" fill="#F0F5FA"/>
<path d="M136.615 108.104C136.615 110.816 134.331 111.032 133.652 111.032C131.954 111.032 131.645 109.446 131.645 108.489V101.707H128.806V108.475C128.806 110.154 129.334 111.541 130.26 112.465C131.077 113.282 132.303 113.729 133.63 113.729C134.572 113.729 135.905 113.436 136.615 112.789V113.756H139.454V101.707H136.615V108.104Z" fill="#F0F5FA"/>
<path d="M145.13 97.4536H142.29V101.706H140.16V104.541H142.29V113.756H145.13V104.541H147.259V101.706H145.13V97.4536Z" fill="#F0F5FA"/>
<path d="M156.205 110.153C155.586 110.708 154.77 111.016 153.874 111.016C151.899 111.016 150.449 109.568 150.449 107.58C150.449 105.592 151.853 104.205 153.874 104.205C154.754 104.205 155.586 104.497 156.22 105.052L156.651 105.422L158.566 103.511L158.087 103.08C156.96 102.064 155.464 101.494 153.873 101.494C150.324 101.494 147.746 104.051 147.746 107.565C147.746 111.063 150.386 113.712 153.873 113.712C155.494 113.712 157.005 113.142 158.118 112.11L158.581 111.679L156.636 109.769L156.205 110.153Z" fill="#F0F5FA"/>
<path d="M168.7 102.757C167.882 101.941 166.924 101.494 165.596 101.494C164.655 101.494 163.589 101.787 162.879 102.433V96.0366H160.039V113.756H162.879V107.119C162.879 104.407 164.808 104.191 165.488 104.191C167.185 104.191 167.138 105.778 167.138 106.734V113.756H169.978V106.749C169.978 105.069 169.626 103.682 168.7 102.757Z" fill="#F0F5FA"/>
<path d="M153.776 105.561C154.91 105.561 155.83 106.477 155.83 107.611C155.83 108.743 154.91 109.661 153.776 109.661C152.642 109.661 151.724 108.743 151.724 107.611C151.724 106.478 152.643 105.561 153.776 105.561Z" fill="#FF3D2E"/>
<path d="M119.859 109.305C118.779 110.415 117.313 111.016 115.769 111.016C112.606 111.016 110.306 108.535 110.306 105.13C110.306 101.709 112.606 99.2285 115.769 99.2285C117.298 99.2285 118.748 99.8288 119.844 100.923L120.276 101.355L122.174 99.4595L121.757 99.0279C120.184 97.4097 118.054 96.5322 115.769 96.5322C111.109 96.5322 107.605 100.23 107.605 105.145C107.605 110.045 111.124 113.727 115.769 113.727C118.07 113.727 120.199 112.834 121.773 111.216L122.19 110.785L120.307 108.859L119.859 109.305Z" fill="#F0F5FA"/>
</g>
<path d="M155.943 130.97H121.639C119.263 130.97 117.336 132.897 117.336 135.273V150.336C117.336 152.712 119.263 154.639 121.639 154.639H155.943C158.32 154.639 160.246 152.712 160.246 150.336V135.273C160.246 132.897 158.32 130.97 155.943 130.97Z" fill="#8DA5B9" fill-opacity="0.08"/>
<path d="M155.942 131.185H121.639C119.381 131.185 117.551 133.015 117.551 135.273V150.335C117.551 152.593 119.381 154.424 121.639 154.424H155.942C158.2 154.424 160.031 152.593 160.031 150.335V135.273C160.031 133.015 158.2 131.185 155.942 131.185Z" stroke="#8DA5B9" stroke-opacity="0.12" stroke-width="0.430345"/>
<path d="M124.325 146.109L127.709 142.961C128.017 142.662 128.258 142.362 128.431 142.062C128.605 141.762 128.691 141.447 128.691 141.115C128.691 140.737 128.565 140.441 128.313 140.228C128.06 140.007 127.713 139.896 127.271 139.896C126.798 139.896 126.419 140.034 126.135 140.311C125.859 140.587 125.725 140.993 125.733 141.529H124.325C124.325 140.622 124.585 139.916 125.106 139.411C125.626 138.898 126.348 138.642 127.271 138.642C127.831 138.642 128.325 138.748 128.751 138.961C129.185 139.174 129.52 139.466 129.757 139.837C129.993 140.2 130.112 140.606 130.112 141.056C130.112 141.979 129.622 142.89 128.644 143.79L126.218 146.05H130.206V147.305H124.325V146.109ZM134.824 147.447C133.711 147.447 132.903 147.056 132.398 146.275C131.893 145.486 131.64 144.409 131.64 143.044C131.64 141.679 131.893 140.606 132.398 139.825C132.903 139.036 133.711 138.642 134.824 138.642C135.936 138.642 136.745 139.036 137.25 139.825C137.763 140.606 138.019 141.679 138.019 143.044C138.019 144.409 137.763 145.486 137.25 146.275C136.745 147.056 135.936 147.447 134.824 147.447ZM133.155 143.044C133.155 144.07 133.281 144.851 133.534 145.388C133.786 145.924 134.216 146.192 134.824 146.192C135.439 146.192 135.873 145.924 136.126 145.388C136.378 144.851 136.504 144.07 136.504 143.044C136.504 142.019 136.378 141.238 136.126 140.701C135.873 140.165 135.439 139.896 134.824 139.896C134.216 139.896 133.786 140.165 133.534 140.701C133.281 141.238 133.155 142.019 133.155 143.044ZM139.521 146.109L142.906 142.961C143.214 142.662 143.454 142.362 143.628 142.062C143.801 141.762 143.888 141.447 143.888 141.115C143.888 140.737 143.762 140.441 143.509 140.228C143.257 140.007 142.91 139.896 142.468 139.896C141.995 139.896 141.616 140.034 141.332 140.311C141.056 140.587 140.922 140.993 140.93 141.529H139.521C139.521 140.622 139.782 139.916 140.302 139.411C140.823 138.898 141.545 138.642 142.468 138.642C143.028 138.642 143.521 138.748 143.947 138.961C144.381 139.174 144.717 139.466 144.953 139.837C145.19 140.2 145.308 140.606 145.308 141.056C145.308 141.979 144.819 142.89 143.841 143.79L141.415 146.05H145.403V147.305H139.521V146.109ZM146.671 144.121L150.742 138.784H152.316V144.228H153.476V145.482H152.316V147.305H150.861V145.482H146.671V144.121ZM150.884 144.228V140.417L148.032 144.228H150.884Z" fill="#8DA5B9"/>
</svg>
