<svg width="82" height="23" viewBox="0 0 82 23" fill="none" xmlns="http://www.w3.org/2000/svg">
<mask id="mask0_97_2168" style="mask-type:luminance" maskUnits="userSpaceOnUse" x="0" y="0" width="82" height="23">
<path d="M82 0H0V23H82V0Z" fill="white"/>
</mask>
<g mask="url(#mask0_97_2168)">
<path d="M25.0691 0H21.3359V23H25.0691V0Z" fill="#FBCAAD"/>
<path d="M38.1373 15.6624C38.1373 19.1823 35.1349 19.4629 34.2417 19.4629C32.0102 19.4629 31.6043 17.4039 31.6043 16.1619V7.35938H27.8711V16.1435C27.8711 18.3239 28.5655 20.1235 29.7825 21.3231C30.8576 22.3839 32.4685 22.9635 34.2137 22.9635C35.4513 22.9635 37.204 22.5835 38.1373 21.7436V22.9994H41.8705V7.35938H38.1373V15.6624Z" fill="#FBCAAD"/>
<path d="M49.3338 1.83984H45.6007V7.35984H42.8008V11.0398H45.6007V22.9998H49.3338V11.0398H52.1337V7.35984H49.3338V1.83984Z" fill="#FBCAAD"/>
<path d="M63.8897 18.3275C63.0768 19.0479 62.0035 19.4472 60.8257 19.4472C58.2293 19.4472 56.3226 17.5676 56.3226 14.987C56.3226 12.4064 58.1686 10.606 60.8257 10.606C61.983 10.606 63.0768 10.9859 63.9102 11.7063L64.4767 12.1865L66.9938 9.70619L66.3639 9.14589C64.8827 7.82759 62.9163 7.08789 60.8248 7.08789C56.1583 7.08789 52.7695 10.4073 52.7695 14.9677C52.7695 19.5088 56.2395 22.9468 60.8248 22.9468C62.9555 22.9468 64.9425 22.2072 66.4049 20.8676L67.0134 20.3074L64.4572 17.8289L63.8897 18.3275Z" fill="#FBCAAD"/>
<path d="M80.3198 8.7234C79.2446 7.6636 77.9847 7.084 76.2394 7.084C75.0019 7.084 73.6001 7.464 72.6668 8.303V0H68.9336V23H72.6668V14.3842C72.6668 10.8643 75.2035 10.5846 76.0966 10.5846C78.3281 10.5846 78.2665 12.6445 78.2665 13.8846V23H81.9997V13.904C81.9997 11.7236 81.5377 9.924 80.3198 8.7234Z" fill="#FBCAAD"/>
<path d="M60.706 12.3711C62.1974 12.3711 63.406 13.5607 63.406 15.0317C63.406 16.501 62.1974 17.6924 60.706 17.6924C59.2155 17.6924 58.0078 16.501 58.0078 15.0317C58.0087 13.5616 59.2164 12.3711 60.706 12.3711Z" fill="#FBCAAD"/>
<path d="M16.1096 17.2258C14.69 18.6656 12.7618 19.4458 10.7329 19.4458C6.57411 19.4458 3.55024 16.2258 3.55024 11.8061C3.55024 7.36618 6.57411 4.14618 10.7329 4.14618C12.7422 4.14618 14.649 4.92538 16.09 6.34588L16.6574 6.90619L19.153 4.44608L18.6052 3.88578C16.5361 1.78538 13.7362 0.646484 10.7329 0.646484C4.6058 0.646484 0 5.44609 0 11.8254C0 18.1854 4.62633 22.9657 10.7329 22.9657C13.7567 22.9657 16.5566 21.8065 18.6257 19.7061L19.1736 19.1458L16.6985 16.6462L16.1096 17.2258Z" fill="#FBCAAD"/>
</g>
</svg>
