<svg width="129" height="64" viewBox="0 0 129 64" fill="none" xmlns="http://www.w3.org/2000/svg">
<mask id="mask0_97_2247" style="mask-type:luminance" maskUnits="userSpaceOnUse" x="0" y="0" width="129" height="64">
<path d="M128.781 0H0V64H128.781V0Z" fill="white"/>
</mask>
<g mask="url(#mask0_97_2247)">
<path d="M114.527 6.95447C115.669 8.66228 116.766 10.7691 116.227 13.0268C114.366 11.9614 112.869 10.2219 111.682 8.50464C110.487 6.77583 109.246 4.93748 108.82 2.80664C111.168 3.40719 113.269 5.07427 114.527 6.95447Z" fill="#FBCAAD"/>
<path d="M13.6367 13.025C13.0989 10.7669 14.1977 8.66091 15.3421 6.95407C16.602 5.07498 18.704 3.40943 21.0517 2.81055C20.6252 4.94097 19.3821 6.77863 18.1857 8.50632C16.9972 10.2228 15.4984 11.9612 13.6367 13.025Z" fill="#FBCAAD"/>
<path d="M12.0005 17.3545C12.4204 15.5662 12.4111 13.6084 12.0114 11.931C11.6599 10.4569 11.1484 8.37307 9.46512 7.66992C8.24155 9.63311 7.7497 12.3065 8.4628 14.3098C8.97842 15.7587 9.90568 17.6745 11.8287 17.971C13.5934 18.3779 15.3777 17.4364 16.787 16.659C18.3539 15.7947 19.8888 14.4197 20.8214 12.785C19.1107 11.9213 17.1625 12.6222 15.6968 13.294C14.1169 14.0181 12.6655 15.5717 12.0005 17.3545Z" fill="#FBCAAD"/>
<path d="M45.0121 56.9581L44.09 54.1191L43.1678 56.9581H40.1836L42.5978 58.7128L41.6757 61.5518L44.09 59.7971L46.5044 61.5518L45.5821 58.7128L47.9964 56.9581H45.0121Z" fill="#FBCAAD"/>
<path d="M55.6733 56.962L54.7323 54.123L53.7913 56.962H50.7461L53.2098 58.7166L52.2687 61.5556L54.7323 59.801L57.196 61.5556L56.2549 58.7166L58.7185 56.962H55.6733Z" fill="#FBCAAD"/>
<path d="M66.2358 56.962L65.2948 54.123L64.3538 56.962H61.3086L63.7721 58.7166L62.8311 61.5556L65.2948 59.801L67.7583 61.5556L66.8173 58.7166L69.281 56.962H66.2358Z" fill="#FBCAAD"/>
<path d="M76.8022 56.962L75.8612 54.123L74.9202 56.962H71.875L74.3385 58.7166L73.3975 61.5556L75.8612 59.801L78.3247 61.5556L77.3837 58.7166L79.8474 56.962H76.8022Z" fill="#FBCAAD"/>
<path d="M87.4258 56.962L86.5044 54.123L85.5815 56.962H82.5977L85.0117 58.7166L84.0903 61.5556L86.5044 59.801L88.9184 61.5556L87.9956 58.7166L90.4111 56.962H87.4258Z" fill="#FBCAAD"/>
<path d="M6.56571 22.1801C7.4335 23.5044 8.77632 25.1631 10.7343 25.1158C12.5147 25.2048 14.0529 23.9894 15.2643 22.975C16.5689 21.8825 17.7464 20.2847 18.2436 18.5575C16.4225 18.0275 14.679 19.0093 13.3789 19.9353C12.0212 20.9024 10.9771 22.6724 10.7527 24.4897C10.7359 22.669 10.2432 20.7885 9.44898 19.2737C8.72281 17.8888 7.7109 16.0168 5.90557 15.6426C5.19427 17.7975 5.42122 20.4341 6.56571 22.1801Z" fill="#FBCAAD"/>
<path d="M11.3113 32.2491C9.49418 32.5537 7.72164 31.44 6.57048 30.13C5.0884 28.4435 4.20658 26.181 4.38642 23.916C6.25318 23.9634 7.66702 25.5775 8.712 26.7981C9.83746 28.1126 10.7596 29.8421 11.202 31.6263C11.0074 29.8483 11.6042 27.9283 12.712 26.7419C13.7813 25.5967 15.2792 24.3486 17.1429 24.549C17.1027 26.3519 16.1992 28.0695 15.2674 29.356C14.3988 30.5549 13.0607 32.0378 11.3113 32.2491Z" fill="#FBCAAD"/>
<path d="M7.95831 38.241C9.63189 39.3309 11.6617 40.4096 13.7949 39.5932C15.5449 38.9739 16.6576 37.2118 17.3419 35.5945C18.0668 33.8809 18.551 31.9049 18.2158 30.0293C16.2927 30.2 14.6981 31.5763 13.8512 33.2563C12.9657 35.0126 12.7959 37.1031 13.4761 38.9445C12.4711 37.0502 11.0014 35.5174 9.44455 34.1011C8.02933 32.8137 5.99078 31.4574 3.9375 31.7125C4.32817 34.2516 5.87723 36.8859 7.95831 38.241Z" fill="#FBCAAD"/>
<path d="M18.1033 46.4555C19.7502 45.4707 20.413 43.3985 20.6839 41.6228C20.9759 39.7079 20.9634 37.596 20.1683 35.7793C18.2576 36.3131 16.9461 38.0333 16.513 39.9174C16.0555 41.908 16.4416 44.0295 17.5545 45.7244C16.0751 44.0266 14.1078 42.6247 12.2226 41.6417C10.4015 40.6923 8.16744 39.5471 5.98047 40.2387C7.03504 42.8131 9.29095 45.21 11.7912 46.2015C13.7274 46.9691 16.083 47.7283 18.1033 46.4555Z" fill="#FBCAAD"/>
<path d="M25.9117 47.1237C26.1533 48.972 26.1465 51.3164 24.7118 52.7391C22.919 54.5747 20.1444 54.2204 18.0044 53.8166C15.1315 53.274 11.8974 51.314 10.1641 48.7043C12.281 47.5384 14.87 48.2842 16.9658 48.8879L17.0855 48.9223C19.4249 49.5955 21.9179 50.6798 24.0029 52.1615C22.3391 50.6576 21.1267 48.4503 21.0674 46.2255C21.014 44.2356 21.8775 42.1067 23.7357 41.1582C25.0329 42.8613 25.6404 45.0479 25.9117 47.1237Z" fill="#FBCAAD"/>
<path d="M34.2348 57.971C35.2914 55.9593 34.2446 53.5983 33.4104 51.8532C32.4242 49.7902 31.0768 47.6877 29.1485 46.1777C27.2969 47.7739 27.4729 50.0578 28.0234 52.0427C28.678 54.4028 30.9474 56.4146 33.2974 57.5611C30.5758 56.5458 27.6034 55.9365 24.7755 55.7566L24.4891 55.7382C22.2172 55.5901 19.2596 55.3974 17.4492 57.0605C20.1864 59.388 24.0743 60.7309 27.501 60.6611C29.7974 60.6144 32.948 60.3427 34.2348 57.971Z" fill="#FBCAAD"/>
<path d="M117.864 17.3626C117.201 15.5786 115.75 14.023 114.171 13.2975C112.705 12.6246 110.758 11.9225 109.047 12.7846C109.978 14.42 111.511 15.7961 113.077 16.6617C114.485 17.4399 116.268 18.3827 118.033 17.9774C119.957 17.6827 120.887 15.7674 121.404 14.3184C122.119 12.3161 121.63 9.64217 120.408 7.67773C118.724 8.37991 118.21 10.4632 117.858 11.9372C117.457 13.615 117.445 15.5734 117.864 17.3626Z" fill="#FBCAAD"/>
<path d="M116.48 19.9381C117.836 20.9056 118.877 22.6746 119.101 24.4907C119.121 22.671 119.615 20.7923 120.41 19.279C121.137 17.8945 122.152 16.0234 123.957 15.6504C124.666 17.806 124.437 20.4424 123.29 22.1875C122.423 23.5094 121.08 25.1647 119.126 25.1203C117.343 25.2114 115.803 23.993 114.591 22.9765C113.288 21.8829 112.112 20.2844 111.617 18.5568C113.438 18.028 115.181 19.0111 116.48 19.9381Z" fill="#FBCAAD"/>
<path d="M118.64 31.6395C118.839 29.86 118.244 27.936 117.135 26.7473C116.068 25.6012 114.571 24.352 112.707 24.5509C112.745 26.3538 113.647 28.0724 114.578 29.3595C115.445 30.5585 116.781 32.0414 118.529 32.2551C120.347 32.563 122.121 31.4499 123.275 30.1401C124.758 28.4548 125.642 26.193 125.465 23.9277C123.597 23.9739 122.183 25.5867 121.136 26.8065C120.008 28.1218 119.083 29.8533 118.64 31.6395Z" fill="#FBCAAD"/>
<path d="M115.995 33.2596C116.879 35.0169 117.047 37.1079 116.364 38.9487C117.371 37.0546 118.842 35.5228 120.4 34.1075C121.816 32.821 123.857 31.4666 125.909 31.7231C125.517 34.2621 123.965 36.8952 121.883 38.2486C120.21 39.3357 118.182 40.4123 116.052 39.5992C114.299 38.981 113.186 37.2153 112.502 35.5952C111.778 33.881 111.296 31.9048 111.633 30.0293C113.556 30.2015 115.15 31.579 115.995 33.2596Z" fill="#FBCAAD"/>
<path d="M112.281 45.7224C113.393 44.0292 113.781 41.9098 113.326 39.9202C112.895 38.0357 111.585 36.3145 109.674 35.7793C108.877 37.5951 108.864 39.7069 109.153 41.6223C109.422 43.3945 110.081 45.4625 111.718 46.4509C113.74 47.7337 116.102 46.975 118.04 46.2076C120.542 45.2179 122.8 42.8227 123.857 40.2488C121.67 39.5558 119.436 40.6994 117.614 41.6474C115.729 42.6285 113.761 44.0274 112.281 45.7224Z" fill="#FBCAAD"/>
<path d="M103.921 47.1184C103.678 48.9663 103.682 51.3105 105.116 52.7345C106.906 54.5714 109.682 54.2192 111.822 53.8167C114.696 53.2764 117.932 51.3185 119.667 48.7102C117.552 47.5429 114.962 48.2865 112.866 48.8886L112.745 48.9231C110.406 49.5943 107.913 50.6764 105.827 52.1558C107.491 50.6531 108.705 48.4476 108.766 46.2237C108.822 44.2339 107.96 42.1043 106.103 41.1543C104.804 42.8564 104.195 45.0427 103.921 47.1184Z" fill="#FBCAAD"/>
<path d="M102.312 60.6543C100.016 60.6058 96.8653 60.3318 95.5811 57.9591L95.563 57.9265C94.5374 55.9209 95.5797 53.5768 96.4108 51.8421C97.399 49.7798 98.7485 47.6782 100.677 46.1699C102.529 47.7674 102.349 50.0511 101.798 52.0354C101.14 54.3951 98.8694 56.4055 96.5178 57.5501C99.2404 56.5369 102.213 55.9298 105.041 55.7519L105.329 55.7335C107.601 55.5873 110.559 55.3971 112.367 57.0611C109.628 59.3863 105.739 60.7266 102.312 60.6543Z" fill="#FBCAAD"/>
<path d="M30.3984 20.5025H32.0621V16.9691H32.2084L33.4253 20.5025H34.7578L35.9747 16.9691H36.121V20.5025H37.7847V14.0642H35.5742L34.157 18.2951H34.0261L32.6089 14.0642H30.3984V20.5025Z" fill="#FBCAAD"/>
<path d="M41.8856 20.7171C44.0345 20.7171 45.4748 19.3145 45.4748 17.2833C45.4748 15.2446 44.0345 13.8496 41.8856 13.8496C39.7291 13.8496 38.2888 15.2446 38.2888 17.2833C38.2888 19.3145 39.7291 20.7171 41.8856 20.7171ZM41.8856 19.2225C40.8305 19.2225 40.014 18.4637 40.014 17.2833C40.014 16.0953 40.8305 15.3442 41.8856 15.3442C42.9331 15.3442 43.7572 16.0953 43.7572 17.2833C43.7572 18.4637 42.9331 19.2225 41.8856 19.2225Z" fill="#FBCAAD"/>
<path d="M48.8753 20.7171C50.9549 20.7247 52.0253 20.0043 52.0253 18.6783C52.0253 17.0687 50.4234 16.9154 49.1757 16.6932L48.4748 16.5705C47.8741 16.4709 47.6276 16.2333 47.6276 15.9037C47.6276 15.4822 48.028 15.2062 48.8521 15.2062C49.7687 15.2062 50.1924 15.5588 50.2848 16.0877H51.8405C51.8405 14.4091 50.6313 13.8496 48.8829 13.8496C46.9959 13.8496 45.9562 14.5931 45.9562 15.8271C45.9562 17.3063 47.2579 17.5746 48.4902 17.7815L49.2989 17.9195C50.0229 18.0345 50.3002 18.2567 50.3002 18.6246C50.3002 19.0615 49.815 19.3604 48.8753 19.3528C47.8587 19.3528 47.3965 19.0002 47.358 18.456H45.7868C45.7637 20.0196 46.8112 20.7171 48.8753 20.7171Z" fill="#FBCAAD"/>
<path d="M58.6899 14.0642H52.1663V15.5052H54.5616V20.5025H56.2945V15.5052H58.6899V14.0642Z" fill="#FBCAAD"/>
<path d="M63.9353 20.6711C65.7992 20.6711 66.8389 19.782 66.8389 18.3564C66.8389 16.9538 65.7684 16.241 64.4898 16.241C63.7119 16.241 63.219 16.4632 63.011 16.6319L63.2267 15.3825H66.2844V14.0642H61.9405L61.2781 17.7585H62.8339C63.0342 17.5133 63.3961 17.268 64.0046 17.268C64.7671 17.268 65.2061 17.6589 65.2061 18.2721C65.2061 18.8622 64.744 19.3068 63.9199 19.3068C63.3191 19.3068 62.8185 19.0769 62.7569 18.5097H61.2011C61.178 19.9276 62.1099 20.6711 63.9353 20.6711Z" fill="#FBCAAD"/>
<path d="M67.3771 18.0191H71.8443V16.5782H67.3771V18.0191Z" fill="#FBCAAD"/>
<path d="M75.3931 20.7171C77.4727 20.7247 78.5432 20.0043 78.5432 18.6783C78.5432 17.0687 76.9412 16.9154 75.6935 16.6932L74.9926 16.5705C74.3919 16.4709 74.1454 16.2333 74.1454 15.9037C74.1454 15.4822 74.5459 15.2062 75.37 15.2062C76.2866 15.2062 76.7102 15.5588 76.8026 16.0877H78.3584C78.3584 14.4091 77.1492 13.8496 75.4008 13.8496C73.5138 13.8496 72.4741 14.5931 72.4741 15.8271C72.4741 17.3063 73.7757 17.5746 75.008 17.7815L75.8167 17.9195C76.5407 18.0345 76.818 18.2567 76.818 18.6246C76.818 19.0615 76.3328 19.3604 75.3931 19.3528C74.3765 19.3528 73.9143 19.0002 73.8758 18.456H72.3046C72.2815 20.0196 73.329 20.7171 75.3931 20.7171Z" fill="#FBCAAD"/>
<path d="M85.2076 14.0642H78.684V15.5052H81.0794V20.5025H82.8123V15.5052H85.2076V14.0642Z" fill="#FBCAAD"/>
<path d="M89.8185 20.5025H91.6131L89.1484 14.0642H86.7146L84.2499 20.5025H86.0445L86.4065 19.4984H89.4565L89.8185 20.5025ZM86.8686 18.2031L87.7775 15.6891H88.0933L88.9944 18.2031H86.8686Z" fill="#FBCAAD"/>
<path d="M98.3845 20.5025L97.1598 18.3181C97.7837 17.9502 98.2073 17.3063 98.2073 16.4172C98.2073 14.8537 97.2523 14.0642 95.5039 14.0642H91.9995V20.5025H93.7402V18.6706H95.6734L96.6669 20.5025H98.3845ZM93.7402 15.5052H95.3961C96.097 15.5052 96.4744 15.8271 96.4744 16.4326C96.4744 17.0381 96.097 17.36 95.3961 17.36H93.7402V15.5052Z" fill="#FBCAAD"/>
<path d="M38.8315 33.1463L37.2141 30.3725C38.0381 29.9053 38.5976 29.0877 38.5976 27.9587C38.5976 25.9732 37.3362 24.9707 35.027 24.9707H30.3984V33.1463H32.6974V30.8202H35.2508L36.563 33.1463H38.8315ZM32.6974 26.8005H34.8846C35.8103 26.8005 36.3087 27.2093 36.3087 27.9782C36.3087 28.7471 35.8103 29.1558 34.8846 29.1558H32.6974V26.8005Z" fill="#FBCAAD"/>
<path d="M39.4584 33.1463H46.8234V31.3652H41.7574V29.8177H46.6403V28.2896H41.7574V26.7518H46.8234V24.9707H39.4584V33.1463Z" fill="#FBCAAD"/>
<path d="M50.479 33.1463H53.6935L56.9488 24.9707H54.5785L52.2287 31.0732H51.954L49.594 24.9707H47.2238L50.479 33.1463Z" fill="#FBCAAD"/>
<path d="M57.4591 33.1463H59.7582V24.9707H57.4591V33.1463Z" fill="#FBCAAD"/>
<path d="M60.5706 33.1463H67.9356V31.3652H62.8696V29.8177H67.7525V28.2896H62.8696V26.7518H67.9356V24.9707H60.5706V33.1463Z" fill="#FBCAAD"/>
<path d="M70.3963 33.1463H73.499L74.6383 28.3967H74.8417L75.9811 33.1463H79.0837L80.9046 24.9707H78.5853L77.3747 30.8007H77.1713L75.6759 24.9707H73.8041L72.3088 30.8007H72.1053L70.8948 24.9707H68.5754L70.3963 33.1463Z" fill="#FBCAAD"/>
<path d="M81.5396 33.1463H88.9046V31.3652H83.8386V29.8177H88.7215V28.2896H83.8386V26.7518H88.9046V24.9707H81.5396V33.1463Z" fill="#FBCAAD"/>
<path d="M93.7661 24.9707H89.7174V33.1463H93.7661C97.1434 33.1463 98.3845 31.3847 98.3845 29.0585C98.3845 26.7226 97.1434 24.9707 93.7661 24.9707ZM93.7661 31.2971H92.0164L92.0266 26.8102H93.7661C95.2411 26.8102 96.0855 27.5694 96.0855 29.0585C96.0855 30.5379 95.2411 31.2971 93.7661 31.2971Z" fill="#FBCAAD"/>
<path d="M31.9911 40.3375C32.6536 40.3375 33.3195 39.9962 33.4465 38.9484H32.7085C32.5987 39.3659 32.3344 39.5546 31.9911 39.5546C31.5243 39.5546 31.1673 39.1411 31.1673 38.5389C31.1673 37.9366 31.5243 37.5231 31.9911 37.5231C32.3344 37.5231 32.5987 37.7078 32.7085 38.1213H33.4465C33.3195 37.0775 32.6502 36.7402 31.9911 36.7402C31.0472 36.7402 30.3984 37.4709 30.3984 38.5389C30.3984 39.6028 31.0472 40.3375 31.9911 40.3375Z" fill="#FBCAAD"/>
<path d="M35.8576 40.225H36.6574L35.559 36.8525H34.4743L33.3759 40.225H34.1757L34.337 39.6991H35.6963L35.8576 40.225ZM34.543 39.0205L34.948 37.7037H35.0887L35.4904 39.0205H34.543Z" fill="#FBCAAD"/>
<path d="M36.8296 40.225H37.5848V38.1052H37.6569L38.8857 40.225H39.761V36.8525H39.0059V38.9724H38.9372L37.7255 36.8525H36.8296V40.225Z" fill="#FBCAAD"/>
<path d="M42.4143 40.225H43.2141L42.1157 36.8525H41.031L39.9326 40.225H40.7324L40.8937 39.6991H42.253L42.4143 40.225ZM41.0997 39.0205L41.5047 37.7037H41.6454L42.0471 39.0205H41.0997Z" fill="#FBCAAD"/>
<path d="M44.7526 36.8525H43.3864V40.225H44.7526C45.8922 40.225 46.311 39.4983 46.311 38.5388C46.311 37.5752 45.8922 36.8525 44.7526 36.8525ZM44.7526 39.4622H44.1622L44.1656 37.6113H44.7526C45.2503 37.6113 45.5352 37.9245 45.5352 38.5388C45.5352 39.149 45.2503 39.4622 44.7526 39.4622Z" fill="#FBCAAD"/>
<path d="M46.5521 40.225H47.3278V36.8525H46.5521V40.225Z" fill="#FBCAAD"/>
<path d="M49.9807 40.225H50.7805L49.6821 36.8525H48.5974L47.499 40.225H48.2987L48.4601 39.6991H49.8194L49.9807 40.225ZM48.666 39.0205L49.0711 37.7037H49.2118L49.6134 39.0205H48.666Z" fill="#FBCAAD"/>
<path d="M50.9528 40.225H51.7079V38.1052H51.78L53.0089 40.225H53.8842V36.8525H53.129V38.9724H53.0604L51.8487 36.8525H50.9528V40.225Z" fill="#FBCAAD"/>
<path d="M55.0355 40.225H55.777V38.3742H55.8422L56.3845 40.225H56.9784L57.5207 38.3742H57.5859V40.225H58.3273V36.8525H57.3422L56.7106 39.0687H56.6523L56.0207 36.8525H55.0355V40.225Z" fill="#FBCAAD"/>
<path d="M60.9823 40.225H61.782L60.6836 36.8525H59.5989L58.5005 40.225H59.3003L59.4616 39.6991H60.8209L60.9823 40.225ZM59.6676 39.0205L60.0726 37.7037H60.2134L60.615 39.0205H59.6676Z" fill="#FBCAAD"/>
<path d="M64.7998 40.225L64.2541 39.0808C64.5321 38.8881 64.7209 38.5508 64.7209 38.0851C64.7209 37.2661 64.2953 36.8525 63.5161 36.8525H61.9543V40.225H62.73V39.2655H63.5916L64.0344 40.225H64.7998ZM62.73 37.6073H63.468C63.7804 37.6073 63.9486 37.776 63.9486 38.0931C63.9486 38.4103 63.7804 38.5789 63.468 38.5789H62.73V37.6073Z" fill="#FBCAAD"/>
<path d="M67.984 40.225L66.7345 38.3501L67.9256 36.8525H67.0572L65.8352 38.3742H65.7837V36.8525H65.0114V40.225H65.7837V39.4622L66.2471 38.8961H66.2986L67.1842 40.225H67.984Z" fill="#FBCAAD"/>
<path d="M68.0966 40.225H70.5818V39.4903H68.8724V38.8519H70.52V38.2216H68.8724V37.5873H70.5818V36.8525H68.0966V40.225Z" fill="#FBCAAD"/>
<path d="M73.7463 36.8525H70.8389V37.6073H71.9064V40.225H72.6788V37.6073H73.7463V36.8525Z" fill="#FBCAAD"/>
<path d="M74.0057 40.225H74.7815V36.8525H74.0057V40.225Z" fill="#FBCAAD"/>
<path d="M75.0557 40.225H75.8109V38.1052H75.8829L77.1118 40.225H77.9871V36.8525H77.2319V38.9724H77.1633L75.9516 36.8525H75.0557V40.225Z" fill="#FBCAAD"/>
<path d="M81.2959 38.4144H79.7753V38.9685H80.5442C80.4481 39.4422 80.0533 39.5546 79.8165 39.5546C79.3428 39.5546 78.9789 39.1411 78.9789 38.5389C78.9789 37.9366 79.3359 37.5231 79.8371 37.5231C80.1597 37.5231 80.4 37.7038 80.4927 37.9648H81.2616C81.1208 37.0976 80.4687 36.7402 79.8233 36.7402C78.8554 36.7402 78.2101 37.4709 78.2101 38.5389C78.2101 39.6028 78.8828 40.3375 79.7581 40.3375C80.2696 40.3375 80.63 40.0926 80.8291 39.7513L80.8394 40.2251H81.2959V38.4144Z" fill="#FBCAAD"/>
<path d="M82.4651 40.225H83.2408V36.8525H82.4651V40.225Z" fill="#FBCAAD"/>
<path d="M83.5149 40.225H84.2701V38.1052H84.3422L85.571 40.225H86.4463V36.8525H85.6912V38.9724H85.6225L84.4108 36.8525H83.5149V40.225Z" fill="#FBCAAD"/>
<path d="M90.0418 37.8162C90.0418 37.1457 89.6058 36.7643 88.8163 36.7643C88.0097 36.7643 87.5944 37.1778 87.5944 37.9366H88.3461C88.3427 37.5994 88.5829 37.491 88.8541 37.491C89.1733 37.491 89.2866 37.6516 89.2866 37.8564C89.2866 38.5027 87.5635 38.31 87.5635 39.7875V40.2251H90.0246V39.5305H88.4388C88.6104 38.7476 90.0418 39.0166 90.0418 37.8162Z" fill="#FBCAAD"/>
<path d="M91.6331 40.3134C92.5084 40.3134 93.0336 39.7152 93.0336 38.5389C93.0336 37.3585 92.5084 36.7643 91.6331 36.7643C90.7578 36.7643 90.2292 37.3585 90.2292 38.5389C90.2292 39.7152 90.7578 40.3134 91.6331 40.3134ZM91.6331 39.5466C91.2384 39.5466 90.9912 39.2374 90.9912 38.5389C90.9912 37.8363 91.2384 37.5271 91.6331 37.5271C92.0279 37.5271 92.2716 37.8363 92.2716 38.5389C92.2716 39.2374 92.0279 39.5466 91.6331 39.5466Z" fill="#FBCAAD"/>
<path d="M95.7013 37.8162C95.7013 37.1457 95.2654 36.7643 94.4759 36.7643C93.6693 36.7643 93.2539 37.1778 93.2539 37.9366H94.0057C94.0022 37.5994 94.2425 37.491 94.5137 37.491C94.8329 37.491 94.9462 37.6516 94.9462 37.8564C94.9462 38.5027 93.2231 38.31 93.2231 39.7875V40.2251H95.6842V39.5305H94.0984C94.27 38.7476 95.7013 39.0166 95.7013 37.8162Z" fill="#FBCAAD"/>
<path d="M98.3846 37.8162C98.3846 37.1457 97.9485 36.7643 97.159 36.7643C96.3525 36.7643 95.9372 37.1778 95.9372 37.9366H96.6889C96.6855 37.5994 96.9257 37.491 97.1969 37.491C97.5161 37.491 97.6294 37.6516 97.6294 37.8564C97.6294 38.5027 95.9062 38.31 95.9062 39.7875V40.2251H98.3674V39.5305H96.7816C96.9532 38.7476 98.3846 39.0166 98.3846 37.8162Z" fill="#FBCAAD"/>
</g>
</svg>
