<svg width="87" height="64" viewBox="0 0 87 64" fill="none" xmlns="http://www.w3.org/2000/svg">
<g clip-path="url(#clip0_97_2313)">
<mask id="mask0_97_2313" style="mask-type:luminance" maskUnits="userSpaceOnUse" x="0" y="0" width="87" height="64">
<path d="M87.0001 0H0.78125V64H87.0001V0Z" fill="white"/>
</mask>
<g mask="url(#mask0_97_2313)">
<path d="M18.7437 39.4277L20.5914 43.1715L24.7228 43.7718L21.7333 46.6859L22.439 50.8006L18.7437 48.8579L15.0484 50.8006L15.7542 46.6859L12.7646 43.7718L16.8961 43.1715L18.7437 39.4277Z" fill="#FBCAAD"/>
<path d="M31.318 39.4277L33.1657 43.1715L37.2971 43.7718L34.3076 46.6859L35.0133 50.8006L31.318 48.8579L27.6228 50.8006L28.3285 46.6859L25.3389 43.7718L29.4704 43.1715L31.318 39.4277Z" fill="#FBCAAD"/>
<path d="M43.8923 39.4277L45.7399 43.1715L49.8713 43.7718L46.8818 46.6859L47.5875 50.8006L43.8923 48.8579L40.197 50.8006L40.9027 46.6859L37.9132 43.7718L42.0446 43.1715L43.8923 39.4277Z" fill="#FBCAAD"/>
<path d="M56.4626 39.4277L58.3102 43.1715L62.4417 43.7718L59.4521 46.6859L60.1578 50.8006L56.4626 48.8579L52.7673 50.8006L53.473 46.6859L50.4835 43.7718L54.6149 43.1715L56.4626 39.4277Z" fill="#FBCAAD"/>
<path d="M69.0368 39.4277L70.8844 43.1715L75.0159 43.7718L72.0263 46.6859L72.7321 50.8006L69.0368 48.8579L65.3415 50.8006L66.0472 46.6859L63.0577 43.7718L67.1891 43.1715L69.0368 39.4277Z" fill="#FBCAAD"/>
<mask id="mask1_97_2313" style="mask-type:luminance" maskUnits="userSpaceOnUse" x="0" y="12" width="87" height="28">
<path d="M87.0001 12H0.78125V39.0152H87.0001V12Z" fill="white"/>
</mask>
<g mask="url(#mask1_97_2313)">
<path d="M11.5663 21.6376V24.5233H18.5304C18.3455 26.1196 17.7908 27.3476 16.928 28.1458C15.9419 29.1281 14.3396 30.2333 11.5663 30.2333C7.31391 30.2333 3.98595 26.795 3.98595 22.5585C3.98595 18.3221 7.25228 14.8838 11.5663 14.8838C13.8466 14.8838 15.5722 15.8047 16.8047 16.9713L18.8385 14.9452C17.1129 13.2874 14.771 11.998 11.5663 11.998C5.71156 11.998 0.78125 16.7257 0.78125 22.5585C0.78125 28.3914 5.71156 33.119 11.5663 33.119C14.7094 33.119 17.1129 32.0753 18.9618 30.1719C20.8723 28.2686 21.4885 25.567 21.4885 23.4181C21.4885 22.7427 21.4269 22.1288 21.3653 21.6376H11.5663Z" fill="#FBCAAD"/>
<path d="M30.1173 19.2441C26.3579 19.2441 23.2148 22.1299 23.2148 26.0593C23.2148 29.9888 26.2963 32.8745 30.1173 32.8745C33.9383 32.8745 37.0197 30.0502 37.0197 26.1207C37.0197 22.1299 33.9383 19.2441 30.1173 19.2441ZM30.1173 30.2344C28.0219 30.2344 26.2347 28.5153 26.2347 26.1207C26.2347 23.6648 28.0219 22.0071 30.1173 22.0071C32.2127 22.0071 33.9999 23.6648 33.9999 26.1207C33.9999 28.5153 32.2127 30.2344 30.1173 30.2344Z" fill="#FBCAAD"/>
<path d="M63.8289 20.7791H63.7057C63.0277 19.9809 61.7335 19.2441 60.0696 19.2441C56.6183 19.2441 53.6602 22.1913 53.6602 26.0593C53.6602 29.866 56.6183 32.8745 60.0696 32.8745C61.7335 32.8745 63.0277 32.1378 63.7057 31.3396H63.8289V32.322C63.8289 34.9007 62.4115 36.3128 60.1928 36.3128C58.3439 36.3128 57.2346 35.0235 56.7416 33.8569L54.1532 34.9621C54.8927 36.7426 56.9265 39.0144 60.2544 39.0144C63.7673 39.0144 66.7871 36.9268 66.7871 31.8922V19.6125H63.9522V20.7791H63.8289ZM60.3777 30.2344C58.2823 30.2344 56.7416 28.4539 56.7416 26.1207C56.7416 23.7262 58.3439 22.0071 60.3777 22.0071C62.4114 22.0071 64.0138 23.7876 64.0138 26.1821C64.0754 28.5153 62.4731 30.2344 60.3777 30.2344Z" fill="#FBCAAD"/>
<path d="M45.461 19.2441C41.7017 19.2441 38.5586 22.1299 38.5586 26.0593C38.5586 29.9888 41.64 32.8745 45.461 32.8745C49.282 32.8745 52.3635 30.0502 52.3635 26.1207C52.3635 22.1299 49.282 19.2441 45.461 19.2441ZM45.461 30.2344C43.3656 30.2344 41.5784 28.5153 41.5784 26.1207C41.5784 23.6648 43.3656 22.0071 45.461 22.0071C47.5564 22.0071 49.3436 23.6648 49.3436 26.1207C49.3436 28.5153 47.5564 30.2344 45.461 30.2344Z" fill="#FBCAAD"/>
<path d="M69.0664 12.3047H72.0246V32.9345H69.0664V12.3047Z" fill="#FBCAAD"/>
<path d="M81.1464 30.2344C79.6056 30.2344 78.5579 29.559 77.8184 28.1469L87.0011 24.4016L86.693 23.6034C86.1383 22.0685 84.3511 19.2441 80.8382 19.2441C77.3254 19.2441 74.3672 22.0071 74.3672 26.0593C74.3672 29.866 77.2637 32.8745 81.1464 32.8745C84.2894 32.8745 86.0767 30.9712 86.8778 29.866L84.5359 28.3311C83.7348 29.4976 82.6871 30.2344 81.1464 30.2344ZM80.9615 21.8229C82.1941 21.8229 83.2417 22.4368 83.5499 23.2964L77.387 25.8751C77.3254 23.0508 79.4208 21.8229 80.9615 21.8229Z" fill="#FBCAAD"/>
</g>
</g>
</g>
<defs>
<clipPath id="clip0_97_2313">
<rect width="87" height="64" fill="white"/>
</clipPath>
</defs>
</svg>
