<svg width="150" height="24" viewBox="0 0 150 24" fill="none" xmlns="http://www.w3.org/2000/svg">
<path d="M0.638298 11.0645C1.17021 8.32464 3.61702 6.42773 7.02128 6.42773C10.9574 6.42773 14.0426 8.11383 14.0426 13.3829V23.1833H10.6383L10.2128 21.0757C9.04255 22.5511 7.44681 23.4995 5.10638 23.4995C2.23404 23.4995 0 21.708 0 18.4412C0 15.1744 2.97872 13.0667 7.12766 13.0667H9.89362V12.3291C9.89362 10.4322 8.51064 9.90533 6.91489 9.90533C5.74468 9.90533 4.57447 10.3268 4.04255 11.8022L0.638298 11.0645ZM6.06383 20.0219C7.97872 20.0219 9.89362 18.7573 9.89362 16.6497V16.3336H7.23404C5.42553 16.2282 4.3617 16.9659 4.3617 18.4412C4.3617 19.1789 5 20.0219 6.06383 20.0219Z" fill="#FBCAAD"/>
<path d="M80.8492 11.0645C81.3811 8.32464 83.828 6.42773 87.2322 6.42773C91.1684 6.42773 94.2535 8.11383 94.2535 13.3829V23.1833H90.8492L90.4237 21.0757C89.2535 22.5511 87.6577 23.4995 85.3173 23.4995C82.445 23.4995 80.2109 21.708 80.2109 18.4412C80.2109 15.1744 83.1897 13.0667 87.3386 13.0667H90.1045V12.3291C90.1045 10.4322 88.7216 9.90533 87.1258 9.90533C85.9556 9.90533 84.7854 10.3268 84.2535 11.8022L80.8492 11.0645ZM86.2748 20.0219C88.1897 20.0219 90.1045 18.7573 90.1045 16.6497V16.3336H87.3386C85.5301 16.3336 84.4663 16.9659 84.4663 18.4412C84.5726 19.1789 85.2109 20.0219 86.2748 20.0219Z" fill="#FBCAAD"/>
<path d="M97.9805 23.2887V6.63853H102.129V9.37844C103.3 7.37624 105.215 6.42773 107.023 6.42773C107.768 6.42773 108.406 6.53313 109.044 6.74393L108.3 10.5376C107.768 10.2215 107.236 10.0107 106.597 10.0107C104.151 10.0107 102.129 12.0129 102.129 17.282V23.1833L97.9805 23.2887Z" fill="#FBCAAD"/>
<path d="M117.874 6.4283C119.576 6.4283 121.171 7.2713 121.916 8.2197V0H126.065V23.2892H121.916V21.6031C121.384 22.4462 119.895 23.6054 117.874 23.6054C112.874 23.6054 110.32 20.1278 110.32 15.0695C110.32 10.0112 112.874 6.4283 117.874 6.4283ZM118.512 20.0224C120.639 20.0224 122.342 18.2309 122.342 14.9641C122.342 11.6973 120.639 9.9058 118.512 9.9058C116.384 9.9058 114.682 11.6973 114.682 14.9641C114.682 18.2309 116.384 20.0224 118.512 20.0224Z" fill="#FBCAAD"/>
<path d="M140.956 9.0621L138.509 11.2751C137.765 10.2213 136.594 9.7998 135.743 9.7998C134.892 9.7998 134.148 10.3267 134.148 11.1697C134.148 11.9074 134.786 12.4343 135.743 12.7504C138.084 13.5935 141.807 14.3311 141.807 17.8087C141.807 20.8648 139.467 23.2885 135.85 23.2885C132.339 23.2885 129.999 20.8648 129.254 18.8625L132.552 17.0711C133.19 18.6518 134.254 19.811 135.956 19.811C137.233 19.811 138.084 19.1787 138.084 18.0195C138.084 16.6495 135.956 16.3334 133.935 15.4903C132.126 14.7527 130.53 13.5935 130.53 11.0643C130.53 8.5352 132.658 6.2168 135.85 6.2168C137.977 6.3222 139.999 7.4814 140.956 9.0621Z" fill="#FBCAAD"/>
<path d="M55.2111 6.63867L52.2324 18.1252L49.36 6.63867H45.5303L42.7643 18.1252L40.4239 11.4862L40.1047 12.2239L38.8281 16.5445L40.9558 23.2889H44.5728L47.4451 12.54L50.3175 23.2889H54.0409L59.36 6.63867H55.2111Z" fill="#FBCAAD"/>
<path d="M75.1065 6.63867L72.1278 18.1252L69.2555 6.63867H65.4257L62.6597 18.1252L60.3193 11.4862L60.0002 12.2239L58.6172 16.5445L60.8512 23.2889H64.4683L67.3406 12.54L70.2129 23.2889H73.83L79.2555 6.63867H75.1065Z" fill="#FBCAAD"/>
<path d="M39.4686 6.63867L34.1494 23.1835H30.5324L27.6601 12.54L24.7877 23.2889H21.1707L15.8516 6.74407H20.0005L22.9792 18.1252L25.8516 6.74407H29.6813L32.5537 18.1252L35.5324 6.74407L39.4686 6.63867Z" fill="#FBCAAD"/>
<path d="M147.235 17.9141C148.83 17.9141 150.001 19.0733 150.001 20.654C150.001 22.2347 148.83 23.3939 147.235 23.3939C145.639 23.3939 144.469 22.2347 144.469 20.654C144.469 19.0733 145.639 17.9141 147.235 17.9141Z" fill="#FBCAAD"/>
</svg>
