<svg width="143" height="143" viewBox="0 0 143 143" fill="none" xmlns="http://www.w3.org/2000/svg">
<g opacity="0.5">
<path d="M95.785 79.8759C95.785 79.9945 95.7948 80.0637 95.785 80.1427C95.6169 81.9812 95.4489 83.8097 95.271 85.6482C95.182 86.5476 95.0931 87.4471 94.9843 88.3465C94.9646 88.5343 94.846 88.732 94.7372 88.9C92.8692 91.6676 91.0011 94.4252 89.133 97.1928C85.723 102.234 82.3129 107.275 78.9029 112.306C78.7942 112.474 78.6855 112.642 78.5274 112.899C78.7843 112.918 78.9524 112.938 79.1204 112.938C80.3164 112.968 81.5025 112.988 82.6984 113.007C85.5747 113.057 88.451 113.086 91.3272 113.136C93.65 113.175 95.9629 113.235 98.2856 113.284C100.589 113.333 102.892 113.363 105.195 113.413C106.48 113.432 107.764 113.462 109.059 113.482C111.649 113.521 114.239 113.61 116.828 113.6C120.031 113.59 122.472 112.197 124.014 109.35C124.814 107.877 125.259 106.296 125.457 104.645C125.576 103.617 125.674 102.58 125.635 101.562C125.585 100.227 125.408 98.9027 125.23 97.5782C124.943 95.4334 124.627 93.2984 124.31 91.1635C123.974 88.8704 123.638 86.5773 123.312 84.2842C123.016 82.2085 122.719 80.1329 122.413 78.0671C122.106 75.942 121.8 73.8268 121.493 71.7017C121.197 69.6557 120.91 67.6196 120.614 65.5736C120.307 63.4387 119.991 61.3037 119.685 59.1588C119.388 57.0733 119.092 54.9779 118.785 52.8825C118.479 50.7969 118.182 48.7015 117.866 46.616C117.639 45.074 117.431 43.5321 117.164 42.0001C116.749 39.6477 116.067 37.3645 114.96 35.2295C114.09 33.5591 112.944 32.116 111.451 30.9497C109.949 29.7834 108.239 29.2398 106.341 29.3485C105.303 29.4078 104.315 29.7142 103.376 30.1491C101.162 31.177 99.3235 32.6992 97.6728 34.4684C96.4274 35.8127 95.3797 37.3052 94.3419 38.8174C88.3126 47.5253 82.2734 56.2332 76.2342 64.941C69.7799 74.2518 63.3158 83.5527 56.8615 92.8537C52.9968 98.4283 49.1025 103.983 45.2773 109.587C43.7255 111.861 41.9859 113.946 39.9202 115.765C37.1921 118.167 34.1281 119.985 30.6291 121.043C28.4447 121.705 26.2109 121.962 23.9475 121.735C19.3613 121.27 15.6251 119.195 12.7488 115.577C11.0784 113.472 10.0406 111.07 9.40802 108.48C8.72602 105.713 8.53821 102.906 8.70624 100.059C8.82485 97.9637 9.1708 95.898 9.46732 93.8223C9.76384 91.7763 10.0604 89.7402 10.3569 87.6942C10.6929 85.4208 11.0191 83.1376 11.3552 80.8643C11.6912 78.5712 12.0273 76.2781 12.3633 73.985C12.6599 71.9291 12.9663 69.8732 13.2727 67.8074C13.5791 65.7219 13.8756 63.6265 14.182 61.5409C14.4489 59.7321 14.7059 57.9234 14.9727 56.1245C15.2791 54.0686 15.5757 52.0127 15.8821 49.9469C16.1984 47.8218 16.5048 45.7066 16.8211 43.5816C17.0089 42.2966 17.1769 41.0018 17.424 39.7268C18.1554 35.9313 19.4403 32.3434 21.6346 29.131C23.4039 26.5513 25.5685 24.3966 28.3756 22.9436C30.1745 22.0145 32.0722 21.461 34.0886 21.2633C37.9631 20.8877 41.5115 21.8366 44.8227 23.8332C47.353 25.3553 49.5374 27.2926 51.4351 29.5363C52.2258 30.4654 52.977 31.434 53.6788 32.4422C59.4214 40.6756 65.1344 48.9288 70.8672 57.1722C70.9759 57.3303 71.0846 57.4786 71.2428 57.696C71.391 57.5082 71.5097 57.3501 71.6283 57.1919C73.8621 53.9895 76.0959 50.7771 78.3297 47.5747C81.6013 42.8798 84.8828 38.1947 88.1347 33.4899C89.3307 31.7602 90.5464 30.0601 91.9895 28.5281C94.0058 26.3734 96.2594 24.5349 98.8787 23.1709C100.865 22.1331 102.981 21.4808 105.224 21.2831C110.67 20.7988 115.197 22.6767 118.884 26.6501C121.355 29.2991 122.996 32.4422 124.103 35.8621C124.795 38.0168 125.23 40.221 125.536 42.4647C125.793 44.3327 126.08 46.2008 126.346 48.0788C126.653 50.1643 126.949 52.2598 127.246 54.3453C127.542 56.421 127.839 58.4966 128.145 60.5723C128.452 62.727 128.758 64.8817 129.075 67.0365C129.371 69.0923 129.677 71.1482 129.974 73.214C130.221 74.8943 130.448 76.5746 130.696 78.2549C130.992 80.3108 131.289 82.3765 131.585 84.4324C131.891 86.518 132.188 88.6134 132.494 90.6989C132.771 92.6164 133.058 94.534 133.325 96.4515C133.651 98.7643 133.937 101.077 133.829 103.43C133.671 106.8 132.969 110.042 131.368 113.037C129.519 116.486 126.9 119.106 123.233 120.598C122.017 121.092 120.762 121.369 119.477 121.606C118.449 121.794 117.431 121.814 116.393 121.804C113.675 121.765 110.957 121.725 108.239 121.686C106.44 121.656 104.651 121.626 102.852 121.597C99.2444 121.537 95.6367 121.468 92.029 121.409C90.2202 121.379 88.4016 121.349 86.5928 121.31C84.784 121.28 82.9653 121.251 81.1565 121.211C77.7268 121.152 74.2871 121.102 70.8573 121.023C68.2776 120.954 66.9926 118.918 66.9037 117.208C66.8543 116.22 67.1014 115.35 67.6647 114.52C72.3201 107.62 76.9558 100.702 81.6013 93.7926C83.6868 90.689 85.7625 87.5953 87.848 84.5016C87.9864 84.3039 88.1742 84.1062 88.3917 83.9876C90.7737 82.6533 93.1657 81.3288 95.5576 80.0044C95.607 79.9451 95.6762 79.9154 95.785 79.8759ZM66.2612 64.8916C66.1525 64.7236 66.0537 64.5852 65.9548 64.4369C61.7047 58.3187 57.4446 52.2103 53.1945 46.0921C51.1682 43.1664 49.1618 40.2309 47.1257 37.3151C46.1768 35.9609 45.1093 34.6958 43.9331 33.5294C42.322 31.9381 40.5132 30.6433 38.3684 29.8625C35.7392 28.9136 33.278 29.2299 31.0344 30.9299C29.9076 31.78 28.9884 32.8277 28.2273 34.0138C26.8831 36.0993 26.1022 38.4023 25.5586 40.8041C24.9754 43.374 24.7184 46.0032 24.3231 48.6126C24.0661 50.2434 23.8585 51.8842 23.6213 53.515C23.3544 55.3831 23.0777 57.2512 22.8009 59.1193C22.4945 61.2444 22.1881 63.3596 21.8817 65.4847C21.6148 67.3231 21.348 69.1615 21.0811 71C20.8044 72.8977 20.5375 74.8053 20.2607 76.7031C20.0235 78.3241 19.7863 79.9352 19.559 81.5562C19.3217 83.2068 19.0944 84.8574 18.8572 86.5081C18.5804 88.4058 18.3037 90.3135 18.0269 92.2112C17.7502 94.0793 17.4932 95.9474 17.2066 97.8155C16.8408 100.217 16.7025 102.619 17.0781 105.031C17.3449 106.741 17.849 108.372 18.7781 109.844C20.2805 112.236 22.3957 113.581 25.2818 113.561C26.4778 113.551 27.6441 113.333 28.7907 112.978C30.7675 112.365 32.4873 111.297 34.0391 109.963C35.7194 108.52 37.202 106.899 38.4277 105.041C40.0585 102.58 41.7784 100.168 43.4587 97.7463C50.5851 87.4767 57.7214 77.2072 64.8478 66.9376C65.3222 66.2655 65.7868 65.5835 66.2612 64.8916Z" fill="url(#paint0_linear_251_1405)"/>
</g>
<defs>
<linearGradient id="paint0_linear_251_1405" x1="71.2503" y1="121.816" x2="71.2503" y2="21.1826" gradientUnits="userSpaceOnUse">
<stop stop-color="#EE5125"/>
<stop offset="1" stop-color="#E51F31"/>
</linearGradient>
</defs>
</svg>
