<svg width="40" height="40" viewBox="0 0 40 40" fill="none" xmlns="http://www.w3.org/2000/svg">
<g clip-path="url(#clip0_220_5101)">
<path d="M19.5 2.5625C9.83266 2.5625 2 10.3672 2 20C2 29.6328 9.83266 37.4375 19.5 37.4375C29.1673 37.4375 37 29.6328 37 20C37 10.3672 29.1673 2.5625 19.5 2.5625ZM9.90323 17.7078C10.1361 14.7477 12.1754 12.6875 13.8548 12.6875C15.5343 12.6875 17.5736 14.7477 17.8065 17.7078C17.8558 18.3125 17.0444 18.5445 16.755 18.0242L16.0847 16.8289C15.5413 15.8656 14.7298 15.3102 13.8619 15.3102C12.994 15.3102 12.1825 15.8656 11.6391 16.8289L10.9688 18.0242C10.6653 18.5445 9.85383 18.3055 9.90323 17.7078ZM27.6008 26.3422C25.5897 28.7469 22.6401 30.125 19.5 30.125C16.3599 30.125 13.4103 28.7469 11.3992 26.3422C10.4466 25.1961 12.1754 23.7617 13.1351 24.9008C14.7157 26.7922 17.0302 27.868 19.5 27.868C21.9698 27.868 24.2843 26.7852 25.8649 24.9008C26.8246 23.7617 28.5534 25.2031 27.6008 26.3422ZM28.0383 18.0242L27.3679 16.8289C26.8246 15.8656 26.0131 15.3102 25.1452 15.3102C24.2772 15.3102 23.4657 15.8656 22.9224 16.8289L22.252 18.0242C21.9627 18.5375 21.1512 18.3055 21.2006 17.7078C21.4335 14.7477 23.4728 12.6875 25.1522 12.6875C26.8317 12.6875 28.871 14.7477 29.1038 17.7078C29.1462 18.3125 28.3276 18.5445 28.0383 18.0242Z" fill="#EE5125"/>
</g>
<defs>
<clipPath id="clip0_220_5101">
<rect width="35" height="36" fill="white" transform="translate(2 2)"/>
</clipPath>
</defs>
</svg>
