<svg width="150" height="150" viewBox="0 0 150 150" fill="none" xmlns="http://www.w3.org/2000/svg">
<g clip-path="url(#clip0_2748_15891)">
<path d="M14.6083 69.7319H12.5157V85.656H14.6083V69.7319Z" fill="#7EC082"/>
<path d="M18.2795 71.7593H16.1869V89.0104H18.2795V71.7593Z" fill="#7EC082"/>
<path d="M21.9508 73.9709H19.8581V90.8536H21.9508V73.9709Z" fill="#7EC082"/>
<path d="M25.6586 77.1411H23.566V90.8535H25.6586V77.1411Z" fill="#7EC082"/>
<path d="M29.3298 75.0029H27.2371V90.8534H29.3298V75.0029Z" fill="#7EC082"/>
<path d="M33.0009 71.7593H30.9083V90.706H33.0009V71.7593Z" fill="#7EC082"/>
<path d="M36.6723 71.28H34.5797V88.7155H36.6723V71.28Z" fill="#7EC082"/>
<path d="M40.3434 73.9709H38.2509V85.656H40.3434V73.9709Z" fill="#7EC082"/>
<path d="M31.7896 56.9041L31.2389 59.3001C35.6444 60.7377 39.1688 64.0183 40.9677 68.2206L43.2806 67.4833C41.2247 62.4701 37.0395 58.526 31.7896 56.9041Z" fill="#CA3F6D"/>
<path d="M41.5183 69.7318C41.9956 71.2431 42.2159 72.8281 42.2159 74.4869C42.2159 83.3337 35.0937 90.4847 26.3195 90.4847C17.5452 90.4847 10.423 83.3337 10.423 74.4869C10.423 65.6402 17.5452 58.489 26.3195 58.489C27.4942 58.489 28.6323 58.5996 29.6969 58.8576L30.2477 56.4616C28.9995 56.2036 27.6777 56.0562 26.3195 56.0562C16.2235 56.0562 8 64.3131 8 74.4869C8 84.6606 16.2235 92.9177 26.3195 92.9177C36.4521 92.9177 44.6389 84.6606 44.6389 74.4869C44.6389 72.5701 44.3452 70.7639 43.8313 69.0314L41.5183 69.7318Z" fill="#42536F"/>
<path d="M55.3222 79.3157L53.4131 75.6664H52.4954V79.3157H50.5863V69.8054H54.3309C57.7085 69.8054 58.039 74.5974 55.2488 75.4084L57.4515 79.3526H55.3222V79.3157ZM52.4954 73.8234H54.1841C55.469 73.8234 55.469 71.6853 54.1841 71.6853H52.4954V73.8234Z" fill="white"/>
<path d="M58.5895 79.3157V69.8054H63.3254V71.7222H60.4986V73.639H62.995V75.5558H60.4986V77.4726H63.509V79.3894H58.5895V79.3157Z" fill="white"/>
<path d="M64.5371 79.3157V69.8054H68.2817C71.953 69.8054 71.953 75.6664 68.2817 75.6664H66.4462V79.3157H64.5371ZM68.0981 73.8234C69.3831 73.8234 69.3831 71.6853 68.0981 71.6853H66.4094V73.8234H68.0981Z" fill="white"/>
<path d="M75.9546 69.658C81.8653 69.658 81.8653 79.4633 75.9546 79.4633C70.0439 79.4633 70.0439 69.658 75.9546 69.658ZM75.9546 71.6117C72.5037 71.6117 72.5037 77.5095 75.9546 77.5095C79.4056 77.4726 79.4056 71.6117 75.9546 71.6117Z" fill="white"/>
<path d="M85.9405 79.3157L84.0314 75.6664H83.1133V79.3157H81.2043V69.8054H84.949C88.3261 69.8054 88.6566 74.5974 85.8667 75.4084L88.0694 79.3526H85.9405V79.3157ZM83.1133 73.8234H84.8022C86.0873 73.8234 86.0873 71.6853 84.8022 71.6853H83.1133V73.8234Z" fill="white"/>
<path d="M90.9332 79.3157V71.7223H88.5837V69.8423H95.1918V71.7223H92.8423V79.3526H90.9332V79.3157Z" fill="white"/>
<path d="M100.552 79.3896C94.3111 79.3896 93.9806 69.9898 100.552 69.7319C101.69 69.695 102.608 70.0267 102.755 70.0636L102.534 71.9804C102.167 71.8329 101.543 71.6118 100.552 71.6487C96.7337 71.7961 96.8805 77.4728 100.552 77.4728C100.736 77.4728 100.919 77.4359 101.066 77.4359V74.5607H102.975V78.726C102.277 79.1315 101.433 79.3896 100.552 79.3896Z" fill="white"/>
<path d="M107.6 69.4368H107.784L111.786 79.3157H109.656L109.289 78.2836H106.132L105.765 79.3157H103.599L107.6 69.4368ZM108.555 76.5142L107.71 74.0445L106.829 76.5142H108.555Z" fill="white"/>
<path d="M117.109 79.3157L115.2 75.6664H114.282V79.3157H112.373V69.8054H116.118C119.496 69.8054 119.826 74.5974 117.035 75.4084L119.238 79.3526H117.109V79.3157ZM114.282 73.8234H115.971C117.256 73.8234 117.256 71.6853 115.971 71.6853H114.282V73.8234Z" fill="white"/>
<path d="M123.094 79.3157H120.266V69.8054H123.094C129.407 69.8054 129.407 79.3157 123.094 79.3157ZM122.175 71.7222V77.4357H123.094C126.764 77.4357 126.764 71.7222 123.094 71.7222H122.175Z" fill="white"/>
<path d="M128.748 79.3157V69.8054H133.483V71.7222H130.619V73.639H133.116V75.5558H130.619V77.4726H133.63V79.3894H128.748V79.3157Z" fill="white"/>
<path d="M136.714 79.3158H134.804V69.5842H135.318L140.091 75.1872V69.8055H142V79.5001H141.487L136.677 74.1183V79.3158H136.714Z" fill="white"/>
</g>
<defs>
<clipPath id="clip0_2748_15891">
<rect width="134" height="36.8876" fill="white" transform="translate(8 56.0562)"/>
</clipPath>
</defs>
</svg>
