<svg width="39" height="39" viewBox="0 0 39 39" fill="none" xmlns="http://www.w3.org/2000/svg">
<g clip-path="url(#clip0_833_9023)">
<path fill-rule="evenodd" clip-rule="evenodd" d="M19.5 0C8.775 0 0 8.775 0 19.5C0 30.225 8.775 39 19.5 39C30.225 39 39 30.225 39 19.5C39 8.775 30.225 0 19.5 0ZM32.955 11.7H27.3C26.715 9.165 25.74 7.02 24.57 4.68C28.08 6.045 31.2 8.385 32.955 11.7ZM19.5 3.9C21.06 6.24 22.425 8.775 23.205 11.7H15.795C16.575 8.97 17.94 6.24 19.5 3.9ZM4.485 23.4C4.095 22.23 3.9 20.865 3.9 19.5C3.9 18.135 4.095 16.77 4.485 15.6H11.115C10.92 16.965 10.92 18.135 10.92 19.5C10.92 20.865 11.115 22.035 11.115 23.4H4.485ZM6.045 27.3H11.7C12.285 29.835 13.26 31.98 14.43 34.32C10.92 32.955 7.8 30.615 6.045 27.3ZM11.7 11.7H6.045C7.995 8.385 10.92 6.045 14.43 4.68C13.26 7.02 12.285 9.165 11.7 11.7ZM19.5 35.1C17.94 32.76 16.575 30.225 15.795 27.3H23.205C22.425 30.03 21.06 32.76 19.5 35.1ZM23.985 23.4H15.015C14.82 22.035 14.625 20.865 14.625 19.5C14.625 18.135 14.82 16.965 15.015 15.6H24.18C24.375 16.965 24.57 18.135 24.57 19.5C24.57 20.865 24.18 22.035 23.985 23.4ZM24.57 34.32C25.74 32.175 26.715 29.835 27.3 27.3H32.955C31.2 30.615 28.08 32.955 24.57 34.32ZM28.08 23.4C28.275 22.035 28.275 20.865 28.275 19.5C28.275 18.135 28.08 16.965 28.08 15.6H34.71C35.1 16.77 35.295 18.135 35.295 19.5C35.295 20.865 35.1 22.23 34.71 23.4H28.08Z" fill="#EE5125"/>
</g>
<defs>
<clipPath id="clip0_833_9023">
<rect width="39" height="39" fill="white"/>
</clipPath>
</defs>
</svg>
