<svg width="82" height="70" viewBox="0 0 82 70" fill="none" xmlns="http://www.w3.org/2000/svg">
<path d="M2.88352 43.1818V49H1.82955V44.2074H1.79545L0.434659 45.0767V44.1108L1.88068 43.1818H2.88352ZM6.51136 49.1108C6.04356 49.1108 5.64205 48.9924 5.30682 48.7557C4.97348 48.517 4.71686 48.1733 4.53693 47.7244C4.3589 47.2737 4.26989 46.7311 4.26989 46.0966C4.27178 45.4621 4.36174 44.9223 4.53977 44.4773C4.7197 44.0303 4.97633 43.6894 5.30966 43.4545C5.64489 43.2197 6.04545 43.1023 6.51136 43.1023C6.97727 43.1023 7.37784 43.2197 7.71307 43.4545C8.0483 43.6894 8.30492 44.0303 8.48295 44.4773C8.66288 44.9242 8.75284 45.464 8.75284 46.0966C8.75284 46.733 8.66288 47.2765 8.48295 47.7273C8.30492 48.1761 8.0483 48.5189 7.71307 48.7557C7.37973 48.9924 6.97917 49.1108 6.51136 49.1108ZM6.51136 48.2216C6.875 48.2216 7.16193 48.0426 7.37216 47.6847C7.58428 47.3248 7.69034 46.7955 7.69034 46.0966C7.69034 45.6345 7.64205 45.2462 7.54545 44.9318C7.44886 44.6174 7.3125 44.3807 7.13636 44.2216C6.96023 44.0606 6.75189 43.9801 6.51136 43.9801C6.14962 43.9801 5.86364 44.16 5.65341 44.5199C5.44318 44.8778 5.33712 45.4034 5.33523 46.0966C5.33333 46.5606 5.37973 46.9508 5.47443 47.267C5.57102 47.5833 5.70739 47.822 5.88352 47.983C6.05966 48.142 6.26894 48.2216 6.51136 48.2216ZM9.69673 49V48.2386L11.7166 46.2585C11.9098 46.0634 12.0708 45.8902 12.1996 45.7386C12.3284 45.5871 12.425 45.4403 12.4893 45.2983C12.5537 45.1562 12.5859 45.0047 12.5859 44.8438C12.5859 44.66 12.5443 44.5028 12.4609 44.3722C12.3776 44.2396 12.263 44.1373 12.1172 44.0653C11.9714 43.9934 11.8056 43.9574 11.62 43.9574C11.4287 43.9574 11.2611 43.9972 11.1172 44.0767C10.9732 44.1544 10.8615 44.2652 10.782 44.4091C10.7043 44.553 10.6655 44.7244 10.6655 44.9233H9.66264C9.66264 44.554 9.74692 44.233 9.91548 43.9602C10.084 43.6875 10.3161 43.4763 10.6115 43.3267C10.9089 43.1771 11.2498 43.1023 11.6342 43.1023C12.0244 43.1023 12.3672 43.1752 12.6626 43.321C12.9581 43.4669 13.1873 43.6667 13.3501 43.9205C13.5149 44.1742 13.5973 44.464 13.5973 44.7898C13.5973 45.0076 13.5556 45.2216 13.4723 45.4318C13.389 45.642 13.2422 45.875 13.032 46.1307C12.8236 46.3864 12.531 46.696 12.1541 47.0597L11.1513 48.0795V48.1193H13.6854V49H9.69673ZM17.4851 43.1818L18.9993 47.7614H19.0589L20.5703 43.1818H21.7294L19.6783 49H18.3771L16.3288 43.1818H17.4851ZM23.9134 49.0852C23.4759 49.0852 23.098 48.9943 22.7798 48.8125C22.4635 48.6288 22.2202 48.3693 22.0497 48.0341C21.8793 47.697 21.794 47.3002 21.794 46.8438C21.794 46.3949 21.8793 46.0009 22.0497 45.6619C22.2221 45.321 22.4626 45.0559 22.7713 44.8665C23.08 44.6752 23.4427 44.5795 23.8594 44.5795C24.1283 44.5795 24.3821 44.6231 24.6207 44.7102C24.8613 44.7955 25.0734 44.928 25.2571 45.108C25.4427 45.2879 25.5885 45.517 25.6946 45.7955C25.8007 46.072 25.8537 46.4015 25.8537 46.7841V47.0994H22.277V46.4062H24.8679C24.866 46.2093 24.8234 46.0341 24.7401 45.8807C24.6567 45.7254 24.5402 45.6032 24.3906 45.5142C24.2429 45.4252 24.0705 45.3807 23.8736 45.3807C23.6634 45.3807 23.4787 45.4318 23.3196 45.5341C23.1605 45.6345 23.0365 45.767 22.9474 45.9318C22.8603 46.0947 22.8158 46.2737 22.8139 46.4688V47.0739C22.8139 47.3277 22.8603 47.5455 22.9531 47.7273C23.0459 47.9072 23.1757 48.0455 23.3423 48.142C23.509 48.2367 23.7041 48.2841 23.9276 48.2841C24.0772 48.2841 24.2126 48.2633 24.3338 48.2216C24.455 48.178 24.5601 48.1146 24.6491 48.0312C24.7382 47.9479 24.8054 47.8447 24.8509 47.7216L25.8111 47.8295C25.7505 48.0833 25.6349 48.3049 25.4645 48.4943C25.2959 48.6818 25.08 48.8277 24.8168 48.9318C24.5535 49.0341 24.2524 49.0852 23.9134 49.0852ZM26.7237 49V44.6364H27.7209V45.3636H27.7663C27.8459 45.1117 27.9822 44.9176 28.1754 44.7812C28.3705 44.643 28.593 44.5739 28.843 44.5739C28.8999 44.5739 28.9633 44.5767 29.0334 44.5824C29.1054 44.5862 29.165 44.5928 29.2124 44.6023V45.5483C29.1688 45.5331 29.0997 45.5199 29.005 45.5085C28.9122 45.4953 28.8222 45.4886 28.7351 45.4886C28.5476 45.4886 28.379 45.5294 28.2294 45.6108C28.0817 45.6903 27.9652 45.8011 27.88 45.9432C27.7947 46.0852 27.7521 46.2491 27.7521 46.4347V49H26.7237ZM29.8956 49V44.6364H30.924V49H29.8956ZM30.4126 44.017C30.2498 44.017 30.1096 43.9631 29.9922 43.8551C29.8748 43.7453 29.8161 43.6136 29.8161 43.4602C29.8161 43.3049 29.8748 43.1733 29.9922 43.0653C30.1096 42.9555 30.2498 42.9006 30.4126 42.9006C30.5774 42.9006 30.7176 42.9555 30.8331 43.0653C30.9505 43.1733 31.0092 43.3049 31.0092 43.4602C31.0092 43.6136 30.9505 43.7453 30.8331 43.8551C30.7176 43.9631 30.5774 44.017 30.4126 44.017ZM34.1918 44.6364V45.4318H31.6122V44.6364H34.1918ZM32.2571 49V44.2244C32.2571 43.9309 32.3177 43.6866 32.4389 43.4915C32.562 43.2964 32.7268 43.1506 32.9332 43.054C33.1397 42.9574 33.3688 42.9091 33.6207 42.9091C33.7988 42.9091 33.9569 42.9233 34.0952 42.9517C34.2334 42.9801 34.3357 43.0057 34.402 43.0284L34.1974 43.8239C34.1539 43.8106 34.099 43.7973 34.0327 43.7841C33.9664 43.7689 33.8925 43.7614 33.8111 43.7614C33.6198 43.7614 33.4844 43.8078 33.4048 43.9006C33.3272 43.9915 33.2884 44.1222 33.2884 44.2926V49H32.2571ZM34.9972 49V44.6364H36.0256V49H34.9972ZM35.5142 44.017C35.3513 44.017 35.2112 43.9631 35.0938 43.8551C34.9763 43.7453 34.9176 43.6136 34.9176 43.4602C34.9176 43.3049 34.9763 43.1733 35.0938 43.0653C35.2112 42.9555 35.3513 42.9006 35.5142 42.9006C35.679 42.9006 35.8191 42.9555 35.9347 43.0653C36.0521 43.1733 36.1108 43.3049 36.1108 43.4602C36.1108 43.6136 36.0521 43.7453 35.9347 43.8551C35.8191 43.9631 35.679 44.017 35.5142 44.017ZM39.0149 49.0852C38.5774 49.0852 38.1996 48.9943 37.8814 48.8125C37.5651 48.6288 37.3217 48.3693 37.1513 48.0341C36.9808 47.697 36.8956 47.3002 36.8956 46.8438C36.8956 46.3949 36.9808 46.0009 37.1513 45.6619C37.3236 45.321 37.5642 45.0559 37.8729 44.8665C38.1816 44.6752 38.5443 44.5795 38.9609 44.5795C39.2299 44.5795 39.4837 44.6231 39.7223 44.7102C39.9628 44.7955 40.175 44.928 40.3587 45.108C40.5443 45.2879 40.6901 45.517 40.7962 45.7955C40.9022 46.072 40.9553 46.4015 40.9553 46.7841V47.0994H37.3786V46.4062H39.9695C39.9676 46.2093 39.925 46.0341 39.8416 45.8807C39.7583 45.7254 39.6418 45.6032 39.4922 45.5142C39.3445 45.4252 39.1721 45.3807 38.9751 45.3807C38.7649 45.3807 38.5803 45.4318 38.4212 45.5341C38.2621 45.6345 38.138 45.767 38.049 45.9318C37.9619 46.0947 37.9174 46.2737 37.9155 46.4688V47.0739C37.9155 47.3277 37.9619 47.5455 38.0547 47.7273C38.1475 47.9072 38.2772 48.0455 38.4439 48.142C38.6106 48.2367 38.8056 48.2841 39.0291 48.2841C39.1787 48.2841 39.3142 48.2633 39.4354 48.2216C39.5566 48.178 39.6617 48.1146 39.7507 48.0312C39.8397 47.9479 39.907 47.8447 39.9524 47.7216L40.9126 47.8295C40.852 48.0833 40.7365 48.3049 40.5661 48.4943C40.3975 48.6818 40.1816 48.8277 39.9183 48.9318C39.6551 49.0341 39.3539 49.0852 39.0149 49.0852ZM43.4446 49.0767C43.1018 49.0767 42.795 48.9886 42.5241 48.8125C42.2533 48.6364 42.0393 48.3807 41.8821 48.0455C41.7249 47.7102 41.6463 47.303 41.6463 46.8239C41.6463 46.339 41.7259 45.9299 41.8849 45.5966C42.0459 45.2614 42.2628 45.0085 42.5355 44.8381C42.8082 44.6657 43.1122 44.5795 43.4474 44.5795C43.7031 44.5795 43.9134 44.6231 44.0781 44.7102C44.2429 44.7955 44.3736 44.8987 44.4702 45.0199C44.5668 45.1392 44.6416 45.2519 44.6946 45.358H44.7372V43.1818H45.7685V49H44.7571V48.3125H44.6946C44.6416 48.4186 44.5649 48.5312 44.4645 48.6506C44.3641 48.768 44.2315 48.8684 44.0668 48.9517C43.902 49.035 43.6946 49.0767 43.4446 49.0767ZM43.7315 48.233C43.9493 48.233 44.1349 48.1742 44.2884 48.0568C44.4418 47.9375 44.5582 47.7718 44.6378 47.5597C44.7173 47.3475 44.7571 47.1004 44.7571 46.8182C44.7571 46.536 44.7173 46.2907 44.6378 46.0824C44.5601 45.8741 44.4446 45.7121 44.2912 45.5966C44.1397 45.4811 43.9531 45.4233 43.7315 45.4233C43.5024 45.4233 43.3111 45.483 43.1577 45.6023C43.0043 45.7216 42.8887 45.8864 42.8111 46.0966C42.7334 46.3068 42.6946 46.5473 42.6946 46.8182C42.6946 47.0909 42.7334 47.3343 42.8111 47.5483C42.8906 47.7604 43.0071 47.928 43.1605 48.0511C43.3158 48.1723 43.5062 48.233 43.7315 48.233ZM48.8942 49V43.1818H51.076C51.523 43.1818 51.898 43.2595 52.201 43.4148C52.5059 43.5701 52.736 43.7879 52.8913 44.0682C53.0485 44.3466 53.1271 44.6714 53.1271 45.0426C53.1271 45.4157 53.0476 45.7396 52.8885 46.0142C52.7313 46.2869 52.4993 46.4981 52.1925 46.6477C51.8857 46.7955 51.5088 46.8693 51.0618 46.8693H49.5078V45.9943H50.9197C51.1811 45.9943 51.3951 45.9583 51.5618 45.8864C51.7285 45.8125 51.8516 45.7055 51.9311 45.5653C52.0125 45.4233 52.0533 45.2491 52.0533 45.0426C52.0533 44.8362 52.0125 44.66 51.9311 44.5142C51.8497 44.3665 51.7256 44.2547 51.5589 44.179C51.3923 44.1013 51.1773 44.0625 50.9141 44.0625H49.9482V49H48.8942ZM51.8999 46.3636L53.3402 49H52.1641L50.7493 46.3636H51.8999ZM55.9212 49.0852C55.4837 49.0852 55.1058 48.9943 54.7876 48.8125C54.4714 48.6288 54.228 48.3693 54.0575 48.0341C53.8871 47.697 53.8018 47.3002 53.8018 46.8438C53.8018 46.3949 53.8871 46.0009 54.0575 45.6619C54.2299 45.321 54.4704 45.0559 54.7791 44.8665C55.0878 44.6752 55.4505 44.5795 55.8672 44.5795C56.1361 44.5795 56.3899 44.6231 56.6286 44.7102C56.8691 44.7955 57.0812 44.928 57.2649 45.108C57.4505 45.2879 57.5964 45.517 57.7024 45.7955C57.8085 46.072 57.8615 46.4015 57.8615 46.7841V47.0994H54.2848V46.4062H56.8757C56.8738 46.2093 56.8312 46.0341 56.7479 45.8807C56.6645 45.7254 56.5481 45.6032 56.3984 45.5142C56.2507 45.4252 56.0784 45.3807 55.8814 45.3807C55.6712 45.3807 55.4865 45.4318 55.3274 45.5341C55.1683 45.6345 55.0443 45.767 54.9553 45.9318C54.8681 46.0947 54.8236 46.2737 54.8217 46.4688V47.0739C54.8217 47.3277 54.8681 47.5455 54.9609 47.7273C55.0537 47.9072 55.1835 48.0455 55.3501 48.142C55.5168 48.2367 55.7119 48.2841 55.9354 48.2841C56.085 48.2841 56.2204 48.2633 56.3416 48.2216C56.4628 48.178 56.5679 48.1146 56.657 48.0312C56.746 47.9479 56.8132 47.8447 56.8587 47.7216L57.8189 47.8295C57.7583 48.0833 57.6428 48.3049 57.4723 48.4943C57.3037 48.6818 57.0878 48.8277 56.8246 48.9318C56.5613 49.0341 56.2602 49.0852 55.9212 49.0852ZM62.5043 44.6364L60.9503 49H59.8139L58.2599 44.6364H59.3565L60.3594 47.8778H60.4048L61.4105 44.6364H62.5043ZM63.2159 49V44.6364H64.2443V49H63.2159ZM63.733 44.017C63.5701 44.017 63.4299 43.9631 63.3125 43.8551C63.1951 43.7453 63.1364 43.6136 63.1364 43.4602C63.1364 43.3049 63.1951 43.1733 63.3125 43.0653C63.4299 42.9555 63.5701 42.9006 63.733 42.9006C63.8977 42.9006 64.0379 42.9555 64.1534 43.0653C64.2708 43.1733 64.3295 43.3049 64.3295 43.4602C64.3295 43.6136 64.2708 43.7453 64.1534 43.8551C64.0379 43.9631 63.8977 44.017 63.733 44.017ZM67.2337 49.0852C66.7962 49.0852 66.4183 48.9943 66.1001 48.8125C65.7839 48.6288 65.5405 48.3693 65.37 48.0341C65.1996 47.697 65.1143 47.3002 65.1143 46.8438C65.1143 46.3949 65.1996 46.0009 65.37 45.6619C65.5424 45.321 65.7829 45.0559 66.0916 44.8665C66.4003 44.6752 66.763 44.5795 67.1797 44.5795C67.4486 44.5795 67.7024 44.6231 67.9411 44.7102C68.1816 44.7955 68.3937 44.928 68.5774 45.108C68.763 45.2879 68.9089 45.517 69.0149 45.7955C69.121 46.072 69.174 46.4015 69.174 46.7841V47.0994H65.5973V46.4062H68.1882C68.1863 46.2093 68.1437 46.0341 68.0604 45.8807C67.977 45.7254 67.8606 45.6032 67.7109 45.5142C67.5632 45.4252 67.3909 45.3807 67.1939 45.3807C66.9837 45.3807 66.799 45.4318 66.6399 45.5341C66.4808 45.6345 66.3568 45.767 66.2678 45.9318C66.1806 46.0947 66.1361 46.2737 66.1342 46.4688V47.0739C66.1342 47.3277 66.1806 47.5455 66.2734 47.7273C66.3662 47.9072 66.496 48.0455 66.6626 48.142C66.8293 48.2367 67.0244 48.2841 67.2479 48.2841C67.3975 48.2841 67.5329 48.2633 67.6541 48.2216C67.7753 48.178 67.8804 48.1146 67.9695 48.0312C68.0585 47.9479 68.1257 47.8447 68.1712 47.7216L69.1314 47.8295C69.0708 48.0833 68.9553 48.3049 68.7848 48.4943C68.6162 48.6818 68.4003 48.8277 68.1371 48.9318C67.8738 49.0341 67.5727 49.0852 67.2337 49.0852ZM70.9212 49L69.6882 44.6364H70.7365L71.5036 47.7045H71.5433L72.3274 44.6364H73.3643L74.1484 47.6875H74.1911L74.9467 44.6364H75.9979L74.7621 49H73.6911L72.8729 46.0511H72.8132L71.995 49H70.9212ZM80.1648 45.7898L79.2273 45.892C79.2008 45.7973 79.1544 45.7083 79.0881 45.625C79.0237 45.5417 78.9366 45.4744 78.8267 45.4233C78.7169 45.3722 78.5824 45.3466 78.4233 45.3466C78.2093 45.3466 78.0294 45.393 77.8835 45.4858C77.7396 45.5786 77.6686 45.6989 77.6705 45.8466C77.6686 45.9735 77.715 46.0767 77.8097 46.1562C77.9063 46.2358 78.0653 46.3011 78.2869 46.3523L79.0312 46.5114C79.4441 46.6004 79.7509 46.7415 79.9517 46.9347C80.1544 47.1278 80.2566 47.3807 80.2585 47.6932C80.2566 47.9678 80.1761 48.2102 80.017 48.4205C79.8598 48.6288 79.6411 48.7917 79.3608 48.9091C79.0805 49.0265 78.7585 49.0852 78.3949 49.0852C77.8608 49.0852 77.4309 48.9735 77.1051 48.75C76.7794 48.5246 76.5852 48.2112 76.5227 47.8097L77.5256 47.7131C77.571 47.91 77.6676 48.0587 77.8153 48.1591C77.9631 48.2595 78.1553 48.3097 78.392 48.3097C78.6364 48.3097 78.8324 48.2595 78.9801 48.1591C79.1297 48.0587 79.2045 47.9347 79.2045 47.7869C79.2045 47.6619 79.1563 47.5587 79.0597 47.4773C78.965 47.3958 78.8172 47.3333 78.6165 47.2898L77.8722 47.1335C77.4536 47.0464 77.1439 46.8996 76.9432 46.6932C76.7424 46.4848 76.643 46.2216 76.6449 45.9034C76.643 45.6345 76.7159 45.4015 76.8636 45.2045C77.0133 45.0057 77.2206 44.8523 77.4858 44.7443C77.7528 44.6345 78.0606 44.5795 78.4091 44.5795C78.9205 44.5795 79.3229 44.6884 79.6165 44.9062C79.9119 45.1241 80.0947 45.4186 80.1648 45.7898Z" fill="black"/>
<path d="M35.2142 17.6906C35.2142 21.4746 32.2394 24.263 28.5887 24.263C24.938 24.263 21.9633 21.4746 21.9633 17.6906C21.9633 13.8799 24.938 11.1182 28.5887 11.1182C32.2394 11.1182 35.2142 13.8799 35.2142 17.6906ZM32.3139 17.6906C32.3139 15.3259 30.5897 13.708 28.5887 13.708C26.5877 13.708 24.8636 15.3259 24.8636 17.6906C24.8636 20.0315 26.5877 21.6731 28.5887 21.6731C30.5897 21.6731 32.3139 20.0285 32.3139 17.6906Z" fill="#EA4335"/>
<path d="M49.5073 17.6906C49.5073 21.4746 46.5326 24.263 42.8819 24.263C39.2312 24.263 36.2564 21.4746 36.2564 17.6906C36.2564 13.8828 39.2312 11.1182 42.8819 11.1182C46.5326 11.1182 49.5073 13.8799 49.5073 17.6906ZM46.607 17.6906C46.607 15.3259 44.8829 13.708 42.8819 13.708C40.8808 13.708 39.1567 15.3259 39.1567 17.6906C39.1567 20.0315 40.8808 21.6731 42.8819 21.6731C44.8829 21.6731 46.607 20.0285 46.607 17.6906Z" fill="#FBBC05"/>
<path d="M63.205 11.5152V23.3147C63.205 28.1685 60.3285 30.1508 56.9279 30.1508C53.7268 30.1508 51.8002 28.0203 51.0737 26.2779L53.5988 25.2319C54.0484 26.3016 55.1502 27.564 56.9249 27.564C59.1016 27.564 60.4506 26.2276 60.4506 23.7118V22.7665H60.3493C59.7002 23.5636 58.4495 24.26 56.8713 24.26C53.569 24.26 50.5436 21.3975 50.5436 17.7143C50.5436 14.0043 53.569 11.1182 56.8713 11.1182C58.4465 11.1182 59.6972 11.8145 60.3493 12.5879H60.4506V11.5182H63.205V11.5152ZM60.656 17.7143C60.656 15.4 59.1046 13.708 57.1304 13.708C55.1294 13.708 53.4529 15.4 53.4529 17.7143C53.4529 20.0048 55.1294 21.6731 57.1304 21.6731C59.1046 21.6731 60.656 20.0048 60.656 17.7143Z" fill="#4285F4"/>
<path d="M67.746 4.59863V23.8595H64.9171V4.59863H67.746Z" fill="#34A853"/>
<path d="M78.7695 19.8537L81.0207 21.3472C80.2941 22.4169 78.5432 24.26 75.5179 24.26C71.7659 24.26 68.9639 21.3739 68.9639 17.6876C68.9639 13.7792 71.7897 11.1152 75.1933 11.1152C78.6207 11.1152 80.2971 13.8295 80.845 15.2963L81.1458 16.043L72.3168 19.6819C72.9927 21.0005 74.0439 21.6731 75.5179 21.6731C76.9948 21.6731 78.0192 20.9501 78.7695 19.8537ZM71.8404 17.4891L77.7422 15.0504C77.4176 14.2296 76.441 13.6577 75.2915 13.6577C73.8176 13.6577 71.7659 14.9526 71.8404 17.4891Z" fill="#EA4335"/>
<path d="M11.2555 15.981V13.1926H20.6979C20.7902 13.6786 20.8378 14.2534 20.8378 14.8757C20.8378 16.9677 20.2631 19.5546 18.411 21.3977C16.6094 23.2645 14.3076 24.2602 11.2584 24.2602C5.60671 24.2602 0.854248 19.6791 0.854248 14.0549C0.854248 8.43073 5.60671 3.84961 11.2584 3.84961C14.3851 3.84961 16.6124 5.07045 18.2859 6.66169L16.3087 8.62926C15.1087 7.50917 13.4828 6.63799 11.2555 6.63799C7.12833 6.63799 3.90047 9.94789 3.90047 14.0549C3.90047 18.1619 7.12833 21.4718 11.2555 21.4718C13.9325 21.4718 15.4571 20.4021 16.4337 19.4302C17.2258 18.6419 17.7469 17.5159 17.9524 15.978L11.2555 15.981Z" fill="#4285F4"/>
<path d="M14.8334 61.133C14.8334 61.2497 14.7727 61.3664 14.6514 61.4831L12.1063 63.933L12.7089 67.4914C12.7136 67.4914 12.7159 67.5497 12.7159 67.6081C12.7159 67.7247 12.6902 67.783 12.6389 67.8413C12.5922 67.8997 12.5222 67.9581 12.4283 67.9581C12.3397 67.9581 12.2463 67.9581 12.1483 67.8997L9.00008 66.2081L5.85206 67.8997C5.74922 67.9581 5.65571 67.9581 5.5716 67.9581C5.47342 67.9581 5.39864 67.8997 5.34725 67.8413C5.30046 67.783 5.27713 67.7247 5.27713 67.6081C5.27713 67.6081 5.2818 67.5497 5.29113 67.4914L5.89412 63.933L3.34204 61.4831C3.2252 61.3664 3.16675 61.2497 3.16675 61.133C3.16675 60.958 3.29765 60.8413 3.55939 60.8413L7.07899 60.3164L8.6565 57.1081C8.74516 56.9331 8.86008 56.8164 9.00008 56.8164C9.14008 56.8164 9.255 56.9331 9.34366 57.1081L10.921 60.3164L14.4408 60.8413C14.7027 60.8413 14.8334 60.958 14.8334 61.133Z" fill="#F1C40F"/>
<path d="M30.8334 61.133C30.8334 61.2497 30.7727 61.3664 30.6514 61.4831L28.1063 63.933L28.7089 67.4914C28.7136 67.4914 28.7159 67.5497 28.7159 67.6081C28.7159 67.7247 28.6902 67.783 28.6389 67.8413C28.5922 67.8997 28.5222 67.9581 28.4283 67.9581C28.3397 67.9581 28.2463 67.9581 28.1483 67.8997L25.0001 66.2081L21.8521 67.8997C21.7492 67.9581 21.6557 67.9581 21.5716 67.9581C21.4734 67.9581 21.3986 67.8997 21.3472 67.8413C21.3005 67.783 21.2771 67.7247 21.2771 67.6081C21.2771 67.6081 21.2818 67.5497 21.2911 67.4914L21.8941 63.933L19.342 61.4831C19.2252 61.3664 19.1667 61.2497 19.1667 61.133C19.1667 60.958 19.2976 60.8413 19.5594 60.8413L23.079 60.3164L24.6565 57.1081C24.7452 56.9331 24.8601 56.8164 25.0001 56.8164C25.1401 56.8164 25.255 56.9331 25.3437 57.1081L26.921 60.3164L30.4408 60.8413C30.7027 60.8413 30.8334 60.958 30.8334 61.133Z" fill="#F1C40F"/>
<path d="M46.8334 61.133C46.8334 61.2497 46.7727 61.3664 46.6514 61.4831L44.1063 63.933L44.7089 67.4914C44.7136 67.4914 44.7159 67.5497 44.7159 67.6081C44.7159 67.7247 44.6902 67.783 44.6389 67.8413C44.5922 67.8997 44.5222 67.9581 44.4283 67.9581C44.3397 67.9581 44.2463 67.9581 44.1483 67.8997L41.0001 66.2081L37.8521 67.8997C37.7492 67.9581 37.6557 67.9581 37.5716 67.9581C37.4734 67.9581 37.3986 67.8997 37.3472 67.8413C37.3005 67.783 37.2771 67.7247 37.2771 67.6081C37.2771 67.6081 37.2818 67.5497 37.2911 67.4914L37.8941 63.933L35.342 61.4831C35.2252 61.3664 35.1667 61.2497 35.1667 61.133C35.1667 60.958 35.2976 60.8413 35.5594 60.8413L39.079 60.3164L40.6565 57.1081C40.7452 56.9331 40.8601 56.8164 41.0001 56.8164C41.1401 56.8164 41.255 56.9331 41.3437 57.1081L42.921 60.3164L46.4408 60.8413C46.7027 60.8413 46.8334 60.958 46.8334 61.133Z" fill="#F1C40F"/>
<path d="M62.8334 61.133C62.8334 61.2497 62.7727 61.3664 62.6514 61.4831L60.1063 63.933L60.7089 67.4914C60.7136 67.4914 60.7159 67.5497 60.7159 67.6081C60.7159 67.7247 60.6902 67.783 60.6389 67.8413C60.5922 67.8997 60.5222 67.9581 60.4283 67.9581C60.3397 67.9581 60.2463 67.9581 60.1483 67.8997L57.0001 66.2081L53.8521 67.8997C53.7492 67.9581 53.6557 67.9581 53.5716 67.9581C53.4734 67.9581 53.3986 67.8997 53.3472 67.8413C53.3005 67.783 53.2771 67.7247 53.2771 67.6081C53.2771 67.6081 53.2818 67.5497 53.2911 67.4914L53.8941 63.933L51.342 61.4831C51.2252 61.3664 51.1667 61.2497 51.1667 61.133C51.1667 60.958 51.2976 60.8413 51.5594 60.8413L55.079 60.3164L56.6565 57.1081C56.7452 56.9331 56.8601 56.8164 57.0001 56.8164C57.1401 56.8164 57.255 56.9331 57.3437 57.1081L58.921 60.3164L62.4408 60.8413C62.7027 60.8413 62.8334 60.958 62.8334 61.133Z" fill="#F1C40F"/>
<path d="M78.8334 61.133C78.8334 61.2497 78.7727 61.3664 78.6514 61.4831L76.1063 63.933L76.7089 67.4914C76.7136 67.4914 76.7159 67.5497 76.7159 67.6081C76.7159 67.7247 76.6902 67.783 76.6389 67.8413C76.5922 67.8997 76.5222 67.9581 76.4283 67.9581C76.3397 67.9581 76.2463 67.9581 76.1483 67.8997L73.0001 66.2081L69.8521 67.8997C69.7492 67.9581 69.6557 67.9581 69.5716 67.9581C69.4734 67.9581 69.3986 67.8997 69.3472 67.8413C69.3005 67.783 69.2771 67.7247 69.2771 67.6081C69.2771 67.6081 69.2818 67.5497 69.2911 67.4914L69.8941 63.933L67.342 61.4831C67.2252 61.3664 67.1667 61.2497 67.1667 61.133C67.1667 60.958 67.2976 60.8413 67.5594 60.8413L71.079 60.3164L72.6565 57.1081C72.7452 56.9331 72.8601 56.8164 73.0001 56.8164C73.1401 56.8164 73.255 56.9331 73.3437 57.1081L74.921 60.3164L78.4408 60.8413C78.7027 60.8413 78.8334 60.958 78.8334 61.133Z" fill="#F1C40F"/>
</svg>
