<svg width="101" height="48" viewBox="0 0 101 48" fill="none" xmlns="http://www.w3.org/2000/svg">
<g clip-path="url(#clip0_102_3216)">
<path d="M11.1941 9.155C9.22776 9.152 7.29556 9.66953 5.594 10.655V0.523987C5.594 0.385186 5.53897 0.252079 5.44092 0.153839C5.34287 0.0555987 5.20985 0.000264886 5.07105 0H0.525147C0.386347 0.000264886 0.253327 0.0555987 0.155274 0.153839C0.0572215 0.252079 0.00195383 0.385186 0.00195408 0.523987V30.966C0.0018226 31.0348 0.0152805 31.1029 0.0415049 31.1664C0.0677292 31.23 0.106208 31.2878 0.154786 31.3365C0.203364 31.3851 0.261189 31.4238 0.324708 31.4501C0.388227 31.4764 0.456382 31.49 0.525147 31.49H5.07105C5.13981 31.49 5.20797 31.4764 5.27149 31.4501C5.335 31.4238 5.39258 31.3851 5.44116 31.3365C5.48974 31.2878 5.52822 31.23 5.55444 31.1664C5.58067 31.1029 5.59413 31.0348 5.594 30.966V20.352H5.60108C5.60108 18.8685 6.19027 17.4458 7.23926 16.3968C8.28824 15.3478 9.71109 14.7585 11.1946 14.7585C12.6781 14.7585 14.1007 15.3478 15.1497 16.3968C16.1986 17.4458 16.7881 18.8685 16.7881 20.352V30.967C16.7881 31.1057 16.8431 31.2387 16.9412 31.3368C17.0392 31.4349 17.1723 31.49 17.311 31.49H21.8579C21.9966 31.49 22.1297 31.4349 22.2278 31.3368C22.3259 31.2387 22.3811 31.1057 22.3811 30.967V20.352H22.3879C22.3885 18.8817 22.0994 17.4257 21.5371 16.0672C20.9748 14.7086 20.1504 13.4742 19.1108 12.4344C18.0713 11.3946 16.8371 10.5698 15.4788 10.0071C14.1204 9.44442 12.6644 9.15487 11.1941 9.155Z" fill="white"/>
<path d="M60.292 9.15497C58.3257 9.15202 56.3937 9.66954 54.6921 10.655V9.67596C54.6923 9.6072 54.6788 9.53909 54.6526 9.47552C54.6264 9.41196 54.5879 9.35418 54.5393 9.30551C54.4907 9.25684 54.4329 9.21821 54.3694 9.19186C54.3059 9.16552 54.2377 9.15198 54.1689 9.15198H49.623C49.4841 9.15198 49.3507 9.20718 49.2524 9.30545C49.1542 9.40372 49.0991 9.53699 49.0991 9.67596V30.963C49.0991 31.1019 49.1542 31.2352 49.2524 31.3335C49.3507 31.4318 49.4841 31.487 49.623 31.487H54.1689C54.2377 31.487 54.3059 31.4734 54.3694 31.4471C54.4329 31.4207 54.4907 31.3821 54.5393 31.3334C54.5879 31.2848 54.6264 31.227 54.6526 31.1634C54.6788 31.0999 54.6923 31.0317 54.6921 30.963V20.352H54.699C54.699 18.8685 55.2884 17.4457 56.3374 16.3968C57.3864 15.3478 58.809 14.7585 60.2925 14.7585C61.776 14.7585 63.1988 15.3478 64.2478 16.3968C65.2968 17.4457 65.886 18.8685 65.886 20.352V30.9669C65.8863 31.1057 65.9416 31.2388 66.0398 31.3369C66.138 31.4349 66.2711 31.49 66.4099 31.49H70.9561C71.0247 31.49 71.0928 31.4764 71.1562 31.4502C71.2197 31.4239 71.2774 31.3854 71.3259 31.3368C71.3745 31.2882 71.4129 31.2306 71.4392 31.1671C71.4655 31.1037 71.479 31.0356 71.479 30.9669V20.352H71.4861C71.4865 18.8817 71.1971 17.4258 70.6348 16.0673C70.0724 14.7088 69.248 13.4744 68.2085 12.4347C67.169 11.3949 65.9347 10.5701 64.5764 10.0074C63.2181 9.44462 61.7623 9.15497 60.292 9.15497Z" fill="white"/>
<path d="M45.6321 9.15604H41.0859C40.9472 9.15604 40.8141 9.21112 40.7161 9.3092C40.618 9.40729 40.563 9.54031 40.563 9.67902V20.294H40.5549C40.5648 21.0347 40.4275 21.77 40.1509 22.4572C39.8743 23.1444 39.4639 23.7698 38.9436 24.2971C38.4233 24.8244 37.8036 25.2431 37.1201 25.5289C36.4367 25.8146 35.7032 25.9618 34.9624 25.9618C34.2216 25.9618 33.4884 25.8146 32.8049 25.5289C32.1215 25.2431 31.5015 24.8244 30.9812 24.2971C30.4609 23.7698 30.0505 23.1444 29.7739 22.4572C29.4973 21.77 29.3602 21.0347 29.3701 20.294V9.67703C29.3701 9.53859 29.3149 9.40582 29.217 9.30792C29.1191 9.21003 28.9863 9.15503 28.8479 9.15503H24.3C24.1616 9.15503 24.0288 9.21003 23.9309 9.30792C23.833 9.40582 23.7781 9.53859 23.7781 9.67703V20.293H23.771C23.7706 22.2584 24.2879 24.1893 25.2705 25.8914C26.2532 27.5935 27.6667 29.0069 29.3689 29.9894C31.0711 30.9719 33.0019 31.4888 34.9673 31.4882C36.9327 31.4876 38.8633 30.9695 40.5649 29.986V36.806C40.565 38.1902 40.0515 39.5252 39.124 40.5526C38.1965 41.5801 36.9209 42.2269 35.5439 42.368C35.354 42.389 35.163 42.3993 34.9719 42.399C34.7809 42.399 34.593 42.389 34.408 42.37H34.3979C34.2173 42.3515 34.0379 42.3238 33.8601 42.287C33.8528 42.2876 33.8454 42.2859 33.8391 42.282C33.6691 42.248 33.4991 42.203 33.3391 42.154C33.3281 42.1503 33.3165 42.1476 33.3049 42.146C33.1459 42.094 32.986 42.033 32.832 41.971C32.8165 41.966 32.8015 41.9596 32.7871 41.952C32.6381 41.89 32.4871 41.819 32.3511 41.743L32.293 41.714C32.157 41.636 32.0241 41.555 31.8931 41.468L31.8301 41.429C31.7051 41.343 31.5821 41.252 31.4641 41.157C31.4425 41.1374 31.4197 41.119 31.396 41.102C31.323 41.04 31.25 40.974 31.179 40.909C31.1294 40.8605 31.0628 40.8333 30.9934 40.8333C30.924 40.8333 30.8576 40.8605 30.8081 40.909L27.218 44.501C27.1705 44.549 27.1431 44.6134 27.1416 44.6809C27.1401 44.7485 27.1646 44.814 27.21 44.864L27.218 44.872L27.231 44.88C28.3404 45.9481 29.6587 46.7754 31.103 47.31C31.103 47.31 31.1031 47.31 31.1111 47.31C31.2701 47.37 31.4351 47.422 31.5991 47.477C31.6091 47.477 31.6201 47.485 31.6331 47.487C31.7901 47.537 31.952 47.581 32.116 47.625L32.1631 47.638C32.3191 47.68 32.476 47.714 32.636 47.747L32.709 47.765C32.855 47.794 33.0089 47.82 33.1589 47.844C33.1941 47.8527 33.23 47.8587 33.2661 47.862C33.4121 47.885 33.5661 47.904 33.7151 47.922C33.7521 47.927 33.788 47.932 33.825 47.935C33.982 47.951 34.1359 47.964 34.2949 47.972L34.395 47.98C34.586 47.99 34.7789 47.996 34.9729 47.996C37.882 47.9969 40.6771 46.8648 42.7656 44.8397C44.8542 42.8146 46.072 40.0558 46.1609 37.148V9.67801C46.1608 9.6089 46.1471 9.54054 46.1204 9.47681C46.0936 9.41307 46.0546 9.35527 46.0054 9.30673C45.9562 9.25819 45.8978 9.21987 45.8337 9.194C45.7697 9.16813 45.7012 9.15524 45.6321 9.15604Z" fill="white"/>
<path d="M86.8459 3.51599C84.0796 3.51599 81.3753 4.33632 79.0752 5.87323C76.775 7.41014 74.9822 9.59463 73.9236 12.1504C72.8649 14.7062 72.588 17.5185 73.1277 20.2317C73.6674 22.9449 74.9994 25.4372 76.9555 27.3933C78.9117 29.3494 81.4039 30.6816 84.1172 31.2213C86.8304 31.7609 89.6427 31.4839 92.1985 30.4253C94.7543 29.3666 96.9389 27.5739 98.4758 25.2738C100.013 22.9736 100.833 20.2694 100.833 17.503C100.833 15.6662 100.471 13.8474 99.7683 12.1504C99.0654 10.4534 98.0351 8.91151 96.7363 7.6127C95.4375 6.31389 93.8954 5.2836 92.1985 4.58069C90.5015 3.87778 88.6827 3.51599 86.8459 3.51599ZM86.8459 25.903C85.1846 25.903 83.5605 25.4103 82.1792 24.4873C80.7978 23.5643 79.7212 22.2524 79.0854 20.7175C78.4496 19.1826 78.2833 17.4937 78.6074 15.8643C78.9315 14.2348 79.7315 12.7381 80.9062 11.5633C82.081 10.3885 83.5778 9.58852 85.2072 9.2644C86.8367 8.94029 88.5256 9.10663 90.0605 9.7424C91.5954 10.3782 92.9073 11.4548 93.8303 12.8362C94.7533 14.2176 95.2458 15.8416 95.2458 17.503C95.2458 19.7308 94.3609 21.8674 92.7856 23.4427C91.2103 25.018 89.0737 25.903 86.8459 25.903Z" fill="white"/>
<path d="M96.437 0V0.789001H95.3081V4.181H94.4839V0.790009H93.3611V0.00100708L96.437 0Z" fill="white"/>
<path d="M100.833 0V4.17999H100.015V1.46899L98.8361 3.40799H98.736L97.5629 1.47501V4.17499H96.7389V-0.00500488H97.5871L98.787 1.96899L99.9789 -0.00500488L100.833 0Z" fill="white"/>
</g>
<defs>
<clipPath id="clip0_102_3216">
<rect width="100.833" height="48.001" fill="white"/>
</clipPath>
</defs>
</svg>
