<svg width="100" height="100" viewBox="0 0 100 100" fill="none" xmlns="http://www.w3.org/2000/svg">
<g clip-path="url(#clip0_2738_15692)">
<path d="M50.0291 100.108C77.7028 100.108 100.137 77.6738 100.137 50.0001C100.137 22.3263 77.7028 -0.107666 50.0291 -0.107666C22.3553 -0.107666 -0.0786743 22.3263 -0.0786743 50.0001C-0.0786743 77.6738 22.3553 100.108 50.0291 100.108Z" fill="white"/>
<path d="M50.029 1.26514C28.9579 1.26514 11.0197 14.6762 4.28271 33.4281H95.7753C89.0383 14.6763 71.1002 1.26514 50.029 1.26514Z" fill="#F37022"/>
<path d="M50.029 98.4571C71.122 98.4571 89.0754 85.0182 95.7961 66.2361H4.2619C10.9826 85.0182 28.9361 98.4571 50.029 98.4571Z" fill="#0F823F"/>
<path d="M34.7479 91.1477L37.852 82.4877L34.601 79.7985L32.1269 73.6533L30.371 63.198V56.7337L30.6901 51.546L32.2863 47.6352C32.2863 47.6352 31.8074 41.0109 31.8872 38.7762L31.9671 36.5416L33.8825 22.7344L35.3191 20.021L37.3944 18.2654L39.3095 18.1854L40.1078 17.866C40.1078 17.866 40.3471 16.19 41.1452 15.1527L41.9433 14.1149L44.0183 12.8379L46.8916 13.6917L50.2497 9.31788L53.0995 8.49976L55.4415 10.3902L56.0905 12.93L59.2791 12.2524L61.3108 13.2119L62.4394 15.7233L64.5838 39.228L65.5152 47.0442L68.7316 40.9491L71.9485 38.184L75.6732 38.0146L77.4228 40.6671L74.1493 65.6674L72.2869 71.3108L64.9962 80.4546L62.2982 87.0557L62.324 90.5343L35.0059 91.5229L34.7478 91.1475L34.7479 91.1477Z" fill="white"/>
<path d="M34.7479 91.1476C34.6016 90.7268 34.3762 89.1567 34.2472 87.6585C33.6676 80.9138 33.6293 80.6358 33.1665 79.8482C32.4752 78.6714 31.4283 75.3376 30.7826 72.2564C29.0392 63.936 29.0021 54.9244 30.6883 49.4772C31.0245 48.3915 31.195 47.1569 31.2466 45.4313C31.3989 40.3418 31.7944 33.4197 32.0136 32C32.1385 31.1931 32.3866 29.1444 32.5648 27.4481C33.2041 21.3649 34.9757 18.4473 38.5934 17.5202C39.6508 17.249 39.7619 17.1515 40.2372 16.077C40.5174 15.4432 41.1231 14.5594 41.5829 14.1126C42.8544 12.8774 43.7305 12.5486 45.5892 12.6091L47.1928 12.661L47.6447 11.7776C49.0837 8.96495 51.4344 7.6342 53.8253 8.27765C54.851 8.55397 56.3141 9.9681 56.8046 11.1578C57.0939 11.8593 57.1223 11.8707 58.2888 11.7503C59.8545 11.5886 60.9172 11.9658 61.8712 13.0214C63.3194 14.6241 63.5615 15.7286 64.0696 23.0432L65.7031 44.1047C65.9906 44.3919 66.775 43.4473 67.4851 41.96C68.3558 40.1345 69.9831 38.4794 71.6802 37.6927C74.124 36.5593 76.8225 37.0466 77.7207 38.783C78.1766 39.6645 78.1422 41.8294 77.62 45.1535C77.3811 46.6724 76.9684 50.2004 76.7023 52.9938C75.7564 62.9204 74.8 67.3228 72.6082 71.8425C71.5394 74.0461 70.524 75.411 67.4261 78.8082C66.1128 80.2491 64.7416 81.9626 64.3797 82.6173C63.7539 83.7473 63.7172 83.9652 63.6479 86.967C63.5653 90.5521 63.4987 90.6917 61.8785 90.6917C60.6411 90.6917 60.342 90.2085 60.5498 88.5439L60.6987 87.3539L58.7103 86.7411C56.4976 86.0598 56.1208 85.8396 56.7981 85.6245C57.0512 85.5441 57.5883 85.1022 57.9917 84.643C58.6512 83.8921 58.6814 83.799 58.2926 83.7241C58.0547 83.6786 57.1886 83.7676 56.3677 83.9225C54.7777 84.2227 53.5444 84.0145 52.9957 83.3539C52.4315 82.6739 52.9762 82.5256 55.4529 82.6867L57.8603 82.8423L60.0316 81.713C66.9806 78.1 71.4978 72.4481 73.2898 65.1253C73.9487 62.4342 75.9341 46.3269 75.6972 45.5945C75.6282 45.3809 75.2665 45.0328 74.8936 44.8214C74.0022 44.3154 74.038 44.0482 75.023 43.8631C75.6643 43.7432 75.8964 43.5534 76.1514 42.9438C76.6046 41.8586 76.2004 40.0447 75.3053 39.1502C74.7319 38.5769 74.5201 38.5047 73.6884 38.5986C70.6891 38.9366 68.5851 41.4486 67.4084 46.0979L66.9041 48.0895L67.3067 51.3209C67.5286 53.0988 67.6437 54.6595 67.5631 54.7891C67.3046 55.2077 66.8644 55.0427 66.3383 54.3309C65.8359 53.652 65.8147 53.6456 65.3629 54.049C65.1095 54.2758 64.2121 55.8893 63.3703 57.6348C62.5279 59.3797 61.6798 60.9398 61.4856 61.1005C61.2127 61.3273 60.9691 61.3369 60.4132 61.1432C59.5182 60.8309 59.0709 61.1692 58.6352 62.4895C58.4698 62.9909 58.251 63.4524 58.1486 63.5156C57.9044 63.6662 57.9196 61.4668 58.1702 60.387C58.3929 59.4277 58.2768 59.3696 57.218 59.9077C54.1052 61.4896 48.7015 67.6132 47.359 71.0805C46.3789 73.6114 46.1837 73.9877 45.8497 73.9877C45.4335 73.9877 45.4706 73.5224 45.9918 72.1992C46.2813 71.4655 46.3552 71.0209 46.2033 70.9273C45.9193 70.7515 45.1569 71.4071 44.9736 71.9857C44.8334 72.4269 44.1929 72.5802 44.1929 72.1729C44.1929 71.2132 46.5317 68.1175 47.9235 67.2346C48.4655 66.891 49.3352 66.0603 49.8561 65.3889C50.3769 64.7176 51.9328 63.0506 53.3131 61.6848C55.9459 59.0797 58.5734 57.3231 60.6266 56.7957C61.7754 56.501 62.3253 55.8554 63.4761 53.452C64.2099 51.9179 64.2831 51.5904 64.2763 49.84C64.2603 45.384 63.4305 42.5553 61.9305 41.8435C60.9494 41.3778 59.0296 41.3813 55.9951 41.854C53.7739 42.2001 53.5851 42.2001 53.3321 41.854C53.1281 41.5751 52.6983 41.4819 51.6173 41.4828C49.2752 41.4846 48.6672 41.7633 46.481 43.8352C45.3928 44.866 44.2788 45.8297 44.0051 45.9759C43.5227 46.2341 43.5117 46.2154 43.6484 45.3594C43.8443 44.1348 43.4708 43.5131 42.5385 43.5131C41.7966 43.5131 40.809 44.0507 38.0623 45.9506C36.5979 46.9634 35.7509 47.1107 35.3224 46.4262C34.8438 45.6611 35.3206 44.9573 36.7971 44.2492C39.1516 43.1197 39.0081 43.6347 39.0648 36.1152C39.0918 32.509 39.0538 29.4974 38.9802 29.423C38.9065 29.3485 38.4109 29.4404 37.8794 29.628C36.6705 30.0544 35.8409 30.0665 35.8409 29.6578C35.8409 29.1472 36.3326 28.9049 37.7034 28.7389L39.0014 28.582V24.3593C39.0014 19.724 38.8572 19.1332 37.7254 19.1332C35.6856 19.1332 33.9692 22.6846 33.5791 27.7112C33.4683 29.1391 33.2215 30.9676 33.0301 31.7745C32.5783 33.6829 32.4249 45.5758 32.8328 47.099C33.0751 48.004 33.0521 48.159 32.5631 48.9047C31.5766 50.4103 31.0708 52.7868 30.9368 56.5492C30.7976 60.4581 30.6839 60.266 32.7261 59.5631C35.238 58.6989 34.6646 60.0856 32.0757 61.1368L30.8101 61.6503L30.9503 64.1507C31.3512 71.2956 33.5029 77.8382 36.5078 81.0505L37.8518 82.4872L37.2652 83.9371C36.9425 84.7344 36.3772 86.6564 36.0089 88.2083C35.0963 92.0521 35.0782 92.0953 34.7477 91.1474L34.7479 91.1476ZM42.9107 41.3904C43.6713 40.8161 45.7046 40.1272 46.6396 40.1272H47.1977L47.0426 33.9761L46.9513 26.2447C47.0958 22.668 46.8509 15.6321 46.5618 15.0701C46.0655 14.1052 45.3494 13.6135 44.4399 13.6135C42.7168 13.6135 41.2378 15.2903 40.814 17.7244C40.6655 18.5759 40.4901 22.8684 40.415 27.4848C40.196 40.961 40.1904 40.6325 40.6432 41.323C41.1493 42.0945 41.9463 42.1185 42.9105 41.3906V41.3905L42.9107 41.3904ZM42.6934 35.3338C42.5014 35.023 43.0549 34.717 43.8172 34.713C44.2226 34.7105 44.423 34.811 44.3647 34.986C44.2459 35.3424 42.875 35.6276 42.6934 35.3338ZM42.7637 24.6806C42.5907 24.2299 43.1453 23.8354 44.0096 23.7952C45.0382 23.7476 45.1503 24.41 44.1713 24.7509C43.2166 25.0838 42.9127 25.0687 42.7638 24.6806H42.7637ZM53.6742 39.9018C55.2592 38.7731 55.9069 35.7042 55.5071 31.2161C55.3686 29.6602 55.1928 24.6036 55.1169 19.9793C54.9794 11.6171 54.9755 11.5668 54.4402 10.7312C53.7563 9.66352 52.7459 9.12125 51.8198 9.32476C50.8264 9.54293 49.2987 11.0493 48.6772 12.4232L48.144 13.6034L48.1141 25.3415C48.0823 37.8281 48.0854 37.8675 49.1536 38.2068C49.5211 38.3235 49.6111 38.546 49.6111 39.3373C49.6111 40.2366 49.6656 40.3325 50.2321 40.4285C51.5115 40.6459 52.9348 40.4278 53.6742 39.9017V39.9018ZM50.9654 32.1364C50.9654 31.7726 51.446 31.5479 52.2251 31.5479C52.8392 31.5479 52.9752 32.0983 52.414 32.314C51.7708 32.5609 50.9654 32.4623 50.9654 32.1364ZM50.1821 23.2067C49.8172 22.6159 51.0881 21.9588 52.1463 22.1914C52.6513 22.3022 52.7815 22.4433 52.728 22.8213C52.6686 23.2377 52.4893 23.3181 51.4935 23.3759C50.8484 23.4133 50.2632 23.3378 50.1821 23.2067ZM62.2736 39.7523C63.7437 39.1641 63.8716 38.6272 63.5919 34.2158C63.2206 28.3545 62.3002 18.9399 61.9239 17.151C61.324 14.2989 60.4109 13.0375 58.9458 13.0375C58.11 13.0375 57.0151 13.8597 56.4309 14.9266C56.0896 15.5504 56.0503 16.3221 56.0961 21.5027C56.1246 24.7306 56.2645 28.8445 56.4064 30.6447C56.5914 32.9903 56.597 34.3881 56.4263 35.5765C56.2952 36.4884 56.2408 37.3729 56.3056 37.5414C56.3703 37.7099 56.7711 38.053 57.1967 38.3037C57.6224 38.5544 58.0632 39.0059 58.1778 39.3065C58.2923 39.6071 58.5191 39.9061 58.6821 39.9712C59.3305 40.2308 61.3916 40.1049 62.2734 39.7523L62.2735 39.752L62.2736 39.7523ZM58.7237 31.214C58.6359 30.9854 58.7044 30.743 58.8896 30.6255C59.3913 30.3078 60.2227 30.3877 60.3682 30.7674C60.539 31.2125 60.4553 31.2863 59.5863 31.4601C59.0336 31.5708 58.8393 31.5158 58.7235 31.214H58.7237ZM58.1889 22.1083C58.1889 21.7258 58.8311 21.3537 59.3614 21.4288C60.237 21.553 59.9915 22.1708 59.0356 22.2501C58.5698 22.2885 58.1891 22.2247 58.1891 22.1083H58.1889ZM38.9625 89.7323C38.9416 89.5772 38.9149 88.8404 38.9035 88.0956C38.8921 87.3509 38.7968 86.2602 38.6913 85.6722L38.4993 84.6031L39.5967 84.9359C40.8435 85.3143 42.0729 85.3742 42.2636 85.0656C42.3344 84.9506 42.0725 84.6294 41.682 84.3511C41.0293 83.8864 41.0036 83.8218 41.3648 83.5578C41.7614 83.2679 45.7455 82.2722 47.5225 82.0194C48.2469 81.916 48.4822 81.9575 48.4822 82.1888C48.4822 82.6071 47.836 83.1583 46.8756 83.5592C45.8081 84.0055 45.3415 84.5535 45.7876 84.8373C45.966 84.9507 46.2356 84.9984 46.3868 84.9427C46.538 84.887 46.7232 84.941 46.7982 85.0631C46.8734 85.1839 46.5811 85.431 46.149 85.6115C45.7168 85.792 45.1255 86.2283 44.8348 86.5803C44.5421 86.935 43.6269 87.5027 42.7841 87.8524C41.8651 88.2332 40.9959 88.787 40.5901 89.249C39.9225 90.0091 39.0364 90.2722 38.9625 89.7323ZM37.8725 71.149C37.8725 70.839 40.4954 67.7876 42.4586 65.8138C44.8528 63.4071 47.6933 61.1176 51.4482 58.5674C54.3958 56.5655 57.2387 54.9024 57.4139 55.078C57.5217 55.1857 54.1634 57.9059 50.1229 60.9831C48.8527 61.9504 46.4734 63.9084 44.8359 65.3342C40.0491 69.5017 37.8725 71.3198 37.8725 71.149ZM39.6782 57.1943C39.6782 57.0398 43.0048 54.9581 45.6377 53.4658C49.5041 51.2745 55.7811 48.4793 56.106 48.8041C56.4507 49.1491 47.1863 54.1735 43.0643 55.8767L40.5249 56.9325C40.0591 57.1286 39.6783 57.2463 39.6783 57.1947V57.1943H39.6782ZM35.4117 37.156C34.9692 36.9926 34.9318 36.9071 35.1748 36.6141C35.5402 36.1743 36.6042 36.2817 36.6963 36.7678C36.7818 37.2183 36.1203 37.4181 35.4117 37.156Z" fill="black"/>
</g>
<defs>
<clipPath id="clip0_2738_15692">
<rect width="100" height="100" fill="white"/>
</clipPath>
</defs>
</svg>
