<svg width="112" height="58" viewBox="0 0 112 58" fill="none" xmlns="http://www.w3.org/2000/svg">
<g clip-path="url(#clip0_627_10976)">
<path d="M0 0H112V48C112 53.5229 107.523 58 102 58H10C4.47715 58 0 53.5228 0 48V0Z" fill="white"/>
<path d="M28.2772 20.7105C28.2772 20.735 28.2793 20.7493 28.2772 20.7656C28.2425 21.1452 28.2078 21.5227 28.1711 21.9023C28.1527 22.0881 28.1344 22.2738 28.1119 22.4595C28.1078 22.4983 28.0833 22.5391 28.0609 22.5738C27.6752 23.1452 27.2895 23.7146 26.9037 24.286C26.1997 25.3268 25.4956 26.3676 24.7915 27.4064C24.7691 27.4411 24.7466 27.4758 24.714 27.5289C24.767 27.5329 24.8017 27.537 24.8364 27.537C25.0833 27.5431 25.3282 27.5472 25.5752 27.5513C26.1691 27.5615 26.7629 27.5676 27.3568 27.5778C27.8364 27.586 28.314 27.5983 28.7935 27.6085C29.2691 27.6187 29.7446 27.6248 30.2201 27.635C30.4854 27.6391 30.7507 27.6452 31.018 27.6493C31.5527 27.6574 32.0874 27.6758 32.6221 27.6738C33.2833 27.6717 33.7874 27.384 34.1058 26.7962C34.2711 26.4921 34.3629 26.1656 34.4037 25.8248C34.4282 25.6125 34.4487 25.3983 34.4405 25.1881C34.4303 24.9125 34.3935 24.6391 34.3568 24.3656C34.2976 23.9227 34.2323 23.4819 34.167 23.0411C34.0976 22.5676 34.0282 22.0942 33.9609 21.6207C33.8997 21.1921 33.8384 20.7636 33.7752 20.337C33.7119 19.8983 33.6486 19.4615 33.5854 19.0227C33.5242 18.6003 33.465 18.1799 33.4037 17.7574C33.3405 17.3166 33.2752 16.8758 33.2119 16.4329C33.1507 16.0023 33.0895 15.5697 33.0262 15.137C32.9629 14.7064 32.9017 14.2738 32.8364 13.8431C32.7895 13.5248 32.7466 13.2064 32.6915 12.8901C32.6058 12.4044 32.465 11.9329 32.2364 11.4921C32.0568 11.1472 31.8201 10.8493 31.5119 10.6085C31.2017 10.3676 30.8486 10.2554 30.4568 10.2778C30.2425 10.2901 30.0384 10.3534 29.8446 10.4432C29.3874 10.6554 29.0078 10.9697 28.667 11.335C28.4099 11.6125 28.1935 11.9207 27.9793 12.2329C26.7344 14.0309 25.4874 15.8289 24.2405 17.6268C22.9078 19.5493 21.5731 21.4697 20.2405 23.3901C19.4425 24.5411 18.6384 25.6881 17.8486 26.8452C17.5282 27.3146 17.1691 27.7452 16.7425 28.1207C16.1793 28.6166 15.5466 28.9921 14.8242 29.2105C14.3731 29.3472 13.9119 29.4003 13.4446 29.3534C12.4976 29.2574 11.7262 28.8289 11.1323 28.0819C10.7874 27.6472 10.5731 27.1513 10.4425 26.6166C10.3017 26.0452 10.2629 25.4656 10.2976 24.8778C10.3221 24.4452 10.3935 24.0187 10.4548 23.5901C10.516 23.1676 10.5772 22.7472 10.6384 22.3248C10.7078 21.8554 10.7752 21.384 10.8446 20.9146C10.914 20.4411 10.9833 19.9676 11.0527 19.4942C11.114 19.0697 11.1772 18.6452 11.2405 18.2187C11.3037 17.788 11.365 17.3554 11.4282 16.9248C11.4833 16.5513 11.5364 16.1778 11.5915 15.8064C11.6548 15.3819 11.716 14.9574 11.7793 14.5309C11.8446 14.0921 11.9078 13.6554 11.9731 13.2166C12.0119 12.9513 12.0466 12.684 12.0976 12.4207C12.2486 11.637 12.514 10.8962 12.967 10.2329C13.3323 9.7003 13.7793 9.2554 14.3589 8.9554C14.7303 8.76356 15.1221 8.64927 15.5384 8.60846C16.3384 8.53091 17.0711 8.72683 17.7548 9.13907C18.2772 9.45336 18.7282 9.85336 19.1201 10.3166C19.2833 10.5085 19.4384 10.7085 19.5833 10.9166C20.7691 12.6166 21.9486 14.3207 23.1323 16.0227C23.1548 16.0554 23.1772 16.086 23.2099 16.1309C23.2405 16.0921 23.265 16.0595 23.2895 16.0268C23.7507 15.3656 24.2119 14.7023 24.6731 14.0411C25.3486 13.0717 26.0262 12.1044 26.6976 11.1329C26.9446 10.7758 27.1956 10.4248 27.4935 10.1085C27.9099 9.66356 28.3752 9.28397 28.916 9.00234C29.3262 8.78805 29.7629 8.65336 30.2262 8.61254C31.3507 8.51254 32.2854 8.9003 33.0466 9.7207C33.5568 10.2676 33.8956 10.9166 34.1242 11.6227C34.267 12.0676 34.3568 12.5227 34.4201 12.986C34.4731 13.3717 34.5323 13.7574 34.5874 14.1452C34.6507 14.5758 34.7119 15.0085 34.7731 15.4391C34.8344 15.8676 34.8956 16.2962 34.9588 16.7248C35.0221 17.1697 35.0854 17.6146 35.1507 18.0595C35.2119 18.484 35.2752 18.9085 35.3364 19.335C35.3874 19.6819 35.4344 20.0289 35.4854 20.3758C35.5466 20.8003 35.6078 21.2268 35.6691 21.6513C35.7323 22.0819 35.7935 22.5146 35.8568 22.9452C35.9139 23.3411 35.9731 23.737 36.0282 24.1329C36.0956 24.6105 36.1548 25.088 36.1323 25.5738C36.0997 26.2697 35.9548 26.9391 35.6242 27.5574C35.2425 28.2697 34.7017 28.8105 33.9446 29.1187C33.6935 29.2207 33.4344 29.2778 33.1691 29.3268C32.9568 29.3656 32.7466 29.3697 32.5323 29.3676C31.9711 29.3595 31.4099 29.3513 30.8486 29.3432C30.4772 29.337 30.1078 29.3309 29.7364 29.3248C28.9915 29.3125 28.2466 29.2983 27.5017 29.286C27.1282 29.2799 26.7527 29.2738 26.3793 29.2656C26.0058 29.2595 25.6303 29.2534 25.2568 29.2452C24.5486 29.2329 23.8384 29.2227 23.1303 29.2064C22.5976 29.1921 22.3323 28.7717 22.314 28.4187C22.3037 28.2146 22.3548 28.035 22.4711 27.8636C23.4323 26.4391 24.3895 25.0105 25.3486 23.584C25.7793 22.9432 26.2078 22.3044 26.6384 21.6656C26.667 21.6248 26.7058 21.584 26.7507 21.5595C27.2425 21.284 27.7364 21.0105 28.2303 20.737C28.2405 20.7248 28.2548 20.7187 28.2772 20.7105ZM22.1813 17.6166C22.1589 17.5819 22.1384 17.5534 22.118 17.5227C21.2405 16.2595 20.3609 14.9983 19.4833 13.735C19.065 13.1309 18.6507 12.5248 18.2303 11.9227C18.0344 11.6432 17.814 11.3819 17.5711 11.1411C17.2384 10.8125 16.865 10.5452 16.4221 10.384C15.8793 10.1881 15.3711 10.2534 14.9078 10.6044C14.6752 10.7799 14.4854 10.9962 14.3282 11.2411C14.0507 11.6717 13.8895 12.1472 13.7772 12.6432C13.6568 13.1738 13.6037 13.7166 13.5221 14.2554C13.4691 14.5921 13.4262 14.9309 13.3772 15.2676C13.3221 15.6534 13.265 16.0391 13.2078 16.4248C13.1446 16.8636 13.0813 17.3003 13.018 17.7391C12.9629 18.1187 12.9078 18.4983 12.8527 18.8778C12.7956 19.2697 12.7405 19.6636 12.6833 20.0554C12.6344 20.3901 12.5854 20.7227 12.5384 21.0574C12.4895 21.3983 12.4425 21.7391 12.3935 22.0799C12.3364 22.4717 12.2793 22.8656 12.2221 23.2574C12.165 23.6432 12.1119 24.0289 12.0527 24.4146C11.9772 24.9105 11.9486 25.4064 12.0262 25.9044C12.0813 26.2574 12.1854 26.5942 12.3772 26.8983C12.6874 27.3921 13.1242 27.6697 13.7201 27.6656C13.967 27.6636 14.2078 27.6187 14.4446 27.5452C14.8527 27.4187 15.2078 27.1983 15.5282 26.9227C15.8752 26.6248 16.1813 26.2901 16.4344 25.9064C16.7711 25.3983 17.1262 24.9003 17.4731 24.4003C18.9446 22.2799 20.418 20.1595 21.8895 18.0391C21.9874 17.9003 22.0833 17.7595 22.1813 17.6166Z" fill="url(#paint0_linear_627_10976)"/>
<path d="M46.6139 12.8859V20.3389H45.4364V15.741L43.3364 18.4961H42.9364L40.8261 15.7308V20.341H39.6486V12.8879H40.0588L43.1343 16.9859L46.2098 12.8879H46.6139V12.8859Z" fill="black"/>
<path d="M52.8548 19.1165H49.5568L49.0344 20.3389H47.7793L51.0119 12.8859H51.4119L54.6446 20.3389H53.3793L52.8548 19.1165ZM51.2119 15.0736L49.9793 18.1063H52.4344L51.2119 15.0736Z" fill="black"/>
<path d="M60.418 20.3388L58.3303 17.5061H56.9874V20.3388H55.8099V13.0082H58.4874C59.965 13.0082 60.9752 13.9306 60.9752 15.251C60.9752 16.2184 60.4425 16.9735 59.565 17.3163L61.765 20.3368H60.418V20.3388ZM56.9854 16.4633H58.4629C59.2731 16.4633 59.7629 15.9755 59.7629 15.2633C59.7629 14.5408 59.2752 14.0531 58.4629 14.0531H56.9854V16.4633Z" fill="black"/>
<path d="M66.0589 12.8858C67.4038 12.8858 68.5691 13.5409 69.2017 14.5736L68.314 15.2287C67.7915 14.4185 67.0364 13.9634 66.0711 13.9634C64.5711 13.9634 63.4283 15.1185 63.4283 16.6736C63.4283 18.2287 64.5732 19.3838 66.0711 19.3838C67.0385 19.3838 67.7936 18.9287 68.314 18.1185L69.2017 18.7736C68.5793 19.8062 67.4242 20.4613 66.0589 20.4613C63.9711 20.494 62.1609 18.7736 62.2058 16.6736C62.1609 14.5736 63.9711 12.8532 66.0589 12.8858Z" fill="black"/>
<path d="M74.8997 19.1165H71.6017L71.0793 20.3389H69.8242L73.0568 12.8859H73.4568L76.6895 20.3389H75.4242L74.8997 19.1165ZM73.2548 15.0736L72.0222 18.1063H74.4773L73.2548 15.0736Z" fill="black"/>
<path d="M84.816 12.8859V20.3389H83.6385V15.741L81.5385 18.4961H81.1385L79.0283 15.7308V20.341H77.8507V12.8879H78.2609L81.3385 16.9859L84.414 12.8879H84.816V12.8859Z" fill="black"/>
<path d="M90.0568 12.8858C92.1343 12.8532 93.9547 14.5736 93.9098 16.6736C93.9547 18.7736 92.1323 20.494 90.0568 20.4613C87.9568 20.494 86.169 18.7736 86.2139 16.6736C86.1813 14.5736 87.969 12.8532 90.0568 12.8858ZM90.069 13.9634C88.5466 13.9634 87.4364 15.1185 87.4364 16.6613C87.4364 18.2267 88.5466 19.3818 90.069 19.3818C91.569 19.3818 92.7017 18.2267 92.7017 16.6613C92.7017 15.1287 91.567 13.9634 90.069 13.9634Z" fill="black"/>
<path d="M99.9302 20.3388L97.8425 17.5061H96.4996V20.3388H95.3221V13.0082H97.9996C99.4772 13.0082 100.487 13.9306 100.487 15.251C100.487 16.2184 99.9547 16.9735 99.0772 17.3163L101.277 20.3368H99.9302V20.3388ZM96.4976 16.4633H97.9751C98.7853 16.4633 99.2751 15.9755 99.2751 15.2633C99.2751 14.5408 98.7874 14.0531 97.9751 14.0531H96.4976V16.4633Z" fill="black"/>
<path d="M39.6604 24.5311V23.2154H39.9047V24.5311H39.6604ZM43.4373 24.5311V23.2154H44.0124C44.1553 23.2154 44.2806 23.2429 44.3884 23.2981C44.4962 23.3532 44.5801 23.4296 44.6403 23.5274C44.7004 23.6251 44.7305 23.7404 44.7305 23.8732C44.7305 24.0048 44.7004 24.1201 44.6403 24.2191C44.5801 24.3168 44.4962 24.3933 44.3884 24.4484C44.2806 24.5036 44.1553 24.5311 44.0124 24.5311H43.4373ZM43.6816 24.3244H44.0012C44.1002 24.3244 44.1854 24.3056 44.2568 24.268C44.3295 24.2304 44.3853 24.1777 44.4241 24.1101C44.4642 24.0424 44.4842 23.9635 44.4842 23.8732C44.4842 23.7818 44.4642 23.7028 44.4241 23.6364C44.3853 23.5687 44.3295 23.5161 44.2568 23.4785C44.1854 23.4409 44.1002 23.4221 44.0012 23.4221H43.6816V24.3244ZM48.3924 23.7623H49.0466V23.9635H48.3924V23.7623ZM48.4112 24.3262H49.1537V24.5311H48.1669V23.2154H49.1274V23.4202H48.4112V24.3262ZM52.4167 24.5311L53.0088 23.2154H53.2494L53.8433 24.5311H53.5877L53.0783 23.3451H53.1761L52.6685 24.5311H52.4167ZM52.6892 24.2266L52.755 24.0349H53.4655L53.5313 24.2266H52.6892ZM57.5952 24.5499C57.4925 24.5499 57.3941 24.5355 57.3001 24.5067C57.2061 24.4766 57.1316 24.4384 57.0764 24.392L57.161 24.2022C57.2137 24.2435 57.2788 24.278 57.3565 24.3056C57.4342 24.3331 57.5138 24.3469 57.5952 24.3469C57.6641 24.3469 57.7199 24.3394 57.7625 24.3244C57.8051 24.3093 57.8365 24.2893 57.8565 24.2642C57.8766 24.2379 57.8866 24.2084 57.8866 24.1759C57.8866 24.1358 57.8722 24.1038 57.8433 24.08C57.8145 24.0549 57.7769 24.0355 57.7306 24.0217C57.6855 24.0067 57.6347 23.9929 57.5783 23.9804C57.5232 23.9679 57.4674 23.9534 57.411 23.9371C57.3559 23.9196 57.3051 23.8977 57.2588 23.8714C57.2137 23.8438 57.1767 23.8075 57.1479 23.7623C57.119 23.7172 57.1046 23.6596 57.1046 23.5894C57.1046 23.518 57.1234 23.4528 57.161 23.3939C57.1999 23.3338 57.2581 23.2862 57.3358 23.2511C57.4148 23.2147 57.5144 23.1966 57.6347 23.1966C57.7136 23.1966 57.792 23.2066 57.8697 23.2266C57.9474 23.2467 58.015 23.2755 58.0727 23.3131L57.9956 23.5029C57.9367 23.4679 57.8759 23.4422 57.8133 23.4259C57.7506 23.4083 57.6905 23.3996 57.6328 23.3996C57.5652 23.3996 57.51 23.4077 57.4674 23.424C57.4261 23.4403 57.3954 23.4616 57.3753 23.4879C57.3565 23.5142 57.3471 23.5443 57.3471 23.5781C57.3471 23.6182 57.3609 23.6508 57.3885 23.6759C57.4173 23.6997 57.4543 23.7185 57.4994 23.7323C57.5457 23.746 57.5971 23.7598 57.6535 23.7736C57.7099 23.7861 57.7657 23.8006 57.8208 23.8169C57.8772 23.8331 57.9279 23.8544 57.973 23.8808C58.0194 23.9071 58.0564 23.9428 58.0839 23.9879C58.1128 24.033 58.1272 24.09 58.1272 24.159C58.1272 24.2291 58.1078 24.2943 58.0689 24.3544C58.0313 24.4133 57.973 24.461 57.8941 24.4973C57.8151 24.5324 57.7155 24.5499 57.5952 24.5499ZM65.5092 24.5311V23.4221H65.0731V23.2154H66.1896V23.4221H65.7535V24.5311H65.5092ZM70.1479 24.5499C70.0451 24.5499 69.9505 24.533 69.864 24.4992C69.7776 24.4653 69.7024 24.4183 69.6385 24.3582C69.5745 24.2968 69.525 24.2254 69.49 24.1439C69.4549 24.0612 69.4373 23.971 69.4373 23.8732C69.4373 23.7755 69.4549 23.6859 69.49 23.6044C69.525 23.5217 69.5745 23.4503 69.6385 23.3902C69.7024 23.3288 69.7776 23.2811 69.864 23.2473C69.9505 23.2135 70.0445 23.1966 70.146 23.1966C70.2487 23.1966 70.3427 23.2135 70.4279 23.2473C70.5144 23.2811 70.5896 23.3288 70.6535 23.3902C70.7174 23.4503 70.7669 23.5217 70.802 23.6044C70.8371 23.6859 70.8546 23.7755 70.8546 23.8732C70.8546 23.971 70.8371 24.0612 70.802 24.1439C70.7669 24.2266 70.7174 24.298 70.6535 24.3582C70.5896 24.4183 70.5144 24.4653 70.4279 24.4992C70.3427 24.533 70.2494 24.5499 70.1479 24.5499ZM70.146 24.3356C70.2124 24.3356 70.2738 24.3244 70.3302 24.3018C70.3866 24.2793 70.4354 24.2473 70.4768 24.2059C70.5181 24.1633 70.5501 24.1145 70.5727 24.0593C70.5965 24.0029 70.6084 23.9409 70.6084 23.8732C70.6084 23.8056 70.5965 23.7442 70.5727 23.689C70.5501 23.6326 70.5181 23.5838 70.4768 23.5424C70.4354 23.4998 70.3866 23.4672 70.3302 23.4447C70.2738 23.4221 70.2124 23.4108 70.146 23.4108C70.0796 23.4108 70.0182 23.4221 69.9618 23.4447C69.9066 23.4672 69.8578 23.4998 69.8151 23.5424C69.7738 23.5838 69.7412 23.6326 69.7174 23.689C69.6948 23.7442 69.6836 23.8056 69.6836 23.8732C69.6836 23.9397 69.6948 24.0011 69.7174 24.0574C69.7412 24.1138 69.7738 24.1633 69.8151 24.2059C69.8565 24.2473 69.9054 24.2793 69.9618 24.3018C70.0182 24.3244 70.0796 24.3356 70.146 24.3356ZM77.9864 24.5311V23.2154H78.2308V24.5311H77.9864ZM81.7633 24.5311V23.2154H81.9644L82.5396 24.1759H82.4344L83.0001 23.2154H83.2013L83.2032 24.5311H82.972L82.9701 23.5781H83.0189L82.5377 24.3808H82.4287L81.94 23.5781H81.9964V24.5311H81.7633ZM86.7352 24.5311V23.2154H87.2766C87.3931 23.2154 87.4927 23.2341 87.5754 23.2717C87.6594 23.3093 87.7239 23.3632 87.769 23.4334C87.8142 23.5036 87.8367 23.5869 87.8367 23.6834C87.8367 23.7799 87.8142 23.8632 87.769 23.9334C87.7239 24.0036 87.6594 24.0574 87.5754 24.095C87.4927 24.1326 87.3931 24.1514 87.2766 24.1514H86.8706L86.9796 24.0368V24.5311H86.7352ZM86.9796 24.0631L86.8706 23.9447H87.2653C87.3731 23.9447 87.4539 23.9221 87.5078 23.877C87.5629 23.8306 87.5905 23.7661 87.5905 23.6834C87.5905 23.5994 87.5629 23.5349 87.5078 23.4898C87.4539 23.4447 87.3731 23.4221 87.2653 23.4221H86.8706L86.9796 23.3018V24.0631ZM91.0052 24.5311L91.5973 23.2154H91.8379L92.4319 24.5311H92.1763L91.6669 23.3451H91.7646L91.2571 24.5311H91.0052ZM91.2778 24.2266L91.3436 24.0349H92.0541L92.1199 24.2266H91.2778ZM96.3665 24.5499C96.2663 24.5499 96.1729 24.5336 96.0865 24.5011C96.0013 24.4672 95.9267 24.4202 95.8628 24.3601C95.8001 24.2987 95.7513 24.2266 95.7162 24.1439C95.6811 24.0612 95.6635 23.971 95.6635 23.8732C95.6635 23.7755 95.6811 23.6853 95.7162 23.6026C95.7513 23.5199 95.8008 23.4484 95.8647 23.3883C95.9286 23.3269 96.0031 23.2799 96.0884 23.2473C96.1736 23.2135 96.2669 23.1966 96.3684 23.1966C96.4762 23.1966 96.5746 23.2154 96.6635 23.2529C96.7525 23.2893 96.8277 23.3438 96.8891 23.4165L96.7312 23.565C96.6836 23.5136 96.6303 23.4754 96.5714 23.4503C96.5125 23.424 96.4486 23.4108 96.3797 23.4108C96.3108 23.4108 96.2475 23.4221 96.1899 23.4447C96.1335 23.4672 96.084 23.4992 96.0414 23.5405C96 23.5819 95.9674 23.6308 95.9436 23.6872C95.9211 23.7435 95.9098 23.8056 95.9098 23.8732C95.9098 23.9409 95.9211 24.0029 95.9436 24.0593C95.9674 24.1157 96 24.1646 96.0414 24.2059C96.084 24.2473 96.1335 24.2793 96.1899 24.3018C96.2475 24.3244 96.3108 24.3356 96.3797 24.3356C96.4486 24.3356 96.5125 24.3231 96.5714 24.298C96.6303 24.2717 96.6836 24.2323 96.7312 24.1796L96.8891 24.33C96.8277 24.4014 96.7525 24.4559 96.6635 24.4935C96.5746 24.5311 96.4756 24.5499 96.3665 24.5499ZM100.552 24.5311V23.4221H100.116V23.2154H101.233V23.4221H100.796V24.5311H100.552Z" fill="black"/>
<path d="M17.674 43.9417C17.3316 43.9417 17.1605 43.7706 17.1605 43.4282C17.1605 43.0645 17.3744 42.7863 17.8023 42.5938C18.2517 42.3798 18.7866 42.2194 19.407 42.1124C20.0489 42.0054 20.6587 41.9305 21.2364 41.8877C21.8141 41.8449 22.242 41.8128 22.5201 41.7914C22.7341 40.9998 23.0657 40.037 23.515 38.903C23.9857 37.769 24.5313 36.5709 25.1518 35.3085C25.7937 34.0461 26.457 32.8052 27.1416 31.5856C27.8477 30.3661 28.5538 29.2749 29.2598 28.3121C29.9659 27.3279 30.6184 26.579 31.2175 26.0655C30.704 26.0441 30.1798 26.1297 29.6449 26.3222C29.11 26.4934 28.5965 26.6753 28.1044 26.8678C27.6337 27.039 27.2165 27.1246 26.8528 27.1246C26.6602 27.1246 26.4891 27.0283 26.3393 26.8358C26.2109 26.6432 26.1467 26.472 26.1467 26.3222C26.1467 26.0441 26.3286 25.8301 26.6923 25.6804C27.056 25.5092 27.5054 25.3808 28.0403 25.2952C28.5965 25.2097 29.1635 25.1455 29.7412 25.1027C30.3189 25.0385 30.8324 24.985 31.2817 24.9422C31.7524 24.878 32.0734 24.8031 32.2445 24.7176C32.3943 24.6534 32.5548 24.4929 32.7259 24.2362C32.8971 23.958 33.0576 23.8189 33.2073 23.8189C33.4427 23.8189 33.6994 23.9259 33.9776 24.1399C34.2557 24.3538 34.4697 24.5464 34.6195 24.7176C35.3683 24.7176 36.1386 24.7283 36.9302 24.7497C37.7219 24.7711 38.5028 24.8138 39.2731 24.878C39.3373 24.878 39.4228 24.8994 39.5298 24.9422C39.6582 24.9636 39.7331 25.0278 39.7545 25.1348C39.6475 25.3487 39.3159 25.4985 38.7596 25.5841C38.2247 25.6483 37.5721 25.7232 36.8018 25.8087C36.053 25.8943 35.2827 26.0655 34.4911 26.3222C33.7208 26.5576 33.0469 26.9427 32.4692 27.4776C31.8487 28.0553 31.1854 28.7828 30.4794 29.66C29.7947 30.5372 29.0993 31.5 28.3933 32.5484C27.7086 33.5968 27.0453 34.6773 26.4035 35.7899C25.783 36.8811 25.2267 37.9402 24.7346 38.9672C24.2425 39.9728 23.8681 40.8714 23.6113 41.6631C24.5527 41.6845 25.4834 41.6845 26.4035 41.6631C27.3235 41.6203 28.2435 41.5989 29.1635 41.5989C29.2063 41.5989 29.3561 41.6096 29.6128 41.631C29.891 41.6524 30.0301 41.7272 30.0301 41.8556C30.0515 41.984 29.9766 42.091 29.8054 42.1766C29.6342 42.2407 29.4417 42.2942 29.2277 42.337C29.0352 42.3584 28.8961 42.3798 28.8105 42.4012C27.0133 42.551 25.1946 42.7436 23.3546 42.9789C21.5359 43.1929 19.7494 43.5031 17.9949 43.9096C17.9521 43.9096 17.8986 43.9096 17.8344 43.9096C17.7916 43.931 17.7382 43.9417 17.674 43.9417ZM38.0929 44.1343C37.7719 44.1343 37.4082 44.038 37.0017 43.8454C36.6166 43.6743 36.424 43.3961 36.424 43.011C36.424 42.5617 36.5952 42.0268 36.9375 41.4063C37.2798 40.7858 37.6863 40.144 38.1571 39.4807C38.6278 38.796 39.0771 38.1434 39.505 37.523C39.9543 36.9025 40.2752 36.3783 40.4678 35.9504C40.3394 36.0146 40.1255 36.1429 39.8259 36.3355C39.5478 36.5067 39.2696 36.6885 38.9915 36.8811C38.7133 37.0523 38.5101 37.1913 38.3817 37.2983C37.4617 37.983 36.6593 38.689 35.9747 39.4165C35.3114 40.144 34.6374 40.9784 33.9528 41.9198C33.7816 42.1766 33.5997 42.444 33.4072 42.7222C33.236 43.0003 33.0541 43.2677 32.8616 43.5245C32.776 43.6315 32.6262 43.7385 32.4123 43.8454C32.2197 43.9524 32.0378 44.0059 31.8667 44.0059C31.5885 44.0059 31.4495 43.8561 31.4495 43.5566C31.4495 43.2998 31.5778 42.904 31.8346 42.3691C32.1127 41.8342 32.4551 41.2244 32.8616 40.5398C33.2681 39.8551 33.696 39.1811 34.1453 38.5179C34.5946 37.8332 35.0012 37.2234 35.3649 36.6885C35.7286 36.1322 35.9854 35.7364 36.1351 35.5011C36.0924 35.5652 35.9747 35.6829 35.7821 35.8541C35.5896 36.0039 35.397 36.1643 35.2044 36.3355C35.0333 36.4853 34.9049 36.5922 34.8193 36.6564C34.4128 37.0416 34.017 37.4374 33.6318 37.8439C33.2467 38.2504 32.8616 38.6569 32.4765 39.0635C32.4337 39.1063 32.3481 39.1704 32.2197 39.256C32.1127 39.3416 32.0164 39.3844 31.9309 39.3844C31.8239 39.3844 31.7704 39.3309 31.7704 39.2239C31.7704 39.117 31.9202 38.8923 32.2197 38.55C32.5193 38.2076 32.8937 37.8011 33.343 37.3304C33.7923 36.8597 34.2523 36.3783 34.723 35.8862C35.2151 35.3941 35.643 34.9555 36.0068 34.5703C36.3705 34.1852 36.6166 33.9178 36.7449 33.768C36.9589 33.4899 37.1835 33.2652 37.4189 33.094C37.6756 32.9229 37.9752 32.8373 38.3175 32.8373C38.5101 32.8373 38.7454 32.9336 39.0236 33.1261C39.3017 33.2973 39.4408 33.5006 39.4408 33.7359C39.4408 33.8215 39.4194 33.875 39.3766 33.8964C38.7347 34.4313 38.1036 35.0624 37.4831 35.7899C36.884 36.5174 36.317 37.2662 35.7821 38.0365C35.2472 38.8067 34.7551 39.5235 34.3058 40.1867C34.8193 39.6091 35.397 39.0421 36.0389 38.4858C36.6807 37.9081 37.3012 37.3732 37.9003 36.8811L40.179 35.0197C40.3287 34.8913 40.4785 34.7522 40.6283 34.6024C40.7994 34.4527 40.9599 34.3243 41.1097 34.2173C41.2808 34.1103 41.4627 34.0675 41.6553 34.0889C41.8692 34.0889 42.0832 34.0889 42.2971 34.0889C42.5325 34.0889 42.7572 34.1531 42.9711 34.2815C43.2065 34.4099 43.3241 34.6131 43.3241 34.8913C43.3241 35.1694 43.2493 35.3834 43.0995 35.5332C42.9711 35.6615 42.8213 35.8113 42.6502 35.9825C42.2864 36.3248 41.8371 36.7741 41.3022 37.3304C40.7887 37.8867 40.2752 38.4858 39.7617 39.1277C39.2482 39.7695 38.8203 40.4221 38.478 41.0854C38.1357 41.7272 37.9645 42.3263 37.9645 42.8826C37.9645 42.9468 37.9645 43.011 37.9645 43.0752C37.9645 43.1394 37.9752 43.2036 37.9966 43.2677C38.4459 43.0966 38.938 42.8184 39.4729 42.4333C40.0292 42.0268 40.5855 41.5775 41.1418 41.0854C41.6981 40.5933 42.2116 40.1012 42.6823 39.6091C43.1744 39.117 43.5809 38.6783 43.9018 38.2932C43.9446 38.2504 43.9874 38.1969 44.0302 38.1327C44.0944 38.0686 44.1693 38.0365 44.2549 38.0365C44.3618 38.0365 44.4153 38.1114 44.4153 38.2611C44.4153 38.3467 44.3832 38.443 44.3191 38.55C43.9125 39.0849 43.3669 39.716 42.6823 40.4435C41.9976 41.171 41.2915 41.8663 40.5641 42.5296C39.8366 43.1715 39.1841 43.6636 38.6064 44.0059C38.4566 44.0915 38.2854 44.1343 38.0929 44.1343ZM47.4778 45.1292C47.221 45.1292 46.9536 45.065 46.6754 44.9366C46.4187 44.8296 46.1619 44.6799 45.9052 44.4873C45.627 44.252 45.3596 43.9203 45.1028 43.4924C44.8461 43.0645 44.6321 42.6152 44.461 42.1445L41.9897 44.8403C41.9256 44.9045 41.8828 44.9366 41.8614 44.9366C41.7758 44.9366 41.733 44.8724 41.733 44.7441C41.733 44.5515 41.7972 44.391 41.9256 44.2627L44.3005 41.5668C44.2363 41.31 44.2042 41.064 44.2042 40.8286C44.0544 40.7216 43.8512 40.5933 43.5944 40.4435C43.3591 40.2723 43.2414 39.9942 43.2414 39.6091C43.2414 39.1597 43.3805 38.7211 43.6586 38.2932C43.9368 37.8653 44.1721 37.6513 44.3647 37.6513C44.5145 37.6513 44.5893 37.7797 44.5893 38.0365C44.5893 38.1221 44.5893 38.3467 44.5893 38.7104C44.6107 39.0742 44.6321 39.4486 44.6535 39.8337C44.6749 40.1974 44.6963 40.4435 44.7177 40.5719C44.8461 40.6575 44.9531 40.7109 45.0387 40.7323C45.8731 39.7695 46.7503 38.7746 47.6703 37.7476C48.5904 36.7206 49.4141 35.8434 50.1416 35.1159C50.5053 34.5596 50.9011 34.0889 51.329 33.7038C51.7783 33.3187 52.2918 33.1261 52.8695 33.1261C53.2761 33.1261 53.5649 33.201 53.7361 33.3508C53.9072 33.5006 53.9928 33.6717 53.9928 33.8643C53.9928 34.0568 53.9072 34.2387 53.7361 34.4099C53.5863 34.5596 53.3616 34.6345 53.0621 34.6345C52.5914 34.6131 52.1849 34.6345 51.8425 34.6987C51.5002 34.7415 51.2541 34.8913 51.1044 35.148C50.9546 35.4262 50.7834 35.8862 50.5909 36.5281C50.3983 37.1699 50.2057 37.8974 50.0132 38.7104C49.842 39.5235 49.6922 40.3151 49.5639 41.0854C50.0132 40.9998 50.4411 40.8928 50.8476 40.7644C51.2755 40.6147 51.7356 40.3686 52.2277 40.0263C52.7198 39.6839 53.2867 39.1811 53.9286 38.5179C54.0356 38.3895 54.1426 38.3253 54.2496 38.3253C54.3137 38.3253 54.3458 38.3681 54.3458 38.4537C54.3458 38.4965 54.3244 38.5714 54.2817 38.6783C54.2389 38.7853 54.1533 38.9244 54.0249 39.0956C53.7682 39.4379 53.4472 39.7802 53.0621 40.1226C52.6984 40.4435 52.3774 40.6896 52.0993 40.8607C51.5216 41.2031 50.976 41.417 50.4625 41.5026C49.949 41.5668 49.6174 41.6096 49.4676 41.631C49.382 42.0803 49.3071 42.4547 49.2429 42.7542C49.1787 43.0324 49.136 43.2357 49.1146 43.364C49.0076 43.9845 48.7936 44.4338 48.4727 44.712C48.1731 44.9901 47.8415 45.1292 47.4778 45.1292ZM48.2159 41.0854C48.3229 40.5933 48.462 39.9407 48.6332 39.1277C48.8257 38.3146 49.0825 37.5016 49.4034 36.6885C48.8471 37.309 48.2266 37.983 47.542 38.7104C46.8787 39.4379 46.2261 40.1654 45.5842 40.8928C45.9908 40.9784 46.4294 41.0426 46.9001 41.0854C47.3708 41.1068 47.8094 41.1068 48.2159 41.0854ZM46.9964 43.5887C47.1675 43.5887 47.3387 43.471 47.5099 43.2357C47.7024 42.9789 47.8843 42.5082 48.0555 41.8235C48.0555 41.7593 48.0662 41.7166 48.0876 41.6952C47.5741 41.6738 47.0713 41.6417 46.5792 41.5989C46.1084 41.5347 45.6591 41.4277 45.2312 41.2779L44.9745 41.5668C45.1456 41.9091 45.3489 42.2621 45.5842 42.6259C45.8196 42.9682 46.0871 43.2143 46.3866 43.364C46.4936 43.4282 46.6006 43.4817 46.7075 43.5245C46.8145 43.5673 46.9108 43.5887 46.9964 43.5887ZM60.4231 31.6819C59.931 31.6819 59.6849 31.5 59.6849 31.1363C59.6849 30.8796 59.824 30.6014 60.1022 30.3019C60.3803 30.0023 60.7868 29.7884 61.3217 29.66C61.6427 29.5744 61.8994 29.5316 62.092 29.5316C62.3059 29.5102 62.5092 29.4674 62.7018 29.4032C62.6162 29.8098 62.4343 30.2484 62.1562 30.7191C61.8994 31.1898 61.5571 31.4786 61.1292 31.5856C60.9152 31.6498 60.6798 31.6819 60.4231 31.6819ZM55.2881 44.4552C54.9458 44.4552 54.6248 44.3161 54.3253 44.038C54.0471 43.7599 53.876 43.4603 53.8118 43.1394C53.876 42.7329 54.015 42.2407 54.229 41.6631C54.4644 41.064 54.7318 40.4435 55.0313 39.8016C55.3309 39.1597 55.6304 38.5607 55.93 38.0044C56.2295 37.4267 56.4863 36.9667 56.7002 36.6243C56.2937 36.9881 55.8551 37.3946 55.3844 37.8439C54.9351 38.2932 54.5071 38.7104 54.1006 39.0956C54.0792 39.117 54.0257 39.1597 53.9402 39.2239C53.876 39.2881 53.8118 39.3202 53.7476 39.3202C53.5978 39.3202 53.5229 39.256 53.5229 39.1277C53.5229 39.0207 53.5657 38.9244 53.6513 38.8388C54.229 38.1969 54.8281 37.5551 55.4486 36.9132C56.0904 36.2713 56.7109 35.608 57.31 34.9234C57.5026 34.688 57.663 34.5062 57.7914 34.3778C57.9412 34.228 58.1658 34.1531 58.4654 34.1531C58.5938 34.1531 58.7863 34.1852 59.0431 34.2494C59.3212 34.2922 59.5459 34.3778 59.717 34.5062C59.9096 34.6345 59.9417 34.795 59.8133 34.9876C59.6635 35.2229 59.4068 35.608 59.0431 36.1429C58.6793 36.6778 58.2621 37.2876 57.7914 37.9723C57.3421 38.6569 56.8928 39.3523 56.4435 40.0584C56.0156 40.743 55.6625 41.3635 55.3844 41.9198C55.1062 42.4761 54.9672 42.8933 54.9672 43.1715C54.9672 43.2998 55.0099 43.364 55.0955 43.364C55.2239 43.364 55.4379 43.2464 55.7374 43.011C56.0583 42.7756 56.3686 42.5296 56.6681 42.2728C56.9891 41.9947 57.203 41.8128 57.31 41.7272C57.9305 41.1924 58.5403 40.6468 59.1393 40.0905C59.7384 39.5128 60.3054 38.9137 60.8403 38.2932C60.8831 38.2504 60.9366 38.1862 61.0008 38.1007C61.0864 38.0151 61.1719 37.9723 61.2575 37.9723C61.3645 37.9723 61.418 38.0365 61.418 38.1648C61.418 38.3146 61.3645 38.4644 61.2575 38.6142C60.9794 38.9565 60.6691 39.2988 60.3268 39.6412C59.9845 39.9621 59.6635 40.283 59.364 40.604C58.8077 41.1603 58.2621 41.7166 57.7272 42.2728C57.2137 42.8077 56.7002 43.364 56.1867 43.9417C56.0797 44.0701 55.9407 44.1878 55.7695 44.2948C55.6197 44.4017 55.4593 44.4552 55.2881 44.4552ZM53.6187 56.0732C52.6345 56.0732 52.1424 55.5811 52.1424 54.5968C52.1424 54.4899 52.1531 54.3829 52.1745 54.2759C52.1745 54.1689 52.1852 54.0619 52.2066 53.955C52.3778 53.1847 52.7415 52.4466 53.2978 51.7405C53.8541 51.0344 54.5066 50.3712 55.2555 49.7507C56.0044 49.1516 56.7746 48.5846 57.5662 48.0497C58.3365 47.5362 59.0319 47.0869 59.6523 46.7018C60.0161 46.4664 60.4761 46.1776 61.0324 45.8353C61.6101 45.4929 62.2198 45.1185 62.8617 44.712C63.5036 44.3268 64.1134 43.9631 64.6911 43.6208C64.9264 43.0217 65.1297 42.3584 65.3008 41.631C65.4934 40.9035 65.579 40.1761 65.5576 39.4486C65.3008 39.7267 64.9585 40.1119 64.5306 40.604C64.1027 41.0747 63.632 41.5454 63.1185 42.0161C62.6264 42.4868 62.1236 42.8933 61.6101 43.2357C61.118 43.5566 60.6793 43.7171 60.2942 43.7171C59.8877 43.7171 59.5775 43.5245 59.3635 43.1394C59.1495 42.7542 59.0426 42.3798 59.0426 42.0161C59.0426 41.417 59.2137 40.7644 59.5561 40.0584C59.8984 39.3523 60.3584 38.6569 60.9361 37.9723C61.5138 37.2876 62.145 36.6564 62.8296 36.0787C63.5143 35.5011 64.199 35.0411 64.8836 34.6987C65.5683 34.3564 66.1995 34.1852 66.7772 34.1852C67.2265 34.1852 67.633 34.3457 67.9967 34.6666C68.3604 34.9662 68.5423 35.3513 68.5423 35.822C68.5423 35.9718 68.4995 36.1322 68.4139 36.3034C68.3497 36.4532 68.2321 36.5281 68.0609 36.5281C67.9111 36.5281 67.7935 36.4746 67.7079 36.3676C67.6223 36.2392 67.5153 36.1215 67.3869 36.0146C67.2586 35.8862 67.0339 35.822 66.713 35.822C66.2423 35.822 65.7288 35.9825 65.1725 36.3034C64.6376 36.6029 64.1348 36.9667 63.6641 37.3946C63.1934 37.8225 62.7975 38.1969 62.4766 38.5179C62.0701 38.9458 61.6742 39.4593 61.2891 40.0584C60.9254 40.6575 60.6366 41.2351 60.4226 41.7914C60.3584 41.9412 60.2942 42.1124 60.23 42.3049C60.1872 42.4975 60.1658 42.6794 60.1658 42.8505C60.1658 43.0645 60.2407 43.1715 60.3905 43.1715C60.4333 43.1715 60.4761 43.1715 60.5189 43.1715C60.5617 43.1501 60.6045 43.1287 60.6472 43.1073C61.2677 42.8505 61.9203 42.3905 62.605 41.7272C63.2896 41.064 63.9315 40.3472 64.5306 39.577C65.1297 38.7853 65.6111 38.1114 65.9748 37.5551L66.1032 37.3625C66.2316 36.956 66.5097 36.7527 66.9376 36.7527C67.066 36.7527 67.1944 36.7848 67.3228 36.849C67.4511 36.9132 67.5153 37.0309 67.5153 37.202C67.5153 38.1434 67.4725 38.9672 67.3869 39.6732C67.3014 40.3793 67.0981 41.1817 66.7772 42.0803C67.2051 41.7379 67.6009 41.4063 67.9646 41.0854C68.3497 40.7644 68.7242 40.4114 69.0879 40.0263C69.4302 39.6839 69.7512 39.3309 70.0507 38.9672C70.3717 38.6035 70.7033 38.2611 71.0456 37.9402C71.0884 37.8974 71.1312 37.8653 71.174 37.8439C71.2382 37.8011 71.3024 37.7797 71.3666 37.7797C71.4949 37.7797 71.5591 37.8439 71.5591 37.9723C71.5591 38.0793 71.3987 38.3146 71.0777 38.6783C70.7782 39.0207 70.3931 39.4272 69.9223 39.8979C69.473 40.3686 68.9916 40.85 68.4781 41.3421C67.986 41.8128 67.5367 42.2407 67.1302 42.6259C66.7451 42.9896 66.4776 43.2357 66.3278 43.364C65.3436 45.9529 64.0599 48.1995 62.4766 50.1037C60.9147 52.0293 58.9249 53.6875 56.5072 55.0783C56.1006 55.3136 55.6406 55.5383 55.1271 55.7522C54.6136 55.9662 54.1108 56.0732 53.6187 56.0732ZM54.3569 55.2708C54.9346 55.2708 55.5657 55.0569 56.2504 54.6289C56.9137 54.2224 57.5769 53.7089 58.2402 53.0884C58.9035 52.468 59.5026 51.8475 60.0375 51.227C60.5938 50.6279 61.0324 50.1251 61.3533 49.7186C61.717 49.2265 62.0701 48.7344 62.4124 48.2423C62.7547 47.7716 63.0757 47.2795 63.3752 46.766C63.8245 46.0171 64.199 45.2897 64.4985 44.5836C64.5199 44.5194 64.4985 44.4766 64.4343 44.4552C64.3915 44.4552 64.3701 44.4552 64.3701 44.4552C63.7069 44.9259 63.0329 45.3859 62.3482 45.8353C61.6849 46.306 61.011 46.766 60.3263 47.2153C59.984 47.4292 59.524 47.7395 58.9463 48.146C58.3686 48.5739 57.7481 49.0446 57.0848 49.5581C56.4216 50.093 55.7904 50.6386 55.1913 51.1949C54.5922 51.7726 54.1001 52.3289 53.715 52.8638C53.3299 53.4201 53.1373 53.9122 53.1373 54.3401C53.1373 54.6824 53.2764 54.9178 53.5545 55.0462C53.8113 55.1959 54.0787 55.2708 54.3569 55.2708ZM75.2705 44.1343C74.9495 44.1343 74.5751 44.0273 74.1472 43.8133C73.7193 43.5994 73.5053 43.3105 73.5053 42.9468C73.5053 42.6259 73.623 42.2194 73.8583 41.7272C74.0937 41.2351 74.3825 40.7109 74.7249 40.1547C75.0672 39.5984 75.4202 39.0635 75.784 38.55C76.1477 38.0151 76.4579 37.5658 76.7147 37.202C76.9928 36.8169 77.164 36.5602 77.2282 36.4318C77.5277 36.0253 77.7096 35.7685 77.7738 35.6615C77.838 35.5546 77.8808 35.469 77.9022 35.4048C77.731 35.5332 77.4635 35.7364 77.0998 36.0146C76.7361 36.2713 76.3724 36.5388 76.0086 36.8169C75.6449 37.0951 75.3774 37.309 75.2063 37.4588C74.0081 38.5072 73.0025 39.5128 72.1895 40.4756C71.3978 41.417 70.6597 42.4226 69.975 43.4924C69.9536 43.5138 69.9001 43.5352 69.8145 43.5566C69.7289 43.5566 69.6648 43.5566 69.622 43.5566C69.4936 43.5566 69.301 43.5245 69.0443 43.4603C68.8089 43.3961 68.7126 43.2571 68.7554 43.0431C68.8838 42.7222 69.055 42.3798 69.2689 42.0161C69.4829 41.6524 69.7824 41.1603 70.1676 40.5398C70.5527 39.8979 71.0555 38.9993 71.676 37.8439C71.8685 37.4802 72.1895 36.8811 72.6388 36.0467C73.1095 35.2122 73.6765 34.2601 74.3397 33.1903C75.0244 32.1205 75.784 31.0614 76.6184 30.013C77.4742 28.9432 78.3943 27.9911 79.3785 27.1567C80.3627 26.3222 81.3897 25.7232 82.4595 25.3594C82.7376 25.2525 82.9837 25.199 83.1976 25.199C83.6041 25.199 83.8823 25.338 84.0321 25.6162C84.2032 25.8729 84.4279 26.0869 84.706 26.2581C84.8772 26.365 84.9628 26.5362 84.9628 26.7716C84.9628 27.1139 84.6739 27.5846 84.0962 28.1837C83.54 28.7614 82.8232 29.4032 81.946 30.1093C81.0687 30.794 80.1487 31.4786 79.1859 32.1633C78.2231 32.848 77.3138 33.4792 76.4579 34.0568C75.6235 34.6345 74.9816 35.0838 74.5323 35.4048C74.4467 35.5759 74.2756 35.8541 74.0188 36.2392C73.7835 36.6029 73.5267 36.9988 73.2486 37.4267C72.9704 37.8546 72.7137 38.2504 72.4783 38.6142C72.243 38.9779 72.0932 39.2346 72.029 39.3844C72.6281 38.8281 73.2593 38.2397 73.9225 37.6192C74.6072 36.9988 75.2705 36.3997 75.9123 35.822C76.5756 35.2443 77.1533 34.7522 77.6454 34.3457C77.7524 34.2601 77.8808 34.2066 78.0305 34.1852C78.2017 34.1638 78.3408 34.1531 78.4477 34.1531C78.7473 34.1531 79.1003 34.2815 79.5068 34.5382C79.9134 34.795 80.1166 35.1052 80.1166 35.469C80.1166 35.7043 79.9882 35.9397 79.7315 36.175C79.0896 36.7527 78.437 37.4267 77.7738 38.1969C77.1105 38.9458 76.5114 39.7374 75.9765 40.5719C75.8268 40.8286 75.6128 41.2031 75.3347 41.6952C75.0779 42.1873 74.9495 42.5831 74.9495 42.8826C74.9495 43.0966 75.0137 43.2036 75.1421 43.2036C75.3988 43.2036 75.7519 43.0645 76.2012 42.7863C76.6719 42.5082 77.1747 42.1552 77.7096 41.7272C78.2659 41.2779 78.8115 40.8179 79.3464 40.3472C79.9027 39.8765 80.3948 39.4379 80.8227 39.0314C81.2506 38.6249 81.5608 38.3146 81.7534 38.1007C81.8818 37.9723 81.9888 37.9081 82.0743 37.9081C82.2027 37.9081 82.2669 37.9723 82.2669 38.1007C82.2669 38.1648 82.2241 38.2611 82.1385 38.3895C81.8604 38.7532 81.4539 39.2132 80.919 39.7695C80.3841 40.3044 79.7957 40.8607 79.1538 41.4384C78.5119 41.9947 77.8915 42.5082 77.2924 42.9789C76.7147 43.4282 76.2333 43.7706 75.8482 44.0059C75.6984 44.0915 75.5058 44.1343 75.2705 44.1343ZM75.2063 34.1531C75.3774 34.0247 75.6663 33.8215 76.0728 33.5433C76.5007 33.2438 76.9714 32.9122 77.4849 32.5484C78.0198 32.1633 78.544 31.7889 79.0575 31.4252C79.571 31.04 79.9989 30.6977 80.3413 30.3982C81.0259 29.7991 81.5929 29.307 82.0422 28.9218C82.513 28.5367 82.9195 28.0874 83.2618 27.5739C83.3474 27.4669 83.4009 27.3706 83.4223 27.2851C83.4437 27.1995 83.4544 27.1246 83.4544 27.0604C83.4544 26.932 83.3902 26.8357 83.2618 26.7716C83.1548 26.7074 83.0158 26.6753 82.8446 26.6753C82.5237 26.6753 82.1064 26.8464 81.5929 27.1888C81.0794 27.5311 80.5231 27.9911 79.9241 28.5688C79.325 29.1251 78.7259 29.7349 78.1268 30.3982C77.5277 31.0614 76.9714 31.7247 76.4579 32.388C75.9444 33.0298 75.5272 33.6182 75.2063 34.1531ZM91.5698 45.1292C91.3131 45.1292 91.0456 45.065 90.7675 44.9366C90.5107 44.8296 90.254 44.6799 89.9972 44.4873C89.7191 44.252 89.4516 43.9203 89.1949 43.4924C88.9381 43.0645 88.7242 42.6152 88.553 42.1445L88.5209 42.0803C87.4511 42.9361 86.4348 43.5994 85.472 44.0701C84.5306 44.5408 83.6855 44.8403 82.9366 44.9687C82.851 44.9901 82.7761 45.0008 82.712 45.0008C82.6478 45.0008 82.5836 45.0008 82.5194 45.0008C81.9417 45.0008 81.5566 44.7976 81.364 44.391C81.1715 43.9845 81.0859 43.5138 81.1073 42.9789C81.1287 42.2514 81.3105 41.4491 81.6529 40.5719C81.9952 39.6946 82.4124 38.8174 82.9045 37.9402C83.3966 37.063 83.878 36.2606 84.3487 35.5332C84.8194 34.8057 85.1832 34.2387 85.4399 33.8322C85.1832 33.9392 84.8729 34.0675 84.5092 34.2173C84.1455 34.3457 83.8031 34.4634 83.4822 34.5703C83.1613 34.6773 82.9366 34.7308 82.8082 34.7308C82.6157 34.7308 82.5194 34.6024 82.5194 34.3457C82.5194 34.0889 82.5836 33.8536 82.712 33.6396C82.8403 33.4257 83.0329 33.2759 83.2896 33.1903C83.7176 33.0405 84.1883 32.9015 84.7018 32.7731C85.2153 32.6233 85.7502 32.4842 86.3065 32.3559C87.1195 31.2005 87.9967 30.1307 88.9381 29.1465C89.8796 28.1409 90.8638 27.3065 91.8908 26.6432C92.0833 26.5148 92.2973 26.579 92.5326 26.8358C92.768 27.0711 92.8964 27.3172 92.9178 27.5739C92.9178 27.8093 92.8322 27.9697 92.661 28.0553C91.7624 28.5902 90.9707 29.1893 90.2861 29.8526C89.6228 30.5158 88.9167 31.2433 88.1679 32.0349C88.3391 32.0135 88.6279 31.9814 89.0344 31.9387C89.4409 31.8959 89.8796 31.8531 90.3503 31.8103C90.821 31.7675 91.2489 31.7354 91.634 31.714C92.0405 31.6712 92.3187 31.6498 92.4685 31.6498C92.554 31.6498 92.6931 31.6605 92.8857 31.6819C93.0996 31.6819 93.2922 31.7033 93.4634 31.7461C93.6559 31.7889 93.7522 31.8745 93.7522 32.0028C93.7522 32.1526 93.6345 32.2275 93.3992 32.2275C93.1638 32.2275 92.9927 32.2275 92.8857 32.2275C92.6289 32.2275 92.2545 32.2596 91.7624 32.3238C91.2703 32.388 90.7247 32.4736 90.1256 32.5805C89.5479 32.6661 89.0023 32.7624 88.4888 32.8694C87.9967 32.9764 87.6223 33.0726 87.3655 33.1582C86.8734 33.7573 86.4134 34.3671 85.9855 34.9876C85.579 35.5866 85.1832 36.2285 84.798 36.9132C84.6483 37.1699 84.445 37.5765 84.1883 38.1327C83.9529 38.6676 83.7069 39.2667 83.4501 39.93C83.1934 40.5933 82.9794 41.2351 82.8082 41.8556C82.6371 42.4547 82.5515 42.9575 82.5515 43.364C82.5515 43.9203 82.744 44.1557 83.1292 44.0701C83.5571 43.9845 84.092 43.8133 84.7339 43.5566C85.3971 43.2784 86.0497 42.9575 86.6916 42.5938C87.3548 42.2087 87.9004 41.8128 88.3284 41.4063C88.307 41.2993 88.2963 41.2031 88.2963 41.1175C88.2963 41.0319 88.2963 40.9356 88.2963 40.8286C88.1465 40.7216 87.9432 40.5933 87.6865 40.4435C87.4511 40.2723 87.3335 39.9942 87.3335 39.6091C87.3335 39.1597 87.4725 38.7211 87.7507 38.2932C88.0288 37.8653 88.2642 37.6513 88.4567 37.6513C88.6065 37.6513 88.6814 37.7797 88.6814 38.0365C88.6814 38.1221 88.6814 38.3467 88.6814 38.7104C88.7028 39.0742 88.7242 39.4486 88.7456 39.8337C88.767 40.1974 88.7884 40.4435 88.8098 40.5719C88.8953 40.6575 88.9702 40.7109 89.0344 40.7323L90.6712 38.9672C91.2917 38.2611 91.9122 37.5765 92.5326 36.9132C93.1531 36.2499 93.7201 35.6508 94.2336 35.1159C94.5973 34.5596 94.9932 34.0889 95.4211 33.7038C95.8704 33.3187 96.3839 33.1261 96.9616 33.1261C97.3681 33.1261 97.6569 33.201 97.8281 33.3508C97.9993 33.5006 98.0849 33.6717 98.0849 33.8643C98.0849 34.0568 97.9993 34.2387 97.8281 34.4099C97.6783 34.5596 97.4537 34.6345 97.1541 34.6345C96.6834 34.6131 96.2769 34.6345 95.9346 34.6987C95.5922 34.7415 95.3462 34.8913 95.1964 35.148C95.0467 35.4262 94.8755 35.8862 94.6829 36.5281C94.4904 37.1699 94.2978 37.8974 94.1052 38.7104C93.9341 39.5235 93.7843 40.3151 93.6559 41.0854C94.1052 40.9998 94.5332 40.8928 94.9397 40.7644C95.3676 40.6147 95.8276 40.3686 96.3197 40.0263C96.8118 39.6839 97.3788 39.1811 98.0207 38.5179C98.1277 38.3895 98.2346 38.3253 98.3416 38.3253C98.4058 38.3253 98.4379 38.3681 98.4379 38.4537C98.4379 38.4965 98.4165 38.5714 98.3737 38.6783C98.3309 38.7853 98.2453 38.9244 98.117 39.0956C97.8602 39.4379 97.5393 39.7802 97.1541 40.1226C96.7904 40.4435 96.4695 40.6896 96.1913 40.8607C95.6136 41.2031 95.068 41.417 94.5545 41.5026C94.041 41.5668 93.7094 41.6096 93.5596 41.631C93.4741 42.0803 93.3992 42.4547 93.335 42.7542C93.2708 43.0324 93.228 43.2357 93.2066 43.364C93.0996 43.9845 92.8857 44.4338 92.5647 44.712C92.2652 44.9901 91.9336 45.1292 91.5698 45.1292ZM92.308 41.0854C92.415 40.5933 92.554 39.9407 92.7252 39.1277C92.9178 38.3146 93.1745 37.5016 93.4955 36.6885C93.1103 37.1164 92.6931 37.5765 92.2438 38.0686C91.7945 38.5393 91.3345 39.0314 90.8638 39.5449C90.6926 39.7802 90.5107 40.0156 90.3182 40.2509C90.147 40.4649 89.9544 40.6896 89.7405 40.9249C90.6177 41.0961 91.4735 41.1496 92.308 41.0854ZM91.0884 43.5887C91.2596 43.5887 91.4308 43.471 91.6019 43.2357C91.7945 42.9789 91.9763 42.5082 92.1475 41.8235C92.1475 41.7593 92.1582 41.7166 92.1796 41.6952C91.6875 41.6738 91.2061 41.6417 90.7354 41.5989C90.2647 41.5561 89.8154 41.4598 89.3875 41.31C89.3019 41.3956 89.2377 41.4598 89.1949 41.5026C89.1521 41.5454 89.1093 41.5882 89.0665 41.631C89.2377 41.9733 89.4409 42.3156 89.6763 42.658C89.9117 42.9789 90.1791 43.2143 90.4786 43.364C90.5856 43.4282 90.6926 43.4817 90.7996 43.5245C90.9066 43.5673 91.0028 43.5887 91.0884 43.5887Z" fill="#E51F31"/>
<rect width="112" height="2" fill="#EE5125"/>
</g>
<defs>
<linearGradient id="paint0_linear_627_10976" x1="23.2114" y1="29.3701" x2="23.2114" y2="8.5918" gradientUnits="userSpaceOnUse">
<stop stop-color="#EE5125"/>
<stop offset="1" stop-color="#E51F31"/>
</linearGradient>
<clipPath id="clip0_627_10976">
<path d="M0 0H112V48C112 53.5229 107.523 58 102 58H10C4.47715 58 0 53.5228 0 48V0Z" fill="white"/>
</clipPath>
</defs>
</svg>
