<svg width="126" height="50" viewBox="0 0 126 50" fill="none" xmlns="http://www.w3.org/2000/svg">
<path d="M0.790842 30.9893C0.263648 30.9893 5.15731e-05 30.7257 5.15731e-05 30.1985C5.15731e-05 29.6384 0.329547 29.21 0.988539 28.9135C1.68048 28.584 2.50422 28.3369 3.45976 28.1721C4.44825 28.0074 5.38731 27.892 6.27695 27.8261C7.16659 27.7603 7.82558 27.7108 8.25392 27.6779C8.58342 26.4587 9.09414 24.976 9.78608 23.2297C10.511 21.4834 11.3512 19.6382 12.3067 17.6942C13.2952 15.7501 14.3166 13.8391 15.371 11.9609C16.4584 10.0828 17.5457 8.40237 18.633 6.91964C19.7204 5.40396 20.7253 4.25072 21.6479 3.45993C20.8571 3.42698 20.0499 3.55878 19.2261 3.85533C18.4024 4.11892 17.6116 4.399 16.8538 4.69554C16.1289 4.95914 15.4864 5.09093 14.9262 5.09093C14.6297 5.09093 14.3661 4.94266 14.1354 4.64612C13.9377 4.34957 13.8389 4.08597 13.8389 3.85533C13.8389 3.42698 14.1189 3.09749 14.6791 2.86684C15.2392 2.60324 15.9312 2.40555 16.7549 2.27375C17.6116 2.14195 18.4848 2.0431 19.3744 1.9772C20.264 1.87835 21.0548 1.79598 21.7468 1.73008C22.4717 1.63123 22.9659 1.51591 23.2295 1.38411C23.4602 1.28526 23.7073 1.03814 23.9709 0.642743C24.2345 0.214398 24.4816 0.000225195 24.7122 0.000225195C25.0747 0.000225195 25.4701 0.164973 25.8984 0.494468C26.3268 0.823964 26.6563 1.12051 26.8869 1.38411C28.0401 1.38411 29.2263 1.40058 30.4455 1.43353C31.6646 1.46648 32.8673 1.53238 34.0534 1.63123C34.1523 1.63123 34.2841 1.66418 34.4488 1.73008C34.6465 1.76303 34.7619 1.86188 34.7948 2.02662C34.6301 2.35612 34.1193 2.58677 33.2627 2.71857C32.4389 2.81742 31.434 2.93274 30.2478 3.06454C29.0945 3.19633 27.9083 3.45993 26.6892 3.85533C25.503 4.21777 24.4651 4.81086 23.5755 5.6346C22.6199 6.52424 21.5985 7.64453 20.5112 8.99546C19.4568 10.3464 18.3859 11.8291 17.2986 13.4437C16.2442 15.0582 15.2228 16.7221 14.2343 18.4355C13.2787 20.1159 12.422 21.747 11.6642 23.3285C10.9064 24.8772 10.3297 26.261 9.93435 27.4802C11.3841 27.5131 12.8174 27.5131 14.2343 27.4802C15.6511 27.4143 17.0679 27.3813 18.4848 27.3813C18.5507 27.3813 18.7813 27.3978 19.1767 27.4308C19.6051 27.4637 19.8192 27.579 19.8192 27.7767C19.8522 27.9744 19.7369 28.1392 19.4733 28.271C19.2097 28.3698 18.9131 28.4522 18.5836 28.5181C18.2871 28.551 18.0729 28.584 17.9411 28.6169C15.1733 28.8476 12.3726 29.1441 9.53896 29.5066C6.73824 29.8361 3.98695 30.3138 1.28509 30.9399C1.21919 30.9399 1.13681 30.9399 1.03796 30.9399C0.972064 30.9728 0.88969 30.9893 0.790842 30.9893ZM32.2359 31.2859C31.7417 31.2859 31.1816 31.1376 30.5555 30.841C29.9624 30.5774 29.6659 30.1491 29.6659 29.556C29.6659 28.8641 29.9295 28.0403 30.4567 27.0848C30.9839 26.1292 31.6099 25.1408 32.3348 24.1193C33.0597 23.0649 33.7516 22.06 34.4106 21.1044C35.1026 20.1489 35.5968 19.3416 35.8933 18.6826C35.6956 18.7815 35.3662 18.9792 34.9049 19.2757C34.4765 19.5393 34.0482 19.8194 33.6198 20.1159C33.1915 20.3795 32.8785 20.5937 32.6808 20.7585C31.2639 21.8129 30.0283 22.9002 28.9739 24.0205C27.9525 25.1408 26.9146 26.4258 25.8602 27.8756C25.5966 28.271 25.3165 28.6828 25.02 29.1112C24.7564 29.5395 24.4763 29.9514 24.1798 30.3468C24.048 30.5115 23.8173 30.6763 23.4878 30.841C23.1913 31.0058 22.9112 31.0882 22.6476 31.0882C22.2193 31.0882 22.0051 30.8575 22.0051 30.3962C22.0051 30.0008 22.2028 29.3913 22.5982 28.5675C23.0265 27.7438 23.5537 26.8047 24.1798 25.7503C24.8058 24.6959 25.4648 23.658 26.1567 22.6366C26.8487 21.5822 27.4747 20.6431 28.0349 19.8194C28.595 18.9627 28.9904 18.3531 29.2211 17.9907C29.1552 18.0895 28.9739 18.2708 28.6774 18.5344C28.3808 18.765 28.0843 19.0121 27.7877 19.2757C27.5242 19.5064 27.3265 19.6711 27.1947 19.77C26.5686 20.3631 25.959 20.9726 25.366 21.5987C24.7729 22.2247 24.1798 22.8508 23.5867 23.4768C23.5208 23.5427 23.389 23.6416 23.1913 23.7734C23.0265 23.9051 22.8783 23.971 22.7465 23.971C22.5817 23.971 22.4993 23.8887 22.4993 23.7239C22.4993 23.5592 22.73 23.2132 23.1913 22.686C23.6526 22.1588 24.2292 21.5328 24.9211 20.8079C25.6131 20.083 26.3215 19.3416 27.0464 18.5838C27.8042 17.826 28.4632 17.1505 29.0234 16.5574C29.5835 15.9643 29.9624 15.5524 30.1601 15.3218C30.4896 14.8934 30.8356 14.5475 31.198 14.2839C31.5934 14.0203 32.0547 13.8885 32.5819 13.8885C32.8785 13.8885 33.2409 14.0367 33.6692 14.3333C34.0976 14.5969 34.3118 14.9099 34.3118 15.2724C34.3118 15.4042 34.2788 15.4865 34.2129 15.5195C33.2244 16.3432 32.2524 17.3152 31.2969 18.4355C30.3743 19.5558 29.5011 20.709 28.6774 21.8952C27.8536 23.0814 27.0958 24.1852 26.4039 25.2067C27.1947 24.317 28.0843 23.4439 29.0728 22.5872C30.0613 21.6975 31.0168 20.8738 31.9394 20.1159L35.4485 17.2493C35.6792 17.0516 35.9098 16.8375 36.1405 16.6068C36.4041 16.3762 36.6512 16.1785 36.8818 16.0137C37.1454 15.849 37.4255 15.7831 37.722 15.816C38.0515 15.816 38.381 15.816 38.7105 15.816C39.073 15.816 39.4189 15.9149 39.7484 16.1126C40.1109 16.3103 40.2921 16.6233 40.2921 17.0516C40.2921 17.48 40.1768 17.8095 39.9461 18.0401C39.7484 18.2378 39.5178 18.4685 39.2542 18.7321C38.6941 19.2593 38.0021 19.9512 37.1784 20.8079C36.3876 21.6646 35.5968 22.5872 34.806 23.5757C34.0152 24.5641 33.3562 25.5691 32.829 26.5905C32.3018 27.579 32.0382 28.5016 32.0382 29.3583C32.0382 29.4572 32.0382 29.556 32.0382 29.6549C32.0382 29.7537 32.0547 29.8525 32.0877 29.9514C32.7796 29.6878 33.5374 29.2595 34.3612 28.6664C35.2179 28.0403 36.0746 27.3484 36.9313 26.5905C37.7879 25.8327 38.5787 25.0749 39.3036 24.317C40.0615 23.5592 40.6875 22.8837 41.1818 22.2906C41.2477 22.2247 41.3136 22.1423 41.3795 22.0435C41.4783 21.9446 41.5936 21.8952 41.7254 21.8952C41.8902 21.8952 41.9725 22.0105 41.9725 22.2412C41.9725 22.373 41.9231 22.5213 41.8243 22.686C41.1982 23.5098 40.358 24.4818 39.3036 25.6021C38.2492 26.7223 37.1619 27.7932 36.0416 28.8146C34.9213 29.8031 33.9164 30.561 33.0267 31.0882C32.7961 31.22 32.5325 31.2859 32.2359 31.2859ZM46.6887 32.818C46.2933 32.818 45.8814 32.7192 45.4531 32.5215C45.0577 32.3567 44.6623 32.1261 44.2669 31.8295C43.8386 31.4671 43.4267 30.9564 43.0313 30.2974C42.6359 29.6384 42.3064 28.9464 42.0428 28.2215L38.2371 32.3732C38.1383 32.472 38.0724 32.5215 38.0394 32.5215C37.9076 32.5215 37.8417 32.4226 37.8417 32.2249C37.8417 31.9284 37.9406 31.6813 38.1383 31.4836L41.7957 27.3319C41.6968 26.9365 41.6474 26.5576 41.6474 26.1951C41.4168 26.0304 41.1038 25.8327 40.7084 25.6021C40.3459 25.3385 40.1647 24.9101 40.1647 24.317C40.1647 23.6251 40.3789 22.9496 40.8072 22.2906C41.2355 21.6316 41.598 21.3021 41.8945 21.3021C42.1252 21.3021 42.2405 21.4998 42.2405 21.8952C42.2405 22.027 42.2405 22.373 42.2405 22.9331C42.2735 23.4933 42.3064 24.0699 42.3394 24.663C42.3723 25.2231 42.4053 25.6021 42.4382 25.7998C42.6359 25.9315 42.8007 26.0139 42.9325 26.0469C44.2175 24.5641 45.5684 23.032 46.9853 21.4504C48.4021 19.8688 49.6706 18.5179 50.7909 17.3976C51.3511 16.5409 51.9606 15.816 52.6196 15.2229C53.3116 14.6298 54.1024 14.3333 54.992 14.3333C55.618 14.3333 56.0629 14.4486 56.3265 14.6793C56.5901 14.9099 56.7219 15.1735 56.7219 15.4701C56.7219 15.7666 56.5901 16.0467 56.3265 16.3103C56.0958 16.5409 55.7498 16.6562 55.2885 16.6562C54.5637 16.6233 53.9376 16.6562 53.4104 16.7551C52.8832 16.821 52.5043 17.0516 52.2737 17.447C52.043 17.8754 51.7794 18.5838 51.4829 19.5723C51.1863 20.5608 50.8898 21.6811 50.5932 22.9331C50.3296 24.1852 50.099 25.4044 49.9013 26.5905C50.5932 26.4587 51.2522 26.294 51.8783 26.0963C52.5373 25.8656 53.2457 25.4867 54.0035 24.9595C54.7614 24.4323 55.6345 23.658 56.623 22.6366C56.7878 22.4389 56.9525 22.34 57.1172 22.34C57.2161 22.34 57.2655 22.4059 57.2655 22.5377C57.2655 22.6036 57.2326 22.719 57.1667 22.8837C57.1008 23.0485 56.969 23.2626 56.7713 23.5262C56.3759 24.0534 55.8816 24.5806 55.2885 25.1078C54.7284 25.6021 54.2342 25.981 53.8058 26.2446C52.9162 26.7718 52.076 27.1013 51.2852 27.2331C50.4944 27.3319 49.9837 27.3978 49.753 27.4308C49.6212 28.1227 49.5059 28.6993 49.407 29.1606C49.3082 29.589 49.2423 29.902 49.2093 30.0997C49.0446 31.0552 48.7151 31.7471 48.2209 32.1755C47.7596 32.6038 47.2488 32.818 46.6887 32.818ZM47.8255 26.5905C47.9902 25.8327 48.2044 24.8277 48.468 23.5757C48.7645 22.3236 49.1599 21.0715 49.6542 19.8194C48.7975 20.7749 47.8419 21.8129 46.7876 22.9331C45.7661 24.0534 44.7612 25.1737 43.7727 26.294C44.3987 26.4258 45.0742 26.5246 45.7991 26.5905C46.524 26.6235 47.1994 26.6235 47.8255 26.5905ZM45.9473 30.4456C46.2109 30.4456 46.4745 30.2644 46.7381 29.902C47.0347 29.5066 47.3147 28.7817 47.5783 27.7273C47.5783 27.6285 47.5948 27.5626 47.6278 27.5296C46.837 27.4967 46.0627 27.4472 45.3048 27.3813C44.5799 27.2825 43.888 27.1177 43.229 26.8871L42.8336 27.3319C43.0972 27.8591 43.4102 28.4028 43.7727 28.9629C44.1351 29.4901 44.547 29.869 45.0083 30.0997C45.173 30.1985 45.3378 30.2809 45.5025 30.3468C45.6673 30.4127 45.8155 30.4456 45.9473 30.4456ZM66.6245 12.1092C65.8667 12.1092 65.4877 11.8291 65.4877 11.269C65.4877 10.8736 65.7019 10.4452 66.1302 9.98395C66.5586 9.52266 67.1846 9.19316 68.0084 8.99546C68.5026 8.86366 68.898 8.79776 69.1946 8.79776C69.5241 8.76481 69.8371 8.69892 70.1336 8.60007C70.0018 9.22611 69.7218 9.90158 69.2934 10.6265C68.898 11.3514 68.3708 11.7962 67.7118 11.9609C67.3823 12.0598 67.0199 12.1092 66.6245 12.1092ZM58.7166 31.7801C58.1894 31.7801 57.6952 31.5659 57.2339 31.1376C56.8055 30.7092 56.5419 30.2479 56.4431 29.7537C56.5419 29.1277 56.7561 28.3698 57.0856 27.4802C57.448 26.5576 57.8599 25.6021 58.3212 24.6136C58.7825 23.6251 59.2438 22.7025 59.7051 21.8458C60.1664 20.9562 60.5618 20.2477 60.8913 19.7206C60.2652 20.2807 59.5898 20.9067 58.8649 21.5987C58.1729 22.2906 57.5139 22.9331 56.8879 23.5262C56.8549 23.5592 56.7726 23.6251 56.6408 23.7239C56.5419 23.8228 56.4431 23.8722 56.3442 23.8722C56.1136 23.8722 55.9983 23.7734 55.9983 23.5757C55.9983 23.4109 56.0642 23.2626 56.1959 23.1308C57.0856 22.1423 58.0082 21.1539 58.9637 20.1654C59.9522 19.1769 60.9077 18.1554 61.8303 17.1011C62.1269 16.7386 62.374 16.4585 62.5717 16.2608C62.8023 16.0302 63.1483 15.9149 63.6096 15.9149C63.8073 15.9149 64.1038 15.9643 64.4992 16.0631C64.9276 16.129 65.2736 16.2608 65.5372 16.4585C65.8337 16.6562 65.8831 16.9034 65.6854 17.1999C65.4548 17.5624 65.0594 18.1554 64.4992 18.9792C63.9391 19.8029 63.2966 20.742 62.5717 21.7964C61.8798 22.8508 61.1878 23.9216 60.4959 25.009C59.8369 26.0633 59.2932 27.0189 58.8649 27.8756C58.4365 28.7323 58.2223 29.3748 58.2223 29.8031C58.2223 30.0008 58.2882 30.0997 58.42 30.0997C58.6177 30.0997 58.9472 29.9184 59.4085 29.556C59.9028 29.1936 60.3805 28.8146 60.8418 28.4192C61.3361 27.9909 61.6656 27.7108 61.8303 27.579C62.7859 26.7553 63.7249 25.9151 64.6475 25.0584C65.5701 24.1687 66.4433 23.2462 67.267 22.2906C67.3329 22.2247 67.4153 22.1259 67.5141 21.9941C67.6459 21.8623 67.7777 21.7964 67.9095 21.7964C68.0743 21.7964 68.1566 21.8952 68.1566 22.0929C68.1566 22.3236 68.0743 22.5542 67.9095 22.7849C67.4812 23.3121 67.0034 23.8392 66.4762 24.3664C65.949 24.8607 65.4548 25.3549 64.9935 25.8492C64.1368 26.7059 63.2966 27.5626 62.4728 28.4192C61.6821 29.243 60.8913 30.0997 60.1005 30.9893C59.9357 31.187 59.7216 31.3682 59.458 31.533C59.2273 31.6977 58.9802 31.7801 58.7166 31.7801ZM56.1458 49.6717C54.6301 49.6717 53.8722 48.9139 53.8722 47.3982C53.8722 47.2335 53.8887 47.0687 53.9217 46.904C53.9217 46.7392 53.9381 46.5745 53.9711 46.4097C54.2347 45.2235 54.7948 44.0868 55.6515 42.9994C56.5082 41.9121 57.5132 40.8907 58.6664 39.9351C59.8196 39.0125 61.0058 38.1394 62.225 37.3156C63.4111 36.5248 64.482 35.8329 65.4375 35.2398C65.9977 34.8774 66.7061 34.4325 67.5628 33.9053C68.4524 33.3782 69.3915 32.8015 70.38 32.1755C71.3685 31.5824 72.3075 31.0223 73.1972 30.4951C73.5596 29.5725 73.8726 28.551 74.1362 27.4308C74.4328 26.3105 74.5646 25.1902 74.5316 24.0699C74.1362 24.4982 73.609 25.0913 72.95 25.8492C72.291 26.5741 71.5662 27.299 70.7754 28.0238C70.0175 28.7487 69.2432 29.3748 68.4524 29.902C67.6946 30.3962 67.0191 30.6433 66.426 30.6433C65.8 30.6433 65.3222 30.3468 64.9927 29.7537C64.6632 29.1606 64.4985 28.584 64.4985 28.0238C64.4985 27.1013 64.7621 26.0963 65.2893 25.009C65.8165 23.9216 66.5249 22.8508 67.4145 21.7964C68.3041 20.742 69.2762 19.77 70.3305 18.8803C71.3849 17.9907 72.4393 17.2823 73.4937 16.7551C74.5481 16.2279 75.5201 15.9643 76.4097 15.9643C77.1017 15.9643 77.7277 16.2114 78.2879 16.7057C78.848 17.167 79.1281 17.7601 79.1281 18.4849C79.1281 18.7156 79.0622 18.9627 78.9304 19.2263C78.8315 19.457 78.6503 19.5723 78.3867 19.5723C78.1561 19.5723 77.9749 19.4899 77.8431 19.3252C77.7113 19.1275 77.5465 18.9462 77.3488 18.7815C77.1511 18.5838 76.8051 18.4849 76.3109 18.4849C75.586 18.4849 74.7952 18.7321 73.9385 19.2263C73.1148 19.6876 72.3405 20.2477 71.6156 20.9067C70.8907 21.5657 70.2811 22.1423 69.7869 22.6366C69.1608 23.2956 68.5513 24.0864 67.9582 25.009C67.398 25.9315 66.9532 26.8212 66.6237 27.6779C66.5249 27.9085 66.426 28.1721 66.3272 28.4687C66.2613 28.7652 66.2283 29.0453 66.2283 29.3089C66.2283 29.6384 66.3436 29.8031 66.5743 29.8031C66.6402 29.8031 66.7061 29.8031 66.772 29.8031C66.8379 29.7702 66.9038 29.7372 66.9697 29.7043C67.9252 29.3089 68.9302 28.6005 69.9846 27.579C71.039 26.5576 72.0275 25.4538 72.95 24.2676C73.8726 23.0485 74.614 22.0105 75.1741 21.1539L75.3718 20.8573C75.5695 20.2313 75.9979 19.9182 76.6569 19.9182C76.8546 19.9182 77.0523 19.9677 77.25 20.0665C77.4477 20.1654 77.5465 20.3466 77.5465 20.6102C77.5465 22.06 77.4806 23.3285 77.3488 24.4159C77.217 25.5032 76.904 26.7388 76.4097 28.1227C77.0687 27.5955 77.6783 27.0848 78.2384 26.5905C78.8315 26.0963 79.4082 25.5526 79.9683 24.9595C80.4955 24.4323 80.9897 23.8887 81.451 23.3285C81.9453 22.7684 82.456 22.2412 82.9832 21.747C83.0491 21.6811 83.115 21.6316 83.1809 21.5987C83.2797 21.5328 83.3786 21.4998 83.4774 21.4998C83.6751 21.4998 83.774 21.5987 83.774 21.7964C83.774 21.9611 83.5269 22.3236 83.0326 22.8837C82.5713 23.4109 81.9782 24.0369 81.2533 24.7618C80.5614 25.4867 79.82 26.2281 79.0292 26.9859C78.2714 27.7108 77.5795 28.3698 76.9534 28.9629C76.3603 29.5231 75.9485 29.902 75.7178 30.0997C74.2021 34.0866 72.2251 37.5463 69.7869 40.4788C67.3816 43.4443 64.3172 45.9978 60.5939 48.1396C59.9679 48.502 59.2595 48.848 58.4687 49.1775C57.6779 49.507 56.9036 49.6717 56.1458 49.6717ZM57.2825 48.4361C58.1722 48.4361 59.1442 48.1066 60.1986 47.4476C61.22 46.8216 62.2414 46.0308 63.2629 45.0753C64.2843 44.1197 65.2069 43.1642 66.0306 42.2086C66.8873 41.2861 67.5628 40.5117 68.057 39.8857C68.6172 39.1279 69.1608 38.37 69.688 37.6122C70.2152 36.8873 70.7095 36.1294 71.1708 35.3387C71.8627 34.1854 72.4393 33.0651 72.9006 31.9778C72.9336 31.8789 72.9006 31.813 72.8018 31.7801C72.7359 31.7801 72.7029 31.7801 72.7029 31.7801C71.6815 32.505 70.6436 33.2134 69.5892 33.9053C68.5677 34.6302 67.5298 35.3387 66.4754 36.0306C65.9483 36.3601 65.2398 36.8379 64.3502 37.4639C63.4606 38.1229 62.505 38.8478 61.4836 39.6386C60.4621 40.4623 59.4901 41.3025 58.5675 42.1592C57.645 43.0489 56.8871 43.9055 56.294 44.7293C55.7009 45.586 55.4044 46.3438 55.4044 47.0028C55.4044 47.53 55.6186 47.8924 56.0469 48.0901C56.4423 48.3208 56.8542 48.4361 57.2825 48.4361ZM89.4894 31.2859C88.9952 31.2859 88.4186 31.1211 87.7596 30.7916C87.1006 30.4621 86.7711 30.0173 86.7711 29.4572C86.7711 28.9629 86.9523 28.3369 87.3148 27.579C87.6772 26.8212 88.122 26.0139 88.6492 25.1572C89.1764 24.3005 89.7201 23.4768 90.2802 22.686C90.8404 21.8623 91.3181 21.1703 91.7135 20.6102C92.1419 20.0171 92.4055 19.6217 92.5043 19.424C92.9656 18.798 93.2457 18.4026 93.3445 18.2378C93.4434 18.0731 93.5093 17.9413 93.5422 17.8424C93.2786 18.0401 92.8668 18.3531 92.3066 18.7815C91.7465 19.1769 91.1863 19.5888 90.6262 20.0171C90.0661 20.4454 89.6542 20.7749 89.3906 21.0056C87.5454 22.6201 85.9968 24.1687 84.7447 25.6515C83.5256 27.1013 82.3888 28.6499 81.3344 30.2974C81.3015 30.3303 81.2191 30.3633 81.0873 30.3962C80.9555 30.3962 80.8566 30.3962 80.7908 30.3962C80.5931 30.3962 80.2965 30.3468 79.9011 30.2479C79.5387 30.1491 79.3904 29.9349 79.4563 29.6054C79.654 29.1112 79.9176 28.584 80.2471 28.0238C80.5766 27.4637 81.0379 26.7059 81.631 25.7503C82.2241 24.7618 82.9984 23.378 83.9539 21.5987C84.2505 21.0385 84.7447 20.1159 85.4366 18.8309C86.1615 17.5459 87.0347 16.0796 88.0561 14.4321C89.1105 12.7847 90.2802 11.1537 91.5653 9.53913C92.8832 7.89165 94.3001 6.42539 95.8158 5.14036C97.3314 3.85533 98.913 2.93274 100.561 2.3726C100.989 2.20785 101.368 2.12547 101.697 2.12547C102.323 2.12547 102.752 2.33964 102.982 2.76799C103.246 3.16339 103.592 3.49288 104.02 3.75648C104.284 3.92123 104.416 4.18482 104.416 4.54727C104.416 5.07446 103.971 5.79935 103.081 6.72194C102.224 7.61158 101.121 8.60007 99.7697 9.6874C98.4188 10.7418 97.0019 11.7962 95.5192 12.8506C94.0365 13.905 92.6361 14.877 91.3181 15.7666C90.0331 16.6562 89.0446 17.3482 88.3527 17.8424C88.2209 18.106 87.9573 18.5344 87.5619 19.1275C87.1994 19.6876 86.804 20.2972 86.3757 20.9562C85.9474 21.6152 85.552 22.2247 85.1895 22.7849C84.8271 23.345 84.5964 23.7404 84.4976 23.971C85.4202 23.1144 86.3922 22.2082 87.4136 21.2527C88.468 20.2972 89.4894 19.3746 90.4779 18.4849C91.4994 17.5953 92.389 16.8375 93.1468 16.2114C93.3116 16.0796 93.5093 15.9972 93.7399 15.9643C94.0035 15.9313 94.2177 15.9149 94.3825 15.9149C94.8437 15.9149 95.3874 16.1126 96.0135 16.508C96.6395 16.9034 96.9525 17.3811 96.9525 17.9413C96.9525 18.3037 96.7548 18.6662 96.3594 19.0286C95.3709 19.9182 94.366 20.9562 93.3445 22.1423C92.3231 23.2956 91.4005 24.5147 90.5768 25.7998C90.3461 26.1951 90.0166 26.7718 89.5883 27.5296C89.1929 28.2874 88.9952 28.897 88.9952 29.3583C88.9952 29.6878 89.094 29.8525 89.2917 29.8525C89.6871 29.8525 90.2308 29.6384 90.9227 29.21C91.6476 28.7817 92.422 28.238 93.2457 27.579C94.1024 26.8871 94.9426 26.1787 95.7663 25.4538C96.623 24.7289 97.3809 24.0534 98.0399 23.4274C98.6988 22.8013 99.1766 22.3236 99.4732 21.9941C99.6709 21.7964 99.8356 21.6975 99.9674 21.6975C100.165 21.6975 100.264 21.7964 100.264 21.9941C100.264 22.0929 100.198 22.2412 100.066 22.4389C99.6379 22.999 99.0119 23.7075 98.1881 24.5641C97.3644 25.3879 96.4583 26.2446 95.4698 27.1342C94.4813 27.9909 93.5258 28.7817 92.6032 29.5066C91.7135 30.1985 90.9722 30.7257 90.3791 31.0882C90.1484 31.22 89.8519 31.2859 89.4894 31.2859ZM89.3906 15.9149C89.6542 15.7172 90.099 15.4042 90.725 14.9758C91.384 14.5145 92.1089 14.0038 92.8997 13.4437C93.7235 12.8506 94.5307 12.2739 95.3215 11.7138C96.1123 11.1207 96.7713 10.5935 97.2985 10.1322C98.3529 9.20963 99.226 8.45179 99.918 7.8587C100.643 7.26561 101.269 6.57367 101.796 5.78288C101.928 5.61813 102.01 5.46986 102.043 5.33806C102.076 5.20626 102.093 5.09094 102.093 4.99209C102.093 4.79439 101.994 4.64612 101.796 4.54727C101.631 4.44842 101.417 4.39899 101.154 4.39899C100.659 4.39899 100.017 4.66259 99.226 5.18979C98.4353 5.71698 97.5786 6.42539 96.656 7.31503C95.7334 8.17172 94.8108 9.11079 93.8882 10.1322C92.9656 11.1537 92.1089 12.1751 91.3181 13.1965C90.5274 14.185 89.8848 15.0911 89.3906 15.9149ZM114.59 32.818C114.195 32.818 113.783 32.7192 113.355 32.5215C112.959 32.3567 112.564 32.1261 112.169 31.8295C111.74 31.4671 111.328 30.9564 110.933 30.2974C110.538 29.6384 110.208 28.9464 109.945 28.2215L109.895 28.1227C108.248 29.4407 106.683 30.4621 105.2 31.187C103.75 31.9119 102.449 32.3732 101.295 32.5709C101.164 32.6038 101.048 32.6203 100.949 32.6203C100.85 32.6203 100.752 32.6203 100.653 32.6203C99.7631 32.6203 99.1701 32.3073 98.8735 31.6813C98.577 31.0552 98.4452 30.3303 98.4781 29.5066C98.5111 28.3863 98.7911 27.1507 99.3183 25.7998C99.8455 24.4488 100.488 23.0979 101.246 21.747C102.004 20.396 102.745 19.1604 103.47 18.0401C104.195 16.9198 104.755 16.0467 105.15 15.4206C104.755 15.5854 104.277 15.7831 103.717 16.0137C103.157 16.2114 102.63 16.3926 102.136 16.5574C101.641 16.7221 101.295 16.8045 101.098 16.8045C100.801 16.8045 100.653 16.6068 100.653 16.2114C100.653 15.816 100.752 15.4536 100.949 15.1241C101.147 14.7946 101.444 14.5639 101.839 14.4321C102.498 14.2015 103.223 13.9873 104.014 13.7896C104.804 13.559 105.628 13.3448 106.485 13.1471C107.737 11.3678 109.088 9.72035 110.538 8.20467C111.987 6.65604 113.503 5.37101 115.085 4.34957C115.381 4.15187 115.711 4.25072 116.073 4.64612C116.436 5.00856 116.633 5.38748 116.666 5.78288C116.666 6.14532 116.534 6.39245 116.271 6.52424C114.887 7.34798 113.668 8.27057 112.613 9.29201C111.592 10.3134 110.505 11.4337 109.351 12.6529C109.615 12.6199 110.06 12.5705 110.686 12.5046C111.312 12.4387 111.987 12.3728 112.712 12.3069C113.437 12.241 114.096 12.1916 114.689 12.1586C115.315 12.0927 115.744 12.0598 115.974 12.0598C116.106 12.0598 116.32 12.0762 116.617 12.1092C116.946 12.1092 117.243 12.1421 117.506 12.208C117.803 12.2739 117.951 12.4057 117.951 12.6034C117.951 12.8341 117.77 12.9494 117.408 12.9494C117.045 12.9494 116.782 12.9494 116.617 12.9494C116.221 12.9494 115.645 12.9988 114.887 13.0977C114.129 13.1965 113.289 13.3283 112.366 13.4931C111.477 13.6249 110.637 13.7732 109.846 13.9379C109.088 14.1026 108.511 14.2509 108.116 14.3827C107.358 15.3053 106.65 16.2444 105.991 17.1999C105.365 18.1225 104.755 19.111 104.162 20.1654C103.931 20.5608 103.618 21.1868 103.223 22.0435C102.86 22.8672 102.481 23.7898 102.086 24.8113C101.691 25.8327 101.361 26.8212 101.098 27.7767C100.834 28.6993 100.702 29.4736 100.702 30.0997C100.702 30.9564 100.999 31.3188 101.592 31.187C102.251 31.0552 103.075 30.7916 104.063 30.3962C105.085 29.9679 106.089 29.4736 107.078 28.9135C108.099 28.3204 108.94 27.7108 109.599 27.0848C109.566 26.92 109.549 26.7718 109.549 26.64C109.549 26.5082 109.549 26.3599 109.549 26.1951C109.319 26.0304 109.006 25.8327 108.61 25.6021C108.248 25.3385 108.066 24.9101 108.066 24.317C108.066 23.6251 108.281 22.9496 108.709 22.2906C109.137 21.6316 109.5 21.3021 109.796 21.3021C110.027 21.3021 110.142 21.4998 110.142 21.8952C110.142 22.027 110.142 22.373 110.142 22.9331C110.175 23.4933 110.208 24.0699 110.241 24.663C110.274 25.2231 110.307 25.6021 110.34 25.7998C110.472 25.9315 110.587 26.0139 110.686 26.0469L113.207 23.3285C114.162 22.2412 115.118 21.1868 116.073 20.1654C117.029 19.1439 117.902 18.2213 118.693 17.3976C119.253 16.5409 119.862 15.816 120.521 15.2229C121.213 14.6298 122.004 14.3333 122.894 14.3333C123.52 14.3333 123.965 14.4486 124.228 14.6793C124.492 14.9099 124.624 15.1735 124.624 15.4701C124.624 15.7666 124.492 16.0467 124.228 16.3103C123.998 16.5409 123.652 16.6562 123.19 16.6562C122.465 16.6233 121.839 16.6562 121.312 16.7551C120.785 16.821 120.406 17.0516 120.175 17.447C119.945 17.8754 119.681 18.5838 119.385 19.5723C119.088 20.5608 118.792 21.6811 118.495 22.9331C118.231 24.1852 118.001 25.4044 117.803 26.5905C118.495 26.4587 119.154 26.294 119.78 26.0963C120.439 25.8656 121.147 25.4867 121.905 24.9595C122.663 24.4323 123.536 23.658 124.525 22.6366C124.69 22.4389 124.854 22.34 125.019 22.34C125.118 22.34 125.167 22.4059 125.167 22.5377C125.167 22.6036 125.134 22.719 125.068 22.8837C125.003 23.0485 124.871 23.2626 124.673 23.5262C124.278 24.0534 123.783 24.5806 123.19 25.1078C122.63 25.6021 122.136 25.981 121.708 26.2446C120.818 26.7718 119.978 27.1013 119.187 27.2331C118.396 27.3319 117.885 27.3978 117.655 27.4308C117.523 28.1227 117.408 28.6993 117.309 29.1606C117.21 29.589 117.144 29.902 117.111 30.0997C116.946 31.0552 116.617 31.7471 116.123 32.1755C115.661 32.6038 115.151 32.818 114.59 32.818ZM115.727 26.5905C115.892 25.8327 116.106 24.8277 116.37 23.5757C116.666 22.3236 117.062 21.0715 117.556 19.8194C116.963 20.4784 116.32 21.1868 115.628 21.9446C114.936 22.6695 114.228 23.4274 113.503 24.2182C113.24 24.5806 112.959 24.9431 112.663 25.3055C112.399 25.635 112.103 25.981 111.773 26.3434C113.124 26.607 114.442 26.6894 115.727 26.5905ZM113.849 30.4456C114.113 30.4456 114.376 30.2644 114.64 29.902C114.936 29.5066 115.217 28.7817 115.48 27.7273C115.48 27.6285 115.497 27.5626 115.53 27.5296C114.772 27.4967 114.03 27.4472 113.305 27.3813C112.581 27.3154 111.889 27.1672 111.23 26.9365C111.098 27.0683 110.999 27.1672 110.933 27.2331C110.867 27.299 110.801 27.3649 110.735 27.4308C110.999 27.9579 111.312 28.4851 111.674 29.0123C112.037 29.5066 112.449 29.869 112.91 30.0997C113.075 30.1985 113.24 30.2809 113.404 30.3468C113.569 30.4127 113.717 30.4456 113.849 30.4456Z" fill="#E51F31"/>
</svg>
