<svg width="100" height="100" viewBox="0 0 100 100" fill="none" xmlns="http://www.w3.org/2000/svg">
<g clip-path="url(#clip0_2723_15483)">
<mask id="mask0_2723_15483" style="mask-type:luminance" maskUnits="userSpaceOnUse" x="12" y="16" width="80" height="68">
<path fill-rule="evenodd" clip-rule="evenodd" d="M12.966 16.5579H91.3466V83.5322H12.966V16.5579Z" fill="white"/>
</mask>
<g mask="url(#mask0_2723_15483)">
<path fill-rule="evenodd" clip-rule="evenodd" d="M76.8755 61.1202C73.2939 61.6853 70.187 63.4987 67.7958 66.7079C67.4548 67.1653 67.194 67.7287 66.9916 68.2885C66.6202 69.3023 66.9131 70.126 67.7591 70.5838C68.0297 70.7299 68.3361 70.8064 68.6337 70.8764C70.8158 71.3869 72.9844 71.1029 75.1216 70.575C77.9961 69.8641 80.6865 68.6254 82.8333 66.2091C83.4254 65.5441 83.8283 64.9876 84.3403 63.9143C84.8502 62.8404 84.611 62.068 83.5656 61.5778C82.5242 61.0897 79.9958 60.6284 76.8755 61.1202ZM30.6842 22.5679C30.7511 21.2104 30.8534 19.8545 30.9567 18.4981C30.9837 18.153 31.0489 17.8003 31.1492 17.4741C31.3881 16.71 31.8061 16.3916 32.4751 16.6418C33.0806 16.8663 33.7089 17.1862 34.1807 17.6594C35.127 18.6085 36.0182 19.6465 36.8529 20.7305C37.6104 21.7157 37.8778 22.8486 37.729 24.2543C37.1236 30.0546 36.5 35.8584 36.1472 41.6825C35.8028 47.3791 35.6355 53.0992 35.9783 58.8163C36.112 61.052 36.1772 63.2929 36.2809 65.5305C36.2993 65.9556 36.3494 66.3779 36.4063 67.0448C36.7173 66.6277 36.9181 66.3982 37.0803 66.1345C38.5184 63.8068 39.938 61.4638 41.3828 59.1428C42.4191 57.4805 43.7873 56.3492 45.528 55.8235C48.0481 55.061 50.2235 55.9256 52.1429 57.7511C53.2882 58.8403 54.3401 60.0652 55.392 61.2799C57.1176 63.276 58.8063 65.3143 60.5136 67.3303C60.858 67.7354 61.2208 68.1181 61.6574 68.603C68.0198 58.6376 76.8057 56.3404 86.8918 57.9892C86.9637 57.2869 87.0254 56.6894 87.0992 55.9852C88.4551 55.3948 89.8062 55.3793 91.2528 56.0497C91.2862 56.3883 91.3495 56.4105 91.3466 57.0585C91.0736 62.8981 90.8482 68.7375 91.1525 74.5873C91.1992 75.508 91.3495 78.882 90.8682 79.0673C90.5904 79.1729 90.1858 78.2984 89.9851 77.859C88.6206 74.863 87.9371 71.6319 87.5054 68.3141C87.4768 68.1012 87.4553 67.8854 87.4102 67.4837C81.1112 73.374 73.8789 75.3257 65.8729 74.7285C66.8746 76.3893 67.8276 77.905 68.717 79.469C69.2373 80.3808 69.6686 81.3608 70.117 82.3275C70.2741 82.6677 70.5247 83.4315 70.0048 83.4623C69.4831 83.4909 68.0683 82.3393 67.2692 81.4937C64.7107 78.7833 62.2091 76.0012 59.6542 73.2859C56.3703 69.7941 53.0741 66.315 49.7465 62.8778C48.0595 61.1371 46.4611 61.2018 44.7352 62.9647C42.7754 64.9619 41.2554 67.3933 39.6969 69.7872C38.8946 71.0178 38.0752 72.2358 37.2139 73.4098C36.8243 73.9388 36.3464 74.414 35.8414 74.7948C35.062 75.3837 34.4769 75.2066 34.0417 74.2471C33.7811 73.6716 33.6323 73.0203 33.4953 72.3839C32.487 67.6777 32.0538 62.8695 31.6572 58.0589C31.3448 54.2991 30.8098 45.71 30.7446 45.0631C29.2697 44.9169 27.92 45.3389 26.6894 46.1489C23.0592 48.5328 21.5444 53.1029 23.6212 57.5251C24.2866 58.9473 25.1627 60.2423 25.9806 61.5625C26.9538 63.1347 28.0641 64.6048 28.9487 66.2381C30.4683 69.0507 30.114 72.5286 28.2382 75.0534C26.2512 77.7333 23.6713 79.4332 20.9475 80.8743C19.5993 81.5872 18.1934 82.1724 16.7853 82.734C15.9611 83.0641 15.0916 83.2665 14.2304 83.4571C13.8542 83.5422 13.0415 83.6425 12.9711 83.2156C12.8993 82.7902 13.6098 82.438 13.986 82.2168C15.6167 81.2538 17.2822 80.3638 18.9073 79.3925C20.5728 78.3968 22.1679 77.2875 23.4657 75.6746C25.3837 73.2908 25.4955 70.4289 24.0607 67.8052C23.2498 66.3285 22.2264 64.9945 21.2267 63.667C19.506 61.3839 18.1231 58.8708 17.2537 56.0225C16.5964 53.8651 16.4209 51.6192 16.9978 49.4072C17.5495 47.2871 18.8755 45.8136 20.4776 44.6788C23.4991 42.5385 26.7064 42.2083 30.0606 43.4759C30.2043 43.5301 30.5187 43.7105 30.6642 43.7565C30.6975 43.7666 30.3751 28.8961 30.6842 22.5679Z" fill="white"/>
</g>
<path fill-rule="evenodd" clip-rule="evenodd" d="M15.4087 51.477C15.3919 53.0763 15.0258 66.1592 15.1083 73.0324C15.1285 74.6068 15.1117 76.1844 15.0863 77.7591C15.0781 78.3061 14.8943 79.2406 14.5263 79.252C14.1569 79.2638 13.6406 78.2069 13.359 77.5719C12.0836 74.7144 11.4292 71.6383 10.923 68.5359C10.0642 63.2717 9.76383 57.9533 9.90915 52.605C9.92072 52.1835 9.95958 51.7617 9.98349 51.383C11.5352 50.4583 13.8734 50.4949 15.4087 51.477Z" fill="white"/>
<mask id="mask1_2723_15483" style="mask-type:luminance" maskUnits="userSpaceOnUse" x="9" y="42" width="8" height="6">
<path fill-rule="evenodd" clip-rule="evenodd" d="M9.87408 42.4231H16.4393V47.6571H9.87408V42.4231Z" fill="white"/>
</mask>
<g mask="url(#mask1_2723_15483)">
<path fill-rule="evenodd" clip-rule="evenodd" d="M12.9802 42.4266C14.3069 42.3363 15.507 44.0151 16.22 45.3585C16.6835 46.2317 16.4113 46.9745 15.415 47.3612C14.4172 47.7478 11.6771 47.7269 10.9548 47.4642C10.0803 47.1467 9.54877 46.3784 10.0965 45.4245C10.8132 44.1759 11.6531 42.5182 12.9802 42.4266Z" fill="#EC671B"/>
</g>
</g>
<defs>
<clipPath id="clip0_2723_15483">
<rect width="82.6667" height="81.3333" fill="white" transform="translate(8.66666 9.33325)"/>
</clipPath>
</defs>
</svg>
