<svg width="132" height="66" viewBox="0 0 132 66" fill="none" xmlns="http://www.w3.org/2000/svg">
<path d="M0 63.781H0.571828C0.571828 63.935 0.615814 64.0889 0.659801 64.2209C0.725781 64.3528 0.791762 64.4628 0.901728 64.5508C1.0117 64.6388 1.12166 64.7047 1.27562 64.7487C1.42957 64.7927 1.56153 64.8367 1.75947 64.8367C1.93542 64.8367 2.08937 64.8147 2.22133 64.7707C2.35329 64.7267 2.46326 64.6827 2.57322 64.6168C2.77117 64.4628 2.88113 64.2649 2.88113 64.0229C2.88113 63.847 2.79316 63.715 2.59522 63.5831C2.41927 63.4511 2.13336 63.3411 1.75947 63.2532C1.73748 63.2532 1.71548 63.2312 1.69349 63.2312C1.6715 63.2312 1.6715 63.2092 1.6495 63.2092C1.3416 63.1432 1.09967 63.0552 0.901728 62.9893C0.703788 62.9013 0.549834 62.8133 0.461861 62.7253C0.373887 62.6374 0.285914 62.5274 0.241927 62.4174C0.19794 62.2855 0.175947 62.1535 0.175947 61.9996C0.175947 61.8016 0.219934 61.6257 0.285914 61.4717C0.351894 61.3178 0.461861 61.1638 0.615814 61.0538C0.769768 60.9439 0.923722 60.8559 1.12166 60.7899C1.3196 60.7239 1.53954 60.7019 1.78146 60.7019C2.02339 60.7019 2.24332 60.7459 2.44126 60.7899C2.6392 60.8559 2.79316 60.9439 2.94711 61.0758C3.10107 61.2078 3.18904 61.3617 3.25502 61.5157C3.321 61.6916 3.36499 61.8896 3.36499 62.1095H2.79316C2.77117 61.9556 2.74917 61.8236 2.70518 61.7136C2.6612 61.5817 2.57322 61.5157 2.48525 61.4277C2.39728 61.3617 2.28731 61.2958 2.15535 61.2518C2.02339 61.2078 1.89143 61.1858 1.73748 61.1858C1.58352 61.1858 1.45156 61.2078 1.3416 61.2298C1.23163 61.2738 1.12166 61.3178 1.03369 61.3837C0.945715 61.4497 0.879735 61.5157 0.835748 61.6037C0.791761 61.6916 0.769768 61.7796 0.769768 61.8896C0.769768 62.0655 0.857741 62.1975 1.05568 62.3295C1.23163 62.4614 1.51754 62.5714 1.89143 62.6374C1.93542 62.6594 1.9794 62.6594 2.02339 62.6814C2.06738 62.7033 2.11136 62.7033 2.13336 62.7033H2.15535C2.17734 62.7033 2.17734 62.7253 2.19934 62.7253C2.44126 62.7913 2.6392 62.8353 2.79316 62.9013C2.94711 62.9673 3.07907 63.0332 3.14505 63.0992C3.21103 63.1432 3.25502 63.2092 3.29901 63.2532C3.34299 63.3192 3.38698 63.3851 3.40897 63.4511C3.47495 63.6051 3.49695 63.759 3.49695 63.935C3.49695 64.1549 3.45296 64.3309 3.36499 64.5068C3.29901 64.6827 3.18904 64.8147 3.03509 64.9467C2.88113 65.0786 2.70518 65.1666 2.48525 65.2326C2.28731 65.2986 2.04538 65.3206 1.78146 65.3206C1.25362 65.3206 0.813755 65.1886 0.527841 64.9247C0.373887 64.7927 0.26392 64.6168 0.175947 64.4188C0.0439866 64.2649 0 64.0449 0 63.781ZM4.9705 63.4071H6.35609L5.67429 61.4497L4.9705 63.4071ZM3.69489 65.2546L5.34439 60.8119H6.00419L7.65369 65.2546H6.99389L6.51004 63.935H4.77256L4.28871 65.2546H3.69489ZM8.70938 61.3178V62.8133H9.74306C9.91901 62.8133 10.073 62.7913 10.2269 62.7693C10.3589 62.7473 10.4469 62.7033 10.5348 62.6374C10.6008 62.5714 10.6668 62.5054 10.7108 62.3954C10.7548 62.3075 10.7768 62.1755 10.7768 62.0435C10.7768 61.9116 10.7548 61.8016 10.7108 61.7136C10.6668 61.6257 10.6228 61.5377 10.5568 61.4937C10.4908 61.4277 10.3809 61.4057 10.2489 61.3617C10.117 61.3398 9.941 61.3178 9.76506 61.3178H8.70938ZM8.11555 60.8119H9.83104C9.963 60.8119 10.095 60.8119 10.2049 60.8119C10.3149 60.8339 10.3809 60.8339 10.4688 60.8559C10.5348 60.8559 10.6008 60.8779 10.6448 60.8999C10.7108 60.9219 10.7768 60.9439 10.8207 60.9659C11.0187 61.0758 11.1506 61.2078 11.2386 61.3837C11.3486 61.5597 11.3926 61.7796 11.3926 62.0216C11.3926 62.1535 11.3706 62.2415 11.3486 62.3515C11.3266 62.4614 11.2826 62.5494 11.2166 62.6374C11.1726 62.7253 11.1067 62.7913 11.0407 62.8573C10.9747 62.9233 10.8647 62.9893 10.7768 63.0332C10.8647 63.0552 10.9307 63.0992 10.9967 63.1212C11.0627 63.1652 11.1067 63.2092 11.1506 63.2752C11.1946 63.3192 11.2166 63.4071 11.2386 63.4951C11.2606 63.6051 11.2826 63.715 11.2826 63.847L11.3266 64.5728C11.3266 64.6607 11.3486 64.7267 11.3486 64.7707C11.3706 64.8367 11.3706 64.8807 11.3926 64.9247C11.4146 64.9687 11.4366 64.9907 11.4585 65.0126C11.4805 65.0346 11.5025 65.0566 11.5465 65.0786V65.2106H10.8427C10.8207 65.1666 10.7987 65.0786 10.7768 64.9907C10.7548 64.9027 10.7328 64.7707 10.7328 64.6168V64.5948L10.6668 64.0669C10.6668 63.913 10.6448 63.803 10.6008 63.693C10.5788 63.6051 10.5348 63.5171 10.4688 63.4731C10.3589 63.3851 10.095 63.3412 9.67708 63.3412H8.70938V65.2546H8.11555V60.8119ZM12.2283 65.2546V60.8119H15.3954V61.3617H12.8221V62.6814H15.1974V63.2092H12.8221V64.7047H15.4393V65.2546H12.2283ZM16.1651 65.2546V60.8119H19.3322V61.3617H16.7589V62.6814H19.1342V63.2092H16.7589V64.7047H19.3762V65.2546H16.1651ZM19.904 63.781H20.4758C20.4758 63.935 20.4978 64.0889 20.5638 64.2209C20.6078 64.3528 20.6958 64.4628 20.8057 64.5508C20.9157 64.6388 21.0257 64.7047 21.1796 64.7487C21.3116 64.7927 21.4655 64.8367 21.6415 64.8367C21.8174 64.8367 21.9714 64.8147 22.1033 64.7707C22.2353 64.7267 22.3453 64.6827 22.4552 64.6168C22.6532 64.4628 22.7411 64.2649 22.7411 64.0229C22.7411 63.847 22.6532 63.715 22.4552 63.5831C22.2793 63.4511 21.9934 63.3411 21.6195 63.2532C21.5975 63.2532 21.5755 63.2312 21.5755 63.2312C21.5535 63.2312 21.5315 63.2092 21.5315 63.2092C21.2236 63.1432 20.9817 63.0552 20.7837 62.9893C20.5858 62.9013 20.4318 62.8133 20.3439 62.7253C20.2559 62.6374 20.1679 62.5274 20.1239 62.4174C20.08 62.2855 20.058 62.1535 20.058 61.9996C20.058 61.8016 20.1019 61.6257 20.1679 61.4717C20.2339 61.3178 20.3439 61.1638 20.4978 61.0538C20.6518 60.9439 20.8057 60.8559 21.0037 60.7899C21.2016 60.7239 21.3996 60.7019 21.6415 60.7019C21.8834 60.7019 22.1033 60.7459 22.3013 60.7899C22.4992 60.8559 22.6752 60.9439 22.8071 61.0758C22.9391 61.2078 23.0491 61.3617 23.115 61.5157C23.181 61.6916 23.225 61.8896 23.225 62.1095H22.6532C22.6312 61.9556 22.6092 61.8236 22.5652 61.7136C22.5212 61.5817 22.4552 61.5157 22.3673 61.4277C22.2793 61.3617 22.1693 61.2958 22.0374 61.2518C21.9054 61.2078 21.7734 61.1858 21.6195 61.1858C21.4655 61.1858 21.3336 61.2078 21.2236 61.2298C21.1136 61.2738 21.0037 61.3178 20.9157 61.3837C20.8277 61.4497 20.7617 61.5157 20.7178 61.6037C20.6738 61.6916 20.6518 61.7796 20.6518 61.8896C20.6518 62.0655 20.7397 62.1975 20.9157 62.3295C21.0916 62.4614 21.3776 62.5714 21.7514 62.6374C21.7954 62.6594 21.8614 62.6594 21.9054 62.6814C21.9494 62.7033 21.9714 62.7033 22.0154 62.7033H22.0374C22.0374 62.7033 22.0594 62.7253 22.0813 62.7253C22.3233 62.7913 22.5212 62.8353 22.6752 62.9013C22.8291 62.9673 22.9611 63.0332 23.0271 63.0992C23.071 63.1432 23.137 63.2092 23.181 63.2532C23.225 63.3192 23.269 63.3851 23.291 63.4511C23.357 63.6051 23.379 63.759 23.379 63.935C23.379 64.1549 23.335 64.3309 23.269 64.5068C23.203 64.6827 23.071 64.8147 22.9391 64.9467C22.7851 65.0786 22.6092 65.1666 22.3893 65.2326C22.1913 65.2986 21.9494 65.3206 21.6855 65.3206C21.1576 65.3206 20.7178 65.1886 20.4318 64.9247C20.2779 64.7927 20.1679 64.6168 20.1019 64.4188C19.948 64.2649 19.926 64.0449 19.904 63.781ZM30.6588 63.781H31.2306C31.2306 63.935 31.2746 64.0889 31.3186 64.2209C31.3625 64.3528 31.4505 64.4628 31.5605 64.5508C31.6485 64.6388 31.7804 64.7047 31.9344 64.7487C32.0663 64.7927 32.2203 64.8367 32.3962 64.8367C32.5722 64.8367 32.7261 64.8147 32.8581 64.7707C32.9901 64.7267 33.1 64.6827 33.21 64.6168C33.4079 64.4628 33.5179 64.2649 33.5179 64.0229C33.5179 63.847 33.4299 63.715 33.232 63.5831C33.034 63.4511 32.7701 63.3411 32.3962 63.2532C32.3742 63.2532 32.3523 63.2312 32.3303 63.2312C32.3083 63.2312 32.3083 63.2092 32.2863 63.2092C31.9784 63.1432 31.7364 63.0552 31.5385 62.9893C31.3406 62.9013 31.1866 62.8133 31.0986 62.7253C31.0107 62.6374 30.9227 62.5274 30.8787 62.4174C30.8347 62.2855 30.8127 62.1535 30.8127 61.9996C30.8127 61.8016 30.8567 61.6257 30.9227 61.4717C30.9887 61.3178 31.0986 61.1638 31.2526 61.0538C31.4065 60.9439 31.5605 60.8559 31.7584 60.7899C31.9564 60.7239 32.1763 60.7019 32.4182 60.7019C32.6602 60.7019 32.8801 60.7459 33.078 60.7899C33.276 60.8559 33.4299 60.9439 33.5839 61.0758C33.7378 61.2078 33.8258 61.3617 33.8918 61.5157C33.9578 61.6916 34.0018 61.8896 34.0018 62.1095H33.4299C33.4079 61.9556 33.3859 61.8236 33.342 61.7136C33.298 61.5817 33.232 61.5157 33.144 61.4277C33.056 61.3617 32.9461 61.2958 32.8141 61.2518C32.6822 61.2078 32.5502 61.1858 32.3962 61.1858C32.2423 61.1858 32.1103 61.2078 32.0004 61.2298C31.8904 61.2738 31.7804 61.3178 31.6925 61.3837C31.6045 61.4497 31.5385 61.5157 31.4945 61.6037C31.4505 61.6916 31.4285 61.7796 31.4285 61.8896C31.4285 62.0655 31.5165 62.1975 31.7144 62.3295C31.8904 62.4614 32.1763 62.5714 32.5502 62.6374C32.5942 62.6594 32.6382 62.6594 32.6822 62.6814C32.7261 62.7033 32.7701 62.7033 32.7921 62.7033H32.8141C32.8361 62.7033 32.8361 62.7253 32.8581 62.7253C33.1 62.7913 33.298 62.8353 33.4519 62.9013C33.6059 62.9673 33.7378 63.0332 33.8038 63.0992C33.8698 63.1432 33.9138 63.2092 33.9578 63.2532C34.0018 63.3192 34.0457 63.3851 34.0677 63.4511C34.1337 63.6051 34.1557 63.759 34.1557 63.935C34.1557 64.1549 34.1117 64.3309 34.0237 64.5068C33.9578 64.6827 33.8258 64.8147 33.6938 64.9467C33.5399 65.0786 33.3639 65.1666 33.144 65.2326C32.9461 65.2986 32.7041 65.3206 32.4402 65.3206C31.9124 65.3206 31.4945 65.1886 31.1866 64.9247C31.0326 64.7927 30.9227 64.6168 30.8347 64.4188C30.7247 64.2649 30.6588 64.0449 30.6588 63.781ZM35.6513 63.4071H37.0368L36.355 61.4497L35.6513 63.4071ZM34.3536 65.2546L36.0032 60.8119H36.663L38.3125 65.2546H37.6527L37.1908 63.935H35.4533L34.9695 65.2546H34.3536ZM38.7743 65.2546V60.8119H39.3901V64.6827H41.6115V65.2546H38.7743ZM42.7991 65.2546L41.6335 60.8119H42.2273L43.129 64.3748L44.0527 60.8119H44.6905L45.6582 64.3309L46.582 60.8119H47.1538L45.9661 65.2546H45.3723L44.3606 61.5817L43.3929 65.2546H42.7991ZM48.4734 63.4071H49.859L49.1772 61.4497L48.4734 63.4071ZM47.1758 65.2546L48.8253 60.8119H49.4851L51.1346 65.2546H50.4748L50.0129 63.935H48.2755L47.7916 65.2546H47.1758ZM52.1903 61.3178V62.8133H53.224C53.4219 62.8133 53.5759 62.7913 53.7078 62.7693C53.8398 62.7473 53.9497 62.7033 54.0157 62.6374C54.1037 62.5714 54.1477 62.5054 54.1917 62.3954C54.2357 62.3075 54.2577 62.1755 54.2577 62.0435C54.2577 61.9116 54.2357 61.8016 54.1917 61.7136C54.1477 61.6257 54.1037 61.5377 54.0377 61.4937C53.9717 61.4277 53.8618 61.4057 53.7298 61.3617C53.5978 61.3398 53.4439 61.3178 53.246 61.3178H52.1903ZM51.5965 60.8119H53.3119C53.4439 60.8119 53.5759 60.8119 53.6858 60.8119C53.7958 60.8339 53.8618 60.8339 53.9497 60.8559C54.0157 60.8559 54.0817 60.8779 54.1257 60.8999C54.1917 60.9219 54.2577 60.9439 54.3016 60.9659C54.4996 61.0758 54.6315 61.2078 54.7195 61.3837C54.8295 61.5597 54.8735 61.7796 54.8735 62.0216C54.8735 62.1535 54.8515 62.2415 54.8295 62.3515C54.8075 62.4614 54.7635 62.5494 54.6975 62.6374C54.6535 62.7253 54.5876 62.7913 54.5216 62.8573C54.4556 62.9233 54.3456 62.9893 54.2577 63.0332C54.3456 63.0552 54.4116 63.0992 54.4776 63.1212C54.5436 63.1652 54.5876 63.2092 54.6315 63.2752C54.6755 63.3192 54.6975 63.4071 54.7195 63.4951C54.7415 63.6051 54.7635 63.715 54.7635 63.847L54.8075 64.5728C54.8075 64.6607 54.8295 64.7267 54.8295 64.7707C54.8515 64.8367 54.8515 64.8807 54.8735 64.9247C54.8955 64.9687 54.9174 64.9907 54.9394 65.0126C54.9614 65.0346 54.9834 65.0566 55.0274 65.0786V65.2106H54.3236C54.3016 65.1666 54.2796 65.0786 54.2577 64.9907C54.2357 64.9027 54.2137 64.7707 54.2137 64.6168V64.5948L54.1697 64.0229C54.1697 63.869 54.1477 63.759 54.1037 63.6491C54.0597 63.5611 54.0377 63.4731 53.9717 63.4291C53.8618 63.3412 53.5978 63.2972 53.18 63.2972H52.2123V65.2106H51.6184V60.8119H51.5965ZM55.4893 63.781H56.0611C56.0611 63.935 56.0831 64.0889 56.1491 64.2209C56.1931 64.3528 56.281 64.4628 56.391 64.5508C56.479 64.6388 56.6109 64.7047 56.7649 64.7487C56.9188 64.7927 57.0508 64.8367 57.2487 64.8367C57.4247 64.8367 57.5787 64.8147 57.7106 64.7707C57.8426 64.7267 57.9745 64.6827 58.0625 64.6168C58.2604 64.4628 58.3704 64.2649 58.3704 64.0229C58.3704 63.847 58.2824 63.715 58.0845 63.5831C57.8866 63.4511 57.6226 63.3411 57.2487 63.2532C57.2268 63.2532 57.2048 63.2312 57.1828 63.2312C57.1608 63.2312 57.1608 63.2092 57.1388 63.2092C56.8309 63.1432 56.5889 63.0552 56.391 62.9893C56.1931 62.9013 56.0391 62.8133 55.9511 62.7253C55.8632 62.6374 55.7752 62.5274 55.7312 62.4174C55.6872 62.2855 55.6652 62.1535 55.6652 61.9996C55.6652 61.8016 55.7092 61.6257 55.7752 61.4717C55.8412 61.3178 55.9511 61.1638 56.1051 61.0538C56.259 60.9439 56.413 60.8559 56.6109 60.7899C56.8089 60.7239 57.0288 60.7019 57.2487 60.7019C57.4907 60.7019 57.7106 60.7459 57.9086 60.7899C58.1065 60.8559 58.2604 60.9439 58.4144 61.0758C58.5684 61.2078 58.6563 61.3617 58.7223 61.5157C58.7883 61.6916 58.8323 61.8896 58.8323 62.1095H58.2604C58.2385 61.9556 58.2165 61.8236 58.1725 61.7136C58.1285 61.5817 58.0625 61.5157 57.9745 61.4277C57.8866 61.3617 57.7766 61.2958 57.6446 61.2518C57.5127 61.2078 57.3807 61.1858 57.2268 61.1858C57.0728 61.1858 56.9408 61.2078 56.8309 61.2298C56.7209 61.2738 56.6109 61.3178 56.523 61.3837C56.435 61.4497 56.369 61.5157 56.325 61.6037C56.281 61.6916 56.259 61.7796 56.259 61.8896C56.259 62.0655 56.347 62.1975 56.545 62.3295C56.7209 62.4614 57.0068 62.5714 57.3807 62.6374C57.4467 62.6594 57.4687 62.6594 57.5127 62.6814C57.5567 62.7033 57.6006 62.7033 57.6226 62.7033H57.6446C57.6666 62.7033 57.6666 62.7253 57.6886 62.7253C57.9305 62.7913 58.1285 62.8353 58.2824 62.9013C58.4364 62.9673 58.5684 63.0332 58.6343 63.0992C58.7003 63.1432 58.7443 63.2092 58.7883 63.2532C58.8323 63.3192 58.8763 63.3851 58.8983 63.4511C58.9642 63.6051 58.9862 63.759 58.9862 63.935C58.9862 64.1549 58.9422 64.3309 58.8543 64.5068C58.7883 64.6827 58.6783 64.8147 58.5244 64.9467C58.3704 65.0786 58.1945 65.1666 57.9745 65.2326C57.7766 65.2986 57.5347 65.3206 57.2707 65.3206C56.7429 65.3206 56.303 65.1886 56.0171 64.9247C55.8632 64.7927 55.7532 64.6168 55.6652 64.4188C55.5553 64.2649 55.5113 64.0449 55.4893 63.781ZM67.0578 62.8353H68.0695C68.2454 62.8353 68.3994 62.8133 68.5094 62.7913C68.6413 62.7693 68.7293 62.7253 68.7953 62.6594C68.8613 62.5934 68.9272 62.5274 68.9492 62.4174C68.9932 62.3295 68.9932 62.1975 68.9932 62.0655C68.9932 61.9336 68.9712 61.8236 68.9492 61.7356C68.9052 61.6477 68.8613 61.5597 68.7953 61.5157C68.7293 61.4497 68.6193 61.4277 68.5094 61.3837C68.3994 61.3617 68.2454 61.3398 68.0915 61.3398H67.0358V62.8353H67.0578ZM66.464 65.2546V60.8119H68.0915C68.2234 60.8119 68.3554 60.8119 68.4434 60.8119C68.5533 60.8339 68.6413 60.8339 68.7073 60.8559C68.7733 60.8559 68.8393 60.8779 68.9052 60.8999C68.9712 60.9219 69.0372 60.9439 69.0812 60.9879C69.1692 61.0318 69.2571 61.0978 69.3231 61.1638C69.3891 61.2298 69.4551 61.3178 69.4991 61.4277C69.543 61.5157 69.587 61.6257 69.609 61.7356C69.631 61.8676 69.653 61.9776 69.653 62.1095C69.653 62.2415 69.631 62.3515 69.609 62.4614C69.587 62.5714 69.543 62.6814 69.4991 62.7693C69.4551 62.8573 69.3891 62.9453 69.3231 63.0332C69.2571 63.0992 69.1692 63.1652 69.0812 63.2312C69.0372 63.2532 68.9712 63.2972 68.9052 63.3192C68.8393 63.3412 68.7733 63.3631 68.7073 63.3851C68.6413 63.4071 68.5313 63.4071 68.4214 63.4291C68.3114 63.4291 68.1575 63.4511 68.0035 63.4511H67.1018V65.3206H66.464V65.2546ZM71.1486 63.4071H72.5341L71.8524 61.4497L71.1486 63.4071ZM69.851 65.2546L71.5005 60.8119H72.1603L73.8098 65.2546H73.15L72.6661 63.935H70.9286L70.4448 65.2546H69.851ZM74.9974 65.2546L73.8537 60.8119H74.4256L75.3273 64.3748L76.251 60.8119H76.8888L77.8565 64.3309L78.7803 60.8119H79.3521L78.1644 65.2546H77.5706L76.5589 61.5817L75.5912 65.2546H74.9974ZM80.6497 63.4071H82.0353L81.3535 61.4497L80.6497 63.4071ZM79.3741 65.2546L81.0236 60.8119H81.6834L83.3329 65.2546H82.6731L82.2112 63.935H80.4738L79.9899 65.2546H79.3741ZM85.4443 61.3178H84.4106V64.7047H85.4443C85.6642 64.7047 85.8621 64.6608 86.0161 64.5948C86.192 64.5288 86.324 64.4188 86.434 64.2649C86.5439 64.1329 86.6319 63.957 86.6979 63.737C86.7419 63.5171 86.7859 63.2752 86.7859 62.9893C86.7859 62.7253 86.7639 62.4834 86.6979 62.2635C86.6319 62.0655 86.5439 61.8896 86.434 61.7356C86.324 61.5817 86.17 61.4717 86.0161 61.4057C85.8401 61.3617 85.6422 61.3178 85.4443 61.3178ZM83.7948 65.2546V60.8119H85.4882C85.7962 60.8119 86.0601 60.8559 86.302 60.9439C86.5439 61.0318 86.7419 61.1858 86.9178 61.3617C87.0938 61.5377 87.2037 61.7796 87.2917 62.0435C87.3797 62.3075 87.4237 62.6154 87.4237 62.9673C87.4237 63.3192 87.3797 63.6491 87.2917 63.935C87.2037 64.2209 87.0718 64.4628 86.8958 64.6608C86.7199 64.8587 86.5219 65.0126 86.28 65.1006C86.0381 65.2106 85.7742 65.2546 85.4662 65.2546H83.7948ZM88.9412 63.4071H90.3268L89.645 61.4497L88.9412 63.4071ZM87.6656 65.2546L89.3151 60.8119H89.9749L91.6244 65.2546H90.9646L90.5027 63.935H88.7653L88.2814 65.2546H87.6656ZM91.8883 63.781H92.4601C92.4601 63.935 92.4821 64.0889 92.5481 64.2209C92.6141 64.3528 92.6801 64.4628 92.79 64.5508C92.9 64.6388 93.01 64.7047 93.1639 64.7487C93.2959 64.7927 93.4498 64.8367 93.6258 64.8367C93.8017 64.8367 93.9557 64.8147 94.0876 64.7707C94.2196 64.7267 94.3516 64.6827 94.4395 64.6168C94.6375 64.4628 94.7255 64.2649 94.7255 64.0229C94.7255 63.847 94.6375 63.715 94.4395 63.5831C94.2636 63.4511 93.9777 63.3411 93.6038 63.2532C93.5818 63.2532 93.5598 63.2312 93.5598 63.2312C93.5378 63.2312 93.5158 63.2092 93.5158 63.2092C93.2079 63.1432 92.966 63.0552 92.768 62.9893C92.5701 62.9013 92.4162 62.8133 92.3282 62.7253C92.2402 62.6374 92.1522 62.5274 92.1082 62.4174C92.0643 62.2855 92.0423 62.1535 92.0423 61.9996C92.0423 61.8016 92.0863 61.6257 92.1522 61.4717C92.2182 61.3178 92.3282 61.1638 92.4821 61.0538C92.6361 60.9439 92.79 60.8559 92.988 60.7899C93.1639 60.7239 93.3839 60.7019 93.6258 60.7019C93.8677 60.7019 94.0877 60.7459 94.2856 60.7899C94.4835 60.8559 94.6375 60.9439 94.7914 61.0758C94.9234 61.2078 95.0334 61.3617 95.0993 61.5157C95.1653 61.6916 95.2093 61.8896 95.2093 62.1095H94.6375C94.6155 61.9556 94.5935 61.8236 94.5495 61.7136C94.5055 61.5817 94.4395 61.5157 94.3516 61.4277C94.2636 61.3617 94.1536 61.2958 94.0217 61.2518C93.8897 61.2078 93.7578 61.1858 93.6038 61.1858C93.4498 61.1858 93.3179 61.2078 93.2079 61.2298C93.076 61.2738 92.988 61.3178 92.9 61.3837C92.812 61.4497 92.7461 61.5157 92.7021 61.6037C92.6581 61.6916 92.6361 61.7796 92.6361 61.8896C92.6361 62.0655 92.7241 62.1975 92.9 62.3295C93.076 62.4614 93.3619 62.5714 93.7358 62.6374C93.7797 62.6594 93.8237 62.6594 93.8897 62.6814C93.9337 62.7033 93.9557 62.7033 93.9777 62.7033H94.0217C94.0437 62.7033 94.0437 62.7253 94.0657 62.7253C94.3076 62.7913 94.5055 62.8353 94.6595 62.9013C94.8134 62.9673 94.9454 63.0332 95.0114 63.0992C95.0774 63.1432 95.1213 63.2092 95.1653 63.2532C95.2093 63.3192 95.2533 63.3851 95.2753 63.4511C95.3413 63.6051 95.3633 63.759 95.3633 63.935C95.3633 64.1549 95.3193 64.3309 95.2533 64.5068C95.1873 64.6827 95.0554 64.8147 94.9014 64.9467C94.7475 65.0786 94.5715 65.1666 94.3516 65.2326C94.1536 65.2986 93.9117 65.3206 93.6478 65.3206C93.1199 65.3206 92.6801 65.1886 92.3942 64.9247C92.2402 64.7927 92.1302 64.6168 92.0643 64.4188C91.9323 64.2649 91.8883 64.0449 91.8883 63.781ZM106.162 64.6608C106.074 64.7707 105.964 64.8807 105.876 64.9687C105.766 65.0566 105.656 65.1226 105.524 65.1886C105.392 65.2546 105.26 65.2986 105.128 65.3206C104.974 65.3425 104.842 65.3645 104.688 65.3645C104.381 65.3645 104.117 65.3206 103.875 65.2106C103.633 65.1006 103.413 64.9467 103.215 64.7267C103.039 64.5068 102.907 64.2649 102.797 63.979C102.709 63.693 102.665 63.3851 102.665 63.0332C102.665 62.6594 102.709 62.3514 102.819 62.0435C102.907 61.7576 103.061 61.5157 103.259 61.2958C103.457 61.0758 103.677 60.9219 103.941 60.8339C104.205 60.7239 104.491 60.658 104.82 60.658C105.084 60.658 105.304 60.7019 105.502 60.7679C105.7 60.8339 105.898 60.9219 106.052 61.0538C106.36 61.3178 106.558 61.6697 106.624 62.1315H106.052C106.03 61.9776 105.986 61.8456 105.898 61.7356C105.832 61.6257 105.744 61.5157 105.634 61.4497C105.524 61.3617 105.414 61.2958 105.26 61.2518C105.128 61.2078 104.974 61.1858 104.798 61.1858C104.556 61.1858 104.337 61.2298 104.161 61.2958C103.985 61.3837 103.809 61.4937 103.677 61.6477C103.545 61.8016 103.435 61.9776 103.369 62.2195C103.303 62.4394 103.259 62.7033 103.259 62.9893C103.259 63.2752 103.303 63.5171 103.347 63.737C103.413 63.957 103.523 64.1549 103.655 64.3089C103.787 64.4628 103.941 64.5948 104.117 64.6608C104.293 64.7487 104.513 64.7927 104.732 64.7927C104.93 64.7927 105.128 64.7707 105.282 64.7047C105.458 64.6388 105.59 64.5508 105.722 64.4188C105.854 64.2869 105.942 64.1549 106.008 63.979C106.074 63.803 106.096 63.6051 106.096 63.4071V63.3412H104.71V62.8353H106.646V65.2326H106.25L106.162 64.6608ZM107.57 65.2546V60.8119H108.185V62.6374H110.495V60.8119H111.111V65.2546H110.495V63.1652H108.185V65.2546H107.57ZM112.826 63.4071H114.212L113.53 61.4497L112.826 63.4071ZM111.528 65.2546L113.178 60.8119H113.838L115.487 65.2546H114.827L114.366 63.935H112.628L112.144 65.2546H111.528ZM119.292 64.6608C119.204 64.7707 119.094 64.8807 119.006 64.9687C118.896 65.0566 118.786 65.1226 118.654 65.1886C118.522 65.2546 118.39 65.2986 118.258 65.3206C118.126 65.3425 117.972 65.3645 117.819 65.3645C117.511 65.3645 117.247 65.3206 117.005 65.2106C116.763 65.1006 116.543 64.9467 116.367 64.7267C116.191 64.5068 116.037 64.2649 115.949 63.979C115.861 63.693 115.817 63.3851 115.817 63.0332C115.817 62.6594 115.861 62.3514 115.971 62.0435C116.059 61.7576 116.213 61.5157 116.411 61.2958C116.609 61.0758 116.829 60.9219 117.093 60.8339C117.357 60.7239 117.643 60.658 117.972 60.658C118.236 60.658 118.456 60.7019 118.654 60.7679C118.852 60.8339 119.05 60.9219 119.204 61.0538C119.512 61.3178 119.71 61.6697 119.776 62.1315H119.204C119.182 61.9776 119.116 61.8456 119.05 61.7356C118.984 61.6257 118.896 61.5157 118.786 61.4497C118.676 61.3617 118.544 61.2958 118.412 61.2518C118.28 61.2078 118.126 61.1858 117.95 61.1858C117.709 61.1858 117.489 61.2298 117.313 61.2958C117.115 61.3837 116.961 61.4937 116.829 61.6477C116.697 61.8016 116.587 61.9776 116.521 62.2195C116.455 62.4394 116.433 62.7033 116.433 62.9893C116.433 63.2752 116.455 63.5171 116.521 63.737C116.587 63.957 116.697 64.1549 116.829 64.3089C116.961 64.4628 117.115 64.5948 117.291 64.6608C117.467 64.7487 117.687 64.7927 117.906 64.7927C118.104 64.7927 118.302 64.7707 118.478 64.7047C118.654 64.6388 118.786 64.5508 118.918 64.4188C119.05 64.2869 119.138 64.1549 119.204 63.979C119.27 63.803 119.292 63.6051 119.292 63.4071V63.3412H117.906V62.8353H119.842V65.2326H119.446L119.292 64.6608ZM121.271 61.3178V62.8133H122.305C122.503 62.8133 122.657 62.7913 122.789 62.7693C122.921 62.7473 123.031 62.7033 123.097 62.6374C123.163 62.5714 123.229 62.5054 123.273 62.3954C123.317 62.3075 123.339 62.1755 123.339 62.0435C123.339 61.9116 123.317 61.8016 123.295 61.7136C123.251 61.6257 123.207 61.5377 123.119 61.4937C123.053 61.4277 122.943 61.4057 122.811 61.3617C122.679 61.3398 122.525 61.3178 122.327 61.3178H121.271ZM120.678 60.8119H122.393C122.525 60.8119 122.657 60.8119 122.767 60.8119C122.855 60.8339 122.943 60.8339 123.031 60.8559C123.097 60.8559 123.163 60.8779 123.207 60.8999C123.273 60.9219 123.339 60.9439 123.383 60.9659C123.581 61.0758 123.713 61.2078 123.801 61.3837C123.911 61.5597 123.955 61.7796 123.955 62.0216C123.955 62.1535 123.933 62.2415 123.911 62.3515C123.889 62.4614 123.845 62.5494 123.779 62.6374C123.735 62.7253 123.669 62.7913 123.603 62.8573C123.515 62.9233 123.427 62.9893 123.317 63.0332C123.405 63.0552 123.493 63.0992 123.537 63.1212C123.603 63.1652 123.647 63.2092 123.691 63.2752C123.735 63.3192 123.757 63.4071 123.779 63.4951C123.801 63.6051 123.823 63.715 123.823 63.847L123.867 64.5728C123.889 64.6607 123.889 64.7267 123.889 64.7707C123.911 64.8367 123.911 64.8807 123.933 64.9247C123.955 64.9687 123.977 64.9907 123.999 65.0126C124.021 65.0346 124.065 65.0566 124.087 65.0786V65.2106H123.383C123.361 65.1666 123.339 65.0786 123.317 64.9907C123.295 64.9027 123.273 64.7707 123.273 64.6168V64.5948L123.229 64.0229C123.229 63.869 123.207 63.759 123.163 63.6491C123.141 63.5611 123.097 63.4731 123.031 63.4291C122.943 63.3412 122.657 63.2972 122.239 63.2972H121.271V65.2106H120.678V60.8119ZM125.56 63.4071H126.946L126.264 61.4497L125.56 63.4071ZM124.285 65.2546L125.934 60.8119H126.594L128.243 65.2546H127.584L127.1 63.935H125.362L124.878 65.2546H124.285ZM128.507 63.781H129.079C129.079 63.935 129.101 64.0889 129.167 64.2209C129.233 64.3528 129.299 64.4628 129.409 64.5508C129.519 64.6388 129.629 64.7047 129.783 64.7487C129.915 64.7927 130.069 64.8367 130.245 64.8367C130.421 64.8367 130.575 64.8147 130.707 64.7707C130.839 64.7267 130.971 64.6827 131.059 64.6168C131.256 64.4628 131.366 64.2649 131.366 64.0229C131.366 63.847 131.278 63.715 131.081 63.5831C130.905 63.4511 130.619 63.3411 130.245 63.2532C130.223 63.2532 130.201 63.2312 130.201 63.2312C130.179 63.2312 130.179 63.2092 130.157 63.2092C129.849 63.1432 129.607 63.0552 129.409 62.9893C129.211 62.9013 129.057 62.8133 128.969 62.7253C128.881 62.6374 128.793 62.5274 128.749 62.4174C128.705 62.2855 128.683 62.1535 128.683 61.9996C128.683 61.8016 128.727 61.6257 128.793 61.4717C128.859 61.3178 128.969 61.1638 129.123 61.0538C129.277 60.9439 129.431 60.8559 129.629 60.7899C129.827 60.7239 130.047 60.7019 130.267 60.7019C130.531 60.7019 130.729 60.7459 130.927 60.7899C131.124 60.8559 131.278 60.9439 131.432 61.0758C131.564 61.2078 131.674 61.3617 131.74 61.5157C131.806 61.6916 131.85 61.8896 131.85 62.1095H131.278C131.256 61.9556 131.234 61.8236 131.19 61.7136C131.146 61.5817 131.059 61.5157 130.993 61.4277C130.905 61.3617 130.795 61.2958 130.663 61.2518C130.531 61.2078 130.399 61.1858 130.245 61.1858C130.091 61.1858 129.959 61.2078 129.849 61.2298C129.739 61.2738 129.629 61.3178 129.541 61.3837C129.453 61.4497 129.387 61.5157 129.343 61.6037C129.299 61.6916 129.277 61.7796 129.277 61.8896C129.277 62.0655 129.365 62.1975 129.541 62.3295C129.739 62.4614 130.003 62.5714 130.377 62.6374C130.443 62.6594 130.487 62.6594 130.531 62.6814C130.575 62.7033 130.597 62.7033 130.641 62.7033H130.663C130.685 62.7033 130.685 62.7253 130.707 62.7253C130.949 62.7913 131.146 62.8353 131.3 62.9013C131.454 62.9673 131.586 63.0332 131.652 63.0992C131.718 63.1432 131.762 63.2092 131.806 63.2532C131.85 63.3192 131.894 63.3851 131.916 63.4511C131.982 63.6051 132.004 63.759 132.004 63.935C132.004 64.1549 131.96 64.3309 131.894 64.5068C131.828 64.6827 131.718 64.8147 131.564 64.9467C131.41 65.0786 131.234 65.1666 131.015 65.2326C130.817 65.2986 130.575 65.3206 130.311 65.3206C129.783 65.3206 129.343 65.1886 129.057 64.9247C128.903 64.7927 128.793 64.6168 128.727 64.4188C128.573 64.2649 128.507 64.0449 128.507 63.781Z" fill="#ED1C24"/>
<path d="M30.4608 53.224V38.2686H32.3302L42.1613 49.8811V38.2686H44.2946V53.224H42.4032L32.5942 41.6115V53.224H30.4608ZM18.0565 46.9119L20.3438 41.5236L22.7191 46.9119L23.5989 48.8474L25.5343 53.246H27.7336L21.1796 38.2905H19.6181L13.152 53.246H15.3513L17.2428 48.8474L18.0565 46.9119ZM66.9478 46.9119L69.2571 41.5236L71.6104 46.9119L72.4901 48.8474L74.4255 53.246H76.6249L70.0709 38.2905H68.5093L62.0433 53.246H64.2426L66.134 48.8474L66.9478 46.9119ZM94.0656 46.9119L96.3529 41.5236L98.7062 46.9119L99.586 48.8474L101.499 53.246H103.699L97.1447 38.2905H95.5832L89.1171 53.246H91.3165L93.2079 48.8474L94.0656 46.9119ZM121.997 46.9119L124.285 41.5236L126.638 46.9119L127.518 48.8474L129.453 53.246H131.652L125.098 38.2905H123.537L117.071 53.246H119.248L121.161 48.8474L121.997 46.9119ZM106.558 53.224V38.2686H108.669V51.3106H115.773V53.246H106.558V53.224ZM81.8153 53.224V40.226H76.317V38.2686H89.425V40.226H83.9487V53.224H81.8153ZM49.1772 53.224V38.2686H51.3105V44.9985L57.5566 38.2686H60.2398L53.7518 45.2844L61.4934 53.224H58.5243L51.3325 45.8343V53.224H49.1772ZM0.285889 53.224V38.2686H2.41925V44.9985L8.66536 38.2686H11.3486L4.86051 45.2844L12.6022 53.224H9.61108L2.41925 45.8343V53.224H0.285889Z" fill="#ED1C24"/>
<mask id="mask0_2800_34764" style="mask-type:luminance" maskUnits="userSpaceOnUse" x="57" y="0" width="18" height="23">
<path d="M72.3801 3.58492C70.2467 5.82824 67.3436 8.35748 64.5944 10.3369C62.0212 12.2063 58.4363 14.7136 57.5565 16.627V22.1033C57.7105 21.6415 58.5682 20.2779 62.7469 17.0889C68.1353 12.9321 74.1175 8.92931 74.4254 5.78426V0C74.4034 0.285914 74.2715 1.58352 72.3801 3.58492Z" fill="white"/>
</mask>
<g mask="url(#mask0_2800_34764)">
<path d="M74.4036 0.0219727H57.5347V22.1033H74.4036V0.0219727Z" fill="url(#paint0_linear_2800_34764)"/>
</g>
<mask id="mask1_2800_34764" style="mask-type:luminance" maskUnits="userSpaceOnUse" x="57" y="3" width="7" height="12">
<path d="M58.7663 7.63176C57.5787 8.75342 57.5347 9.1713 57.5347 9.1713V14.6037C57.5567 13.7899 58.5684 12.9762 59.624 12.1844C59.9979 11.8985 61.5595 10.7548 61.9993 10.3809C63.2529 9.39123 63.187 9.03934 63.231 8.8414V3.56299C62.8571 4.75063 60.0419 6.44412 58.7663 7.63176Z" fill="white"/>
</mask>
<g mask="url(#mask1_2800_34764)">
<path d="M63.2529 3.56299H57.5347V14.6037H63.2529V3.56299Z" fill="url(#paint1_linear_2800_34764)"/>
</g>
<mask id="mask2_2800_34764" style="mask-type:luminance" maskUnits="userSpaceOnUse" x="57" y="9" width="18" height="23">
<path d="M57.5347 14.6695C58.4144 16.5829 61.9773 19.0682 64.5725 20.9596C67.3217 22.939 70.2468 25.4682 72.3582 27.7116C74.2496 29.713 74.3816 31.0106 74.4036 31.2745V25.4902C74.0957 22.3452 68.1135 18.3424 62.7251 14.1856C58.5684 10.9746 57.7106 9.633 57.5347 9.17114V14.6695Z" fill="white"/>
</mask>
<g mask="url(#mask2_2800_34764)">
<path d="M74.4036 9.17114H57.5347V31.2745H74.4036V9.17114Z" fill="url(#paint2_linear_2800_34764)"/>
</g>
<mask id="mask3_2800_34764" style="mask-type:luminance" maskUnits="userSpaceOnUse" x="57" y="16" width="7" height="12">
<path d="M57.5347 22.1035C57.5347 22.1035 57.4247 22.6534 58.7663 23.775C60.0859 24.8747 62.8351 26.6562 63.2309 27.8438V22.5654C63.1869 22.3455 63.2529 21.9936 61.9993 21.0039C61.5594 20.63 59.9979 19.5083 59.624 19.2004C58.5903 18.4087 57.5566 17.4849 57.5347 16.6712V22.1035ZM57.5347 16.6932V16.6272V16.6932Z" fill="white"/>
</mask>
<g mask="url(#mask3_2800_34764)">
<path d="M63.2749 16.6272H57.4467V27.8438H63.2749V16.6272Z" fill="url(#paint3_linear_2800_34764)"/>
</g>
<defs>
<linearGradient id="paint0_linear_2800_34764" x1="58.0395" y1="11.0709" x2="73.9332" y2="11.0709" gradientUnits="userSpaceOnUse">
<stop stop-color="#C37C29"/>
<stop offset="0.0967626" stop-color="#D18226"/>
<stop offset="0.28" stop-color="#F7931E"/>
<stop offset="0.6131" stop-color="#FAA617"/>
<stop offset="1" stop-color="#FFC20E"/>
</linearGradient>
<linearGradient id="paint1_linear_2800_34764" x1="57.55" y1="9.07852" x2="63.2349" y2="9.07852" gradientUnits="userSpaceOnUse">
<stop stop-color="#831B1D"/>
<stop offset="0.2103" stop-color="#932120"/>
<stop offset="0.6182" stop-color="#BC3027"/>
<stop offset="1" stop-color="#E8412E"/>
</linearGradient>
<linearGradient id="paint2_linear_2800_34764" x1="58.2247" y1="20.2303" x2="73.7521" y2="20.2303" gradientUnits="userSpaceOnUse">
<stop stop-color="#C12126"/>
<stop offset="0.4534" stop-color="#D02D29"/>
<stop offset="1" stop-color="#E8412E"/>
</linearGradient>
<linearGradient id="paint3_linear_2800_34764" x1="57.55" y1="22.2323" x2="63.2349" y2="22.2323" gradientUnits="userSpaceOnUse">
<stop stop-color="#F7931E"/>
<stop offset="0.4626" stop-color="#FAA617"/>
<stop offset="1" stop-color="#FFC20E"/>
</linearGradient>
</defs>
</svg>
