<svg width="150" height="150" viewBox="0 0 150 150" fill="none" xmlns="http://www.w3.org/2000/svg">
<path d="M8.99999 105.781H9.57182C9.57182 105.935 9.6158 106.089 9.65979 106.221C9.72577 106.353 9.79175 106.463 9.90172 106.551C10.0117 106.639 10.1217 106.705 10.2756 106.749C10.4296 106.793 10.5615 106.837 10.7595 106.837C10.9354 106.837 11.0894 106.815 11.2213 106.771C11.3533 106.727 11.4632 106.683 11.5732 106.617C11.7712 106.463 11.8811 106.265 11.8811 106.023C11.8811 105.847 11.7931 105.715 11.5952 105.583C11.4193 105.451 11.1333 105.341 10.7595 105.253C10.7375 105.253 10.7155 105.231 10.6935 105.231C10.6715 105.231 10.6715 105.209 10.6495 105.209C10.3416 105.143 10.0997 105.055 9.90172 104.989C9.70378 104.901 9.54982 104.813 9.46185 104.725C9.37388 104.637 9.2859 104.527 9.24192 104.417C9.19793 104.285 9.17594 104.154 9.17594 104C9.17594 103.802 9.21992 103.626 9.2859 103.472C9.35188 103.318 9.46185 103.164 9.6158 103.054C9.76976 102.944 9.92371 102.856 10.1217 102.79C10.3196 102.724 10.5395 102.702 10.7815 102.702C11.0234 102.702 11.2433 102.746 11.4413 102.79C11.6392 102.856 11.7931 102.944 11.9471 103.076C12.1011 103.208 12.189 103.362 12.255 103.516C12.321 103.692 12.365 103.89 12.365 104.11H11.7931C11.7712 103.956 11.7492 103.824 11.7052 103.714C11.6612 103.582 11.5732 103.516 11.4852 103.428C11.3973 103.362 11.2873 103.296 11.1553 103.252C11.0234 103.208 10.8914 103.186 10.7375 103.186C10.5835 103.186 10.4516 103.208 10.3416 103.23C10.2316 103.274 10.1217 103.318 10.0337 103.384C9.9457 103.45 9.87972 103.516 9.83574 103.604C9.79175 103.692 9.76976 103.78 9.76976 103.89C9.76976 104.066 9.85773 104.197 10.0557 104.329C10.2316 104.461 10.5175 104.571 10.8914 104.637C10.9354 104.659 10.9794 104.659 11.0234 104.681C11.0674 104.703 11.1114 104.703 11.1333 104.703H11.1553C11.1773 104.703 11.1773 104.725 11.1993 104.725C11.4413 104.791 11.6392 104.835 11.7931 104.901C11.9471 104.967 12.0791 105.033 12.145 105.099C12.211 105.143 12.255 105.209 12.299 105.253C12.343 105.319 12.387 105.385 12.409 105.451C12.4749 105.605 12.4969 105.759 12.4969 105.935C12.4969 106.155 12.4529 106.331 12.365 106.507C12.299 106.683 12.189 106.815 12.0351 106.947C11.8811 107.079 11.7052 107.167 11.4852 107.233C11.2873 107.299 11.0454 107.321 10.7815 107.321C10.2536 107.321 9.81374 107.189 9.52783 106.925C9.37388 106.793 9.26391 106.617 9.17594 106.419C9.04398 106.265 8.99999 106.045 8.99999 105.781ZM13.9705 105.407H15.3561L14.6743 103.45L13.9705 105.407ZM12.6949 107.255L14.3444 102.812H15.0042L16.6537 107.255H15.9939L15.51 105.935H13.7726L13.2887 107.255H12.6949ZM17.7094 103.318V104.813H18.7431C18.919 104.813 19.073 104.791 19.2269 104.769C19.3589 104.747 19.4468 104.703 19.5348 104.637C19.6008 104.571 19.6668 104.505 19.7108 104.395C19.7547 104.307 19.7767 104.175 19.7767 104.044C19.7767 103.912 19.7547 103.802 19.7108 103.714C19.6668 103.626 19.6228 103.538 19.5568 103.494C19.4908 103.428 19.3809 103.406 19.2489 103.362C19.1169 103.34 18.941 103.318 18.765 103.318H17.7094ZM17.1155 102.812H18.831C18.963 102.812 19.0949 102.812 19.2049 102.812C19.3149 102.834 19.3809 102.834 19.4688 102.856C19.5348 102.856 19.6008 102.878 19.6448 102.9C19.7108 102.922 19.7767 102.944 19.8207 102.966C20.0187 103.076 20.1506 103.208 20.2386 103.384C20.3486 103.56 20.3926 103.78 20.3926 104.022C20.3926 104.154 20.3706 104.241 20.3486 104.351C20.3266 104.461 20.2826 104.549 20.2166 104.637C20.1726 104.725 20.1066 104.791 20.0407 104.857C19.9747 104.923 19.8647 104.989 19.7767 105.033C19.8647 105.055 19.9307 105.099 19.9967 105.121C20.0627 105.165 20.1066 105.209 20.1506 105.275C20.1946 105.319 20.2166 105.407 20.2386 105.495C20.2606 105.605 20.2826 105.715 20.2826 105.847L20.3266 106.573C20.3266 106.661 20.3486 106.727 20.3486 106.771C20.3706 106.837 20.3706 106.881 20.3926 106.925C20.4145 106.969 20.4365 106.991 20.4585 107.013C20.4805 107.035 20.5025 107.057 20.5465 107.079V107.211H19.8427C19.8207 107.167 19.7987 107.079 19.7767 106.991C19.7547 106.903 19.7328 106.771 19.7328 106.617V106.595L19.6668 106.067C19.6668 105.913 19.6448 105.803 19.6008 105.693C19.5788 105.605 19.5348 105.517 19.4688 105.473C19.3589 105.385 19.0949 105.341 18.6771 105.341H17.7094V107.255H17.1155V102.812ZM21.2283 107.255V102.812H24.3953V103.362H21.8221V104.681H24.1974V105.209H21.8221V106.705H24.4393V107.255H21.2283ZM25.1651 107.255V102.812H28.3322V103.362H25.7589V104.681H28.1342V105.209H25.7589V106.705H28.3762V107.255H25.1651ZM28.904 105.781H29.4758C29.4758 105.935 29.4978 106.089 29.5638 106.221C29.6078 106.353 29.6958 106.463 29.8057 106.551C29.9157 106.639 30.0257 106.705 30.1796 106.749C30.3116 106.793 30.4655 106.837 30.6415 106.837C30.8174 106.837 30.9714 106.815 31.1033 106.771C31.2353 106.727 31.3453 106.683 31.4552 106.617C31.6532 106.463 31.7411 106.265 31.7411 106.023C31.7411 105.847 31.6532 105.715 31.4552 105.583C31.2793 105.451 30.9934 105.341 30.6195 105.253C30.5975 105.253 30.5755 105.231 30.5755 105.231C30.5535 105.231 30.5315 105.209 30.5315 105.209C30.2236 105.143 29.9817 105.055 29.7837 104.989C29.5858 104.901 29.4318 104.813 29.3439 104.725C29.2559 104.637 29.1679 104.527 29.1239 104.417C29.0799 104.285 29.0579 104.154 29.0579 104C29.0579 103.802 29.1019 103.626 29.1679 103.472C29.2339 103.318 29.3439 103.164 29.4978 103.054C29.6518 102.944 29.8057 102.856 30.0037 102.79C30.2016 102.724 30.3995 102.702 30.6415 102.702C30.8834 102.702 31.1033 102.746 31.3013 102.79C31.4992 102.856 31.6752 102.944 31.8071 103.076C31.9391 103.208 32.049 103.362 32.115 103.516C32.181 103.692 32.225 103.89 32.225 104.11H31.6532C31.6312 103.956 31.6092 103.824 31.5652 103.714C31.5212 103.582 31.4552 103.516 31.3672 103.428C31.2793 103.362 31.1693 103.296 31.0373 103.252C30.9054 103.208 30.7734 103.186 30.6195 103.186C30.4655 103.186 30.3336 103.208 30.2236 103.23C30.1136 103.274 30.0037 103.318 29.9157 103.384C29.8277 103.45 29.7617 103.516 29.7177 103.604C29.6738 103.692 29.6518 103.78 29.6518 103.89C29.6518 104.066 29.7397 104.197 29.9157 104.329C30.0916 104.461 30.3775 104.571 30.7514 104.637C30.7954 104.659 30.8614 104.659 30.9054 104.681C30.9494 104.703 30.9714 104.703 31.0154 104.703H31.0373C31.0373 104.703 31.0593 104.725 31.0813 104.725C31.3233 104.791 31.5212 104.835 31.6752 104.901C31.8291 104.967 31.9611 105.033 32.0271 105.099C32.071 105.143 32.137 105.209 32.181 105.253C32.225 105.319 32.269 105.385 32.291 105.451C32.357 105.605 32.3789 105.759 32.3789 105.935C32.3789 106.155 32.335 106.331 32.269 106.507C32.203 106.683 32.071 106.815 31.9391 106.947C31.7851 107.079 31.6092 107.167 31.3892 107.233C31.1913 107.299 30.9494 107.321 30.6855 107.321C30.1576 107.321 29.7177 107.189 29.4318 106.925C29.2779 106.793 29.1679 106.617 29.1019 106.419C28.948 106.265 28.926 106.045 28.904 105.781ZM39.6588 105.781H40.2306C40.2306 105.935 40.2746 106.089 40.3186 106.221C40.3625 106.353 40.4505 106.463 40.5605 106.551C40.6485 106.639 40.7804 106.705 40.9344 106.749C41.0663 106.793 41.2203 106.837 41.3962 106.837C41.5722 106.837 41.7261 106.815 41.8581 106.771C41.99 106.727 42.1 106.683 42.21 106.617C42.4079 106.463 42.5179 106.265 42.5179 106.023C42.5179 105.847 42.4299 105.715 42.232 105.583C42.034 105.451 41.7701 105.341 41.3962 105.253C41.3742 105.253 41.3522 105.231 41.3302 105.231C41.3083 105.231 41.3083 105.209 41.2863 105.209C40.9784 105.143 40.7364 105.055 40.5385 104.989C40.3405 104.901 40.1866 104.813 40.0986 104.725C40.0106 104.637 39.9227 104.527 39.8787 104.417C39.8347 104.285 39.8127 104.154 39.8127 104C39.8127 103.802 39.8567 103.626 39.9227 103.472C39.9887 103.318 40.0986 103.164 40.2526 103.054C40.4065 102.944 40.5605 102.856 40.7584 102.79C40.9564 102.724 41.1763 102.702 41.4182 102.702C41.6601 102.702 41.8801 102.746 42.078 102.79C42.276 102.856 42.4299 102.944 42.5839 103.076C42.7378 103.208 42.8258 103.362 42.8918 103.516C42.9578 103.692 43.0017 103.89 43.0017 104.11H42.4299C42.4079 103.956 42.3859 103.824 42.3419 103.714C42.298 103.582 42.232 103.516 42.144 103.428C42.056 103.362 41.9461 103.296 41.8141 103.252C41.6821 103.208 41.5502 103.186 41.3962 103.186C41.2423 103.186 41.1103 103.208 41.0003 103.23C40.8904 103.274 40.7804 103.318 40.6924 103.384C40.6045 103.45 40.5385 103.516 40.4945 103.604C40.4505 103.692 40.4285 103.78 40.4285 103.89C40.4285 104.066 40.5165 104.197 40.7144 104.329C40.8904 104.461 41.1763 104.571 41.5502 104.637C41.5942 104.659 41.6382 104.659 41.6821 104.681C41.7261 104.703 41.7701 104.703 41.7921 104.703H41.8141C41.8361 104.703 41.8361 104.725 41.8581 104.725C42.1 104.791 42.298 104.835 42.4519 104.901C42.6059 104.967 42.7378 105.033 42.8038 105.099C42.8698 105.143 42.9138 105.209 42.9578 105.253C43.0017 105.319 43.0457 105.385 43.0677 105.451C43.1337 105.605 43.1557 105.759 43.1557 105.935C43.1557 106.155 43.1117 106.331 43.0237 106.507C42.9578 106.683 42.8258 106.815 42.6938 106.947C42.5399 107.079 42.3639 107.167 42.144 107.233C41.9461 107.299 41.7041 107.321 41.4402 107.321C40.9124 107.321 40.4945 107.189 40.1866 106.925C40.0326 106.793 39.9227 106.617 39.8347 106.419C39.7247 106.265 39.6588 106.045 39.6588 105.781ZM44.6512 105.407H46.0368L45.355 103.45L44.6512 105.407ZM43.3536 107.255L45.0031 102.812H45.6629L47.3124 107.255H46.6526L46.1908 105.935H44.4533L43.9695 107.255H43.3536ZM47.7743 107.255V102.812H48.3901V106.683H50.6115V107.255H47.7743ZM51.7991 107.255L50.6334 102.812H51.2273L52.129 106.375L53.0527 102.812H53.6905L54.6582 106.331L55.582 102.812H56.1538L54.9661 107.255H54.3723L53.3606 103.582L52.3929 107.255H51.7991ZM57.4734 105.407H58.859L58.1772 103.45L57.4734 105.407ZM56.1758 107.255L57.8253 102.812H58.4851L60.1346 107.255H59.4748L59.0129 105.935H57.2754L56.7916 107.255H56.1758ZM61.1903 103.318V104.813H62.224C62.4219 104.813 62.5758 104.791 62.7078 104.769C62.8398 104.747 62.9497 104.703 63.0157 104.637C63.1037 104.571 63.1477 104.505 63.1917 104.395C63.2356 104.307 63.2576 104.175 63.2576 104.044C63.2576 103.912 63.2356 103.802 63.1917 103.714C63.1477 103.626 63.1037 103.538 63.0377 103.494C62.9717 103.428 62.8618 103.406 62.7298 103.362C62.5978 103.34 62.4439 103.318 62.2459 103.318H61.1903ZM60.5964 102.812H62.3119C62.4439 102.812 62.5758 102.812 62.6858 102.812C62.7958 102.834 62.8618 102.834 62.9497 102.856C63.0157 102.856 63.0817 102.878 63.1257 102.9C63.1917 102.922 63.2576 102.944 63.3016 102.966C63.4996 103.076 63.6315 103.208 63.7195 103.384C63.8295 103.56 63.8735 103.78 63.8735 104.022C63.8735 104.154 63.8515 104.241 63.8295 104.351C63.8075 104.461 63.7635 104.549 63.6975 104.637C63.6535 104.725 63.5875 104.791 63.5216 104.857C63.4556 104.923 63.3456 104.989 63.2576 105.033C63.3456 105.055 63.4116 105.099 63.4776 105.121C63.5436 105.165 63.5875 105.209 63.6315 105.275C63.6755 105.319 63.6975 105.407 63.7195 105.495C63.7415 105.605 63.7635 105.715 63.7635 105.847L63.8075 106.573C63.8075 106.661 63.8295 106.727 63.8295 106.771C63.8515 106.837 63.8515 106.881 63.8735 106.925C63.8954 106.969 63.9174 106.991 63.9394 107.013C63.9614 107.035 63.9834 107.057 64.0274 107.079V107.211H63.3236C63.3016 107.167 63.2796 107.079 63.2576 106.991C63.2356 106.903 63.2137 106.771 63.2137 106.617V106.595L63.1697 106.023C63.1697 105.869 63.1477 105.759 63.1037 105.649C63.0597 105.561 63.0377 105.473 62.9717 105.429C62.8618 105.341 62.5978 105.297 62.18 105.297H61.2123V107.211H60.6184V102.812H60.5964ZM64.4893 105.781H65.0611C65.0611 105.935 65.0831 106.089 65.1491 106.221C65.1931 106.353 65.281 106.463 65.391 106.551C65.479 106.639 65.6109 106.705 65.7649 106.749C65.9188 106.793 66.0508 106.837 66.2487 106.837C66.4247 106.837 66.5786 106.815 66.7106 106.771C66.8426 106.727 66.9745 106.683 67.0625 106.617C67.2604 106.463 67.3704 106.265 67.3704 106.023C67.3704 105.847 67.2824 105.715 67.0845 105.583C66.8865 105.451 66.6226 105.341 66.2487 105.253C66.2267 105.253 66.2048 105.231 66.1828 105.231C66.1608 105.231 66.1608 105.209 66.1388 105.209C65.8309 105.143 65.5889 105.055 65.391 104.989C65.1931 104.901 65.0391 104.813 64.9511 104.725C64.8632 104.637 64.7752 104.527 64.7312 104.417C64.6872 104.285 64.6652 104.154 64.6652 104C64.6652 103.802 64.7092 103.626 64.7752 103.472C64.8412 103.318 64.9511 103.164 65.1051 103.054C65.259 102.944 65.413 102.856 65.6109 102.79C65.8089 102.724 66.0288 102.702 66.2487 102.702C66.4907 102.702 66.7106 102.746 66.9085 102.79C67.1065 102.856 67.2604 102.944 67.4144 103.076C67.5683 103.208 67.6563 103.362 67.7223 103.516C67.7883 103.692 67.8323 103.89 67.8323 104.11H67.2604C67.2384 103.956 67.2164 103.824 67.1725 103.714C67.1285 103.582 67.0625 103.516 66.9745 103.428C66.8865 103.362 66.7766 103.296 66.6446 103.252C66.5127 103.208 66.3807 103.186 66.2267 103.186C66.0728 103.186 65.9408 103.208 65.8309 103.23C65.7209 103.274 65.6109 103.318 65.523 103.384C65.435 103.45 65.369 103.516 65.325 103.604C65.281 103.692 65.259 103.78 65.259 103.89C65.259 104.066 65.347 104.197 65.545 104.329C65.7209 104.461 66.0068 104.571 66.3807 104.637C66.4467 104.659 66.4687 104.659 66.5127 104.681C66.5566 104.703 66.6006 104.703 66.6226 104.703H66.6446C66.6666 104.703 66.6666 104.725 66.6886 104.725C66.9305 104.791 67.1285 104.835 67.2824 104.901C67.4364 104.967 67.5683 105.033 67.6343 105.099C67.7003 105.143 67.7443 105.209 67.7883 105.253C67.8323 105.319 67.8762 105.385 67.8982 105.451C67.9642 105.605 67.9862 105.759 67.9862 105.935C67.9862 106.155 67.9422 106.331 67.8543 106.507C67.7883 106.683 67.6783 106.815 67.5244 106.947C67.3704 107.079 67.1945 107.167 66.9745 107.233C66.7766 107.299 66.5347 107.321 66.2707 107.321C65.7429 107.321 65.303 107.189 65.0171 106.925C64.8632 106.793 64.7532 106.617 64.6652 106.419C64.5553 106.265 64.5113 106.045 64.4893 105.781ZM76.0578 104.835H77.0695C77.2454 104.835 77.3994 104.813 77.5093 104.791C77.6413 104.769 77.7293 104.725 77.7953 104.659C77.8612 104.593 77.9272 104.527 77.9492 104.417C77.9932 104.329 77.9932 104.197 77.9932 104.066C77.9932 103.934 77.9712 103.824 77.9492 103.736C77.9052 103.648 77.8612 103.56 77.7953 103.516C77.7293 103.45 77.6193 103.428 77.5093 103.384C77.3994 103.362 77.2454 103.34 77.0915 103.34H76.0358V104.835H76.0578ZM75.464 107.255V102.812H77.0915C77.2234 102.812 77.3554 102.812 77.4434 102.812C77.5533 102.834 77.6413 102.834 77.7073 102.856C77.7733 102.856 77.8392 102.878 77.9052 102.9C77.9712 102.922 78.0372 102.944 78.0812 102.988C78.1691 103.032 78.2571 103.098 78.3231 103.164C78.3891 103.23 78.4551 103.318 78.4991 103.428C78.543 103.516 78.587 103.626 78.609 103.736C78.631 103.868 78.653 103.978 78.653 104.11C78.653 104.241 78.631 104.351 78.609 104.461C78.587 104.571 78.543 104.681 78.4991 104.769C78.4551 104.857 78.3891 104.945 78.3231 105.033C78.2571 105.099 78.1691 105.165 78.0812 105.231C78.0372 105.253 77.9712 105.297 77.9052 105.319C77.8392 105.341 77.7733 105.363 77.7073 105.385C77.6413 105.407 77.5313 105.407 77.4214 105.429C77.3114 105.429 77.1575 105.451 77.0035 105.451H76.1018V107.321H75.464V107.255ZM80.1485 105.407H81.5341L80.8523 103.45L80.1485 105.407ZM78.8509 107.255L80.5004 102.812H81.1603L82.8097 107.255H82.15L81.6661 105.935H79.9286L79.4448 107.255H78.8509ZM83.9974 107.255L82.8537 102.812H83.4256L84.3273 106.375L85.251 102.812H85.8888L86.8565 106.331L87.7803 102.812H88.3521L87.1644 107.255H86.5706L85.5589 103.582L84.5912 107.255H83.9974ZM89.6497 105.407H91.0353L90.3535 103.45L89.6497 105.407ZM88.3741 107.255L90.0236 102.812H90.6834L92.3329 107.255H91.6731L91.2112 105.935H89.4737L88.9899 107.255H88.3741ZM94.4442 103.318H93.4105V106.705H94.4442C94.6642 106.705 94.8621 106.661 95.0161 106.595C95.192 106.529 95.324 106.419 95.4339 106.265C95.5439 106.133 95.6319 105.957 95.6979 105.737C95.7419 105.517 95.7858 105.275 95.7858 104.989C95.7858 104.725 95.7639 104.483 95.6979 104.263C95.6319 104.066 95.5439 103.89 95.4339 103.736C95.324 103.582 95.17 103.472 95.0161 103.406C94.8401 103.362 94.6422 103.318 94.4442 103.318ZM92.7947 107.255V102.812H94.4882C94.7961 102.812 95.0601 102.856 95.302 102.944C95.5439 103.032 95.7419 103.186 95.9178 103.362C96.0937 103.538 96.2037 103.78 96.2917 104.044C96.3797 104.307 96.4236 104.615 96.4236 104.967C96.4236 105.319 96.3797 105.649 96.2917 105.935C96.2037 106.221 96.0718 106.463 95.8958 106.661C95.7199 106.859 95.5219 107.013 95.28 107.101C95.0381 107.211 94.7741 107.255 94.4662 107.255H92.7947ZM97.9412 105.407H99.3268L98.645 103.45L97.9412 105.407ZM96.6656 107.255L98.3151 102.812H98.9749L100.624 107.255H99.9646L99.5027 105.935H97.7652L97.2814 107.255H96.6656ZM100.888 105.781H101.46C101.46 105.935 101.482 106.089 101.548 106.221C101.614 106.353 101.68 106.463 101.79 106.551C101.9 106.639 102.01 106.705 102.164 106.749C102.296 106.793 102.45 106.837 102.626 106.837C102.802 106.837 102.956 106.815 103.088 106.771C103.22 106.727 103.352 106.683 103.44 106.617C103.637 106.463 103.725 106.265 103.725 106.023C103.725 105.847 103.637 105.715 103.44 105.583C103.264 105.451 102.978 105.341 102.604 105.253C102.582 105.253 102.56 105.231 102.56 105.231C102.538 105.231 102.516 105.209 102.516 105.209C102.208 105.143 101.966 105.055 101.768 104.989C101.57 104.901 101.416 104.813 101.328 104.725C101.24 104.637 101.152 104.527 101.108 104.417C101.064 104.285 101.042 104.154 101.042 104C101.042 103.802 101.086 103.626 101.152 103.472C101.218 103.318 101.328 103.164 101.482 103.054C101.636 102.944 101.79 102.856 101.988 102.79C102.164 102.724 102.384 102.702 102.626 102.702C102.868 102.702 103.088 102.746 103.286 102.79C103.484 102.856 103.637 102.944 103.791 103.076C103.923 103.208 104.033 103.362 104.099 103.516C104.165 103.692 104.209 103.89 104.209 104.11H103.637C103.615 103.956 103.593 103.824 103.549 103.714C103.506 103.582 103.44 103.516 103.352 103.428C103.264 103.362 103.154 103.296 103.022 103.252C102.89 103.208 102.758 103.186 102.604 103.186C102.45 103.186 102.318 103.208 102.208 103.23C102.076 103.274 101.988 103.318 101.9 103.384C101.812 103.45 101.746 103.516 101.702 103.604C101.658 103.692 101.636 103.78 101.636 103.89C101.636 104.066 101.724 104.197 101.9 104.329C102.076 104.461 102.362 104.571 102.736 104.637C102.78 104.659 102.824 104.659 102.89 104.681C102.934 104.703 102.956 104.703 102.978 104.703H103.022C103.044 104.703 103.044 104.725 103.066 104.725C103.308 104.791 103.506 104.835 103.659 104.901C103.813 104.967 103.945 105.033 104.011 105.099C104.077 105.143 104.121 105.209 104.165 105.253C104.209 105.319 104.253 105.385 104.275 105.451C104.341 105.605 104.363 105.759 104.363 105.935C104.363 106.155 104.319 106.331 104.253 106.507C104.187 106.683 104.055 106.815 103.901 106.947C103.747 107.079 103.571 107.167 103.352 107.233C103.154 107.299 102.912 107.321 102.648 107.321C102.12 107.321 101.68 107.189 101.394 106.925C101.24 106.793 101.13 106.617 101.064 106.419C100.932 106.265 100.888 106.045 100.888 105.781ZM115.162 106.661C115.074 106.771 114.964 106.881 114.876 106.969C114.766 107.057 114.656 107.123 114.524 107.189C114.392 107.255 114.26 107.299 114.128 107.321C113.974 107.343 113.842 107.365 113.688 107.365C113.381 107.365 113.117 107.321 112.875 107.211C112.633 107.101 112.413 106.947 112.215 106.727C112.039 106.507 111.907 106.265 111.797 105.979C111.709 105.693 111.665 105.385 111.665 105.033C111.665 104.659 111.709 104.351 111.819 104.044C111.907 103.758 112.061 103.516 112.259 103.296C112.457 103.076 112.677 102.922 112.941 102.834C113.205 102.724 113.491 102.658 113.82 102.658C114.084 102.658 114.304 102.702 114.502 102.768C114.7 102.834 114.898 102.922 115.052 103.054C115.36 103.318 115.558 103.67 115.624 104.132H115.052C115.03 103.978 114.986 103.846 114.898 103.736C114.832 103.626 114.744 103.516 114.634 103.45C114.524 103.362 114.414 103.296 114.26 103.252C114.128 103.208 113.974 103.186 113.798 103.186C113.556 103.186 113.337 103.23 113.161 103.296C112.985 103.384 112.809 103.494 112.677 103.648C112.545 103.802 112.435 103.978 112.369 104.219C112.303 104.439 112.259 104.703 112.259 104.989C112.259 105.275 112.303 105.517 112.347 105.737C112.413 105.957 112.523 106.155 112.655 106.309C112.787 106.463 112.941 106.595 113.117 106.661C113.293 106.749 113.513 106.793 113.732 106.793C113.93 106.793 114.128 106.771 114.282 106.705C114.458 106.639 114.59 106.551 114.722 106.419C114.854 106.287 114.942 106.155 115.008 105.979C115.074 105.803 115.096 105.605 115.096 105.407V105.341H113.71V104.835H115.646V107.233H115.25L115.162 106.661ZM116.57 107.255V102.812H117.185V104.637H119.495V102.812H120.111V107.255H119.495V105.165H117.185V107.255H116.57ZM121.826 105.407H123.212L122.53 103.45L121.826 105.407ZM120.528 107.255L122.178 102.812H122.838L124.487 107.255H123.827L123.366 105.935H121.628L121.144 107.255H120.528ZM128.292 106.661C128.204 106.771 128.094 106.881 128.006 106.969C127.896 107.057 127.786 107.123 127.654 107.189C127.522 107.255 127.39 107.299 127.258 107.321C127.126 107.343 126.972 107.365 126.818 107.365C126.511 107.365 126.247 107.321 126.005 107.211C125.763 107.101 125.543 106.947 125.367 106.727C125.191 106.507 125.037 106.265 124.949 105.979C124.861 105.693 124.817 105.385 124.817 105.033C124.817 104.659 124.861 104.351 124.971 104.044C125.059 103.758 125.213 103.516 125.411 103.296C125.609 103.076 125.829 102.922 126.093 102.834C126.357 102.724 126.643 102.658 126.972 102.658C127.236 102.658 127.456 102.702 127.654 102.768C127.852 102.834 128.05 102.922 128.204 103.054C128.512 103.318 128.71 103.67 128.776 104.132H128.204C128.182 103.978 128.116 103.846 128.05 103.736C127.984 103.626 127.896 103.516 127.786 103.45C127.676 103.362 127.544 103.296 127.412 103.252C127.28 103.208 127.126 103.186 126.95 103.186C126.709 103.186 126.489 103.23 126.313 103.296C126.115 103.384 125.961 103.494 125.829 103.648C125.697 103.802 125.587 103.978 125.521 104.219C125.455 104.439 125.433 104.703 125.433 104.989C125.433 105.275 125.455 105.517 125.521 105.737C125.587 105.957 125.697 106.155 125.829 106.309C125.961 106.463 126.115 106.595 126.291 106.661C126.467 106.749 126.687 106.793 126.906 106.793C127.104 106.793 127.302 106.771 127.478 106.705C127.654 106.639 127.786 106.551 127.918 106.419C128.05 106.287 128.138 106.155 128.204 105.979C128.27 105.803 128.292 105.605 128.292 105.407V105.341H126.906V104.835H128.842V107.233H128.446L128.292 106.661ZM130.271 103.318V104.813H131.305C131.503 104.813 131.657 104.791 131.789 104.769C131.921 104.747 132.031 104.703 132.097 104.637C132.163 104.571 132.229 104.505 132.273 104.395C132.317 104.307 132.339 104.175 132.339 104.044C132.339 103.912 132.317 103.802 132.295 103.714C132.251 103.626 132.207 103.538 132.119 103.494C132.053 103.428 131.943 103.406 131.811 103.362C131.679 103.34 131.525 103.318 131.327 103.318H130.271ZM129.678 102.812H131.393C131.525 102.812 131.657 102.812 131.767 102.812C131.855 102.834 131.943 102.834 132.031 102.856C132.097 102.856 132.163 102.878 132.207 102.9C132.273 102.922 132.339 102.944 132.383 102.966C132.581 103.076 132.713 103.208 132.801 103.384C132.911 103.56 132.955 103.78 132.955 104.022C132.955 104.154 132.933 104.241 132.911 104.351C132.889 104.461 132.845 104.549 132.779 104.637C132.735 104.725 132.669 104.791 132.603 104.857C132.515 104.923 132.427 104.989 132.317 105.033C132.405 105.055 132.493 105.099 132.537 105.121C132.603 105.165 132.647 105.209 132.691 105.275C132.735 105.319 132.757 105.407 132.779 105.495C132.801 105.605 132.823 105.715 132.823 105.847L132.867 106.573C132.889 106.661 132.889 106.727 132.889 106.771C132.911 106.837 132.911 106.881 132.933 106.925C132.955 106.969 132.977 106.991 132.999 107.013C133.021 107.035 133.065 107.057 133.087 107.079V107.211H132.383C132.361 107.167 132.339 107.079 132.317 106.991C132.295 106.903 132.273 106.771 132.273 106.617V106.595L132.229 106.023C132.229 105.869 132.207 105.759 132.163 105.649C132.141 105.561 132.097 105.473 132.031 105.429C131.943 105.341 131.657 105.297 131.239 105.297H130.271V107.211H129.678V102.812ZM134.56 105.407H135.946L135.264 103.45L134.56 105.407ZM133.285 107.255L134.934 102.812H135.594L137.243 107.255H136.584L136.1 105.935H134.362L133.878 107.255H133.285ZM137.507 105.781H138.079C138.079 105.935 138.101 106.089 138.167 106.221C138.233 106.353 138.299 106.463 138.409 106.551C138.519 106.639 138.629 106.705 138.783 106.749C138.915 106.793 139.069 106.837 139.245 106.837C139.421 106.837 139.575 106.815 139.707 106.771C139.839 106.727 139.971 106.683 140.059 106.617C140.256 106.463 140.366 106.265 140.366 106.023C140.366 105.847 140.278 105.715 140.08 105.583C139.905 105.451 139.619 105.341 139.245 105.253C139.223 105.253 139.201 105.231 139.201 105.231C139.179 105.231 139.179 105.209 139.157 105.209C138.849 105.143 138.607 105.055 138.409 104.989C138.211 104.901 138.057 104.813 137.969 104.725C137.881 104.637 137.793 104.527 137.749 104.417C137.705 104.285 137.683 104.154 137.683 104C137.683 103.802 137.727 103.626 137.793 103.472C137.859 103.318 137.969 103.164 138.123 103.054C138.277 102.944 138.431 102.856 138.629 102.79C138.827 102.724 139.047 102.702 139.267 102.702C139.531 102.702 139.729 102.746 139.927 102.79C140.124 102.856 140.278 102.944 140.432 103.076C140.564 103.208 140.674 103.362 140.74 103.516C140.806 103.692 140.85 103.89 140.85 104.11H140.278C140.256 103.956 140.234 103.824 140.19 103.714C140.146 103.582 140.058 103.516 139.993 103.428C139.905 103.362 139.795 103.296 139.663 103.252C139.531 103.208 139.399 103.186 139.245 103.186C139.091 103.186 138.959 103.208 138.849 103.23C138.739 103.274 138.629 103.318 138.541 103.384C138.453 103.45 138.387 103.516 138.343 103.604C138.299 103.692 138.277 103.78 138.277 103.89C138.277 104.066 138.365 104.197 138.541 104.329C138.739 104.461 139.003 104.571 139.377 104.637C139.443 104.659 139.487 104.659 139.531 104.681C139.575 104.703 139.597 104.703 139.641 104.703H139.663C139.685 104.703 139.685 104.725 139.707 104.725C139.949 104.791 140.146 104.835 140.3 104.901C140.454 104.967 140.586 105.033 140.652 105.099C140.718 105.143 140.762 105.209 140.806 105.253C140.85 105.319 140.894 105.385 140.916 105.451C140.982 105.605 141.004 105.759 141.004 105.935C141.004 106.155 140.96 106.331 140.894 106.507C140.828 106.683 140.718 106.815 140.564 106.947C140.41 107.079 140.234 107.167 140.015 107.233C139.817 107.299 139.575 107.321 139.311 107.321C138.783 107.321 138.343 107.189 138.057 106.925C137.903 106.793 137.793 106.617 137.727 106.419C137.573 106.265 137.507 106.045 137.507 105.781Z" fill="#ED1C24"/>
<path d="M39.4608 95.224V80.2686H41.3303L51.1613 91.8811V80.2686H53.2947V95.224H51.4032L41.5942 83.6115V95.224H39.4608ZM27.0566 88.9119L29.3439 83.5236L31.7192 88.9119L32.5989 90.8474L34.5343 95.246H36.7337L30.1796 80.2905H28.6181L22.1521 95.246H24.3514L26.2428 90.8474L27.0566 88.9119ZM75.9478 88.9119L78.2571 83.5236L80.6104 88.9119L81.4902 90.8474L83.4256 95.246H85.6249L79.0709 80.2905H77.5094L71.0433 95.246H73.2427L75.1341 90.8474L75.9478 88.9119ZM103.066 88.9119L105.353 83.5236L107.706 88.9119L108.586 90.8474L110.499 95.246H112.699L106.145 80.2905H104.583L98.1172 95.246H100.317L102.208 90.8474L103.066 88.9119ZM130.997 88.9119L133.285 83.5236L135.638 88.9119L136.518 90.8474L138.453 95.246H140.652L134.098 80.2905H132.537L126.071 95.246H128.248L130.162 90.8474L130.997 88.9119ZM115.558 95.224V80.2686H117.669V93.3106H124.773V95.246H115.558V95.224ZM90.8154 95.224V82.226H85.317V80.2686H98.4251V82.226H92.9487V95.224H90.8154ZM58.1772 95.224V80.2686H60.3106V86.9985L66.5567 80.2686H69.2399L62.7518 87.2844L70.4935 95.224H67.5244L60.3326 87.8343V95.224H58.1772ZM9.28593 95.224V80.2686H11.4193V86.9985L17.6654 80.2686H20.3486L13.8606 87.2844L21.6022 95.224H18.6111L11.4193 87.8343V95.224H9.28593Z" fill="#ED1C24"/>
<mask id="mask0_2748_15799" style="mask-type:luminance" maskUnits="userSpaceOnUse" x="66" y="42" width="18" height="23">
<path d="M81.38 45.5849C79.2466 47.8282 76.3435 50.3575 73.5943 52.3369C71.0211 54.2063 67.4362 56.7136 66.5564 58.627V64.1033C66.7104 63.6415 67.5681 62.2779 71.7469 59.0889C77.1352 54.9321 83.1174 50.9293 83.4254 47.7843V42C83.4034 42.2859 83.2714 43.5835 81.38 45.5849Z" fill="white"/>
</mask>
<g mask="url(#mask0_2748_15799)">
<path d="M83.4034 42.022H66.5345V64.1033H83.4034V42.022Z" fill="url(#paint0_linear_2748_15799)"/>
</g>
<mask id="mask1_2748_15799" style="mask-type:luminance" maskUnits="userSpaceOnUse" x="66" y="45" width="7" height="12">
<path d="M67.7662 49.6318C66.5785 50.7534 66.5346 51.1713 66.5346 51.1713V56.6037C66.5566 55.7899 67.5682 54.9762 68.6239 54.1844C68.9978 53.8985 70.5593 52.7548 70.9992 52.3809C72.2528 51.3912 72.1869 51.0393 72.2308 50.8414V45.563C71.857 46.7506 69.0418 48.4441 67.7662 49.6318Z" fill="white"/>
</mask>
<g mask="url(#mask1_2748_15799)">
<path d="M72.2528 45.563H66.5346V56.6037H72.2528V45.563Z" fill="url(#paint1_linear_2748_15799)"/>
</g>
<mask id="mask2_2748_15799" style="mask-type:luminance" maskUnits="userSpaceOnUse" x="66" y="51" width="18" height="23">
<path d="M66.5346 56.6695C67.4143 58.5829 70.9772 61.0682 73.5724 62.9596C76.3216 64.939 79.2467 67.4682 81.3581 69.7116C83.2495 71.713 83.3815 73.0106 83.4035 73.2745V67.4902C83.0956 64.3452 77.1134 60.3424 71.725 56.1856C67.5682 52.9746 66.7105 51.633 66.5346 51.1711V56.6695Z" fill="white"/>
</mask>
<g mask="url(#mask2_2748_15799)">
<path d="M83.4035 51.1711H66.5346V73.2745H83.4035V51.1711Z" fill="url(#paint2_linear_2748_15799)"/>
</g>
<mask id="mask3_2748_15799" style="mask-type:luminance" maskUnits="userSpaceOnUse" x="66" y="58" width="7" height="12">
<path d="M66.5345 64.1035C66.5345 64.1035 66.4246 64.6534 67.7662 65.775C69.0858 66.8747 71.8349 68.6562 72.2308 69.8438V64.5654C72.1868 64.3455 72.2528 63.9936 70.9992 63.0039C70.5593 62.63 68.9978 61.5083 68.6239 61.2004C67.5902 60.4087 66.5565 59.4849 66.5345 58.6712V64.1035ZM66.5345 58.6932V58.6272V58.6932Z" fill="white"/>
</mask>
<g mask="url(#mask3_2748_15799)">
<path d="M72.2748 58.6272H66.4466V69.8438H72.2748V58.6272Z" fill="url(#paint3_linear_2748_15799)"/>
</g>
<defs>
<linearGradient id="paint0_linear_2748_15799" x1="67.0394" y1="53.0709" x2="82.9331" y2="53.0709" gradientUnits="userSpaceOnUse">
<stop stop-color="#C37C29"/>
<stop offset="0.0967626" stop-color="#D18226"/>
<stop offset="0.28" stop-color="#F7931E"/>
<stop offset="0.6131" stop-color="#FAA617"/>
<stop offset="1" stop-color="#FFC20E"/>
</linearGradient>
<linearGradient id="paint1_linear_2748_15799" x1="66.5499" y1="51.0785" x2="72.2348" y2="51.0785" gradientUnits="userSpaceOnUse">
<stop stop-color="#831B1D"/>
<stop offset="0.2103" stop-color="#932120"/>
<stop offset="0.6182" stop-color="#BC3027"/>
<stop offset="1" stop-color="#E8412E"/>
</linearGradient>
<linearGradient id="paint2_linear_2748_15799" x1="67.2246" y1="62.2303" x2="82.752" y2="62.2303" gradientUnits="userSpaceOnUse">
<stop stop-color="#C12126"/>
<stop offset="0.4534" stop-color="#D02D29"/>
<stop offset="1" stop-color="#E8412E"/>
</linearGradient>
<linearGradient id="paint3_linear_2748_15799" x1="66.5499" y1="64.2323" x2="72.2348" y2="64.2323" gradientUnits="userSpaceOnUse">
<stop stop-color="#F7931E"/>
<stop offset="0.4626" stop-color="#FAA617"/>
<stop offset="1" stop-color="#FFC20E"/>
</linearGradient>
</defs>
</svg>
