<svg width="212" height="49" viewBox="0 0 212 49" fill="none" xmlns="http://www.w3.org/2000/svg">
<path d="M41.7403 28.1154C41.7403 28.1722 41.7451 28.2053 41.7403 28.2432C41.6599 29.1239 41.5794 29.9998 41.4941 30.8805C41.4515 31.3113 41.4089 31.7422 41.3568 32.173C41.3474 32.263 41.2906 32.3577 41.2385 32.4382C40.3436 33.7639 39.4488 35.0849 38.5539 36.4106C36.9204 38.8253 35.2869 41.24 33.6535 43.6499C33.6014 43.7304 33.5493 43.8109 33.4736 43.934C33.5967 43.9435 33.6772 43.9529 33.7576 43.9529C34.3305 43.9671 34.8987 43.9766 35.4716 43.9861C36.8494 44.0098 38.2272 44.024 39.605 44.0476C40.7177 44.0666 41.8256 44.095 42.9382 44.1187C44.0414 44.1423 45.1446 44.1565 46.2478 44.1802C46.8633 44.1897 47.4788 44.2039 48.099 44.2134C49.3395 44.2323 50.58 44.2749 51.8205 44.2702C53.3546 44.2654 54.524 43.5978 55.2626 42.2342C55.6461 41.5288 55.8592 40.7712 55.9539 39.9805C56.0107 39.4881 56.0581 38.991 56.0391 38.5033C56.0155 37.8641 55.9302 37.2297 55.845 36.5952C55.7077 35.5678 55.5562 34.5451 55.4047 33.5224C55.2437 32.424 55.0827 31.3255 54.9265 30.2271C54.7844 29.2328 54.6424 28.2385 54.4956 27.2489C54.3488 26.231 54.2021 25.2178 54.0553 24.1998C53.9133 23.2197 53.7759 22.2444 53.6339 21.2643C53.4871 20.2416 53.3356 19.2189 53.1888 18.1915C53.0468 17.1924 52.9048 16.1887 52.758 15.1849C52.6112 14.1859 52.4692 13.1822 52.3177 12.1831C52.2088 11.4445 52.1093 10.7059 51.9815 9.97204C51.7826 8.84519 51.4559 7.75147 50.9257 6.72878C50.509 5.92861 49.9598 5.23735 49.2448 4.67865C48.5252 4.11996 47.7061 3.85955 46.797 3.91164C46.2999 3.94004 45.8264 4.08682 45.3766 4.29515C44.316 4.78755 43.4354 5.51669 42.6447 6.3642C42.0481 7.00812 41.5462 7.72307 41.0491 8.44747C38.1609 12.6187 35.268 16.79 32.3751 20.9613C29.2834 25.4213 26.1869 29.8767 23.0951 34.332C21.2439 37.0024 19.3784 39.6633 17.5461 42.3479C16.8027 43.4369 15.9694 44.4359 14.9799 45.3071C13.6731 46.4576 12.2053 47.3288 10.5292 47.8354C9.48288 48.1526 8.41283 48.2757 7.32859 48.1668C5.13169 47.9443 3.34197 46.95 1.96418 45.2171C1.16401 44.2086 0.666876 43.0581 0.363855 41.8176C0.0371616 40.4919 -0.0528008 39.1472 0.027689 37.7836C0.0845053 36.7799 0.250222 35.7903 0.392262 34.796C0.534303 33.816 0.676341 32.8406 0.818382 31.8605C0.979362 30.7715 1.13561 29.6778 1.29659 28.5889C1.45757 27.4904 1.61854 26.392 1.77952 25.2935C1.92157 24.3087 2.06835 23.3239 2.21512 22.3343C2.3619 21.3353 2.50394 20.3316 2.65071 19.3325C2.77855 18.4661 2.90165 17.5996 3.02948 16.7379C3.17626 15.7531 3.31831 14.7683 3.46508 13.7787C3.61659 12.7608 3.76337 11.7476 3.91488 10.7296C4.00484 10.1141 4.08533 9.49383 4.20369 8.88306C4.55406 7.06493 5.16957 5.34625 6.22067 3.80747C7.06818 2.57172 8.10508 1.53956 9.44973 0.843556C10.3114 0.398495 11.2205 0.133347 12.1864 0.0386526C14.0424 -0.141266 15.7421 0.313268 17.3283 1.26968C18.5403 1.99882 19.5867 2.92682 20.4958 4.0016C20.8746 4.44666 21.2344 4.91066 21.5705 5.3936C24.3214 9.3376 27.0581 13.2911 29.8042 17.2398C29.8563 17.3156 29.9083 17.3866 29.9841 17.4907C30.0551 17.4008 30.1119 17.325 30.1688 17.2493C31.2388 15.7152 32.3088 14.1764 33.3789 12.6424C34.9461 10.3934 36.518 8.14919 38.0757 5.89547C38.6486 5.0669 39.231 4.25253 39.9222 3.51866C40.8881 2.48649 41.9676 1.60584 43.2223 0.952452C44.174 0.455309 45.1872 0.142818 46.262 0.048124C48.8708 -0.183876 51.0393 0.71572 52.8053 2.61907C53.989 3.88796 54.775 5.39359 55.3052 7.0318C55.6367 8.06396 55.845 9.1198 55.9918 10.1946C56.1149 11.0894 56.2522 11.9843 56.38 12.8839C56.5268 13.8829 56.6688 14.8867 56.8109 15.8857C56.9529 16.88 57.095 17.8743 57.2417 18.8685C57.3885 19.9007 57.5353 20.9329 57.6868 21.965C57.8288 22.9498 57.9756 23.9347 58.1177 24.9242C58.236 25.7291 58.3449 26.534 58.4633 27.3389C58.6053 28.3237 58.7474 29.3133 58.8894 30.2981C59.0362 31.2971 59.1782 32.3009 59.325 33.2999C59.4576 34.2184 59.5949 35.1369 59.7227 36.0555C59.879 37.1634 60.0163 38.2713 59.9642 39.3982C59.8884 41.0127 59.5523 42.5657 58.7852 44.0003C57.8999 45.6527 56.6452 46.9074 54.8886 47.6223C54.3062 47.8591 53.7049 47.9916 53.0894 48.1053C52.597 48.1952 52.1093 48.2047 51.6122 48.2C50.3101 48.181 49.0081 48.1621 47.7061 48.1431C46.8443 48.1289 45.9874 48.1147 45.1256 48.1005C43.3975 48.0721 41.6693 48.039 39.9412 48.0106C39.0747 47.9964 38.2035 47.9822 37.3371 47.9632C36.4706 47.949 35.5995 47.9348 34.733 47.9159C33.0901 47.8875 31.4424 47.8638 29.7994 47.8259C28.5637 47.7928 27.9482 46.8174 27.9056 45.9983C27.8819 45.5249 28.0003 45.1082 28.2701 44.7105C30.5002 41.4057 32.7208 38.0914 34.9461 34.7818C35.9451 33.2951 36.9394 31.8132 37.9384 30.3312C38.0047 30.2365 38.0946 30.1418 38.1988 30.085C39.3399 29.4458 40.4856 28.8114 41.6314 28.1769C41.6551 28.1485 41.6883 28.1343 41.7403 28.1154ZM27.5978 20.9376C27.5457 20.8571 27.4984 20.7908 27.451 20.7198C25.4151 17.789 23.3745 14.863 21.3386 11.9322C20.3679 10.5307 19.4068 9.12454 18.4314 7.7278C17.9769 7.07915 17.4656 6.4731 16.9021 5.91441C16.1304 5.15212 15.2639 4.53188 14.2365 4.15784C12.9771 3.70331 11.7981 3.85482 10.7234 4.66918C10.1836 5.07637 9.74328 5.57825 9.37871 6.14641C8.73479 7.14543 8.36075 8.24862 8.10034 9.39915C7.821 10.6302 7.6979 11.8896 7.50851 13.1396C7.38541 13.9208 7.28597 14.7067 7.17234 15.488C7.0445 16.3828 6.91194 17.2777 6.77937 18.1725C6.63259 19.1905 6.48581 20.2037 6.33904 21.2217C6.2112 22.1023 6.08337 22.983 5.95553 23.8636C5.82296 24.7727 5.69512 25.6865 5.56255 26.5955C5.44892 27.372 5.33529 28.1438 5.22639 28.9203C5.11276 29.711 5.00385 30.5017 4.89022 31.2924C4.75765 32.2014 4.62508 33.1152 4.49251 34.0243C4.35994 34.9191 4.23684 35.814 4.09953 36.7089C3.92435 37.8594 3.85806 39.0099 4.03798 40.1652C4.16581 40.9843 4.40728 41.7655 4.85234 42.471C5.57202 43.6168 6.58524 44.2607 7.96777 44.2512C8.54067 44.2465 9.09937 44.1423 9.64859 43.9719C10.5955 43.6783 11.4194 43.167 12.1627 42.5278C12.9676 41.8365 13.6778 41.06 14.2649 40.1699C15.0461 38.991 15.87 37.8357 16.6749 36.6757C20.0886 31.7564 23.507 26.837 26.9208 21.9177C27.148 21.5957 27.3706 21.269 27.5978 20.9376Z" fill="url(#paint0_linear_621_9706)"/>
<path d="M84.2811 9.96228V27.2534H81.5492V16.5861L76.6772 22.978H75.7492L70.8535 16.5624V27.2581H68.1216V9.96702H69.0733L76.2084 19.4743L83.3436 9.96702H84.2811V9.96228Z" fill="white"/>
<path d="M98.7599 24.4173H91.1087L89.8966 27.2534H86.9847L94.4845 9.96228H95.4125L102.912 27.2534H99.9767L98.7599 24.4173ZM94.9485 15.0379L92.0887 22.0736H97.7846L94.9485 15.0379Z" fill="white"/>
<path d="M116.307 27.2531L111.463 20.6814H108.348V27.2531H105.616V10.2461H111.828C115.256 10.2461 117.599 12.3862 117.599 15.4495C117.599 17.6938 116.363 19.4456 114.328 20.241L119.432 27.2484H116.307V27.2531ZM108.343 18.2619H111.771C113.65 18.2619 114.787 17.1303 114.787 15.4779C114.787 13.8019 113.655 12.6703 111.771 12.6703H108.343V18.2619Z" fill="white"/>
<path d="M129.393 9.962C132.514 9.962 135.217 11.4818 136.685 13.8776L134.625 15.3974C133.413 13.5178 131.661 12.4619 129.422 12.4619C125.942 12.4619 123.29 15.1418 123.29 18.7496C123.29 22.3574 125.947 25.0373 129.422 25.0373C131.666 25.0373 133.418 23.9814 134.625 22.1018L136.685 23.6216C135.241 26.0173 132.561 27.5372 129.393 27.5372C124.55 27.6129 120.35 23.6216 120.454 18.7496C120.35 13.8776 124.55 9.88624 129.393 9.962Z" fill="white"/>
<path d="M149.904 24.4173H142.253L141.041 27.2534H138.129L145.629 9.96228H146.557L154.056 27.2534H151.121L149.904 24.4173ZM146.088 15.0379L143.228 22.0736H148.924L146.088 15.0379Z" fill="white"/>
<path d="M172.91 9.96228V27.2534H170.178V16.5861L165.306 22.978H164.378L159.482 16.5624V27.2581H156.75V9.96702H157.702L164.842 19.4743L171.977 9.96702H172.91V9.96228Z" fill="white"/>
<path d="M185.069 9.962C189.888 9.88624 194.112 13.8776 194.008 18.7496C194.112 23.6216 189.884 27.6129 185.069 27.5372C180.197 27.6129 176.049 23.6216 176.153 18.7496C176.077 13.8776 180.225 9.88624 185.069 9.962ZM185.097 12.4619C181.565 12.4619 178.989 15.1418 178.989 18.7212C178.989 22.3527 181.565 25.0325 185.097 25.0325C188.577 25.0325 191.205 22.3527 191.205 18.7212C191.205 15.1654 188.572 12.4619 185.097 12.4619Z" fill="white"/>
<path d="M207.975 27.2531L203.132 20.6814H200.016V27.2531H197.284V10.2461H203.496C206.924 10.2461 209.268 12.3862 209.268 15.4495C209.268 17.6938 208.032 19.4456 205.996 20.241L211.1 27.2484H207.975V27.2531ZM200.011 18.2619H203.439C205.319 18.2619 206.455 17.1303 206.455 15.4779C206.455 13.8019 205.324 12.6703 203.439 12.6703H200.011V18.2619Z" fill="white"/>
<path d="M68.1488 36.3392V33.2866H68.7157V36.3392H68.1488ZM76.9112 36.3392V33.2866H78.2457C78.5771 33.2866 78.8678 33.3506 79.1178 33.4785C79.3678 33.6064 79.5626 33.7838 79.7022 34.0105C79.8417 34.2373 79.9115 34.5048 79.9115 34.8129C79.9115 35.1182 79.8417 35.3857 79.7022 35.6153C79.5626 35.8421 79.3678 36.0194 79.1178 36.1474C78.8678 36.2753 78.5771 36.3392 78.2457 36.3392H76.9112ZM77.4781 35.8595H78.2195C78.4492 35.8595 78.6469 35.8159 78.8126 35.7287C78.9812 35.6415 79.1106 35.5194 79.2007 35.3624C79.2937 35.2054 79.3402 35.0223 79.3402 34.8129C79.3402 34.6007 79.2937 34.4176 79.2007 34.2635C79.1106 34.1065 78.9812 33.9844 78.8126 33.8972C78.6469 33.8099 78.4492 33.7663 78.2195 33.7663H77.4781V35.8595ZM88.4072 34.5556H89.9248V35.0223H88.4072V34.5556ZM88.4508 35.8639H90.1733V36.3392H87.8839V33.2866H90.1123V33.762H88.4508V35.8639ZM97.7434 36.3392L99.1171 33.2866H99.6753L101.053 36.3392H100.46L99.2785 33.5875H99.5052L98.3278 36.3392H97.7434ZM98.3758 35.6328L98.5284 35.188H100.177L100.329 35.6328H98.3758ZM109.758 36.3828C109.519 36.3828 109.291 36.3494 109.073 36.2825C108.855 36.2128 108.682 36.1241 108.554 36.0165L108.75 35.5761C108.872 35.672 109.024 35.752 109.204 35.8159C109.384 35.8799 109.569 35.9119 109.758 35.9119C109.918 35.9119 110.047 35.8944 110.146 35.8595C110.245 35.8247 110.317 35.7781 110.364 35.72C110.41 35.6589 110.434 35.5906 110.434 35.515C110.434 35.422 110.4 35.3479 110.333 35.2926C110.266 35.2345 110.179 35.1894 110.072 35.1574C109.967 35.1226 109.849 35.0906 109.718 35.0615C109.591 35.0324 109.461 34.999 109.33 34.9612C109.202 34.9205 109.085 34.8696 108.977 34.8086C108.872 34.7446 108.787 34.6603 108.72 34.5556C108.653 34.451 108.62 34.3173 108.62 34.1544C108.62 33.9887 108.663 33.8376 108.75 33.7009C108.84 33.5614 108.976 33.4509 109.156 33.3695C109.339 33.2852 109.57 33.243 109.849 33.243C110.032 33.243 110.214 33.2663 110.394 33.3128C110.575 33.3593 110.732 33.4262 110.865 33.5134L110.687 33.9538C110.55 33.8724 110.409 33.8128 110.264 33.7751C110.118 33.7343 109.979 33.714 109.845 33.714C109.688 33.714 109.56 33.7329 109.461 33.7707C109.365 33.8085 109.294 33.8579 109.247 33.919C109.204 33.98 109.182 34.0498 109.182 34.1283C109.182 34.2213 109.214 34.2969 109.278 34.355C109.345 34.4103 109.431 34.4539 109.535 34.4859C109.643 34.5179 109.762 34.5498 109.893 34.5818C110.024 34.6109 110.153 34.6443 110.281 34.6821C110.412 34.7199 110.53 34.7693 110.634 34.8304C110.742 34.8914 110.828 34.9743 110.892 35.0789C110.958 35.1836 110.992 35.3159 110.992 35.4758C110.992 35.6386 110.947 35.7898 110.857 35.9293C110.769 36.066 110.634 36.1764 110.451 36.2607C110.268 36.3421 110.037 36.3828 109.758 36.3828ZM128.118 36.3392V33.7663H127.106V33.2866H129.697V33.7663H128.685V36.3392H128.118ZM138.88 36.3828C138.641 36.3828 138.422 36.3436 138.221 36.2651C138.021 36.1866 137.846 36.0776 137.698 35.938C137.55 35.7956 137.435 35.6299 137.353 35.4409C137.272 35.249 137.231 35.0397 137.231 34.8129C137.231 34.5862 137.272 34.3783 137.353 34.1893C137.435 33.9975 137.55 33.8317 137.698 33.6922C137.846 33.5497 138.021 33.4393 138.221 33.3608C138.422 33.2823 138.64 33.243 138.875 33.243C139.114 33.243 139.332 33.2823 139.53 33.3608C139.73 33.4393 139.905 33.5497 140.053 33.6922C140.201 33.8317 140.316 33.9975 140.397 34.1893C140.479 34.3783 140.519 34.5862 140.519 34.8129C140.519 35.0397 140.479 35.249 140.397 35.4409C140.316 35.6328 140.201 35.7985 140.053 35.938C139.905 36.0776 139.73 36.1866 139.53 36.2651C139.332 36.3436 139.115 36.3828 138.88 36.3828ZM138.875 35.8857C139.03 35.8857 139.172 35.8595 139.303 35.8072C139.434 35.7549 139.547 35.6807 139.643 35.5848C139.739 35.486 139.813 35.3726 139.865 35.2447C139.921 35.1138 139.948 34.9699 139.948 34.8129C139.948 34.6559 139.921 34.5135 139.865 34.3856C139.813 34.2547 139.739 34.1414 139.643 34.0454C139.547 33.9466 139.434 33.871 139.303 33.8187C139.172 33.7663 139.03 33.7402 138.875 33.7402C138.721 33.7402 138.579 33.7663 138.448 33.8187C138.32 33.871 138.207 33.9466 138.108 34.0454C138.012 34.1414 137.936 34.2547 137.881 34.3856C137.829 34.5135 137.803 34.6559 137.803 34.8129C137.803 34.967 137.829 35.1095 137.881 35.2403C137.936 35.3711 138.012 35.486 138.108 35.5848C138.204 35.6807 138.317 35.7549 138.448 35.8072C138.579 35.8595 138.721 35.8857 138.875 35.8857ZM157.065 36.3392V33.2866H157.632V36.3392H157.065ZM165.828 36.3392V33.2866H166.294L167.629 35.515H167.385L168.697 33.2866H169.164L169.168 36.3392H168.632L168.627 34.1283H168.741L167.624 35.9904H167.371L166.238 34.1283H166.368V36.3392H165.828ZM177.362 36.3392V33.2866H178.618C178.889 33.2866 179.12 33.3302 179.312 33.4175C179.507 33.5047 179.656 33.6297 179.761 33.7925C179.866 33.9553 179.918 34.1486 179.918 34.3725C179.918 34.5963 179.866 34.7897 179.761 34.9525C179.656 35.1153 179.507 35.2403 179.312 35.3275C179.12 35.4147 178.889 35.4583 178.618 35.4583H177.676L177.929 35.1923V36.3392H177.362ZM177.929 35.2534L177.676 34.9786H178.592C178.842 34.9786 179.03 34.9263 179.155 34.8217C179.283 34.7141 179.347 34.5644 179.347 34.3725C179.347 34.1777 179.283 34.028 179.155 33.9233C179.03 33.8187 178.842 33.7663 178.592 33.7663H177.676L177.929 33.4872V35.2534ZM187.269 36.3392L188.643 33.2866H189.201L190.579 36.3392H189.986L188.804 33.5875H189.031L187.853 36.3392H187.269ZM187.901 35.6328L188.054 35.188H189.702L189.855 35.6328H187.901ZM199.707 36.3828C199.475 36.3828 199.258 36.345 199.057 36.2695C198.86 36.191 198.687 36.0819 198.538 35.9424C198.393 35.7999 198.28 35.6328 198.198 35.4409C198.117 35.249 198.076 35.0397 198.076 34.8129C198.076 34.5862 198.117 34.3768 198.198 34.185C198.28 33.9931 198.395 33.8274 198.543 33.6878C198.691 33.5454 198.864 33.4364 199.062 33.3608C199.259 33.2823 199.476 33.243 199.712 33.243C199.962 33.243 200.19 33.2866 200.396 33.3739C200.603 33.4582 200.777 33.5846 200.919 33.7532L200.553 34.0978C200.443 33.9786 200.319 33.8899 200.182 33.8317C200.046 33.7707 199.898 33.7402 199.738 33.7402C199.578 33.7402 199.431 33.7663 199.297 33.8187C199.166 33.871 199.052 33.9451 198.953 34.0411C198.857 34.137 198.781 34.2504 198.726 34.3812C198.674 34.512 198.647 34.6559 198.647 34.8129C198.647 34.9699 198.674 35.1138 198.726 35.2447C198.781 35.3755 198.857 35.4889 198.953 35.5848C199.052 35.6807 199.166 35.7549 199.297 35.8072C199.431 35.8595 199.578 35.8857 199.738 35.8857C199.898 35.8857 200.046 35.8566 200.182 35.7985C200.319 35.7374 200.443 35.6459 200.553 35.5238L200.919 35.8726C200.777 36.0383 200.603 36.1648 200.396 36.252C200.19 36.3392 199.96 36.3828 199.707 36.3828ZM209.418 36.3392V33.7663H208.406V33.2866H210.996V33.7663H209.985V36.3392H209.418Z" fill="white"/>
<defs>
<linearGradient id="paint0_linear_621_9706" x1="29.9782" y1="48.2072" x2="29.9782" y2="0.000678106" gradientUnits="userSpaceOnUse">
<stop stop-color="#EE5125"/>
<stop offset="1" stop-color="#E51F31"/>
</linearGradient>
</defs>
</svg>
