<svg width="44" height="44" viewBox="0 0 44 44" fill="none" xmlns="http://www.w3.org/2000/svg">
<path d="M35.4283 11.0751H8.93752C8.42032 11.0751 8 10.6547 8 10.1375C8 9.62033 8.42032 9.20001 8.93752 9.20001H35.4267C35.9439 9.20001 36.3642 9.62033 36.3642 10.1375C36.3658 10.6547 35.9455 11.0751 35.4283 11.0751Z" fill="white"/>
<path d="M30.4283 22.8455H8.93752C8.42032 22.8455 8 22.4252 8 21.908C8 21.3908 8.42032 20.9705 8.93752 20.9705H30.4267C30.9439 20.9705 31.3642 21.3908 31.3642 21.908C31.3658 22.4252 30.9455 22.8455 30.4283 22.8455Z" fill="white"/>
<path d="M25.4283 34.6159H8.93752C8.42032 34.6159 8 34.1956 8 33.6784C8 33.1612 8.42032 32.7409 8.93752 32.7409H25.4267C25.9439 32.7409 26.3642 33.1612 26.3642 33.6784C26.3658 34.1956 25.9455 34.6159 25.4283 34.6159Z" fill="white"/>
</svg>
