<svg width="440" height="1753" viewBox="0 0 440 1753" fill="none" xmlns="http://www.w3.org/2000/svg">
<g clip-path="url(#clip0_2189_13760)">
<rect width="440" height="1753" fill="black"/>
<g clip-path="url(#clip1_2189_13760)">
<path d="M501.094 0H387.094V1753H501.094V0Z" fill="url(#paint0_linear_2189_13760)"/>
<path d="M389.094 0H275.094V1753H389.094V0Z" fill="url(#paint1_linear_2189_13760)"/>
<path d="M277.094 0H163.094V1753H277.094V0Z" fill="url(#paint2_linear_2189_13760)"/>
<path d="M165.094 0H51.0938V1753H165.094V0Z" fill="url(#paint3_linear_2189_13760)"/>
<path d="M53.0938 0H-60.9062V1753H53.0938V0Z" fill="url(#paint4_linear_2189_13760)"/>
</g>
<foreignObject x="-44" y="-14" width="528" height="1781"><div xmlns="http://www.w3.org/1999/xhtml" style="backdrop-filter:blur(7px);clip-path:url(#bgblur_2_2189_13760_clip_path);height:100%;width:100%"></div></foreignObject><rect data-figma-bg-blur-radius="14" x="-30" width="500" height="1753" fill="black" fill-opacity="0.55"/>
</g>
<defs>
<clipPath id="bgblur_2_2189_13760_clip_path" transform="translate(44 14)"><rect x="-30" width="500" height="1753"/>
</clipPath><linearGradient id="paint0_linear_2189_13760" x1="446.437" y1="859.99" x2="88.4664" y2="1797.32" gradientUnits="userSpaceOnUse">
<stop/>
<stop offset="0.506" stop-color="#EE5125"/>
<stop offset="0.984"/>
</linearGradient>
<linearGradient id="paint1_linear_2189_13760" x1="318.521" y1="1042.53" x2="135.807" y2="1873.18" gradientUnits="userSpaceOnUse">
<stop/>
<stop offset="0.506" stop-color="#EE5125"/>
<stop offset="0.984"/>
</linearGradient>
<linearGradient id="paint2_linear_2189_13760" x1="211.985" y1="1227.67" x2="170.402" y2="1896.88" gradientUnits="userSpaceOnUse">
<stop/>
<stop offset="0.506" stop-color="#EE5125"/>
<stop offset="0.984"/>
</linearGradient>
<linearGradient id="paint3_linear_2189_13760" x1="111.112" y1="1068.48" x2="145.934" y2="1891.53" gradientUnits="userSpaceOnUse">
<stop/>
<stop offset="0.506" stop-color="#EE5125"/>
<stop offset="0.984"/>
</linearGradient>
<linearGradient id="paint4_linear_2189_13760" x1="-2.10461" y1="909.461" x2="139.682" y2="1873.36" gradientUnits="userSpaceOnUse">
<stop/>
<stop offset="0.506" stop-color="#EE5125"/>
<stop offset="0.984"/>
</linearGradient>
<clipPath id="clip0_2189_13760">
<rect width="440" height="1753" fill="white"/>
</clipPath>
<clipPath id="clip1_2189_13760">
<rect width="1904.19" height="1071" fill="white" transform="translate(-732 682)"/>
</clipPath>
</defs>
</svg>
