<svg width="608" height="94" viewBox="0 0 608 94" fill="none" xmlns="http://www.w3.org/2000/svg">
<rect width="608" height="94" rx="14" fill="white"/>
<path d="M36.8835 55.1818V61H35.8295V56.2074H35.7955L34.4347 57.0767V56.1108L35.8807 55.1818H36.8835ZM40.5114 61.1108C40.0436 61.1108 39.642 60.9924 39.3068 60.7557C38.9735 60.517 38.7169 60.1733 38.5369 59.7244C38.3589 59.2737 38.2699 58.7311 38.2699 58.0966C38.2718 57.4621 38.3617 56.9223 38.5398 56.4773C38.7197 56.0303 38.9763 55.6894 39.3097 55.4545C39.6449 55.2197 40.0455 55.1023 40.5114 55.1023C40.9773 55.1023 41.3778 55.2197 41.7131 55.4545C42.0483 55.6894 42.3049 56.0303 42.483 56.4773C42.6629 56.9242 42.7528 57.464 42.7528 58.0966C42.7528 58.733 42.6629 59.2765 42.483 59.7273C42.3049 60.1761 42.0483 60.5189 41.7131 60.7557C41.3797 60.9924 40.9792 61.1108 40.5114 61.1108ZM40.5114 60.2216C40.875 60.2216 41.1619 60.0426 41.3722 59.6847C41.5843 59.3248 41.6903 58.7955 41.6903 58.0966C41.6903 57.6345 41.642 57.2462 41.5455 56.9318C41.4489 56.6174 41.3125 56.3807 41.1364 56.2216C40.9602 56.0606 40.7519 55.9801 40.5114 55.9801C40.1496 55.9801 39.8636 56.16 39.6534 56.5199C39.4432 56.8778 39.3371 57.4034 39.3352 58.0966C39.3333 58.5606 39.3797 58.9508 39.4744 59.267C39.571 59.5833 39.7074 59.822 39.8835 59.983C40.0597 60.142 40.2689 60.2216 40.5114 60.2216ZM43.6967 61V60.2386L45.7166 58.2585C45.9098 58.0634 46.0708 57.8902 46.1996 57.7386C46.3284 57.5871 46.425 57.4403 46.4893 57.2983C46.5537 57.1562 46.5859 57.0047 46.5859 56.8438C46.5859 56.66 46.5443 56.5028 46.4609 56.3722C46.3776 56.2396 46.263 56.1373 46.1172 56.0653C45.9714 55.9934 45.8056 55.9574 45.62 55.9574C45.4287 55.9574 45.2611 55.9972 45.1172 56.0767C44.9732 56.1544 44.8615 56.2652 44.782 56.4091C44.7043 56.553 44.6655 56.7244 44.6655 56.9233H43.6626C43.6626 56.554 43.7469 56.233 43.9155 55.9602C44.084 55.6875 44.3161 55.4763 44.6115 55.3267C44.9089 55.1771 45.2498 55.1023 45.6342 55.1023C46.0244 55.1023 46.3672 55.1752 46.6626 55.321C46.9581 55.4669 47.1873 55.6667 47.3501 55.9205C47.5149 56.1742 47.5973 56.464 47.5973 56.7898C47.5973 57.0076 47.5556 57.2216 47.4723 57.4318C47.389 57.642 47.2422 57.875 47.032 58.1307C46.8236 58.3864 46.531 58.696 46.1541 59.0597L45.1513 60.0795V60.1193H47.6854V61H43.6967ZM51.4851 55.1818L52.9993 59.7614H53.0589L54.5703 55.1818H55.7294L53.6783 61H52.3771L50.3288 55.1818H51.4851ZM57.9134 61.0852C57.4759 61.0852 57.098 60.9943 56.7798 60.8125C56.4635 60.6288 56.2202 60.3693 56.0497 60.0341C55.8793 59.697 55.794 59.3002 55.794 58.8438C55.794 58.3949 55.8793 58.0009 56.0497 57.6619C56.2221 57.321 56.4626 57.0559 56.7713 56.8665C57.08 56.6752 57.4427 56.5795 57.8594 56.5795C58.1283 56.5795 58.3821 56.6231 58.6207 56.7102C58.8613 56.7955 59.0734 56.928 59.2571 57.108C59.4427 57.2879 59.5885 57.517 59.6946 57.7955C59.8007 58.072 59.8537 58.4015 59.8537 58.7841V59.0994H56.277V58.4062H58.8679C58.866 58.2093 58.8234 58.0341 58.7401 57.8807C58.6567 57.7254 58.5402 57.6032 58.3906 57.5142C58.2429 57.4252 58.0705 57.3807 57.8736 57.3807C57.6634 57.3807 57.4787 57.4318 57.3196 57.5341C57.1605 57.6345 57.0365 57.767 56.9474 57.9318C56.8603 58.0947 56.8158 58.2737 56.8139 58.4688V59.0739C56.8139 59.3277 56.8603 59.5455 56.9531 59.7273C57.0459 59.9072 57.1757 60.0455 57.3423 60.142C57.509 60.2367 57.7041 60.2841 57.9276 60.2841C58.0772 60.2841 58.2126 60.2633 58.3338 60.2216C58.455 60.178 58.5601 60.1146 58.6491 60.0312C58.7382 59.9479 58.8054 59.8447 58.8509 59.7216L59.8111 59.8295C59.7505 60.0833 59.6349 60.3049 59.4645 60.4943C59.2959 60.6818 59.08 60.8277 58.8168 60.9318C58.5535 61.0341 58.2524 61.0852 57.9134 61.0852ZM60.7237 61V56.6364H61.7209V57.3636H61.7663C61.8459 57.1117 61.9822 56.9176 62.1754 56.7812C62.3705 56.643 62.593 56.5739 62.843 56.5739C62.8999 56.5739 62.9633 56.5767 63.0334 56.5824C63.1054 56.5862 63.165 56.5928 63.2124 56.6023V57.5483C63.1688 57.5331 63.0997 57.5199 63.005 57.5085C62.9122 57.4953 62.8222 57.4886 62.7351 57.4886C62.5476 57.4886 62.379 57.5294 62.2294 57.6108C62.0817 57.6903 61.9652 57.8011 61.88 57.9432C61.7947 58.0852 61.7521 58.2491 61.7521 58.4347V61H60.7237ZM63.8956 61V56.6364H64.924V61H63.8956ZM64.4126 56.017C64.2498 56.017 64.1096 55.9631 63.9922 55.8551C63.8748 55.7453 63.8161 55.6136 63.8161 55.4602C63.8161 55.3049 63.8748 55.1733 63.9922 55.0653C64.1096 54.9555 64.2498 54.9006 64.4126 54.9006C64.5774 54.9006 64.7176 54.9555 64.8331 55.0653C64.9505 55.1733 65.0092 55.3049 65.0092 55.4602C65.0092 55.6136 64.9505 55.7453 64.8331 55.8551C64.7176 55.9631 64.5774 56.017 64.4126 56.017ZM68.1918 56.6364V57.4318H65.6122V56.6364H68.1918ZM66.2571 61V56.2244C66.2571 55.9309 66.3177 55.6866 66.4389 55.4915C66.562 55.2964 66.7268 55.1506 66.9332 55.054C67.1397 54.9574 67.3688 54.9091 67.6207 54.9091C67.7988 54.9091 67.9569 54.9233 68.0952 54.9517C68.2334 54.9801 68.3357 55.0057 68.402 55.0284L68.1974 55.8239C68.1539 55.8106 68.099 55.7973 68.0327 55.7841C67.9664 55.7689 67.8925 55.7614 67.8111 55.7614C67.6198 55.7614 67.4844 55.8078 67.4048 55.9006C67.3272 55.9915 67.2884 56.1222 67.2884 56.2926V61H66.2571ZM68.9972 61V56.6364H70.0256V61H68.9972ZM69.5142 56.017C69.3513 56.017 69.2112 55.9631 69.0938 55.8551C68.9763 55.7453 68.9176 55.6136 68.9176 55.4602C68.9176 55.3049 68.9763 55.1733 69.0938 55.0653C69.2112 54.9555 69.3513 54.9006 69.5142 54.9006C69.679 54.9006 69.8191 54.9555 69.9347 55.0653C70.0521 55.1733 70.1108 55.3049 70.1108 55.4602C70.1108 55.6136 70.0521 55.7453 69.9347 55.8551C69.8191 55.9631 69.679 56.017 69.5142 56.017ZM73.0149 61.0852C72.5774 61.0852 72.1996 60.9943 71.8814 60.8125C71.5651 60.6288 71.3217 60.3693 71.1513 60.0341C70.9808 59.697 70.8956 59.3002 70.8956 58.8438C70.8956 58.3949 70.9808 58.0009 71.1513 57.6619C71.3236 57.321 71.5642 57.0559 71.8729 56.8665C72.1816 56.6752 72.5443 56.5795 72.9609 56.5795C73.2299 56.5795 73.4837 56.6231 73.7223 56.7102C73.9628 56.7955 74.175 56.928 74.3587 57.108C74.5443 57.2879 74.6901 57.517 74.7962 57.7955C74.9022 58.072 74.9553 58.4015 74.9553 58.7841V59.0994H71.3786V58.4062H73.9695C73.9676 58.2093 73.925 58.0341 73.8416 57.8807C73.7583 57.7254 73.6418 57.6032 73.4922 57.5142C73.3445 57.4252 73.1721 57.3807 72.9751 57.3807C72.7649 57.3807 72.5803 57.4318 72.4212 57.5341C72.2621 57.6345 72.138 57.767 72.049 57.9318C71.9619 58.0947 71.9174 58.2737 71.9155 58.4688V59.0739C71.9155 59.3277 71.9619 59.5455 72.0547 59.7273C72.1475 59.9072 72.2772 60.0455 72.4439 60.142C72.6106 60.2367 72.8056 60.2841 73.0291 60.2841C73.1787 60.2841 73.3142 60.2633 73.4354 60.2216C73.5566 60.178 73.6617 60.1146 73.7507 60.0312C73.8397 59.9479 73.907 59.8447 73.9524 59.7216L74.9126 59.8295C74.852 60.0833 74.7365 60.3049 74.5661 60.4943C74.3975 60.6818 74.1816 60.8277 73.9183 60.9318C73.6551 61.0341 73.3539 61.0852 73.0149 61.0852ZM77.4446 61.0767C77.1018 61.0767 76.795 60.9886 76.5241 60.8125C76.2533 60.6364 76.0393 60.3807 75.8821 60.0455C75.7249 59.7102 75.6463 59.303 75.6463 58.8239C75.6463 58.339 75.7259 57.9299 75.8849 57.5966C76.0459 57.2614 76.2628 57.0085 76.5355 56.8381C76.8082 56.6657 77.1122 56.5795 77.4474 56.5795C77.7031 56.5795 77.9134 56.6231 78.0781 56.7102C78.2429 56.7955 78.3736 56.8987 78.4702 57.0199C78.5668 57.1392 78.6416 57.2519 78.6946 57.358H78.7372V55.1818H79.7685V61H78.7571V60.3125H78.6946C78.6416 60.4186 78.5649 60.5312 78.4645 60.6506C78.3641 60.768 78.2315 60.8684 78.0668 60.9517C77.902 61.035 77.6946 61.0767 77.4446 61.0767ZM77.7315 60.233C77.9493 60.233 78.1349 60.1742 78.2884 60.0568C78.4418 59.9375 78.5582 59.7718 78.6378 59.5597C78.7173 59.3475 78.7571 59.1004 78.7571 58.8182C78.7571 58.536 78.7173 58.2907 78.6378 58.0824C78.5601 57.8741 78.4446 57.7121 78.2912 57.5966C78.1397 57.4811 77.9531 57.4233 77.7315 57.4233C77.5024 57.4233 77.3111 57.483 77.1577 57.6023C77.0043 57.7216 76.8887 57.8864 76.8111 58.0966C76.7334 58.3068 76.6946 58.5473 76.6946 58.8182C76.6946 59.0909 76.7334 59.3343 76.8111 59.5483C76.8906 59.7604 77.0071 59.928 77.1605 60.0511C77.3158 60.1723 77.5062 60.233 77.7315 60.233ZM82.8942 61V55.1818H85.076C85.523 55.1818 85.898 55.2595 86.201 55.4148C86.5059 55.5701 86.736 55.7879 86.8913 56.0682C87.0485 56.3466 87.1271 56.6714 87.1271 57.0426C87.1271 57.4157 87.0476 57.7396 86.8885 58.0142C86.7313 58.2869 86.4993 58.4981 86.1925 58.6477C85.8857 58.7955 85.5088 58.8693 85.0618 58.8693H83.5078V57.9943H84.9197C85.1811 57.9943 85.3951 57.9583 85.5618 57.8864C85.7285 57.8125 85.8516 57.7055 85.9311 57.5653C86.0125 57.4233 86.0533 57.2491 86.0533 57.0426C86.0533 56.8362 86.0125 56.66 85.9311 56.5142C85.8497 56.3665 85.7256 56.2547 85.5589 56.179C85.3923 56.1013 85.1773 56.0625 84.9141 56.0625H83.9482V61H82.8942ZM85.8999 58.3636L87.3402 61H86.1641L84.7493 58.3636H85.8999ZM89.9212 61.0852C89.4837 61.0852 89.1058 60.9943 88.7876 60.8125C88.4714 60.6288 88.228 60.3693 88.0575 60.0341C87.8871 59.697 87.8018 59.3002 87.8018 58.8438C87.8018 58.3949 87.8871 58.0009 88.0575 57.6619C88.2299 57.321 88.4704 57.0559 88.7791 56.8665C89.0878 56.6752 89.4505 56.5795 89.8672 56.5795C90.1361 56.5795 90.3899 56.6231 90.6286 56.7102C90.8691 56.7955 91.0812 56.928 91.2649 57.108C91.4505 57.2879 91.5964 57.517 91.7024 57.7955C91.8085 58.072 91.8615 58.4015 91.8615 58.7841V59.0994H88.2848V58.4062H90.8757C90.8738 58.2093 90.8312 58.0341 90.7479 57.8807C90.6645 57.7254 90.5481 57.6032 90.3984 57.5142C90.2507 57.4252 90.0784 57.3807 89.8814 57.3807C89.6712 57.3807 89.4865 57.4318 89.3274 57.5341C89.1683 57.6345 89.0443 57.767 88.9553 57.9318C88.8681 58.0947 88.8236 58.2737 88.8217 58.4688V59.0739C88.8217 59.3277 88.8681 59.5455 88.9609 59.7273C89.0537 59.9072 89.1835 60.0455 89.3501 60.142C89.5168 60.2367 89.7119 60.2841 89.9354 60.2841C90.085 60.2841 90.2204 60.2633 90.3416 60.2216C90.4628 60.178 90.5679 60.1146 90.657 60.0312C90.746 59.9479 90.8132 59.8447 90.8587 59.7216L91.8189 59.8295C91.7583 60.0833 91.6428 60.3049 91.4723 60.4943C91.3037 60.6818 91.0878 60.8277 90.8246 60.9318C90.5613 61.0341 90.2602 61.0852 89.9212 61.0852ZM96.5043 56.6364L94.9503 61H93.8139L92.2599 56.6364H93.3565L94.3594 59.8778H94.4048L95.4105 56.6364H96.5043ZM97.2159 61V56.6364H98.2443V61H97.2159ZM97.733 56.017C97.5701 56.017 97.4299 55.9631 97.3125 55.8551C97.1951 55.7453 97.1364 55.6136 97.1364 55.4602C97.1364 55.3049 97.1951 55.1733 97.3125 55.0653C97.4299 54.9555 97.5701 54.9006 97.733 54.9006C97.8977 54.9006 98.0379 54.9555 98.1534 55.0653C98.2708 55.1733 98.3295 55.3049 98.3295 55.4602C98.3295 55.6136 98.2708 55.7453 98.1534 55.8551C98.0379 55.9631 97.8977 56.017 97.733 56.017ZM101.234 61.0852C100.796 61.0852 100.418 60.9943 100.1 60.8125C99.7839 60.6288 99.5405 60.3693 99.37 60.0341C99.1996 59.697 99.1143 59.3002 99.1143 58.8438C99.1143 58.3949 99.1996 58.0009 99.37 57.6619C99.5424 57.321 99.7829 57.0559 100.092 56.8665C100.4 56.6752 100.763 56.5795 101.18 56.5795C101.449 56.5795 101.702 56.6231 101.941 56.7102C102.182 56.7955 102.394 56.928 102.577 57.108C102.763 57.2879 102.909 57.517 103.015 57.7955C103.121 58.072 103.174 58.4015 103.174 58.7841V59.0994H99.5973V58.4062H102.188C102.186 58.2093 102.144 58.0341 102.06 57.8807C101.977 57.7254 101.861 57.6032 101.711 57.5142C101.563 57.4252 101.391 57.3807 101.194 57.3807C100.984 57.3807 100.799 57.4318 100.64 57.5341C100.481 57.6345 100.357 57.767 100.268 57.9318C100.181 58.0947 100.136 58.2737 100.134 58.4688V59.0739C100.134 59.3277 100.181 59.5455 100.273 59.7273C100.366 59.9072 100.496 60.0455 100.663 60.142C100.829 60.2367 101.024 60.2841 101.248 60.2841C101.397 60.2841 101.533 60.2633 101.654 60.2216C101.775 60.178 101.88 60.1146 101.969 60.0312C102.058 59.9479 102.126 59.8447 102.171 59.7216L103.131 59.8295C103.071 60.0833 102.955 60.3049 102.785 60.4943C102.616 60.6818 102.4 60.8277 102.137 60.9318C101.874 61.0341 101.573 61.0852 101.234 61.0852ZM104.921 61L103.688 56.6364H104.737L105.504 59.7045H105.543L106.327 56.6364H107.364L108.148 59.6875H108.191L108.947 56.6364H109.998L108.762 61H107.691L106.873 58.0511H106.813L105.995 61H104.921ZM114.165 57.7898L113.227 57.892C113.201 57.7973 113.154 57.7083 113.088 57.625C113.024 57.5417 112.937 57.4744 112.827 57.4233C112.717 57.3722 112.582 57.3466 112.423 57.3466C112.209 57.3466 112.029 57.393 111.884 57.4858C111.74 57.5786 111.669 57.6989 111.67 57.8466C111.669 57.9735 111.715 58.0767 111.81 58.1562C111.906 58.2358 112.065 58.3011 112.287 58.3523L113.031 58.5114C113.444 58.6004 113.751 58.7415 113.952 58.9347C114.154 59.1278 114.257 59.3807 114.259 59.6932C114.257 59.9678 114.176 60.2102 114.017 60.4205C113.86 60.6288 113.641 60.7917 113.361 60.9091C113.08 61.0265 112.759 61.0852 112.395 61.0852C111.861 61.0852 111.431 60.9735 111.105 60.75C110.779 60.5246 110.585 60.2112 110.523 59.8097L111.526 59.7131C111.571 59.91 111.668 60.0587 111.815 60.1591C111.963 60.2595 112.155 60.3097 112.392 60.3097C112.636 60.3097 112.832 60.2595 112.98 60.1591C113.13 60.0587 113.205 59.9347 113.205 59.7869C113.205 59.6619 113.156 59.5587 113.06 59.4773C112.965 59.3958 112.817 59.3333 112.616 59.2898L111.872 59.1335C111.454 59.0464 111.144 58.8996 110.943 58.6932C110.742 58.4848 110.643 58.2216 110.645 57.9034C110.643 57.6345 110.716 57.4015 110.864 57.2045C111.013 57.0057 111.221 56.8523 111.486 56.7443C111.753 56.6345 112.061 56.5795 112.409 56.5795C112.92 56.5795 113.323 56.6884 113.616 56.9062C113.912 57.1241 114.095 57.4186 114.165 57.7898Z" fill="black"/>
<path d="M69.2148 29.6906C69.2148 33.4746 66.24 36.263 62.5893 36.263C58.9386 36.263 55.9639 33.4746 55.9639 29.6906C55.9639 25.8799 58.9386 23.1182 62.5893 23.1182C66.24 23.1182 69.2148 25.8799 69.2148 29.6906ZM66.3145 29.6906C66.3145 27.3259 64.5904 25.708 62.5893 25.708C60.5883 25.708 58.8642 27.3259 58.8642 29.6906C58.8642 32.0315 60.5883 33.6731 62.5893 33.6731C64.5904 33.6731 66.3145 32.0285 66.3145 29.6906Z" fill="#EA4335"/>
<path d="M83.5077 29.6906C83.5077 33.4746 80.533 36.263 76.8823 36.263C73.2316 36.263 70.2568 33.4746 70.2568 29.6906C70.2568 25.8828 73.2316 23.1182 76.8823 23.1182C80.533 23.1182 83.5077 25.8799 83.5077 29.6906ZM80.6074 29.6906C80.6074 27.3259 78.8833 25.708 76.8823 25.708C74.8813 25.708 73.1571 27.3259 73.1571 29.6906C73.1571 32.0315 74.8813 33.6731 76.8823 33.6731C78.8833 33.6731 80.6074 32.0285 80.6074 29.6906Z" fill="#FBBC05"/>
<path d="M97.2053 23.5152V35.3147C97.2053 40.1685 94.3288 42.1508 90.9282 42.1508C87.7271 42.1508 85.8005 40.0203 85.074 38.2779L87.5991 37.2319C88.0487 38.3016 89.1505 39.564 90.9252 39.564C93.102 39.564 94.4509 38.2276 94.4509 35.7118V34.7665H94.3496C93.7005 35.5636 92.4498 36.26 90.8716 36.26C87.5693 36.26 84.5439 33.3975 84.5439 29.7143C84.5439 26.0043 87.5693 23.1182 90.8716 23.1182C92.4468 23.1182 93.6975 23.8145 94.3496 24.5879H94.4509V23.5182H97.2053V23.5152ZM94.6563 29.7143C94.6563 27.4 93.1049 25.708 91.1307 25.708C89.1297 25.708 87.4532 27.4 87.4532 29.7143C87.4532 32.0048 89.1297 33.6731 91.1307 33.6731C93.1049 33.6731 94.6563 32.0048 94.6563 29.7143Z" fill="#4285F4"/>
<path d="M101.746 16.5986V35.8595H98.917V16.5986H101.746Z" fill="#34A853"/>
<path d="M112.77 31.8536L115.021 33.3471C114.294 34.4168 112.543 36.2599 109.518 36.2599C105.766 36.2599 102.964 33.3737 102.964 29.6875C102.964 25.779 105.79 23.1151 109.193 23.1151C112.621 23.1151 114.297 25.8294 114.845 27.2962L115.146 28.0429L106.317 31.6817C106.993 33.0004 108.044 33.673 109.518 33.673C110.995 33.673 112.019 32.95 112.77 31.8536ZM105.84 29.489L111.742 27.0503C111.418 26.2294 110.441 25.6575 109.292 25.6575C107.818 25.6575 105.766 26.9525 105.84 29.489Z" fill="#EA4335"/>
<path d="M45.2557 27.9809V25.1925H54.6981C54.7904 25.6784 54.8381 26.2533 54.8381 26.8756C54.8381 28.9676 54.2634 31.5545 52.4112 33.3976C50.6097 35.2644 48.3079 36.2601 45.2587 36.2601C39.607 36.2601 34.8545 31.6789 34.8545 26.0548C34.8545 20.4306 39.607 15.8495 45.2587 15.8495C48.3853 15.8495 50.6127 17.0703 52.2861 18.6616L50.3089 20.6291C49.1089 19.509 47.4831 18.6379 45.2557 18.6379C41.1286 18.6379 37.9007 21.9478 37.9007 26.0548C37.9007 30.1618 41.1286 33.4717 45.2557 33.4717C47.9327 33.4717 49.4573 32.402 50.434 31.43C51.2261 30.6418 51.7472 29.5158 51.9526 27.9779L45.2557 27.9809Z" fill="#4285F4"/>
<path d="M48.8337 73.133C48.8337 73.2497 48.773 73.3664 48.6517 73.4831L46.1066 75.933L46.7092 79.4914C46.7138 79.4914 46.7162 79.5497 46.7162 79.6081C46.7162 79.7247 46.6905 79.783 46.6392 79.8413C46.5925 79.8997 46.5225 79.9581 46.4286 79.9581C46.3399 79.9581 46.2466 79.9581 46.1486 79.8997L43.0003 78.2081L39.8523 79.8997C39.7495 79.9581 39.656 79.9581 39.5718 79.9581C39.4737 79.9581 39.3989 79.8997 39.3475 79.8413C39.3007 79.783 39.2774 79.7247 39.2774 79.6081C39.2774 79.6081 39.282 79.5497 39.2914 79.4914L39.8944 75.933L37.3423 73.4831C37.2254 73.3664 37.167 73.2497 37.167 73.133C37.167 72.958 37.2979 72.8413 37.5596 72.8413L41.0792 72.3164L42.6567 69.1081C42.7454 68.9331 42.8603 68.8164 43.0003 68.8164C43.1403 68.8164 43.2552 68.9331 43.3439 69.1081L44.9212 72.3164L48.4411 72.8413C48.703 72.8413 48.8337 72.958 48.8337 73.133Z" fill="#F1C40F"/>
<path d="M64.8337 73.133C64.8337 73.2497 64.773 73.3664 64.6517 73.4831L62.1066 75.933L62.7092 79.4914C62.7138 79.4914 62.7162 79.5497 62.7162 79.6081C62.7162 79.7247 62.6905 79.783 62.6392 79.8413C62.5925 79.8997 62.5225 79.9581 62.4286 79.9581C62.3399 79.9581 62.2466 79.9581 62.1486 79.8997L59.0003 78.2081L55.8523 79.8997C55.7495 79.9581 55.656 79.9581 55.5718 79.9581C55.4737 79.9581 55.3989 79.8997 55.3475 79.8413C55.3007 79.783 55.2774 79.7247 55.2774 79.6081C55.2774 79.6081 55.282 79.5497 55.2914 79.4914L55.8944 75.933L53.3423 73.4831C53.2254 73.3664 53.167 73.2497 53.167 73.133C53.167 72.958 53.2979 72.8413 53.5596 72.8413L57.0792 72.3164L58.6567 69.1081C58.7454 68.9331 58.8603 68.8164 59.0003 68.8164C59.1403 68.8164 59.2552 68.9331 59.3439 69.1081L60.9212 72.3164L64.4411 72.8413C64.703 72.8413 64.8337 72.958 64.8337 73.133Z" fill="#F1C40F"/>
<path d="M80.8337 73.133C80.8337 73.2497 80.773 73.3664 80.6517 73.4831L78.1066 75.933L78.7092 79.4914C78.7138 79.4914 78.7162 79.5497 78.7162 79.6081C78.7162 79.7247 78.6905 79.783 78.6392 79.8413C78.5925 79.8997 78.5225 79.9581 78.4286 79.9581C78.3399 79.9581 78.2466 79.9581 78.1486 79.8997L75.0003 78.2081L71.8523 79.8997C71.7495 79.9581 71.656 79.9581 71.5718 79.9581C71.4737 79.9581 71.3989 79.8997 71.3475 79.8413C71.3007 79.783 71.2774 79.7247 71.2774 79.6081C71.2774 79.6081 71.282 79.5497 71.2914 79.4914L71.8944 75.933L69.3423 73.4831C69.2254 73.3664 69.167 73.2497 69.167 73.133C69.167 72.958 69.2979 72.8413 69.5596 72.8413L73.0792 72.3164L74.6567 69.1081C74.7454 68.9331 74.8603 68.8164 75.0003 68.8164C75.1403 68.8164 75.2552 68.9331 75.3439 69.1081L76.9212 72.3164L80.4411 72.8413C80.703 72.8413 80.8337 72.958 80.8337 73.133Z" fill="#F1C40F"/>
<path d="M96.8337 73.133C96.8337 73.2497 96.773 73.3664 96.6517 73.4831L94.1066 75.933L94.7092 79.4914C94.7138 79.4914 94.7162 79.5497 94.7162 79.6081C94.7162 79.7247 94.6905 79.783 94.6392 79.8413C94.5925 79.8997 94.5225 79.9581 94.4286 79.9581C94.3399 79.9581 94.2466 79.9581 94.1486 79.8997L91.0003 78.2081L87.8523 79.8997C87.7495 79.9581 87.656 79.9581 87.5718 79.9581C87.4737 79.9581 87.3989 79.8997 87.3475 79.8413C87.3007 79.783 87.2774 79.7247 87.2774 79.6081C87.2774 79.6081 87.282 79.5497 87.2914 79.4914L87.8944 75.933L85.3423 73.4831C85.2254 73.3664 85.167 73.2497 85.167 73.133C85.167 72.958 85.2979 72.8413 85.5596 72.8413L89.0792 72.3164L90.6567 69.1081C90.7454 68.9331 90.8603 68.8164 91.0003 68.8164C91.1403 68.8164 91.2552 68.9331 91.3439 69.1081L92.9212 72.3164L96.4411 72.8413C96.703 72.8413 96.8337 72.958 96.8337 73.133Z" fill="#F1C40F"/>
<path d="M112.834 73.133C112.834 73.2497 112.773 73.3664 112.652 73.4831L110.107 75.933L110.709 79.4914C110.714 79.4914 110.716 79.5497 110.716 79.6081C110.716 79.7247 110.69 79.783 110.639 79.8413C110.592 79.8997 110.522 79.9581 110.429 79.9581C110.34 79.9581 110.247 79.9581 110.149 79.8997L107 78.2081L103.852 79.8997C103.749 79.9581 103.656 79.9581 103.572 79.9581C103.474 79.9581 103.399 79.8997 103.347 79.8413C103.301 79.783 103.277 79.7247 103.277 79.6081C103.277 79.6081 103.282 79.5497 103.291 79.4914L103.894 75.933L101.342 73.4831C101.225 73.3664 101.167 73.2497 101.167 73.133C101.167 72.958 101.298 72.8413 101.56 72.8413L105.079 72.3164L106.657 69.1081C106.745 68.9331 106.86 68.8164 107 68.8164C107.14 68.8164 107.255 68.9331 107.344 69.1081L108.921 72.3164L112.441 72.8413C112.703 72.8413 112.834 72.958 112.834 73.133Z" fill="#F1C40F"/>
<path d="M155.54 61.0795C155.161 61.0795 154.822 61.0085 154.523 60.8665C154.223 60.7225 153.986 60.5256 153.81 60.2756C153.635 60.0256 153.543 59.7396 153.531 59.4176H154.554C154.573 59.6562 154.676 59.8513 154.864 60.0028C155.051 60.1525 155.277 60.2273 155.54 60.2273C155.746 60.2273 155.93 60.1799 156.091 60.0852C156.252 59.9905 156.379 59.8589 156.472 59.6903C156.564 59.5218 156.61 59.3295 156.608 59.1136C156.61 58.8939 156.563 58.6989 156.469 58.5284C156.374 58.358 156.244 58.2244 156.08 58.1278C155.915 58.0294 155.725 57.9801 155.511 57.9801C155.337 57.9782 155.166 58.0104 154.997 58.0767C154.829 58.143 154.695 58.2301 154.597 58.3381L153.645 58.1818L153.949 55.1818H157.324V56.0625H154.821L154.653 57.6051H154.688C154.795 57.4782 154.948 57.3731 155.145 57.2898C155.342 57.2045 155.558 57.1619 155.793 57.1619C156.145 57.1619 156.459 57.2453 156.736 57.4119C157.012 57.5767 157.23 57.804 157.389 58.0938C157.548 58.3835 157.628 58.715 157.628 59.0881C157.628 59.4725 157.539 59.8153 157.361 60.1165C157.185 60.4157 156.939 60.6515 156.625 60.8239C156.312 60.9943 155.951 61.0795 155.54 61.0795ZM158.58 61V60.2386L160.599 58.2585C160.793 58.0634 160.954 57.8902 161.082 57.7386C161.211 57.5871 161.308 57.4403 161.372 57.2983C161.437 57.1562 161.469 57.0047 161.469 56.8438C161.469 56.66 161.427 56.5028 161.344 56.3722C161.26 56.2396 161.146 56.1373 161 56.0653C160.854 55.9934 160.688 55.9574 160.503 55.9574C160.312 55.9574 160.144 55.9972 160 56.0767C159.856 56.1544 159.744 56.2652 159.665 56.4091C159.587 56.553 159.548 56.7244 159.548 56.9233H158.545C158.545 56.554 158.63 56.233 158.798 55.9602C158.967 55.6875 159.199 55.4763 159.494 55.3267C159.792 55.1771 160.133 55.1023 160.517 55.1023C160.907 55.1023 161.25 55.1752 161.545 55.321C161.841 55.4669 162.07 55.6667 162.233 55.9205C162.398 56.1742 162.48 56.464 162.48 56.7898C162.48 57.0076 162.438 57.2216 162.355 57.4318C162.272 57.642 162.125 57.875 161.915 58.1307C161.706 58.3864 161.414 58.696 161.037 59.0597L160.034 60.0795V60.1193H162.568V61H158.58ZM166.368 55.1818L167.882 59.7614H167.942L169.453 55.1818H170.612L168.561 61H167.26L165.212 55.1818H166.368ZM172.796 61.0852C172.359 61.0852 171.981 60.9943 171.663 60.8125C171.346 60.6288 171.103 60.3693 170.933 60.0341C170.762 59.697 170.677 59.3002 170.677 58.8438C170.677 58.3949 170.762 58.0009 170.933 57.6619C171.105 57.321 171.345 57.0559 171.654 56.8665C171.963 56.6752 172.326 56.5795 172.742 56.5795C173.011 56.5795 173.265 56.6231 173.504 56.7102C173.744 56.7955 173.956 56.928 174.14 57.108C174.326 57.2879 174.471 57.517 174.577 57.7955C174.683 58.072 174.737 58.4015 174.737 58.7841V59.0994H171.16V58.4062H173.751C173.749 58.2093 173.706 58.0341 173.623 57.8807C173.54 57.7254 173.423 57.6032 173.273 57.5142C173.126 57.4252 172.953 57.3807 172.756 57.3807C172.546 57.3807 172.362 57.4318 172.202 57.5341C172.043 57.6345 171.919 57.767 171.83 57.9318C171.743 58.0947 171.699 58.2737 171.697 58.4688V59.0739C171.697 59.3277 171.743 59.5455 171.836 59.7273C171.929 59.9072 172.058 60.0455 172.225 60.142C172.392 60.2367 172.587 60.2841 172.81 60.2841C172.96 60.2841 173.095 60.2633 173.217 60.2216C173.338 60.178 173.443 60.1146 173.532 60.0312C173.621 59.9479 173.688 59.8447 173.734 59.7216L174.694 59.8295C174.633 60.0833 174.518 60.3049 174.347 60.4943C174.179 60.6818 173.963 60.8277 173.7 60.9318C173.436 61.0341 173.135 61.0852 172.796 61.0852ZM175.607 61V56.6364H176.604V57.3636H176.649C176.729 57.1117 176.865 56.9176 177.058 56.7812C177.253 56.643 177.476 56.5739 177.726 56.5739C177.783 56.5739 177.846 56.5767 177.916 56.5824C177.988 56.5862 178.048 56.5928 178.095 56.6023V57.5483C178.052 57.5331 177.982 57.5199 177.888 57.5085C177.795 57.4953 177.705 57.4886 177.618 57.4886C177.43 57.4886 177.262 57.5294 177.112 57.6108C176.964 57.6903 176.848 57.8011 176.763 57.9432C176.678 58.0852 176.635 58.2491 176.635 58.4347V61H175.607ZM178.778 61V56.6364H179.807V61H178.778ZM179.295 56.017C179.133 56.017 178.992 55.9631 178.875 55.8551C178.758 55.7453 178.699 55.6136 178.699 55.4602C178.699 55.3049 178.758 55.1733 178.875 55.0653C178.992 54.9555 179.133 54.9006 179.295 54.9006C179.46 54.9006 179.6 54.9555 179.716 55.0653C179.833 55.1733 179.892 55.3049 179.892 55.4602C179.892 55.6136 179.833 55.7453 179.716 55.8551C179.6 55.9631 179.46 56.017 179.295 56.017ZM183.075 56.6364V57.4318H180.495V56.6364H183.075ZM181.14 61V56.2244C181.14 55.9309 181.201 55.6866 181.322 55.4915C181.445 55.2964 181.61 55.1506 181.816 55.054C182.022 54.9574 182.252 54.9091 182.504 54.9091C182.682 54.9091 182.84 54.9233 182.978 54.9517C183.116 54.9801 183.219 55.0057 183.285 55.0284L183.08 55.8239C183.037 55.8106 182.982 55.7973 182.915 55.7841C182.849 55.7689 182.775 55.7614 182.694 55.7614C182.503 55.7614 182.367 55.8078 182.288 55.9006C182.21 55.9915 182.171 56.1222 182.171 56.2926V61H181.14ZM183.88 61V56.6364H184.908V61H183.88ZM184.397 56.017C184.234 56.017 184.094 55.9631 183.977 55.8551C183.859 55.7453 183.8 55.6136 183.8 55.4602C183.8 55.3049 183.859 55.1733 183.977 55.0653C184.094 54.9555 184.234 54.9006 184.397 54.9006C184.562 54.9006 184.702 54.9555 184.817 55.0653C184.935 55.1733 184.994 55.3049 184.994 55.4602C184.994 55.6136 184.935 55.7453 184.817 55.8551C184.702 55.9631 184.562 56.017 184.397 56.017ZM187.898 61.0852C187.46 61.0852 187.082 60.9943 186.764 60.8125C186.448 60.6288 186.205 60.3693 186.034 60.0341C185.864 59.697 185.778 59.3002 185.778 58.8438C185.778 58.3949 185.864 58.0009 186.034 57.6619C186.206 57.321 186.447 57.0559 186.756 56.8665C187.064 56.6752 187.427 56.5795 187.844 56.5795C188.113 56.5795 188.366 56.6231 188.605 56.7102C188.846 56.7955 189.058 56.928 189.241 57.108C189.427 57.2879 189.573 57.517 189.679 57.7955C189.785 58.072 189.838 58.4015 189.838 58.7841V59.0994H186.261V58.4062H188.852C188.85 58.2093 188.808 58.0341 188.724 57.8807C188.641 57.7254 188.525 57.6032 188.375 57.5142C188.227 57.4252 188.055 57.3807 187.858 57.3807C187.648 57.3807 187.463 57.4318 187.304 57.5341C187.145 57.6345 187.021 57.767 186.932 57.9318C186.845 58.0947 186.8 58.2737 186.798 58.4688V59.0739C186.798 59.3277 186.845 59.5455 186.938 59.7273C187.03 59.9072 187.16 60.0455 187.327 60.142C187.493 60.2367 187.688 60.2841 187.912 60.2841C188.062 60.2841 188.197 60.2633 188.318 60.2216C188.439 60.178 188.545 60.1146 188.634 60.0312C188.723 59.9479 188.79 59.8447 188.835 59.7216L189.795 59.8295C189.735 60.0833 189.619 60.3049 189.449 60.4943C189.28 60.6818 189.064 60.8277 188.801 60.9318C188.538 61.0341 188.237 61.0852 187.898 61.0852ZM192.327 61.0767C191.985 61.0767 191.678 60.9886 191.407 60.8125C191.136 60.6364 190.922 60.3807 190.765 60.0455C190.608 59.7102 190.529 59.303 190.529 58.8239C190.529 58.339 190.609 57.9299 190.768 57.5966C190.929 57.2614 191.146 57.0085 191.418 56.8381C191.691 56.6657 191.995 56.5795 192.33 56.5795C192.586 56.5795 192.796 56.6231 192.961 56.7102C193.126 56.7955 193.256 56.8987 193.353 57.0199C193.45 57.1392 193.524 57.2519 193.577 57.358H193.62V55.1818H194.651V61H193.64V60.3125H193.577C193.524 60.4186 193.448 60.5312 193.347 60.6506C193.247 60.768 193.114 60.8684 192.95 60.9517C192.785 61.035 192.577 61.0767 192.327 61.0767ZM192.614 60.233C192.832 60.233 193.018 60.1742 193.171 60.0568C193.325 59.9375 193.441 59.7718 193.521 59.5597C193.6 59.3475 193.64 59.1004 193.64 58.8182C193.64 58.536 193.6 58.2907 193.521 58.0824C193.443 57.8741 193.327 57.7121 193.174 57.5966C193.022 57.4811 192.836 57.4233 192.614 57.4233C192.385 57.4233 192.194 57.483 192.04 57.6023C191.887 57.7216 191.772 57.8864 191.694 58.0966C191.616 58.3068 191.577 58.5473 191.577 58.8182C191.577 59.0909 191.616 59.3343 191.694 59.5483C191.773 59.7604 191.89 59.928 192.043 60.0511C192.199 60.1723 192.389 60.233 192.614 60.233ZM197.777 61V55.1818H199.959C200.406 55.1818 200.781 55.2595 201.084 55.4148C201.389 55.5701 201.619 55.7879 201.774 56.0682C201.931 56.3466 202.01 56.6714 202.01 57.0426C202.01 57.4157 201.93 57.7396 201.771 58.0142C201.614 58.2869 201.382 58.4981 201.075 58.6477C200.768 58.7955 200.392 58.8693 199.945 58.8693H198.391V57.9943H199.803C200.064 57.9943 200.278 57.9583 200.445 57.8864C200.611 57.8125 200.734 57.7055 200.814 57.5653C200.895 57.4233 200.936 57.2491 200.936 57.0426C200.936 56.8362 200.895 56.66 200.814 56.5142C200.732 56.3665 200.608 56.2547 200.442 56.179C200.275 56.1013 200.06 56.0625 199.797 56.0625H198.831V61H197.777ZM200.783 58.3636L202.223 61H201.047L199.632 58.3636H200.783ZM204.804 61.0852C204.366 61.0852 203.989 60.9943 203.67 60.8125C203.354 60.6288 203.111 60.3693 202.94 60.0341C202.77 59.697 202.685 59.3002 202.685 58.8438C202.685 58.3949 202.77 58.0009 202.94 57.6619C203.113 57.321 203.353 57.0559 203.662 56.8665C203.971 56.6752 204.333 56.5795 204.75 56.5795C205.019 56.5795 205.273 56.6231 205.511 56.7102C205.752 56.7955 205.964 56.928 206.148 57.108C206.333 57.2879 206.479 57.517 206.585 57.7955C206.691 58.072 206.744 58.4015 206.744 58.7841V59.0994H203.168V58.4062H205.759C205.757 58.2093 205.714 58.0341 205.631 57.8807C205.547 57.7254 205.431 57.6032 205.281 57.5142C205.134 57.4252 204.961 57.3807 204.764 57.3807C204.554 57.3807 204.369 57.4318 204.21 57.5341C204.051 57.6345 203.927 57.767 203.838 57.9318C203.751 58.0947 203.706 58.2737 203.705 58.4688V59.0739C203.705 59.3277 203.751 59.5455 203.844 59.7273C203.937 59.9072 204.066 60.0455 204.233 60.142C204.4 60.2367 204.595 60.2841 204.818 60.2841C204.968 60.2841 205.103 60.2633 205.224 60.2216C205.346 60.178 205.451 60.1146 205.54 60.0312C205.629 59.9479 205.696 59.8447 205.741 59.7216L206.702 59.8295C206.641 60.0833 206.526 60.3049 206.355 60.4943C206.187 60.6818 205.971 60.8277 205.707 60.9318C205.444 61.0341 205.143 61.0852 204.804 61.0852ZM211.387 56.6364L209.833 61H208.697L207.143 56.6364H208.239L209.242 59.8778H209.288L210.293 56.6364H211.387ZM212.099 61V56.6364H213.127V61H212.099ZM212.616 56.017C212.453 56.017 212.313 55.9631 212.195 55.8551C212.078 55.7453 212.019 55.6136 212.019 55.4602C212.019 55.3049 212.078 55.1733 212.195 55.0653C212.313 54.9555 212.453 54.9006 212.616 54.9006C212.781 54.9006 212.921 54.9555 213.036 55.0653C213.154 55.1733 213.212 55.3049 213.212 55.4602C213.212 55.6136 213.154 55.7453 213.036 55.8551C212.921 55.9631 212.781 56.017 212.616 56.017ZM216.116 61.0852C215.679 61.0852 215.301 60.9943 214.983 60.8125C214.667 60.6288 214.423 60.3693 214.253 60.0341C214.082 59.697 213.997 59.3002 213.997 58.8438C213.997 58.3949 214.082 58.0009 214.253 57.6619C214.425 57.321 214.666 57.0559 214.974 56.8665C215.283 56.6752 215.646 56.5795 216.062 56.5795C216.331 56.5795 216.585 56.6231 216.824 56.7102C217.064 56.7955 217.277 56.928 217.46 57.108C217.646 57.2879 217.792 57.517 217.898 57.7955C218.004 58.072 218.057 58.4015 218.057 58.7841V59.0994H214.48V58.4062H217.071C217.069 58.2093 217.027 58.0341 216.943 57.8807C216.86 57.7254 216.743 57.6032 216.594 57.5142C216.446 57.4252 216.274 57.3807 216.077 57.3807C215.866 57.3807 215.682 57.4318 215.523 57.5341C215.364 57.6345 215.24 57.767 215.151 57.9318C215.063 58.0947 215.019 58.2737 215.017 58.4688V59.0739C215.017 59.3277 215.063 59.5455 215.156 59.7273C215.249 59.9072 215.379 60.0455 215.545 60.142C215.712 60.2367 215.907 60.2841 216.131 60.2841C216.28 60.2841 216.416 60.2633 216.537 60.2216C216.658 60.178 216.763 60.1146 216.852 60.0312C216.941 59.9479 217.009 59.8447 217.054 59.7216L218.014 59.8295C217.954 60.0833 217.838 60.3049 217.668 60.4943C217.499 60.6818 217.283 60.8277 217.02 60.9318C216.757 61.0341 216.455 61.0852 216.116 61.0852ZM219.804 61L218.571 56.6364H219.619L220.386 59.7045H220.426L221.21 56.6364H222.247L223.031 59.6875H223.074L223.83 56.6364H224.881L223.645 61H222.574L221.756 58.0511H221.696L220.878 61H219.804ZM229.048 57.7898L228.11 57.892C228.084 57.7973 228.037 57.7083 227.971 57.625C227.906 57.5417 227.819 57.4744 227.71 57.4233C227.6 57.3722 227.465 57.3466 227.306 57.3466C227.092 57.3466 226.912 57.393 226.766 57.4858C226.622 57.5786 226.551 57.6989 226.553 57.8466C226.551 57.9735 226.598 58.0767 226.692 58.1562C226.789 58.2358 226.948 58.3011 227.17 58.3523L227.914 58.5114C228.327 58.6004 228.634 58.7415 228.835 58.9347C229.037 59.1278 229.139 59.3807 229.141 59.6932C229.139 59.9678 229.059 60.2102 228.9 60.4205C228.743 60.6288 228.524 60.7917 228.244 60.9091C227.963 61.0265 227.641 61.0852 227.278 61.0852C226.744 61.0852 226.314 60.9735 225.988 60.75C225.662 60.5246 225.468 60.2112 225.406 59.8097L226.408 59.7131C226.454 59.91 226.55 60.0587 226.698 60.1591C226.846 60.2595 227.038 60.3097 227.275 60.3097C227.519 60.3097 227.715 60.2595 227.863 60.1591C228.013 60.0587 228.087 59.9347 228.087 59.7869C228.087 59.6619 228.039 59.5587 227.942 59.4773C227.848 59.3958 227.7 59.3333 227.499 59.2898L226.755 59.1335C226.336 59.0464 226.027 58.8996 225.826 58.6932C225.625 58.4848 225.526 58.2216 225.528 57.9034C225.526 57.6345 225.599 57.4015 225.746 57.2045C225.896 57.0057 226.103 56.8523 226.369 56.7443C226.636 56.6345 226.943 56.5795 227.292 56.5795C227.803 56.5795 228.206 56.6884 228.499 56.9062C228.795 57.1241 228.978 57.4186 229.048 57.7898Z" fill="black"/>
<g clip-path="url(#clip0_1334_11226)">
<path d="M159.886 20.1308C161.345 20.4087 162.619 21.2194 163.499 22.3543C164.333 23.4197 164.843 24.7862 164.843 26.2454C164.843 27.195 164.31 28.6542 163.337 30.4376C163.638 30.9472 163.963 31.503 164.333 32.1052C165.561 29.9744 166.487 27.8204 166.487 26.2454C166.487 24.462 165.931 22.8175 164.982 21.4973C164.078 20.2466 162.851 19.2507 161.392 18.718C160.604 18.3937 159.724 18.2316 158.798 18.2316C154.536 18.2316 151.085 21.8216 151.085 26.2454C151.085 29.4648 154.953 35.0467 157.246 38.0809C157.616 38.5904 158.195 38.8683 158.798 38.8683C159.4 38.8683 159.979 38.5904 160.35 38.0809C160.836 37.4555 161.369 36.7143 161.948 35.9037C161.6 35.3941 161.276 34.8846 160.952 34.375C160.373 35.2088 159.747 36.0658 159.076 36.9691C158.96 37.1312 158.682 37.1312 158.543 36.9691C154.907 32.1747 152.753 28.1678 152.753 26.2454C152.753 22.8175 155.462 20.015 158.798 20.015C159.168 20.015 159.516 20.0613 159.886 20.1308Z" fill="#D37728"/>
<path d="M163.407 35.9037C163.963 36.7143 164.519 37.4555 165.005 38.0809C165.376 38.5904 165.955 38.8683 166.557 38.8683C167.159 38.8683 167.738 38.5904 168.109 38.0809C170.379 35.0467 174.246 29.4417 174.246 26.2454C174.246 21.8216 170.795 18.2316 166.534 18.2316C165.607 18.2316 164.727 18.3937 163.917 18.718C164.472 19.1349 165.005 19.5981 165.445 20.1308C165.793 20.0613 166.163 20.015 166.534 20.015C169.869 20.015 172.579 22.7944 172.579 26.2454C172.579 28.1678 170.425 32.1747 166.789 36.9691C166.673 37.1312 166.395 37.1312 166.256 36.9691C165.584 36.0658 164.959 35.2088 164.38 34.375C163.407 32.939 162.573 31.6188 161.948 30.4376C160.975 28.631 160.465 27.1719 160.465 26.2454C160.465 24.7631 160.975 23.4197 161.809 22.3543C161.369 21.9837 160.859 21.7058 160.303 21.4973C159.354 22.8175 158.798 24.462 158.798 26.2454C158.798 27.8204 159.724 29.9744 160.952 32.1052C161.716 33.4254 162.573 34.7225 163.407 35.9037Z" fill="#D37728"/>
<path d="M186.684 24.6477V31.1792C186.684 34.1902 185.086 35.7652 182.006 35.7652C178.902 35.7652 177.42 34.2134 177.42 31.1561V24.5551C177.42 24.1382 177.744 23.7676 178.231 23.7676C178.74 23.7676 179.088 24.1382 179.088 24.5551V31.1097C179.088 33.3564 180.014 34.2828 182.006 34.2828C183.975 34.2828 185.017 33.4027 185.017 31.1561V24.6477C185.017 24.1613 185.364 23.7676 185.827 23.7676C186.337 23.7676 186.684 24.1613 186.684 24.6477Z" fill="#394053"/>
<path d="M196.203 31.5267C196.203 34.2829 194.697 35.7653 192.011 35.7653C191.316 35.7653 190.737 35.6494 190.274 35.4873V37.9193C190.274 38.3362 189.973 38.6836 189.463 38.6836C188.977 38.6836 188.652 38.3362 188.652 37.9193V28.2378C188.652 27.8209 188.953 27.543 189.347 27.543C189.787 27.543 189.996 27.8209 190.042 28.2378L190.088 28.8632C190.575 28.0988 191.409 27.543 192.659 27.543C194.86 27.543 196.203 28.8168 196.203 31.5267ZM194.582 31.6194C194.582 29.7433 193.748 28.9327 192.381 28.9327C191.154 28.9327 190.274 29.7896 190.274 30.9014H190.25V34.0513C190.691 34.2366 191.223 34.4219 191.918 34.4219C193.563 34.3987 194.582 33.5881 194.582 31.6194Z" fill="#394053"/>
<path d="M207.668 26.8944C207.668 27.3344 207.344 27.566 206.973 27.566C206.557 27.566 206.371 27.4271 206.255 27.0565C206.001 26.4775 205.491 25.2267 203.476 25.2267C201.206 25.2267 199.724 26.6627 199.724 29.6274C199.724 32.731 201.322 34.2597 203.916 34.2597C205.236 34.2597 206.07 33.8659 206.464 33.727C206.626 33.6806 206.765 33.6343 206.95 33.6343C207.344 33.6343 207.599 33.9354 207.599 34.306C207.599 34.6997 207.437 34.885 207.136 35.0703C206.394 35.4872 205.005 35.7652 203.731 35.7652C200.21 35.7652 198.033 33.6806 198.033 29.7432C198.033 25.8753 200.164 23.7676 203.43 23.7676C206.371 23.7676 207.668 25.5047 207.668 26.8944Z" fill="#394053"/>
<path d="M209.405 25.0875C209.405 24.4621 209.845 23.9989 210.448 23.9989C211.073 23.9989 211.49 24.4621 211.49 25.0875C211.49 25.7128 211.073 26.1761 210.448 26.1761C209.845 26.1761 209.405 25.7128 209.405 25.0875ZM211.212 28.2606V34.9774C211.212 35.3943 210.911 35.7417 210.401 35.7417C209.915 35.7417 209.591 35.3943 209.591 34.9774V28.2606C209.591 27.8437 209.915 27.4963 210.401 27.4963C210.888 27.5194 211.212 27.8437 211.212 28.2606Z" fill="#394053"/>
<path d="M215.752 29.0013V33.3093C215.752 34.12 216.122 34.3284 216.678 34.3284C216.817 34.3284 216.956 34.3052 217.234 34.2821C217.697 34.2126 217.929 34.56 217.929 34.9074C217.929 35.2317 217.744 35.556 217.35 35.6254C217.026 35.6718 216.655 35.7181 216.285 35.7181C214.872 35.7181 214.177 35.2085 214.177 33.4251V29.0013H213.366C213.019 29.0013 212.718 28.7234 212.718 28.3296C212.718 27.9127 213.019 27.6579 213.366 27.6579H214.177V26.1061C214.177 25.6892 214.501 25.3418 214.988 25.3418C215.474 25.3418 215.775 25.6892 215.775 26.1061V27.6579H217.304C217.674 27.6579 217.952 27.9127 217.952 28.3296C217.952 28.7234 217.674 29.0013 217.304 29.0013H215.752Z" fill="#394053"/>
<path d="M226.383 28.1911C226.383 28.33 226.336 28.4922 226.267 28.6311L222.839 36.8071C222.26 38.1736 221.403 38.6368 220.152 38.6368C219.874 38.6368 219.735 38.6137 219.62 38.6137C219.203 38.5673 218.948 38.3126 218.948 37.9188C218.948 37.5482 219.179 37.224 219.596 37.2471C219.712 37.2471 219.828 37.2703 220.083 37.2703C220.87 37.2703 221.333 37.0155 221.565 36.3902L221.912 35.51L218.948 28.6543C218.878 28.5153 218.832 28.3532 218.832 28.2142C218.832 27.751 219.203 27.4962 219.596 27.4962C219.897 27.4962 220.222 27.6815 220.361 28.0289L222.677 33.6108L224.9 28.0058C225.039 27.6583 225.317 27.5194 225.665 27.5194C225.989 27.4962 226.383 27.7278 226.383 28.1911Z" fill="#394053"/>
<path d="M230.714 28.538C230.714 28.6538 230.644 28.7233 230.529 28.7233C230.413 28.7233 230.343 28.6538 230.343 28.538L230.32 27.4957L229.903 28.4222C229.857 28.5148 229.787 28.5612 229.718 28.5612C229.648 28.5612 229.579 28.5148 229.533 28.4453L229.093 27.4726L229.069 28.538C229.069 28.6538 229 28.7233 228.884 28.7233C228.768 28.7233 228.699 28.6538 228.699 28.538L228.722 27.3568H228.143V28.538C228.143 28.6538 228.073 28.7233 227.958 28.7233C227.842 28.7233 227.772 28.6538 227.772 28.538V27.3568H227.355C227.263 27.3568 227.193 27.2873 227.193 27.1946C227.193 27.102 227.263 27.0557 227.355 27.0557H228.907C229.093 27.0557 229.232 27.1483 229.324 27.2873L229.695 28.1211L230.089 27.2641C230.158 27.1251 230.274 27.0557 230.39 27.0557C230.552 27.0557 230.668 27.1715 230.668 27.3568L230.714 28.538Z" fill="#394053"/>
</g>
<path d="M164.834 73.133C164.834 73.2497 164.773 73.3664 164.652 73.4831L162.107 75.933L162.709 79.4914C162.714 79.4914 162.716 79.5497 162.716 79.6081C162.716 79.7247 162.69 79.783 162.639 79.8413C162.592 79.8997 162.522 79.9581 162.429 79.9581C162.34 79.9581 162.247 79.9581 162.149 79.8997L159 78.2081L155.852 79.8997C155.749 79.9581 155.656 79.9581 155.572 79.9581C155.474 79.9581 155.399 79.8997 155.347 79.8413C155.301 79.783 155.277 79.7247 155.277 79.6081C155.277 79.6081 155.282 79.5497 155.291 79.4914L155.894 75.933L153.342 73.4831C153.225 73.3664 153.167 73.2497 153.167 73.133C153.167 72.958 153.298 72.8413 153.56 72.8413L157.079 72.3164L158.657 69.1081C158.745 68.9331 158.86 68.8164 159 68.8164C159.14 68.8164 159.255 68.9331 159.344 69.1081L160.921 72.3164L164.441 72.8413C164.703 72.8413 164.834 72.958 164.834 73.133Z" fill="#F1C40F"/>
<path d="M180.834 73.133C180.834 73.2497 180.773 73.3664 180.652 73.4831L178.107 75.933L178.709 79.4914C178.714 79.4914 178.716 79.5497 178.716 79.6081C178.716 79.7247 178.69 79.783 178.639 79.8413C178.592 79.8997 178.522 79.9581 178.429 79.9581C178.34 79.9581 178.247 79.9581 178.149 79.8997L175 78.2081L171.852 79.8997C171.749 79.9581 171.656 79.9581 171.572 79.9581C171.474 79.9581 171.399 79.8997 171.347 79.8413C171.301 79.783 171.277 79.7247 171.277 79.6081C171.277 79.6081 171.282 79.5497 171.291 79.4914L171.894 75.933L169.342 73.4831C169.225 73.3664 169.167 73.2497 169.167 73.133C169.167 72.958 169.298 72.8413 169.56 72.8413L173.079 72.3164L174.657 69.1081C174.745 68.9331 174.86 68.8164 175 68.8164C175.14 68.8164 175.255 68.9331 175.344 69.1081L176.921 72.3164L180.441 72.8413C180.703 72.8413 180.834 72.958 180.834 73.133Z" fill="#F1C40F"/>
<path d="M196.834 73.133C196.834 73.2497 196.773 73.3664 196.652 73.4831L194.107 75.933L194.709 79.4914C194.714 79.4914 194.716 79.5497 194.716 79.6081C194.716 79.7247 194.69 79.783 194.639 79.8413C194.592 79.8997 194.522 79.9581 194.429 79.9581C194.34 79.9581 194.247 79.9581 194.149 79.8997L191 78.2081L187.852 79.8997C187.749 79.9581 187.656 79.9581 187.572 79.9581C187.474 79.9581 187.399 79.8997 187.347 79.8413C187.301 79.783 187.277 79.7247 187.277 79.6081C187.277 79.6081 187.282 79.5497 187.291 79.4914L187.894 75.933L185.342 73.4831C185.225 73.3664 185.167 73.2497 185.167 73.133C185.167 72.958 185.298 72.8413 185.56 72.8413L189.079 72.3164L190.657 69.1081C190.745 68.9331 190.86 68.8164 191 68.8164C191.14 68.8164 191.255 68.9331 191.344 69.1081L192.921 72.3164L196.441 72.8413C196.703 72.8413 196.834 72.958 196.834 73.133Z" fill="#F1C40F"/>
<path d="M212.834 73.133C212.834 73.2497 212.773 73.3664 212.652 73.4831L210.107 75.933L210.709 79.4914C210.714 79.4914 210.716 79.5497 210.716 79.6081C210.716 79.7247 210.69 79.783 210.639 79.8413C210.592 79.8997 210.522 79.9581 210.429 79.9581C210.34 79.9581 210.247 79.9581 210.149 79.8997L207 78.2081L203.852 79.8997C203.749 79.9581 203.656 79.9581 203.572 79.9581C203.474 79.9581 203.399 79.8997 203.347 79.8413C203.301 79.783 203.277 79.7247 203.277 79.6081C203.277 79.6081 203.282 79.5497 203.291 79.4914L203.894 75.933L201.342 73.4831C201.225 73.3664 201.167 73.2497 201.167 73.133C201.167 72.958 201.298 72.8413 201.56 72.8413L205.079 72.3164L206.657 69.1081C206.745 68.9331 206.86 68.8164 207 68.8164C207.14 68.8164 207.255 68.9331 207.344 69.1081L208.921 72.3164L212.441 72.8413C212.703 72.8413 212.834 72.958 212.834 73.133Z" fill="#F1C40F"/>
<path d="M228.834 73.133C228.834 73.2497 228.773 73.3664 228.652 73.4831L226.107 75.933L226.709 79.4914C226.714 79.4914 226.716 79.5497 226.716 79.6081C226.716 79.7247 226.69 79.783 226.639 79.8413C226.592 79.8997 226.522 79.9581 226.429 79.9581C226.34 79.9581 226.247 79.9581 226.149 79.8997L223 78.2081L219.852 79.8997C219.749 79.9581 219.656 79.9581 219.572 79.9581C219.474 79.9581 219.399 79.8997 219.347 79.8413C219.301 79.783 219.277 79.7247 219.277 79.6081C219.277 79.6081 219.282 79.5497 219.291 79.4914L219.894 75.933L217.342 73.4831C217.225 73.3664 217.167 73.2497 217.167 73.133C217.167 72.958 217.298 72.8413 217.56 72.8413L221.079 72.3164L222.657 69.1081C222.745 68.9331 222.86 68.8164 223 68.8164C223.14 68.8164 223.255 68.9331 223.344 69.1081L224.921 72.3164L228.441 72.8413C228.703 72.8413 228.834 72.958 228.834 73.133Z" fill="#F1C40F"/>
<path d="M313.042 27V17.5124H316.424C317.159 17.5124 317.769 17.639 318.254 17.8923C318.742 18.1455 319.106 18.4961 319.347 18.9439C319.588 19.3886 319.709 19.9028 319.709 20.4865C319.709 21.0672 319.587 21.5783 319.343 22.0199C319.102 22.4585 318.737 22.7998 318.249 23.0437C317.765 23.2877 317.155 23.4097 316.42 23.4097H313.858V22.1774H316.29C316.753 22.1774 317.13 22.111 317.42 21.9782C317.714 21.8454 317.928 21.6524 318.064 21.3992C318.2 21.1459 318.268 20.8417 318.268 20.4865C318.268 20.1283 318.198 19.8179 318.059 19.5554C317.924 19.2929 317.709 19.0921 317.416 18.9531C317.125 18.8111 316.744 18.74 316.271 18.74H314.474V27H313.042ZM317.726 22.7195L320.07 27H318.439L316.142 22.7195H317.726ZM322.755 27V17.5124H328.703V18.7447H324.187V21.6354H328.393V22.8631H324.187V25.7677H328.759V27H322.755ZM332.749 17.5124L335.39 25.2396H335.496L338.137 17.5124H339.684L336.27 27H334.616L331.202 17.5124H332.749ZM343.79 17.5124V27H342.359V17.5124H343.79ZM347.18 27V17.5124H353.128V18.7447H348.611V21.6354H352.818V22.8631H348.611V25.7677H353.184V27H347.18ZM358.202 27L355.571 17.5124H357.077L358.925 24.8597H359.013L360.936 17.5124H362.427L364.35 24.8644H364.438L366.282 17.5124H367.792L365.156 27H363.715L361.718 19.8936H361.644L359.648 27H358.202ZM373.473 27H370.402V17.5124H373.57C374.5 17.5124 375.298 17.7023 375.965 18.0822C376.632 18.459 377.144 19.001 377.499 19.7083C377.857 20.4124 378.036 21.2571 378.036 22.2423C378.036 23.2306 377.855 24.0799 377.494 24.7902C377.136 25.5006 376.617 26.0472 375.938 26.4302C375.258 26.8101 374.437 27 373.473 27ZM371.833 25.7492H373.394C374.117 25.7492 374.718 25.6133 375.196 25.3415C375.675 25.0667 376.033 24.6698 376.271 24.1509C376.509 23.629 376.628 22.9928 376.628 22.2423C376.628 21.498 376.509 20.8664 376.271 20.3476C376.036 19.8287 375.686 19.4349 375.22 19.1662C374.753 18.8975 374.174 18.7632 373.482 18.7632H371.833V25.7492ZM394.119 22.2562C394.119 23.2692 393.934 24.1401 393.563 24.869C393.193 25.5948 392.685 26.1538 392.039 26.546C391.397 26.9351 390.666 27.1297 389.848 27.1297C389.026 27.1297 388.293 26.9351 387.647 26.546C387.005 26.1538 386.499 25.5932 386.128 24.8644C385.757 24.1355 385.572 23.2661 385.572 22.2562C385.572 21.2432 385.757 20.3738 386.128 19.648C386.499 18.9192 387.005 18.3602 387.647 17.971C388.293 17.5788 389.026 17.3827 389.848 17.3827C390.666 17.3827 391.397 17.5788 392.039 17.971C392.685 18.3602 393.193 18.9192 393.563 19.648C393.934 20.3738 394.119 21.2432 394.119 22.2562ZM392.702 22.2562C392.702 21.4841 392.577 20.834 392.326 20.3059C392.079 19.7747 391.74 19.3732 391.307 19.1014C390.878 18.8265 390.391 18.6891 389.848 18.6891C389.301 18.6891 388.813 18.8265 388.384 19.1014C387.955 19.3732 387.615 19.7747 387.365 20.3059C387.118 20.834 386.994 21.4841 386.994 22.2562C386.994 23.0283 387.118 23.68 387.365 24.2112C387.615 24.7393 387.955 25.1408 388.384 25.4156C388.813 25.6874 389.301 25.8233 389.848 25.8233C390.391 25.8233 390.878 25.6874 391.307 25.4156C391.74 25.1408 392.079 24.7393 392.326 24.2112C392.577 23.68 392.702 23.0283 392.702 22.2562ZM404.866 17.5124V27H403.551L398.728 20.0418H398.64V27H397.208V17.5124H398.533L403.361 24.4799H403.449V17.5124H404.866Z" fill="black" fill-opacity="0.5"/>
<path d="M334.466 45.7642H339.273V75.4786H334.466V45.7642Z" fill="#17313B"/>
<path d="M355.995 66.0612C355.995 70.6649 352.232 71.0834 350.978 71.0834C348.052 71.0834 347.634 68.3631 347.634 66.8983V55.3892H342.826V66.689C342.826 69.4093 343.662 71.9204 345.334 73.3852C346.798 74.85 348.679 75.4778 350.978 75.4778C352.65 75.4778 354.741 75.0593 355.995 73.8037V75.4778H360.802V55.3892H355.995V66.0612Z" fill="#17313B"/>
<path d="M370.209 48.0663H365.401V55.3903H361.848V59.9939H365.401V75.4789H370.209V59.9939H373.762V55.3903H370.209V48.0663Z" fill="#17313B"/>
<path d="M388.811 69.4101C387.766 70.2471 386.303 70.8749 384.84 70.8749C381.495 70.8749 379.196 68.3638 379.196 65.0157C379.196 61.6676 381.495 59.3658 384.84 59.3658C386.303 59.3658 387.766 59.7843 388.811 60.8306L389.438 61.4584L392.783 58.3195L391.947 57.6918C390.065 56.0177 387.557 54.9714 384.84 54.9714C378.987 54.9714 374.598 59.3658 374.598 65.225C374.598 71.0842 378.987 75.4785 384.84 75.4785C387.557 75.4785 390.065 74.4323 391.947 72.7582L392.783 72.1305L389.438 68.7823L388.811 69.4101Z" fill="#17313B"/>
<path d="M409.714 57.064C408.251 55.5992 406.787 54.9714 404.488 54.9714C402.816 54.9714 401.144 55.3899 399.89 56.6455V45.7642H395.082V75.4786H399.89V64.388C399.89 59.7843 403.025 59.3658 404.279 59.3658C407.205 59.3658 406.996 62.0862 406.996 63.5509V75.2693H411.804V63.7602C411.804 61.0399 411.177 58.5288 409.714 57.064Z" fill="#17313B"/>
<path d="M384.632 68.5738C386.479 68.5738 387.976 67.0748 387.976 65.2257C387.976 63.3766 386.479 61.8776 384.632 61.8776C382.784 61.8776 381.287 63.3766 381.287 65.2257C381.287 67.0748 382.784 68.5738 384.632 68.5738Z" fill="#EF4335"/>
<path d="M327.776 68.1546C326.104 69.8287 323.596 70.875 320.879 70.875C315.653 70.875 311.891 66.6899 311.891 61.0399C311.891 55.39 315.653 51.2049 321.088 51.2049C323.596 51.2049 326.104 52.2512 327.985 54.1345L328.612 54.7622L331.748 51.6234L331.121 50.9956C328.403 48.2753 324.85 46.8105 321.088 46.8105C313.145 46.6012 307.292 52.8789 307.292 61.0399C307.292 69.2009 313.145 75.4786 320.879 75.4786C324.641 75.4786 328.403 74.0138 330.912 71.2935L331.539 70.6657L328.403 67.5269L327.776 68.1546Z" fill="#17313B"/>
<path d="M442.918 59.4545V74H440.716V61.6562H440.631L437.151 63.929V61.8267L440.78 59.4545H442.918ZM452.716 74.2415C451.594 74.2367 450.635 73.9408 449.84 73.3537C449.044 72.7666 448.436 71.9119 448.014 70.7898C447.593 69.6676 447.382 68.3158 447.382 66.7344C447.382 65.1577 447.593 63.8106 448.014 62.6932C448.441 61.5758 449.051 60.7235 449.847 60.1364C450.647 59.5492 451.604 59.2557 452.716 59.2557C453.829 59.2557 454.783 59.5516 455.578 60.1435C456.374 60.7306 456.982 61.5829 457.404 62.7003C457.83 63.813 458.043 65.1577 458.043 66.7344C458.043 68.3205 457.832 69.6747 457.411 70.7969C456.989 71.9143 456.381 72.7689 455.586 73.3608C454.79 73.9479 453.834 74.2415 452.716 74.2415ZM452.716 72.3452C453.701 72.3452 454.47 71.8646 455.024 70.9034C455.583 69.9422 455.863 68.5526 455.863 66.7344C455.863 65.527 455.735 64.5066 455.479 63.6733C455.228 62.8352 454.866 62.2008 454.392 61.7699C453.924 61.3343 453.365 61.1165 452.716 61.1165C451.736 61.1165 450.967 61.5994 450.408 62.5653C449.849 63.5312 449.568 64.9209 449.563 66.7344C449.563 67.9465 449.688 68.9716 449.939 69.8097C450.195 70.643 450.557 71.2751 451.026 71.706C451.495 72.1321 452.058 72.3452 452.716 72.3452ZM466.426 74.2415C465.304 74.2367 464.345 73.9408 463.55 73.3537C462.754 72.7666 462.146 71.9119 461.725 70.7898C461.303 69.6676 461.093 68.3158 461.093 66.7344C461.093 65.1577 461.303 63.8106 461.725 62.6932C462.151 61.5758 462.762 60.7235 463.557 60.1364C464.357 59.5492 465.314 59.2557 466.426 59.2557C467.539 59.2557 468.493 59.5516 469.289 60.1435C470.084 60.7306 470.692 61.5829 471.114 62.7003C471.54 63.813 471.753 65.1577 471.753 66.7344C471.753 68.3205 471.542 69.6747 471.121 70.7969C470.7 71.9143 470.091 72.7689 469.296 73.3608C468.5 73.9479 467.544 74.2415 466.426 74.2415ZM466.426 72.3452C467.411 72.3452 468.181 71.8646 468.735 70.9034C469.293 69.9422 469.573 68.5526 469.573 66.7344C469.573 65.527 469.445 64.5066 469.189 63.6733C468.938 62.8352 468.576 62.2008 468.102 61.7699C467.634 61.3343 467.075 61.1165 466.426 61.1165C465.446 61.1165 464.677 61.5994 464.118 62.5653C463.559 63.5312 463.278 64.9209 463.273 66.7344C463.273 67.9465 463.398 68.9716 463.649 69.8097C463.905 70.643 464.267 71.2751 464.736 71.706C465.205 72.1321 465.768 72.3452 466.426 72.3452ZM481.364 74V59.4545H486.549C487.676 59.4545 488.611 59.6487 489.354 60.0369C490.103 60.4252 490.661 60.9626 491.031 61.6491C491.4 62.331 491.585 63.1193 491.585 64.0142C491.585 64.9044 491.398 65.688 491.024 66.3651C490.654 67.0374 490.095 67.5606 489.347 67.9347C488.604 68.3087 487.669 68.4957 486.542 68.4957H482.614V66.6065H486.343C487.053 66.6065 487.631 66.5047 488.076 66.3011C488.526 66.0975 488.855 65.8016 489.063 65.4134C489.272 65.0251 489.376 64.5587 489.376 64.0142C489.376 63.465 489.269 62.9891 489.056 62.5866C488.848 62.1842 488.519 61.8764 488.069 61.6634C487.624 61.4455 487.039 61.3366 486.315 61.3366H483.559V74H481.364ZM488.545 67.4375L492.139 74H489.639L486.116 67.4375H488.545ZM495.055 74V59.4545H504.174V61.3438H497.25V65.7756H503.699V67.6577H497.25V72.1108H504.26V74H495.055ZM509.177 59.4545L513.225 71.3011H513.389L517.437 59.4545H519.809L514.575 74H512.039L506.805 59.4545H509.177ZM524.904 59.4545V74H522.71V59.4545H524.904ZM528.9 74V59.4545H538.02V61.3438H531.095V65.7756H537.544V67.6577H531.095V72.1108H538.105V74H528.9ZM544.599 74L540.565 59.4545H542.873L545.707 70.7188H545.842L548.789 59.4545H551.076L554.024 70.7259H554.159L556.986 59.4545H559.301L555.26 74H553.051L549.99 63.1051H549.876L546.815 74H544.599ZM569.996 63.2756C569.92 62.6032 569.608 62.0824 569.059 61.7131C568.509 61.339 567.818 61.152 566.985 61.152C566.388 61.152 565.872 61.2467 565.436 61.4361C565.001 61.6207 564.662 61.8764 564.421 62.2031C564.184 62.5251 564.066 62.892 564.066 63.304C564.066 63.6496 564.146 63.9479 564.307 64.1989C564.473 64.4498 564.688 64.6605 564.953 64.831C565.223 64.9967 565.512 65.1364 565.82 65.25C566.128 65.3589 566.424 65.4489 566.708 65.5199L568.128 65.8892C568.592 66.0028 569.068 66.1567 569.556 66.3509C570.043 66.545 570.496 66.8007 570.912 67.1179C571.329 67.4351 571.665 67.8281 571.921 68.2969C572.181 68.7656 572.311 69.3267 572.311 69.9801C572.311 70.804 572.098 71.5355 571.672 72.1747C571.251 72.8139 570.638 73.3182 569.833 73.6875C569.033 74.0568 568.064 74.2415 566.928 74.2415C565.839 74.2415 564.897 74.0687 564.101 73.723C563.306 73.3774 562.683 72.8873 562.233 72.2528C561.783 71.6136 561.535 70.8561 561.488 69.9801H563.689C563.732 70.5057 563.902 70.9437 564.201 71.294C564.504 71.6397 564.89 71.8977 565.358 72.0682C565.832 72.2339 566.35 72.3168 566.914 72.3168C567.534 72.3168 568.086 72.2197 568.569 72.0256C569.056 71.8267 569.44 71.5521 569.719 71.2017C569.998 70.8466 570.138 70.4323 570.138 69.9588C570.138 69.5279 570.015 69.1752 569.769 68.9006C569.527 68.6259 569.198 68.3987 568.782 68.2188C568.37 68.0388 567.903 67.8802 567.382 67.7429L565.664 67.2741C564.499 66.9569 563.576 66.4905 562.894 65.875C562.217 65.2595 561.878 64.4451 561.878 63.4318C561.878 62.5937 562.105 61.8622 562.56 61.2372C563.015 60.6122 563.63 60.1269 564.407 59.7812C565.183 59.4309 566.059 59.2557 567.034 59.2557C568.019 59.2557 568.888 59.4285 569.641 59.7741C570.399 60.1198 570.995 60.5956 571.431 61.2017C571.866 61.803 572.094 62.4943 572.113 63.2756H569.996Z" fill="black" fill-opacity="0.5"/>
<path d="M458.705 21.0817C458.705 21.2881 458.598 21.4946 458.383 21.701L453.881 26.0356L454.947 32.331C454.955 32.331 454.959 32.4343 454.959 32.5375C454.959 32.7439 454.914 32.847 454.823 32.9502C454.74 33.0535 454.616 33.1567 454.45 33.1567C454.293 33.1567 454.128 33.1568 453.955 33.0536L448.385 30.0606L442.815 33.0536C442.633 33.1568 442.468 33.1567 442.319 33.1567C442.145 33.1567 442.013 33.0535 441.922 32.9502C441.839 32.847 441.798 32.7439 441.798 32.5375C441.798 32.5375 441.806 32.4342 441.823 32.331L442.89 26.0356L438.375 21.701C438.168 21.4946 438.064 21.2881 438.064 21.0817C438.064 20.772 438.296 20.5656 438.759 20.5656L444.986 19.6369L447.777 13.9606C447.934 13.651 448.137 13.4446 448.385 13.4446C448.633 13.4446 448.836 13.651 448.993 13.9606L451.784 19.6369L458.011 20.5656C458.474 20.5656 458.705 20.772 458.705 21.0817Z" fill="#EE5125"/>
<path d="M487.012 21.0817C487.012 21.2881 486.905 21.4946 486.69 21.701L482.187 26.0356L483.253 32.331C483.262 32.331 483.266 32.4343 483.266 32.5375C483.266 32.7439 483.22 32.847 483.13 32.9502C483.047 33.0535 482.923 33.1567 482.757 33.1567C482.6 33.1567 482.435 33.1568 482.262 33.0536L476.692 30.0606L471.122 33.0536C470.94 33.1568 470.775 33.1567 470.626 33.1567C470.452 33.1567 470.32 33.0535 470.229 32.9502C470.146 32.847 470.105 32.7439 470.105 32.5375C470.105 32.5375 470.113 32.4342 470.13 32.331L471.196 26.0356L466.681 21.701C466.475 21.4946 466.371 21.2881 466.371 21.0817C466.371 20.772 466.603 20.5656 467.066 20.5656L473.293 19.6369L476.084 13.9606C476.241 13.651 476.444 13.4446 476.692 13.4446C476.939 13.4446 477.143 13.651 477.299 13.9606L480.09 19.6369L486.318 20.5656C486.781 20.5656 487.012 20.772 487.012 21.0817Z" fill="#EE5125"/>
<path d="M515.321 21.0817C515.321 21.2881 515.213 21.4946 514.999 21.701L510.496 26.0356L511.562 32.331C511.57 32.331 511.574 32.4343 511.574 32.5375C511.574 32.7439 511.529 32.847 511.438 32.9502C511.356 33.0535 511.232 33.1567 511.066 33.1567C510.909 33.1567 510.744 33.1568 510.57 33.0536L505 30.0606L499.431 33.0536C499.249 33.1568 499.083 33.1567 498.934 33.1567C498.761 33.1567 498.628 33.0535 498.537 32.9502C498.455 32.847 498.413 32.7439 498.413 32.5375C498.413 32.5375 498.422 32.4342 498.438 32.331L499.505 26.0356L494.99 21.701C494.783 21.4946 494.68 21.2881 494.68 21.0817C494.68 20.772 494.911 20.5656 495.374 20.5656L501.601 19.6369L504.392 13.9606C504.549 13.651 504.753 13.4446 505 13.4446C505.248 13.4446 505.451 13.651 505.608 13.9606L508.399 19.6369L514.626 20.5656C515.09 20.5656 515.321 20.772 515.321 21.0817Z" fill="#EE5125"/>
<path d="M543.629 21.0817C543.629 21.2881 543.522 21.4946 543.307 21.701L538.804 26.0356L539.871 32.331C539.879 32.331 539.883 32.4343 539.883 32.5375C539.883 32.7439 539.838 32.847 539.747 32.9502C539.664 33.0535 539.54 33.1567 539.374 33.1567C539.217 33.1567 539.052 33.1568 538.879 33.0536L533.309 30.0606L527.739 33.0536C527.557 33.1568 527.392 33.1567 527.243 33.1567C527.069 33.1567 526.937 33.0535 526.846 32.9502C526.763 32.847 526.722 32.7439 526.722 32.5375C526.722 32.5375 526.73 32.4342 526.747 32.331L527.814 26.0356L523.298 21.701C523.092 21.4946 522.988 21.2881 522.988 21.0817C522.988 20.772 523.22 20.5656 523.683 20.5656L529.91 19.6369L532.701 13.9606C532.858 13.651 533.061 13.4446 533.309 13.4446C533.556 13.4446 533.76 13.651 533.917 13.9606L536.707 19.6369L542.935 20.5656C543.398 20.5656 543.629 20.772 543.629 21.0817Z" fill="#EE5125"/>
<path d="M571.936 21.0817C571.936 21.2881 571.829 21.4946 571.614 21.701L567.111 26.0356L568.177 32.331C568.185 32.331 568.19 32.4343 568.19 32.5375C568.19 32.7439 568.144 32.847 568.053 32.9502C567.971 33.0535 567.847 33.1567 567.681 33.1567C567.524 33.1567 567.359 33.1568 567.185 33.0536L561.615 30.0606L556.046 33.0536C555.864 33.1568 555.698 33.1567 555.55 33.1567C555.376 33.1567 555.244 33.0535 555.153 32.9502C555.07 32.847 555.029 32.7439 555.029 32.5375C555.029 32.5375 555.037 32.4342 555.053 32.331L556.12 26.0356L551.605 21.701C551.398 21.4946 551.295 21.2881 551.295 21.0817C551.295 20.772 551.527 20.5656 551.99 20.5656L558.217 19.6369L561.008 13.9606C561.164 13.651 561.368 13.4446 561.615 13.4446C561.863 13.4446 562.066 13.651 562.223 13.9606L565.014 19.6369L571.241 20.5656C571.705 20.5656 571.936 20.772 571.936 21.0817Z" fill="#EE5125"/>
<defs>
<clipPath id="clip0_1334_11226">
<rect width="80.092" height="21.1" fill="white" transform="translate(150.854 18)"/>
</clipPath>
</defs>
</svg>
