<svg width="106" height="70" viewBox="0 0 106 70" fill="none" xmlns="http://www.w3.org/2000/svg">
<path d="M7.04234 15V5.5124H10.4242C11.1592 5.5124 11.7692 5.63902 12.254 5.89227C12.742 6.14552 13.1064 6.49605 13.3473 6.94387C13.5882 7.38861 13.7087 7.90283 13.7087 8.48654C13.7087 9.06716 13.5867 9.57829 13.3427 10.0199C13.1018 10.4585 12.7374 10.7998 12.2494 11.0437C11.7645 11.2877 11.1546 11.4097 10.4195 11.4097H7.85768V10.1774H10.2898C10.7531 10.1774 11.1299 10.111 11.4202 9.97824C11.7136 9.84544 11.9282 9.65241 12.0641 9.39916C12.2 9.14591 12.2679 8.8417 12.2679 8.48654C12.2679 8.12828 12.1984 7.8179 12.0595 7.55538C11.9236 7.29287 11.7089 7.09212 11.4155 6.95314C11.1252 6.81107 10.7438 6.74004 10.2713 6.74004H8.47382V15H7.04234ZM11.7259 10.7195L14.07 15H12.4393L10.1416 10.7195H11.7259ZM16.7551 15V5.5124H22.7034V6.74467H18.1866V9.63543H22.393V10.8631H18.1866V13.7677H22.759V15H16.7551ZM26.7493 5.5124L29.3899 13.2396H29.4964L32.137 5.5124H33.6843L30.2701 15H28.6162L25.202 5.5124H26.7493ZM37.7904 5.5124V15H36.3589V5.5124H37.7904ZM41.1796 15V5.5124H47.1279V6.74467H42.6111V9.63543H46.8175V10.8631H42.6111V13.7677H47.1835V15H41.1796ZM52.2023 15L49.5709 5.5124H51.0765L52.925 12.8597H53.013L54.9355 5.5124H56.4272L58.3498 12.8644H58.4378L60.2816 5.5124H61.7918L59.1558 15H57.7151L55.7184 7.89356H55.6443L53.6476 15H52.2023ZM67.473 15H64.4016V5.5124H67.5703C68.4999 5.5124 69.2983 5.70233 69.9654 6.08221C70.6325 6.45899 71.1436 7.00101 71.4988 7.70826C71.857 8.41242 72.0361 9.2571 72.0361 10.2423C72.0361 11.2306 71.8555 12.0799 71.4941 12.7902C71.1359 13.5006 70.617 14.0472 69.9376 14.4302C69.2581 14.8101 68.4366 15 67.473 15ZM65.8331 13.7492H67.3942C68.1169 13.7492 68.7176 13.6133 69.1963 13.3415C69.675 13.0667 70.0333 12.6698 70.2711 12.1509C70.5089 11.629 70.6278 10.9928 70.6278 10.2423C70.6278 9.49799 70.5089 8.86641 70.2711 8.34756C70.0364 7.8287 69.6859 7.43493 69.2195 7.16624C68.7532 6.89755 68.1741 6.7632 67.4823 6.7632H65.8331V13.7492ZM88.1192 10.2562C88.1192 11.2692 87.9339 12.1401 87.5633 12.869C87.1927 13.5948 86.6846 14.1538 86.0392 14.546C85.3968 14.9351 84.6664 15.1297 83.8479 15.1297C83.0264 15.1297 82.2929 14.9351 81.6474 14.546C81.005 14.1538 80.4985 13.5932 80.1279 12.8644C79.7573 12.1355 79.572 11.2661 79.572 10.2562C79.572 9.2432 79.7573 8.37381 80.1279 7.64803C80.4985 6.91917 81.005 6.36016 81.6474 5.97102C82.2929 5.5788 83.0264 5.38268 83.8479 5.38268C84.6664 5.38268 85.3968 5.5788 86.0392 5.97102C86.6846 6.36016 87.1927 6.91917 87.5633 7.64803C87.9339 8.37381 88.1192 9.2432 88.1192 10.2562ZM86.7016 10.2562C86.7016 9.48409 86.5765 8.83398 86.3264 8.30586C86.0793 7.77466 85.7396 7.37316 85.3072 7.10138C84.8779 6.82652 84.3915 6.68908 83.8479 6.68908C83.3013 6.68908 82.8133 6.82652 82.384 7.10138C81.9547 7.37316 81.615 7.77466 81.3648 8.30586C81.1178 8.83398 80.9942 9.48409 80.9942 10.2562C80.9942 11.0283 81.1178 11.68 81.3648 12.2112C81.615 12.7393 81.9547 13.1408 82.384 13.4156C82.8133 13.6874 83.3013 13.8233 83.8479 13.8233C84.3915 13.8233 84.8779 13.6874 85.3072 13.4156C85.7396 13.1408 86.0793 12.7393 86.3264 12.2112C86.5765 11.68 86.7016 11.0283 86.7016 10.2562ZM98.8662 5.5124V15H97.5505L92.728 8.04181H92.6399V15H91.2085V5.5124H92.5334L97.3606 12.4799H97.4486V5.5124H98.8662Z" fill="black" fill-opacity="0.5"/>
<path d="M28.4658 33.7646H33.2733V63.479H28.4658V33.7646Z" fill="#17313B"/>
<path d="M49.9953 54.0617C49.9953 58.6654 46.2329 59.0839 44.9787 59.0839C42.0524 59.0839 41.6343 56.3635 41.6343 54.8987V43.3896H36.8268V54.6895C36.8268 57.4098 37.6629 59.9209 39.3351 61.3857C40.7982 62.8505 42.6795 63.4783 44.9787 63.4783C46.6509 63.4783 48.7412 63.0597 49.9953 61.8042V63.4783H54.8029V43.3896H49.9953V54.0617Z" fill="#17313B"/>
<path d="M64.2089 36.0664H59.4014V43.3904H55.848V47.994H59.4014V63.479H64.2089V47.994H67.7623V43.3904H64.2089V36.0664Z" fill="#17313B"/>
<path d="M82.8122 57.4104C81.7671 58.2474 80.3039 58.8752 78.8407 58.8752C75.4963 58.8752 73.1971 56.3641 73.1971 53.016C73.1971 49.6679 75.4963 47.3661 78.8407 47.3661C80.3039 47.3661 81.7671 47.7846 82.8122 48.8309L83.4393 49.4586L86.7837 46.3198L85.9476 45.692C84.0663 44.018 81.5581 42.9717 78.8407 42.9717C72.9881 42.9717 68.5985 47.3661 68.5985 53.2252C68.5985 59.0844 72.9881 63.4788 78.8407 63.4788C81.5581 63.4788 84.0663 62.4325 85.9476 60.7585L86.7837 60.1307L83.4393 56.7826L82.8122 57.4104Z" fill="#17313B"/>
<path d="M103.714 45.0645C102.251 43.5997 100.788 42.9719 98.4888 42.9719C96.8166 42.9719 95.1444 43.3904 93.8902 44.646V33.7646H89.0827V63.479H93.8902V52.3885C93.8902 47.7848 97.0256 47.3663 98.2797 47.3663C101.206 47.3663 100.997 50.0866 100.997 51.5514V63.2698H105.805V51.7607C105.805 49.0404 105.178 46.5293 103.714 45.0645Z" fill="#17313B"/>
<path d="M78.6316 56.5741C80.4786 56.5741 81.976 55.0751 81.976 53.226C81.976 51.3769 80.4786 49.8779 78.6316 49.8779C76.7845 49.8779 75.2872 51.3769 75.2872 53.226C75.2872 55.0751 76.7845 56.5741 78.6316 56.5741Z" fill="#EF4335"/>
<path d="M21.7768 56.1549C20.1046 57.8289 17.5963 58.8752 14.879 58.8752C9.65336 58.8752 5.89092 54.6901 5.89092 49.0402C5.89092 43.3903 9.65336 39.2051 15.088 39.2051C17.5963 39.2051 20.1046 40.2514 21.9858 42.1347L22.6129 42.7625L25.7482 39.6236L25.1212 38.9959C22.4038 36.2755 18.8504 34.8107 15.088 34.8107C7.14507 34.6015 1.29239 40.8792 1.29239 49.0402C1.29239 57.2012 7.14507 63.4789 14.879 63.4789C18.6414 63.4789 22.4038 62.0141 24.9121 59.2937L25.5392 58.666L22.4038 55.5271L21.7768 56.1549Z" fill="#17313B"/>
</svg>
