<svg width="110" height="110" viewBox="0 0 110 110" fill="none" xmlns="http://www.w3.org/2000/svg">
<path d="M62.3048 40.3907C62.5533 40.4513 62.5533 40.4513 62.8068 40.5131C68.2576 41.8794 72.9898 44.581 77.129 48.3399C77.3116 48.5044 77.4941 48.6689 77.6821 48.8384C83.8014 54.6523 87.0608 62.9337 87.2881 71.293C87.3917 80.368 83.8696 88.1821 77.7736 94.7462C77.6553 94.8761 77.5371 95.006 77.4152 95.1398C73.4476 99.323 67.8166 101.958 62.3048 103.34C62.1543 103.378 62.0037 103.417 61.8486 103.457C57.4579 104.525 52.0675 104.45 47.6955 103.34C47.447 103.279 47.447 103.279 47.1935 103.217C41.7427 101.851 37.0105 99.1496 32.8712 95.3907C32.6887 95.2262 32.5062 95.0617 32.3182 94.8922C26.3423 89.2146 23.0026 81.0811 22.7333 72.8976C22.5531 63.6903 25.9963 55.6933 32.2267 48.9845C32.345 48.8546 32.4632 48.7247 32.5851 48.5909C36.5527 44.4077 42.1837 41.7729 47.6955 40.3907C47.846 40.3522 47.9966 40.3136 48.1517 40.2739C52.5423 39.2057 57.9328 39.2807 62.3048 40.3907ZM36.3087 50.2735C36.0807 50.4621 36.0807 50.4621 35.848 50.6545C34.822 51.5217 33.9317 52.4531 33.0861 53.4962C32.9357 53.6815 32.7853 53.8667 32.6304 54.0576C27.8887 60.1306 25.6764 67.708 26.6025 75.3691C27.3871 81.1469 29.6779 86.5868 33.7289 90.8471C34.1603 91.3087 34.1603 91.3087 34.6001 91.8617C38.5674 96.7892 45.6845 99.5534 51.7775 100.332C55.416 100.531 58.9959 100.461 62.5197 99.4727C62.6636 99.4337 62.8075 99.3946 62.9558 99.3543C66.9424 98.2421 70.5429 96.1091 73.6915 93.4571C73.8552 93.3225 74.0189 93.1879 74.1875 93.0492C75.4806 91.9512 76.5242 90.7156 77.5587 89.3751C77.7 89.1992 77.8412 89.0234 77.9867 88.8422C82.4489 83.0628 84.2736 75.5493 83.398 68.3475C83.1018 66.1756 82.6096 64.1463 81.8556 62.0899C81.7764 61.8709 81.6972 61.6518 81.6156 61.4261C78.8875 54.4177 73.4433 48.8076 66.6017 45.7618C66.4677 45.7012 66.3337 45.6406 66.1956 45.5781C56.2151 41.1222 44.5182 43.3105 36.3087 50.2735Z" fill="#EE5125"/>
<path d="M44.7998 74.5128C45.0477 74.5114 45.2955 74.51 45.5509 74.5085C46.3695 74.5043 47.1881 74.5018 48.0068 74.4996C48.2871 74.4988 48.5674 74.4979 48.8562 74.497C50.187 74.4929 51.5178 74.4898 52.8485 74.4881C54.3789 74.486 55.9091 74.4803 57.4394 74.4716C58.6261 74.4651 59.8129 74.462 60.9997 74.4612C61.7066 74.4607 62.4136 74.4584 63.1205 74.4534C63.9108 74.4482 64.7009 74.4484 65.4911 74.4499C65.7217 74.4471 65.9522 74.4444 66.1898 74.4415C67.8815 74.4531 69.6135 74.6824 70.9437 75.8142C72.0721 76.9928 72.6237 78.2465 72.7247 79.8682C72.6132 83.0345 70.2244 85.9322 68.1056 88.086C67.9422 88.2522 67.7788 88.4183 67.6104 88.5895C64.2221 91.8335 59.6427 93.4331 55.0001 93.5377C50.3439 93.4328 46.0451 91.8197 42.5392 88.7305C42.3622 88.5765 42.1852 88.4226 42.0029 88.2639C39.8068 86.2219 37.4533 82.9989 37.2889 79.8951C37.4836 78.1713 37.9784 76.7827 39.3165 75.6251C41.0354 74.4963 42.8034 74.5178 44.7998 74.5128ZM41.465 78.8477C40.9684 79.4491 40.9684 79.4491 41.0823 80.1074C41.6478 82.378 43.3738 84.6249 45.1173 86.1524C45.2591 86.1524 45.4009 86.1524 45.547 86.1524C45.767 85.9055 45.9754 85.6483 46.1781 85.387C47.8301 83.4545 50.1836 82.3922 52.6368 81.8555C56.5465 81.5503 60.1343 81.999 63.2221 84.6351C64.1464 85.5386 64.1464 85.5386 64.4532 86.1524C66.4527 85.2968 67.9439 82.7722 68.787 80.8526C68.994 80.27 69.0593 79.8904 68.965 79.2774C68.5631 78.7952 68.2369 78.4837 67.6759 78.2032C67.3435 78.182 67.0102 78.1742 66.6772 78.173C66.4666 78.1718 66.2561 78.1706 66.0392 78.1693C65.8074 78.1691 65.5755 78.1688 65.3367 78.1686C65.0932 78.1675 64.8497 78.1664 64.5988 78.1653C63.7902 78.1622 62.9816 78.1607 62.173 78.1595C61.6127 78.1583 61.0523 78.1571 60.4919 78.1558C59.4661 78.1538 58.4402 78.1525 57.4144 78.1519C55.9049 78.1509 54.3954 78.1471 52.8859 78.1409C51.5784 78.1357 50.2709 78.134 48.9634 78.1337C48.4072 78.133 47.851 78.1313 47.2948 78.1285C46.5171 78.1248 45.7395 78.1252 44.9618 78.1266C44.7313 78.1246 44.5008 78.1226 44.2633 78.1206C42.7509 78.112 42.7509 78.112 41.465 78.8477ZM48.7697 87.6563C48.6988 87.869 48.6279 88.0817 48.5548 88.3008C52.1778 89.9574 55.6471 90.2798 59.5118 89.1602C60.1768 88.9085 60.815 88.6294 61.4454 88.3008C60.8221 86.888 59.3993 86.1109 58.0214 85.5347C54.7865 84.5853 51.1697 85.2506 48.7697 87.6563Z" fill="#EE5125"/>
<path d="M56.7926 6.18932C58.291 7.02209 59.111 8.41403 59.62 10.0112C60.0473 11.2022 60.4625 12.2688 61.4453 13.1054C62.8136 13.6495 64.2368 13.8541 65.6947 14.0116C67.4788 14.2095 68.6522 14.4628 69.8242 15.8984C70.5225 16.8585 70.5556 17.7599 70.5963 18.9113C70.2583 20.606 68.9179 21.8541 67.7564 23.0554C67.6129 23.2062 67.4694 23.357 67.3216 23.5124C66.2186 24.6695 66.2186 24.6695 65.7991 25.0067C65.4765 25.3455 65.4765 25.3455 65.5134 25.8639C65.5437 26.0629 65.5741 26.2619 65.6054 26.4669C65.6366 26.6877 65.6677 26.9086 65.6998 27.1362C65.736 27.367 65.7721 27.5978 65.8093 27.8357C66.5341 32.6821 66.5341 32.6821 65.3125 34.375C64.3896 35.3938 63.3844 35.8039 62.0361 35.9594C60.5944 35.8153 59.3972 35.1913 58.1295 34.5168C57.9594 34.4276 57.7893 34.3384 57.6141 34.2465C57.272 34.0658 56.932 33.8811 56.5943 33.6923C55.6425 33.1802 55.6425 33.1802 54.5888 33.1774C54.37 33.289 54.1512 33.4006 53.9258 33.5156C53.7648 33.5938 53.6037 33.6719 53.4378 33.7525C52.8716 34.0291 52.3108 34.3149 51.7505 34.6032C51.3699 34.799 50.9889 34.9941 50.6075 35.1882C50.4402 35.2743 50.2728 35.3605 50.1005 35.4492C48.8905 36.0004 47.6647 36.047 46.3928 35.6506C45.2309 35.1746 44.5885 34.2866 43.9624 33.2336C43.6543 31.9087 43.7891 30.5818 44.0598 29.2607C44.5922 27.0598 44.5922 27.0598 44.2744 24.8914C43.6336 24.0049 42.7732 23.4085 41.8945 22.7734C41.3539 22.2299 40.8647 21.6568 40.3906 21.0547C40.2979 20.9372 40.2051 20.8198 40.1095 20.6988C39.3645 19.6058 39.3773 18.4718 39.5313 17.1875C39.9138 15.9442 40.7876 15.0511 41.8945 14.3945C42.8308 14.1834 43.7695 14.1046 44.7239 14.0127C47.0997 13.773 47.0997 13.773 49.0949 12.5903C49.9245 11.3933 50.4139 10.0952 50.8943 8.729C51.3441 7.66377 52.0665 6.92245 52.9859 6.24387C54.2323 5.85148 55.5414 5.75765 56.7926 6.18932ZM54.5703 9.66794C54.499 9.80976 54.4276 9.95157 54.3541 10.0977C54.0255 10.7478 53.6937 11.3962 53.3618 12.0447C53.2497 12.2677 53.1375 12.4908 53.0219 12.7207C51.3145 16.0406 51.3145 16.0406 49.6767 16.6307C48.5334 16.935 47.3696 17.133 46.2048 17.3352C45.935 17.3835 45.6651 17.4318 45.387 17.4816C44.7244 17.6 44.0616 17.7168 43.3985 17.832C43.2188 18.2157 43.2188 18.2157 43.1836 18.6914C43.4974 19.1367 43.4974 19.1367 43.9708 19.5457C44.1411 19.7077 44.3115 19.8698 44.4869 20.0367C44.8482 20.3703 45.2096 20.7038 45.5712 21.037C46.9521 22.3512 48.0121 23.6074 48.2123 25.5572C48.1919 25.8474 48.1621 26.1371 48.125 26.4258C48.1037 26.6037 48.0824 26.7816 48.0604 26.9649C47.9828 27.5521 47.8946 28.1367 47.8027 28.7219C47.7416 29.1165 47.6812 29.5112 47.6215 29.9061C47.5945 30.0785 47.5675 30.251 47.5396 30.4286C47.4778 30.9608 47.4705 31.4764 47.4805 32.0117C48.11 32.298 48.11 32.298 48.6571 32.0177C48.8651 31.9099 49.0731 31.8021 49.2874 31.6911C49.6332 31.517 49.6332 31.517 49.986 31.3395C50.4677 31.0921 50.9489 30.8437 51.4295 30.5942C52.9822 29.8155 54.4245 29.0983 56.1754 29.5794C56.7299 29.7921 57.2586 30.0339 57.793 30.2929C58.1711 30.4647 58.5493 30.6361 58.9276 30.8074C59.4958 31.0698 60.0632 31.3337 60.6296 31.6001C60.8124 31.6841 60.9952 31.7682 61.1835 31.8548C61.3476 31.9314 61.5117 32.0081 61.6807 32.0871C61.8157 32.1331 61.9508 32.1791 62.0899 32.2265C62.2317 32.1556 62.3735 32.0847 62.5195 32.0117C62.4229 30.6233 62.286 29.2522 62.0764 27.876C61.7731 25.7482 61.7735 24.4292 62.9492 22.5586C63.5759 21.8373 64.2612 21.1915 64.9634 20.5444C65.321 20.2141 65.6765 19.8813 66.0292 19.5457C66.1855 19.4019 66.3418 19.258 66.5029 19.1098C66.8755 18.713 66.8755 18.713 66.7582 18.2083C66.7065 18.0841 66.6548 17.9599 66.6016 17.832C66.3515 17.7899 66.3515 17.7899 66.0964 17.747C65.3333 17.617 64.571 17.4829 63.8086 17.3486C63.5463 17.3046 63.2841 17.2605 63.0139 17.2152C59.5822 16.603 59.5822 16.603 58.409 15.133C57.6879 14.0804 57.1075 12.9526 56.5308 11.8164C56.4239 11.6089 56.317 11.4015 56.2068 11.1878C55.9464 10.6819 55.6874 10.1753 55.4297 9.66794C55.1461 9.66794 54.8625 9.66794 54.5703 9.66794Z" fill="#EE5125"/>
<path d="M86.6903 22.1205C87.3962 22.5338 88.0436 23.0065 88.693 23.5031C90.3583 24.8826 90.3583 24.8826 92.3157 25.6604C92.8854 25.5526 93.3543 25.368 93.8867 25.1367C94.4495 24.9429 95.0119 24.7541 95.5786 24.5728C95.7264 24.525 95.8741 24.4773 96.0263 24.4281C97.4858 23.9763 98.9284 23.7081 100.405 24.2455C101.506 24.8481 102.249 25.6852 102.695 26.8555C102.919 28.6942 102.529 30.2736 101.93 31.9983C101.784 32.4247 101.641 32.8518 101.499 33.2798C101.435 33.4648 101.371 33.6498 101.305 33.8404C101.137 34.6324 101.254 35.1826 101.654 35.8826C101.755 36.0204 101.857 36.1582 101.961 36.3002C102.129 36.532 102.129 36.532 102.3 36.7685C102.417 36.9269 102.534 37.0853 102.655 37.2485C105.024 40.4839 105.024 40.4839 104.955 42.7036C104.741 44.0406 104.052 44.9531 102.991 45.7617C102.02 46.1705 101.288 46.1951 100.233 46.1234C97.3056 45.9084 97.3056 45.9084 94.6033 46.7673C93.6929 47.6466 93.0745 48.6732 92.466 49.7742C91.8635 50.7835 91.1385 51.7185 90.1127 52.3103C88.8397 52.582 87.5291 52.5848 86.2866 52.1936C84.563 50.9214 84.0265 49.394 83.3862 47.4133C83.2998 47.1573 83.2134 46.9013 83.1244 46.6375C82.5 44.7675 82.5 44.7675 82.5 44.2578C82.3768 44.2287 82.2535 44.1997 82.1265 44.1697C76.1099 42.645 76.1099 42.645 74.7572 40.7767C74.0714 39.4942 74.1428 37.8374 74.5374 36.4697C75.4189 35.2944 76.4835 34.3639 77.7978 33.7036C78.8292 33.1407 79.7357 32.6112 80.3516 31.582C80.7269 29.9378 80.6401 28.276 80.5773 26.6029C80.5242 25.0833 80.7681 24.3047 81.6003 23.042C82.9238 21.6807 84.9276 21.444 86.6903 22.1205ZM84.4336 25.5664C84.0419 25.9581 84.1814 26.5779 84.1734 27.1047C84.1643 27.5137 84.1643 27.5137 84.155 27.931C84.1433 28.5061 84.1344 29.0812 84.1264 29.6564C84.0485 32.878 84.0485 32.878 82.9205 34.2735C81.8151 35.1977 80.6388 36.0265 79.4632 36.8587C79.2742 36.9965 79.0852 37.1343 78.8905 37.2762C78.7173 37.3999 78.5441 37.5236 78.3657 37.651C78.1789 37.8373 78.1789 37.8373 77.9883 38.0274C77.9883 38.3109 77.9883 38.5945 77.9883 38.8867C78.2498 38.9742 78.2498 38.9742 78.5166 39.0635C79.1707 39.2842 79.8236 39.508 80.4758 39.7338C80.7569 39.8305 81.0384 39.9259 81.3203 40.02C84.9182 41.2234 84.9182 41.2234 85.7469 42.7707C85.9594 43.274 86.134 43.7778 86.3001 44.2981C86.3617 44.4779 86.4233 44.6578 86.4868 44.843C86.6089 45.1996 86.7292 45.5567 86.8477 45.9145C87.0638 46.5622 87.2986 47.2026 87.5354 47.843C87.6474 48.1518 87.7593 48.4606 87.8711 48.7695C88.5208 48.7 88.8576 48.6427 89.3263 48.1726C89.4399 48.0096 89.5534 47.8465 89.6704 47.6785C89.7978 47.4999 89.9252 47.3213 90.0565 47.1372C90.1861 46.9492 90.3157 46.7611 90.4492 46.5674C92.8437 43.1547 92.8437 43.1547 94.7461 42.7539C95.8199 42.6511 96.8905 42.6247 97.9688 42.6062C98.2611 42.5991 98.5534 42.5917 98.8458 42.584C99.556 42.5663 100.266 42.5515 100.977 42.5391C101.139 42.1557 101.139 42.1557 101.191 41.6797C100.979 41.2145 100.979 41.2145 100.632 40.7633C100.447 40.5028 100.447 40.5028 100.259 40.2371C100.128 40.0573 99.9972 39.8776 99.8621 39.6924C97.2274 36.032 97.2274 36.032 97.5391 33.7305C97.7461 32.867 98.0176 32.0325 98.3044 31.1926C98.4503 30.7623 98.5939 30.3313 98.735 29.8994C98.7991 29.7117 98.8632 29.5239 98.9293 29.3305C99.0573 28.7208 98.9897 28.3114 98.8281 27.7149C97.3744 27.8703 96.052 28.3069 94.6701 28.771C93.1141 29.265 91.5542 29.5992 90.017 28.8797C88.7902 28.1805 87.6506 27.3356 86.5019 26.5173C86.3276 26.3951 86.1532 26.273 85.9736 26.1472C85.8169 26.0356 85.6602 25.9241 85.4987 25.8092C85.066 25.5127 85.066 25.5127 84.4336 25.5664Z" fill="#EE5125"/>
<path d="M26.6406 21.9139C27.7876 22.4072 28.7238 23.1018 29.2187 24.2772C29.4754 25.0464 29.4202 25.7207 29.3656 26.5247C29.1505 29.4521 29.1505 29.4521 30.0095 32.1544C30.8888 33.0648 31.9153 33.6832 33.0163 34.2917C34.0256 34.8942 34.9606 35.6192 35.5524 36.645C35.8241 37.9179 35.8269 39.2286 35.4357 40.4711C34.1635 42.1947 32.6361 42.7312 30.6555 43.3715C30.2714 43.5011 30.2714 43.5011 29.8796 43.6333C28.0096 44.2577 28.0096 44.2577 27.4999 44.2577C27.4709 44.3809 27.4418 44.5042 27.4118 44.6311C25.8871 50.6478 25.8871 50.6478 24.0188 52.0005C22.7364 52.6863 21.0795 52.6149 19.7119 52.2203C18.5365 51.3388 17.606 50.2742 16.9458 48.9599C16.3829 47.9285 15.8533 47.022 14.8242 46.4061C13.1799 46.0308 11.5181 46.1176 9.845 46.1804C8.3086 46.2332 7.46434 46.0558 6.28413 45.0365C5.22702 43.8032 5.01028 42.9311 5.05717 41.3187C5.24098 39.9946 5.94801 39.1072 6.74518 38.0647C8.12472 36.3994 8.12472 36.3994 8.90254 34.442C8.79475 33.8723 8.61012 33.4033 8.37886 32.871C8.18499 32.3082 7.99627 31.7458 7.81489 31.1791C7.74328 30.9574 7.74328 30.9574 7.67023 30.7313C7.21839 29.2719 6.95019 27.8292 7.48759 26.3526C8.09022 25.2519 8.92728 24.509 10.0976 24.0624C11.9363 23.839 13.5158 24.2285 15.2404 24.8278C15.6668 24.9735 16.094 25.1171 16.5219 25.2583C16.7069 25.3224 16.8919 25.3865 17.0825 25.4526C17.8746 25.621 18.4247 25.5037 19.1247 25.104C19.2625 25.0026 19.4003 24.9012 19.5423 24.7967C19.6969 24.685 19.8514 24.5732 20.0106 24.4581C20.169 24.3408 20.3275 24.2235 20.4907 24.1027C24.048 21.4975 24.048 21.4975 26.6406 21.9139ZM24.0054 26.126C23.8317 26.2489 23.6581 26.3717 23.4792 26.4982C23.2994 26.6294 23.1197 26.7605 22.9345 26.8956C19.2741 29.5303 19.2741 29.5303 16.9726 29.2186C16.1091 29.0116 15.2747 28.7401 14.4348 28.4532C14.0045 28.3074 13.5734 28.1638 13.1415 28.0227C12.9538 27.9586 12.7661 27.8945 12.5727 27.8284C11.963 27.7004 11.5535 27.768 10.957 27.9296C11.1124 29.3833 11.549 30.7057 12.0132 32.0875C12.5072 33.6439 12.8406 35.2035 12.1227 36.7415C11.425 37.9664 10.5703 39.0996 9.74051 40.2369C9.61769 40.4106 9.49486 40.5842 9.36831 40.7631C9.25565 40.9187 9.14298 41.0743 9.0269 41.2346C8.76024 41.6715 8.76024 41.6715 8.88098 42.1665C8.92797 42.2894 8.97497 42.4123 9.02339 42.5389C9.20312 42.5421 9.38286 42.5452 9.56805 42.5484C10.2424 42.5616 10.9167 42.5776 11.5909 42.5953C12.0233 42.6059 12.4557 42.6133 12.8881 42.6208C16.1213 42.7101 16.1213 42.7101 17.5156 43.8372C18.4399 44.9426 19.2686 46.1189 20.1008 47.2944C20.2386 47.4835 20.3764 47.6725 20.5184 47.8672C20.642 48.0404 20.7657 48.2136 20.8931 48.392C21.0173 48.5165 21.1415 48.6411 21.2695 48.7694C21.5531 48.7694 21.8367 48.7694 22.1289 48.7694C22.1872 48.595 22.2455 48.4207 22.3056 48.2411C22.5263 47.587 22.7501 46.9341 22.976 46.2819C23.0726 46.0008 23.168 45.7193 23.2621 45.4374C24.3861 42.0769 24.3861 42.0769 25.5664 41.2499C26.442 40.8235 27.3395 40.5149 28.2653 40.2159C28.7445 40.0534 29.2237 39.8909 29.7029 39.7283C30.0197 39.6246 30.0197 39.6246 30.3429 39.5187C30.908 39.3263 31.4597 39.1135 32.0117 38.8866C31.9421 38.2369 31.8848 37.9001 31.4148 37.4314C31.2517 37.3178 31.0887 37.2043 30.9207 37.0873C30.742 36.9599 30.5634 36.8325 30.3794 36.7012C30.1913 36.5716 30.0033 36.442 29.8095 36.3085C26.3969 33.914 26.3969 33.914 25.996 32.0116C25.8932 30.9377 25.8668 29.8672 25.8483 28.7889C25.8412 28.4966 25.8338 28.2043 25.8261 27.9119C25.8085 27.2017 25.7936 26.4915 25.7812 25.7811C24.9814 25.4753 24.6834 25.6351 24.0054 26.126Z" fill="#EE5125"/>
<path d="M14.8687 55.1373C15.6413 55.4695 16.2717 55.9373 16.605 56.7289C16.7779 57.2469 16.7407 57.701 16.7039 58.2425C16.5591 60.214 16.5591 60.214 17.1376 62.0339C17.7298 62.6471 18.4211 63.0635 19.1626 63.4733C19.8423 63.8791 20.472 64.3673 20.8706 65.0582C21.0536 65.9155 21.0554 66.7981 20.792 67.6349C19.9352 68.7957 18.9065 69.157 17.5726 69.5882C17.314 69.6755 17.314 69.6755 17.0501 69.7646C15.7907 70.1851 15.7907 70.1851 15.4475 70.1851C15.4279 70.2681 15.4083 70.3511 15.3882 70.4366C14.3613 74.4886 14.3613 74.4886 13.1031 75.3996C12.2394 75.8614 11.1236 75.8133 10.2025 75.5476C9.41096 74.954 8.7843 74.237 8.33962 73.3519C7.96054 72.6572 7.60393 72.0467 6.91081 71.632C5.80344 71.3792 4.68428 71.4376 3.55751 71.4799C2.5228 71.5155 1.95422 71.396 1.15939 70.7096C0.447464 69.879 0.301494 69.2917 0.333075 68.2058C0.456863 67.3141 0.933027 66.7164 1.46989 66.0143C2.39896 64.8928 2.39896 64.8928 2.9228 63.5746C2.8502 63.1908 2.72586 62.875 2.57012 62.5165C2.43955 62.1375 2.31246 61.7588 2.1903 61.3771C2.14208 61.2278 2.14208 61.2278 2.09288 61.0755C1.78858 60.0927 1.60796 59.1211 1.96988 58.1266C2.37573 57.3853 2.93946 56.885 3.72763 56.5842C4.96593 56.4338 6.02965 56.6961 7.19115 57.0997C7.47831 57.1979 7.76598 57.2946 8.0542 57.3896C8.17878 57.4328 8.30336 57.476 8.43171 57.5205C8.96514 57.6339 9.33564 57.5549 9.80708 57.2857C9.89989 57.2174 9.99271 57.1491 10.0883 57.0788C10.1924 57.0035 10.2965 56.9283 10.4037 56.8507C10.5104 56.7717 10.6171 56.6927 10.727 56.6114C13.1228 54.8569 13.1228 54.8569 14.8687 55.1373ZM13.094 57.974C12.9771 58.0568 12.8601 58.1395 12.7397 58.2247C12.6186 58.313 12.4976 58.4013 12.3728 58.4923C9.90769 60.2667 9.90769 60.2667 8.35771 60.0568C7.77618 59.9174 7.21421 59.7345 6.64856 59.5413C6.35876 59.4431 6.06845 59.3464 5.77759 59.2514C5.65117 59.2082 5.52475 59.165 5.3945 59.1205C4.98388 59.0343 4.70816 59.0798 4.30639 59.1886C4.41105 60.1677 4.70509 61.0583 5.01769 61.9889C5.35042 63.0371 5.57497 64.0874 5.09145 65.1232C4.62158 65.9481 4.04595 66.7113 3.48714 67.4772C3.40442 67.5942 3.32171 67.7111 3.23648 67.8316C3.1606 67.9364 3.08473 68.0411 3.00655 68.1491C2.82697 68.4434 2.82697 68.4434 2.90828 68.7767C2.93993 68.8595 2.97158 68.9423 3.00418 69.0275C3.12523 69.0297 3.24628 69.0318 3.371 69.0339C3.82516 69.0428 4.27923 69.0536 4.73333 69.0655C5.02449 69.0726 5.3157 69.0777 5.60691 69.0827C7.78435 69.1428 7.78435 69.1428 8.72339 69.9019C9.34586 70.6463 9.904 71.4386 10.4645 72.2302C10.5573 72.3575 10.6501 72.4848 10.7457 72.616C10.8289 72.7326 10.9122 72.8492 10.998 72.9694C11.0817 73.0533 11.1653 73.1371 11.2515 73.2236C11.4425 73.2236 11.6335 73.2236 11.8303 73.2236C11.8695 73.1061 11.9088 72.9887 11.9493 72.8677C12.0979 72.4273 12.2486 71.9876 12.4008 71.5483C12.4658 71.359 12.5301 71.1694 12.5935 70.9796C13.3505 68.7164 13.3505 68.7164 14.1453 68.1594C14.735 67.8723 15.3395 67.6645 15.963 67.4631C16.2857 67.3537 16.6084 67.2442 16.9311 67.1347C17.1445 67.0648 17.1445 67.0648 17.3621 66.9935C17.7427 66.864 18.1142 66.7207 18.486 66.5678C18.4391 66.1303 18.4005 65.9034 18.084 65.5878C17.9742 65.5113 17.8644 65.4348 17.7512 65.356C17.6309 65.2702 17.5106 65.1845 17.3867 65.0961C17.26 65.0088 17.1334 64.9215 17.0029 64.8315C14.7046 63.2189 14.7046 63.2189 14.4347 61.9377C14.3654 61.2146 14.3477 60.4935 14.3352 59.7674C14.3304 59.5705 14.3254 59.3736 14.3202 59.1768C14.3084 58.6984 14.2983 58.2201 14.29 57.7417C13.7513 57.5358 13.5506 57.6434 13.094 57.974Z" fill="#EE5125"/>
<path d="M102.869 55.1373C103.641 55.4695 104.272 55.9373 104.605 56.7289C104.778 57.2469 104.741 57.701 104.704 58.2425C104.559 60.214 104.559 60.214 105.138 62.0339C105.73 62.6471 106.421 63.0635 107.163 63.4733C107.842 63.8791 108.472 64.3673 108.871 65.0582C109.054 65.9155 109.055 66.7981 108.792 67.6349C107.935 68.7957 106.907 69.157 105.573 69.5882C105.314 69.6755 105.314 69.6755 105.05 69.7646C103.791 70.1851 103.791 70.1851 103.448 70.1851C103.428 70.2681 103.408 70.3511 103.388 70.4366C102.361 74.4886 102.361 74.4886 101.103 75.3996C100.239 75.8614 99.1236 75.8133 98.2025 75.5476C97.411 74.954 96.7843 74.237 96.3396 73.3519C95.9605 72.6572 95.6039 72.0467 94.9108 71.632C93.8034 71.3792 92.6843 71.4376 91.5575 71.4799C90.5228 71.5155 89.9542 71.396 89.1594 70.7096C88.4475 69.879 88.3015 69.2917 88.3331 68.2058C88.4569 67.3141 88.933 66.7164 89.4699 66.0143C90.399 64.8928 90.399 64.8928 90.9228 63.5746C90.8502 63.1908 90.7259 62.875 90.5701 62.5165C90.4396 62.1375 90.3125 61.7588 90.1903 61.3771C90.1421 61.2278 90.1421 61.2278 90.0929 61.0755C89.7886 60.0927 89.608 59.1211 89.9699 58.1266C90.3757 57.3853 90.9395 56.885 91.7276 56.5842C92.9659 56.4338 94.0297 56.6961 95.1911 57.0997C95.4783 57.1979 95.766 57.2946 96.0542 57.3896C96.1788 57.4328 96.3034 57.476 96.4317 57.5205C96.9651 57.6339 97.3356 57.5549 97.8071 57.2857C97.8999 57.2174 97.9927 57.1491 98.0883 57.0788C98.1924 57.0035 98.2965 56.9283 98.4037 56.8507C98.5104 56.7717 98.6171 56.6927 98.727 56.6114C101.123 54.8569 101.123 54.8569 102.869 55.1373ZM101.094 57.974C100.977 58.0568 100.86 58.1395 100.74 58.2247C100.619 58.313 100.498 58.4013 100.373 58.4923C97.9077 60.2667 97.9077 60.2667 96.3577 60.0568C95.7762 59.9174 95.2142 59.7345 94.6486 59.5413C94.3588 59.4431 94.0684 59.3464 93.7776 59.2514C93.6512 59.2082 93.5248 59.165 93.3945 59.1205C92.9839 59.0343 92.7082 59.0798 92.3064 59.1886C92.4111 60.1677 92.7051 61.0583 93.0177 61.9889C93.3504 63.0371 93.575 64.0874 93.0914 65.1232C92.6216 65.9481 92.046 66.7113 91.4871 67.4772C91.4044 67.5942 91.3217 67.7111 91.2365 67.8316C91.1606 67.9364 91.0847 68.0411 91.0066 68.1491C90.827 68.4434 90.827 68.4434 90.9083 68.7767C90.9399 68.8595 90.9716 68.9423 91.0042 69.0275C91.1252 69.0297 91.2463 69.0318 91.371 69.0339C91.8252 69.0428 92.2792 69.0536 92.7333 69.0655C93.0245 69.0726 93.3157 69.0777 93.6069 69.0827C95.7843 69.1428 95.7843 69.1428 96.7234 69.9019C97.3459 70.6463 97.904 71.4386 98.4645 72.2302C98.5573 72.3575 98.6501 72.4848 98.7457 72.616C98.8289 72.7326 98.9122 72.8492 98.998 72.9694C99.0817 73.0533 99.1653 73.1371 99.2515 73.2236C99.4425 73.2236 99.6335 73.2236 99.8303 73.2236C99.8695 73.1061 99.9088 72.9887 99.9493 72.8677C100.098 72.4273 100.249 71.9876 100.401 71.5483C100.466 71.359 100.53 71.1694 100.593 70.9796C101.35 68.7164 101.35 68.7164 102.145 68.1594C102.735 67.8723 103.339 67.6645 103.963 67.4631C104.286 67.3537 104.608 67.2442 104.931 67.1347C105.144 67.0648 105.144 67.0648 105.362 66.9935C105.743 66.864 106.114 66.7207 106.486 66.5678C106.439 66.1303 106.401 65.9034 106.084 65.5878C105.974 65.5113 105.864 65.4348 105.751 65.356C105.631 65.2702 105.511 65.1845 105.387 65.0961C105.26 65.0088 105.133 64.9215 105.003 64.8315C102.705 63.2189 102.705 63.2189 102.435 61.9377C102.365 61.2146 102.348 60.4935 102.335 59.7674C102.33 59.5705 102.325 59.3736 102.32 59.1768C102.308 58.6984 102.298 58.2201 102.29 57.7417C101.751 57.5358 101.551 57.6434 101.094 57.974Z" fill="#EE5125"/>
<path d="M68.7517 60.085C70.1018 60.9877 71.3039 62.0292 71.919 63.567C72.1446 65.4845 72.1446 65.4845 71.543 66.3868C71.0193 66.4942 71.0193 66.4942 70.4688 66.3868C70.0851 65.8702 69.8407 65.35 69.5826 64.762C68.7722 63.7086 67.4767 63.3671 66.1988 63.1776C64.7011 63.0818 63.2854 63.384 62.0899 64.3055C61.6453 64.9029 61.3234 65.495 61.0157 66.172C60.8008 66.3868 60.8008 66.3868 60.2772 66.4271C59.7266 66.3868 59.7266 66.3868 59.2969 65.9571C59.01 64.1619 59.5808 62.9737 60.5323 61.5125C62.5969 59.3906 66.0841 58.6606 68.7517 60.085Z" fill="#EE5125"/>
<path d="M47.0372 59.8474C48.6714 60.72 50.1081 62.0239 50.703 63.8085C50.7282 64.1705 50.7406 64.5334 50.7433 64.8962C50.7463 65.0848 50.7494 65.2734 50.7525 65.4677C50.703 65.957 50.703 65.957 50.2733 66.3867C49.7362 66.4404 49.7362 66.4404 49.1991 66.3867C48.7694 65.957 48.7694 65.957 48.5009 65.2319C48.1329 64.3599 47.6983 64.0171 46.8358 63.5937C45.1696 63.0723 43.573 63.0264 41.9347 63.6608C40.7542 64.2858 40.3045 64.975 39.746 66.1718C39.5311 66.3867 39.5311 66.3867 39.0075 66.4404C38.8258 66.4227 38.6441 66.4049 38.4569 66.3867C37.872 65.5094 37.895 64.8382 38.0272 63.8085C38.4845 62.3216 39.5253 61.1107 40.8471 60.3089C42.7095 59.3572 45.0496 59.0328 47.0372 59.8474Z" fill="#EE5125"/>
</svg>
