<svg width="108" height="52" viewBox="0 0 108 52" fill="none" xmlns="http://www.w3.org/2000/svg">
<path d="M29.2677 26.3749C30.0293 26.3749 30.6307 26.5352 31.0516 26.8559C31.4725 27.1766 31.693 27.6276 31.693 28.1988C31.693 28.6198 31.5727 28.9705 31.3522 29.2411C31.1317 29.5117 30.811 29.6921 30.3901 29.7823C31.4324 29.9627 31.9636 30.5139 31.9636 31.4359C31.9636 32.0472 31.7331 32.5283 31.2821 32.869C30.8311 33.2198 30.1897 33.3901 29.3579 33.3901H26.6921V26.3749H29.2677ZM27.8446 29.3514H29.2978C29.6886 29.3514 29.9893 29.2612 30.2097 29.0808C30.4302 28.9004 30.5405 28.6598 30.5405 28.3392C30.5405 28.0285 30.4302 27.788 30.2097 27.6076C29.9893 27.4272 29.6886 27.337 29.2978 27.337H27.8446V29.3514ZM27.8446 32.418H29.3679C29.8189 32.418 30.1696 32.3278 30.4102 32.1474C30.6507 31.9671 30.781 31.7065 30.781 31.3758C30.781 31.035 30.6507 30.7745 30.4102 30.584C30.1596 30.4036 29.8089 30.3034 29.3679 30.3034H27.8446V32.418ZM33.4349 33.3901V26.3749H34.5874V32.3679H37.604V33.3901H33.4349ZM39.4991 26.3749V30.4437C39.4991 31.1052 39.6294 31.6063 39.89 31.937C40.1505 32.2677 40.5514 32.4281 41.1026 32.4281C41.6538 32.4281 42.0647 32.2677 42.3253 31.937C42.5858 31.6063 42.7261 31.1052 42.7261 30.4437V26.3749H43.8786V30.3836C43.8786 31.3858 43.6381 32.1474 43.1671 32.6686C42.6961 33.1897 42.0046 33.4503 41.1026 33.4503C40.2006 33.4503 39.5091 33.1897 39.0481 32.6686C38.5771 32.1474 38.3466 31.3858 38.3466 30.3836V26.3749H39.4991ZM45.521 26.3749H50.1009V27.3971H46.6735V29.3413H49.4996V30.3335H46.6735V32.3679H50.2212V33.3901H45.521V26.3749ZM55.4058 31.1052C55.4359 31.5261 55.6063 31.8568 55.9069 32.1074C56.2076 32.3579 56.6085 32.4782 57.0995 32.4782C57.5204 32.4782 57.8712 32.388 58.1318 32.2076C58.3923 32.0272 58.5327 31.7666 58.5327 31.4359C58.5327 31.2054 58.4525 31.025 58.3122 30.8847C58.1719 30.7444 57.9714 30.6442 57.7309 30.564C57.4804 30.4938 57.1296 30.4137 56.6886 30.3335C56.2276 30.2533 55.8368 30.1531 55.5161 30.0228C55.1954 29.8925 54.9248 29.6921 54.7244 29.4215C54.5239 29.1609 54.4237 28.8102 54.4237 28.3692C54.4237 27.9683 54.5239 27.6176 54.7344 27.2969C54.9448 26.9862 55.2355 26.7457 55.6163 26.5653C55.9971 26.3949 56.4281 26.3047 56.9191 26.3047C57.4202 26.3047 57.8612 26.4049 58.2621 26.5853C58.6529 26.7757 58.9636 27.0363 59.1941 27.357C59.4146 27.6877 59.5449 28.0585 59.5649 28.4795H58.4324C58.3923 28.1187 58.232 27.828 57.9614 27.6076C57.6808 27.3871 57.3401 27.2768 56.9191 27.2768C56.5082 27.2768 56.1775 27.367 55.937 27.5474C55.6965 27.7278 55.5762 27.9683 55.5762 28.289C55.5762 28.5195 55.6464 28.6999 55.7867 28.8302C55.927 28.9705 56.1274 29.0707 56.3679 29.1309C56.6085 29.201 56.9492 29.2712 57.4002 29.3514C57.8512 29.4315 58.242 29.5418 58.5727 29.6721C58.8934 29.8124 59.164 30.0028 59.3745 30.2633C59.5749 30.5239 59.6852 30.8747 59.6852 31.2956C59.6852 31.7165 59.5749 32.0873 59.3544 32.408C59.134 32.7387 58.8233 32.9993 58.4324 33.1797C58.0316 33.3601 57.5906 33.4503 57.0895 33.4503C56.5283 33.4503 56.0472 33.3501 55.6263 33.1496C55.2054 32.9492 54.8747 32.6786 54.6342 32.3178C54.3936 31.957 54.2734 31.5461 54.2734 31.0851L55.4058 31.1052ZM60.367 26.3749H65.8489V27.3971H63.6842V33.3901H62.5317V27.3971H60.367V26.3749ZM65.5597 33.3901L68.1854 26.3749H69.5584L72.1741 33.3901H70.9414L70.2799 31.6564H67.4037L66.7523 33.3901H65.5597ZM67.7244 30.6742H69.9592L68.8368 27.6176L67.7244 30.6742ZM73.2943 33.3901V26.3749H74.3466L77.7641 31.3457V26.3749H78.8965V33.3901H77.8442L74.4268 28.4193V33.3901H73.2943ZM80.5754 26.3749H82.8103C83.5218 26.3749 84.1432 26.5252 84.6844 26.8158C85.2155 27.1165 85.6264 27.5274 85.917 28.0485C86.1976 28.5797 86.348 29.191 86.348 29.8825C86.348 30.574 86.1976 31.1853 85.917 31.7165C85.6264 32.2477 85.2155 32.6586 84.6844 32.9492C84.1432 33.2498 83.5218 33.3901 82.8103 33.3901H80.5754V26.3749ZM82.8103 32.388C83.5619 32.388 84.1432 32.1675 84.5541 31.7165C84.9549 31.2655 85.1654 30.6542 85.1654 29.8825C85.1654 29.1209 84.9549 28.5095 84.5541 28.0585C84.1432 27.6076 83.5619 27.3771 82.8103 27.3771H81.7279V32.388H82.8103ZM86.894 33.3901L89.5197 26.3749H90.8927L93.5084 33.3901H92.2757L91.6143 31.6564H88.738L88.0866 33.3901H86.894ZM89.0587 30.6742H91.2936L90.1711 27.6176L89.0587 30.6742ZM97.3947 26.3749C97.8757 26.3749 98.3067 26.4751 98.6775 26.6555C99.0383 26.8359 99.3289 27.0964 99.5293 27.4372C99.7298 27.7779 99.84 28.1688 99.84 28.6097C99.84 29.0808 99.7097 29.4917 99.4692 29.8424C99.2187 30.2032 98.8879 30.4538 98.477 30.5941L99.9603 33.3901H98.6775L97.3446 30.8446H95.7812V33.3901H94.6287V26.3749H97.3947ZM95.7812 29.8424H97.3045C97.7154 29.8424 98.0461 29.7322 98.2866 29.5117C98.5271 29.2912 98.6574 28.9906 98.6574 28.6097C98.6574 28.2389 98.5271 27.9383 98.2866 27.7178C98.0461 27.4973 97.7154 27.3771 97.3045 27.3771H95.7812V29.8424ZM101.293 26.3749H103.528C104.24 26.3749 104.861 26.5252 105.402 26.8158C105.933 27.1165 106.344 27.5274 106.635 28.0485C106.916 28.5797 107.066 29.191 107.066 29.8825C107.066 30.574 106.916 31.1853 106.635 31.7165C106.344 32.2477 105.933 32.6586 105.402 32.9492C104.861 33.2498 104.24 33.3901 103.528 33.3901H101.293V26.3749ZM103.528 32.388C104.28 32.388 104.861 32.1675 105.272 31.7165C105.673 31.2655 105.883 30.6542 105.883 29.8825C105.883 29.1209 105.673 28.5095 105.272 28.0585C104.861 27.6076 104.28 27.3771 103.528 27.3771H102.446V32.388H103.528Z" fill="white"/>
<path d="M28.1144 37.2223C28.3594 37.2223 28.5789 37.2733 28.7677 37.3652C28.9515 37.457 29.0995 37.5898 29.2016 37.7633C29.3037 37.9369 29.3598 38.1359 29.3598 38.3605C29.3598 38.6004 29.2935 38.8097 29.171 38.9883C29.0433 39.1721 28.8749 39.2997 28.6656 39.3712L29.4211 40.7953H28.7677L28.0888 39.4988H27.2926V40.7953H26.7056V37.2223H28.1144ZM27.2926 38.9883H28.0684C28.2777 38.9883 28.4461 38.9322 28.5686 38.8199C28.6911 38.7076 28.7575 38.5545 28.7575 38.3605C28.7575 38.1716 28.6911 38.0185 28.5686 37.9062C28.4461 37.7939 28.2777 37.7327 28.0684 37.7327H27.2926V38.9883ZM30.3041 37.2223H32.6368V37.7429H30.8911V38.7331H32.3305V39.2384H30.8911V40.2746H32.698V40.7953H30.3041V37.2223ZM33.5504 38.0594C33.6933 37.7837 33.8924 37.5744 34.1527 37.4213C34.413 37.2682 34.7193 37.1916 35.0664 37.1916C35.3318 37.1916 35.5768 37.2427 35.7912 37.3448C36.0056 37.4468 36.1842 37.5949 36.322 37.7837C36.4547 37.9726 36.5415 38.1921 36.5823 38.4371H35.9953C35.9341 38.2125 35.8218 38.0338 35.6585 37.9011C35.49 37.7735 35.2858 37.7072 35.0408 37.7072C34.8163 37.7072 34.6223 37.7633 34.459 37.8756C34.2905 37.9879 34.1629 38.141 34.0761 38.335C33.9843 38.5289 33.9434 38.7535 33.9434 39.0088C33.9434 39.264 33.9843 39.4886 34.0761 39.6825C34.1629 39.8816 34.2905 40.0347 34.459 40.147C34.6223 40.2593 34.8163 40.3103 35.0408 40.3103C35.2858 40.3103 35.49 40.2491 35.6534 40.1164C35.8167 39.9888 35.929 39.8101 35.9902 39.5804H36.5772C36.5364 39.8356 36.4496 40.0551 36.3169 40.2389C36.1842 40.4277 36.0107 40.5707 35.7963 40.6728C35.5819 40.7748 35.3369 40.8259 35.0664 40.8259C34.7193 40.8259 34.413 40.7544 34.1527 40.6013C33.8924 40.4533 33.6933 40.244 33.5504 39.9684C33.4075 39.6927 33.3411 39.3763 33.3411 39.0088C33.3411 38.6515 33.4075 38.335 33.5504 38.0594ZM40.5599 39.9428C40.4119 40.2185 40.2077 40.438 39.9423 40.5911C39.6769 40.7493 39.3808 40.8259 39.044 40.8259C38.7071 40.8259 38.4059 40.7493 38.1405 40.5911C37.8751 40.438 37.6709 40.2185 37.528 39.9428C37.38 39.6672 37.3085 39.3558 37.3085 39.0088C37.3085 38.6617 37.38 38.3503 37.528 38.0747C37.6709 37.799 37.8751 37.5847 38.1405 37.4264C38.4059 37.2733 38.7071 37.1916 39.044 37.1916C39.3808 37.1916 39.6769 37.2733 39.9423 37.4264C40.2077 37.5847 40.4119 37.799 40.5599 38.0747C40.7029 38.3503 40.7794 38.6617 40.7794 39.0088C40.7794 39.3558 40.7029 39.6672 40.5599 39.9428ZM38.0537 39.6825C38.1456 39.8816 38.2783 40.0347 38.4519 40.147C38.6254 40.2593 38.8194 40.3103 39.044 40.3103C39.2634 40.3103 39.4574 40.2593 39.631 40.147C39.8045 40.0347 39.9372 39.8816 40.0342 39.6825C40.1261 39.4835 40.1771 39.2589 40.1771 39.0088C40.1771 38.7637 40.1261 38.5392 40.0342 38.3401C39.9372 38.141 39.8045 37.9879 39.631 37.8756C39.4574 37.7633 39.2634 37.7072 39.044 37.7072C38.8194 37.7072 38.6254 37.7633 38.4519 37.8756C38.2783 37.9879 38.1456 38.141 38.0537 38.3401C37.9567 38.5392 37.9108 38.7637 37.9108 39.0088C37.9108 39.2589 37.9567 39.4835 38.0537 39.6825ZM41.7743 38.0594C41.9172 37.7837 42.1163 37.5744 42.3817 37.4213C42.642 37.2682 42.9483 37.1916 43.3005 37.1916C43.7088 37.1916 44.0508 37.3039 44.3264 37.5285C44.5969 37.7531 44.7654 38.0594 44.8266 38.4371H44.2448C44.1835 38.2125 44.0712 38.0338 43.9028 37.9011C43.7343 37.7735 43.5302 37.7072 43.2851 37.7072C43.0606 37.7072 42.8615 37.7633 42.693 37.8756C42.5246 37.9879 42.397 38.141 42.3051 38.335C42.2132 38.5289 42.1673 38.7535 42.1673 39.0088C42.1673 39.264 42.2081 39.4937 42.3 39.6876C42.3919 39.8816 42.5195 40.0347 42.6879 40.147C42.8564 40.2593 43.0555 40.3103 43.28 40.3103C43.5659 40.3103 43.8007 40.2338 43.9946 40.0755C44.1886 39.9224 44.2907 39.7029 44.306 39.4222V39.3354H43.3158V38.8403H44.8675V40.7953H44.4234L44.3622 40.2848C44.2601 40.438 44.112 40.5656 43.9232 40.6676C43.7343 40.7748 43.5097 40.8259 43.2545 40.8259C42.9227 40.8259 42.6318 40.7544 42.3766 40.6013C42.1214 40.4482 41.9223 40.2338 41.7794 39.9582C41.6365 39.6825 41.565 39.3661 41.565 39.0088C41.565 38.6515 41.6314 38.335 41.7743 38.0594ZM45.9294 40.7953V37.2223H46.4654L48.2059 39.754V37.2223H48.7827V40.7953H48.2468L46.5062 38.2635V40.7953H45.9294ZM49.842 37.2223H50.429V40.7953H49.842V37.2223ZM51.2873 37.2223H54.0794V37.7429H52.9768V40.7953H52.3898V37.7429H51.2873V37.2223ZM54.9305 37.2223H55.5175V40.7953H54.9305V37.2223ZM59.6936 39.9428C59.5456 40.2185 59.3414 40.438 59.076 40.5911C58.8106 40.7493 58.5145 40.8259 58.1777 40.8259C57.8408 40.8259 57.5396 40.7493 57.2742 40.5911C57.0088 40.438 56.8046 40.2185 56.6617 39.9428C56.5137 39.6672 56.4422 39.3558 56.4422 39.0088C56.4422 38.6617 56.5137 38.3503 56.6617 38.0747C56.8046 37.799 57.0088 37.5847 57.2742 37.4264C57.5396 37.2733 57.8408 37.1916 58.1777 37.1916C58.5145 37.1916 58.8106 37.2733 59.076 37.4264C59.3414 37.5847 59.5456 37.799 59.6936 38.0747C59.8366 38.3503 59.9131 38.6617 59.9131 39.0088C59.9131 39.3558 59.8366 39.6672 59.6936 39.9428ZM57.1874 39.6825C57.2793 39.8816 57.412 40.0347 57.5856 40.147C57.7591 40.2593 57.9531 40.3103 58.1777 40.3103C58.3972 40.3103 58.5911 40.2593 58.7647 40.147C58.9382 40.0347 59.0709 39.8816 59.1679 39.6825C59.2598 39.4835 59.3108 39.2589 59.3108 39.0088C59.3108 38.7637 59.2598 38.5392 59.1679 38.3401C59.0709 38.141 58.9382 37.9879 58.7647 37.8756C58.5911 37.7633 58.3972 37.7072 58.1777 37.7072C57.9531 37.7072 57.7591 37.7633 57.5856 37.8756C57.412 37.9879 57.2793 38.141 57.1874 38.3401C57.0905 38.5392 57.0445 38.7637 57.0445 39.0088C57.0445 39.2589 57.0905 39.4835 57.1874 39.6825ZM60.8365 40.7953V37.2223H61.3725L63.113 39.754V37.2223H63.6898V40.7953H63.1539L61.4133 38.2635V40.7953H60.8365ZM66.3766 39.5702V39.121H68.1121V39.5702H66.3766ZM72.0243 39.1721C72.208 39.019 72.351 38.876 72.4428 38.7433C72.5347 38.6106 72.5858 38.4677 72.5858 38.3095C72.5858 38.1104 72.5245 37.9522 72.402 37.8399C72.2795 37.7276 72.1111 37.6714 71.9018 37.6714C71.6976 37.6714 71.5292 37.7378 71.4067 37.8705C71.2842 38.0032 71.2229 38.1768 71.2229 38.3911V38.4575H70.6563V38.3605C70.6563 38.1359 70.7074 37.9369 70.8095 37.7582C70.9116 37.5847 71.0596 37.4417 71.2484 37.3397C71.4322 37.2376 71.6517 37.1865 71.9018 37.1865C72.2999 37.1865 72.6062 37.2886 72.8308 37.4877C73.0502 37.6867 73.1625 37.9522 73.1625 38.2839C73.1625 38.5289 73.0962 38.7382 72.9737 38.922C72.8461 39.1057 72.6572 39.2997 72.4071 39.509L71.4577 40.3001H73.183V40.7953H70.6512V40.341L72.0243 39.1721ZM74.0063 38.9271C74.0063 38.5902 74.0625 38.289 74.1799 38.0236C74.2973 37.7582 74.4657 37.554 74.6801 37.4111C74.8945 37.2682 75.1395 37.1916 75.4151 37.1916C75.6857 37.1916 75.9256 37.2682 76.1399 37.4111C76.3543 37.554 76.5177 37.7582 76.6402 38.0236C76.7576 38.289 76.8188 38.5902 76.8188 38.9271V39.0904C76.8188 39.4477 76.7576 39.754 76.6402 40.0143C76.5228 40.2797 76.3594 40.4788 76.145 40.6166C75.9307 40.7595 75.6908 40.8259 75.4151 40.8259C75.1344 40.8259 74.8894 40.7595 74.675 40.6166C74.4606 40.4788 74.2973 40.2797 74.1799 40.0143C74.0625 39.754 74.0063 39.4477 74.0063 39.0904V38.9271ZM76.0225 38.0236C75.8694 37.799 75.6703 37.6867 75.4151 37.6867C75.1599 37.6867 74.9557 37.799 74.8026 38.0236C74.6495 38.2482 74.5729 38.5545 74.5729 38.9475V39.07C74.5729 39.4681 74.6495 39.7744 74.8026 39.999C74.9557 40.2236 75.1599 40.3308 75.4151 40.3308C75.6703 40.3308 75.8694 40.2236 76.0225 39.999C76.1757 39.7744 76.2522 39.4681 76.2522 39.07V38.9475C76.2522 38.5545 76.1757 38.2482 76.0225 38.0236ZM78.992 39.1721C79.1758 39.019 79.3187 38.876 79.4106 38.7433C79.5025 38.6106 79.5535 38.4677 79.5535 38.3095C79.5535 38.1104 79.4923 37.9522 79.3698 37.8399C79.2473 37.7276 79.0788 37.6714 78.8695 37.6714C78.6654 37.6714 78.4969 37.7378 78.3744 37.8705C78.2519 38.0032 78.1907 38.1768 78.1907 38.3911V38.4575H77.6241V38.3605C77.6241 38.1359 77.6751 37.9369 77.7772 37.7582C77.8793 37.5847 78.0273 37.4417 78.2162 37.3397C78.3999 37.2376 78.6194 37.1865 78.8695 37.1865C79.2677 37.1865 79.5739 37.2886 79.7985 37.4877C80.018 37.6867 80.1303 37.9522 80.1303 38.2839C80.1303 38.5289 80.0639 38.7382 79.9414 38.922C79.8138 39.1057 79.625 39.2997 79.3749 39.509L78.4255 40.3001H80.1507V40.7953H77.619V40.341L78.992 39.1721ZM83.4088 39.2333C83.5569 39.3763 83.6334 39.5651 83.6334 39.7999C83.6334 40.0041 83.5773 40.1878 83.465 40.341C83.3527 40.4941 83.1996 40.6166 82.9954 40.6983C82.7912 40.785 82.5564 40.8259 82.291 40.8259C81.8827 40.8259 81.556 40.7238 81.3161 40.5145C81.0762 40.3052 80.9588 40.0194 80.9588 39.6519H81.5254C81.5254 39.8714 81.6019 40.0449 81.7499 40.1674C81.8929 40.295 82.0868 40.3563 82.3267 40.3563C82.536 40.3563 82.7096 40.3052 82.8474 40.1929C82.9852 40.0858 83.0566 39.9428 83.0566 39.7591C83.0566 39.5906 82.9852 39.4579 82.8525 39.3609C82.7198 39.264 82.5258 39.2129 82.2808 39.2129H81.9541V38.7433H82.2451C82.4799 38.7433 82.6585 38.6923 82.781 38.5902C82.9035 38.4881 82.9699 38.3554 82.9699 38.1819C82.9699 38.0236 82.9086 37.896 82.7861 37.8041C82.6636 37.7123 82.5054 37.6612 82.3114 37.6612C82.1072 37.6612 81.9388 37.7174 81.8061 37.8246C81.6734 37.9317 81.607 38.0747 81.607 38.2584H81.0507C81.0507 37.9317 81.1681 37.6714 81.3926 37.4775C81.6172 37.2886 81.9133 37.1916 82.291 37.1916C82.5462 37.1916 82.7708 37.2325 82.9597 37.309C83.1485 37.3907 83.2914 37.503 83.3935 37.6459C83.4956 37.7888 83.5467 37.9573 83.5467 38.141C83.5467 38.3554 83.4803 38.5341 83.3578 38.6719C83.2353 38.8097 83.0669 38.9016 82.8576 38.9475C83.0771 38.9934 83.2608 39.0904 83.4088 39.2333Z" fill="white" fill-opacity="0.71"/>
<path d="M33.3853 19.718L27.1734 0.576172L20.9615 19.718H0.859375L17.1223 31.5483L10.9104 50.6902L22.9168 41.9563V38.5476L16.1494 43.4704L20.3602 30.495L9.33624 22.4757H22.9168V22.387H22.9914L27.1734 9.50028L31.3535 22.3812H53.4729H53.4874L33.3853 19.718Z" fill="url(#paint0_linear_275_1342)"/>
<defs>
<linearGradient id="paint0_linear_275_1342" x1="27.1734" y1="50.6902" x2="27.1734" y2="0.576172" gradientUnits="userSpaceOnUse">
<stop stop-color="#EE5125"/>
<stop offset="1" stop-color="#E51F31"/>
</linearGradient>
</defs>
</svg>
