<svg width="14" height="13" viewBox="0 0 14 13" fill="none" xmlns="http://www.w3.org/2000/svg">
<path d="M13.3333 4.93327C13.3333 5.0666 13.264 5.2 13.1253 5.33333L10.2167 8.1333L10.9053 12.2C10.9107 12.2 10.9133 12.2667 10.9133 12.3333C10.9133 12.4667 10.884 12.5333 10.8253 12.5999C10.772 12.6666 10.692 12.7333 10.5847 12.7333C10.4833 12.7333 10.3767 12.7333 10.2647 12.6667L6.66667 10.7333L3.06893 12.6667C2.9514 12.7333 2.84453 12.7333 2.7484 12.7333C2.6362 12.7333 2.55073 12.6666 2.492 12.5999C2.43853 12.5333 2.41187 12.4667 2.41187 12.3333C2.41187 12.3333 2.4172 12.2666 2.42787 12.2L3.117 8.1333L0.200333 5.33333C0.0667999 5.2 0 5.0666 0 4.93327C0 4.73327 0.1496 4.59994 0.448733 4.59994L4.47113 4L6.274 0.333333C6.37533 0.133333 6.50667 0 6.66667 0C6.82667 0 6.958 0.133333 7.05933 0.333333L8.862 4L12.8847 4.59994C13.184 4.59994 13.3333 4.73327 13.3333 4.93327Z" fill="#F1C40F"/>
</svg>
