<svg width="17" height="17" viewBox="0 0 17 17" fill="none" xmlns="http://www.w3.org/2000/svg">
<path d="M15.5833 6.23281C15.5833 6.37448 15.5096 6.51621 15.3623 6.65788L12.2718 9.63284L13.0035 13.9537C13.0092 13.9537 13.012 14.0245 13.012 14.0954C13.012 14.237 12.9809 14.3078 12.9185 14.3786C12.8619 14.4495 12.7769 14.5204 12.6628 14.5204C12.5552 14.5204 12.4418 14.5204 12.3228 14.4495L8.49996 12.3954L4.67737 14.4495C4.55249 14.5204 4.43894 14.5204 4.3368 14.5204C4.21759 14.5204 4.12678 14.4495 4.06438 14.3786C4.00757 14.3078 3.97923 14.237 3.97923 14.0954C3.97923 14.0954 3.9849 14.0245 3.99623 13.9537L4.72844 9.63284L1.62948 6.65788C1.4876 6.51621 1.41663 6.37448 1.41663 6.23281C1.41663 6.02031 1.57558 5.87864 1.89341 5.87864L6.16721 5.24121L8.08275 1.34538C8.19042 1.13288 8.32996 0.991211 8.49996 0.991211C8.66996 0.991211 8.8095 1.13288 8.91717 1.34538L10.8325 5.24121L15.1066 5.87864C15.4246 5.87864 15.5833 6.02031 15.5833 6.23281Z" fill="#EE5125"/>
</svg>
