<svg width="138" height="70" viewBox="0 0 138 70" fill="none" xmlns="http://www.w3.org/2000/svg">
<path d="M6.91761 47.4545V62H4.71591V49.6562H4.63068L1.15057 51.929V49.8267L4.77983 47.4545H6.91761ZM16.7162 62.2415C15.594 62.2367 14.6352 61.9408 13.8398 61.3537C13.0443 60.7666 12.4359 59.9119 12.0145 58.7898C11.5931 57.6676 11.3824 56.3158 11.3824 54.7344C11.3824 53.1577 11.5931 51.8106 12.0145 50.6932C12.4406 49.5758 13.0514 48.7235 13.8469 48.1364C14.6471 47.5492 15.6035 47.2557 16.7162 47.2557C17.8289 47.2557 18.783 47.5516 19.5784 48.1435C20.3739 48.7306 20.9823 49.5829 21.4037 50.7003C21.8298 51.813 22.0429 53.1577 22.0429 54.7344C22.0429 56.3205 21.8322 57.6747 21.4108 58.7969C20.9894 59.9143 20.381 60.7689 19.5855 61.3608C18.7901 61.9479 17.8336 62.2415 16.7162 62.2415ZM16.7162 60.3452C17.701 60.3452 18.4705 59.8646 19.0244 58.9034C19.5831 57.9422 19.8625 56.5526 19.8625 54.7344C19.8625 53.527 19.7347 52.5066 19.479 51.6733C19.228 50.8352 18.8658 50.2008 18.3923 49.7699C17.9236 49.3343 17.3649 49.1165 16.7162 49.1165C15.7361 49.1165 14.9667 49.5994 14.408 50.5653C13.8492 51.5312 13.5675 52.9209 13.5628 54.7344C13.5628 55.9465 13.6883 56.9716 13.9392 57.8097C14.1949 58.643 14.5571 59.2751 15.0259 59.706C15.4946 60.1321 16.058 60.3452 16.7162 60.3452ZM30.4263 62.2415C29.3042 62.2367 28.3454 61.9408 27.5499 61.3537C26.7545 60.7666 26.146 59.9119 25.7246 58.7898C25.3032 57.6676 25.0925 56.3158 25.0925 54.7344C25.0925 53.1577 25.3032 51.8106 25.7246 50.6932C26.1508 49.5758 26.7616 48.7235 27.557 48.1364C28.3572 47.5492 29.3137 47.2557 30.4263 47.2557C31.539 47.2557 32.4931 47.5516 33.2886 48.1435C34.084 48.7306 34.6924 49.5829 35.1139 50.7003C35.54 51.813 35.7531 53.1577 35.7531 54.7344C35.7531 56.3205 35.5424 57.6747 35.121 58.7969C34.6996 59.9143 34.0911 60.7689 33.2957 61.3608C32.5002 61.9479 31.5438 62.2415 30.4263 62.2415ZM30.4263 60.3452C31.4112 60.3452 32.1806 59.8646 32.7346 58.9034C33.2933 57.9422 33.5727 56.5526 33.5727 54.7344C33.5727 53.527 33.4448 52.5066 33.1891 51.6733C32.9382 50.8352 32.576 50.2008 32.1025 49.7699C31.6337 49.3343 31.075 49.1165 30.4263 49.1165C29.4462 49.1165 28.6768 49.5994 28.1181 50.5653C27.5594 51.5312 27.2777 52.9209 27.2729 54.7344C27.2729 55.9465 27.3984 56.9716 27.6494 57.8097C27.905 58.643 28.2673 59.2751 28.736 59.706C29.2048 60.1321 29.7682 60.3452 30.4263 60.3452ZM45.3644 62V47.4545H50.5491C51.676 47.4545 52.6111 47.6487 53.3545 48.0369C54.1026 48.4252 54.6613 48.9626 55.0306 49.6491C55.3999 50.331 55.5846 51.1193 55.5846 52.0142C55.5846 52.9044 55.3976 53.688 55.0235 54.3651C54.6542 55.0374 54.0955 55.5606 53.3474 55.9347C52.604 56.3087 51.6689 56.4957 50.542 56.4957H46.6144V54.6065H50.3431C51.0533 54.6065 51.631 54.5047 52.0761 54.3011C52.5259 54.0975 52.8549 53.8016 53.0633 53.4134C53.2716 53.0251 53.3758 52.5587 53.3758 52.0142C53.3758 51.465 53.2692 50.9891 53.0562 50.5866C52.8478 50.1842 52.5188 49.8764 52.069 49.6634C51.6239 49.4455 51.0391 49.3366 50.3147 49.3366H47.559V62H45.3644ZM52.5448 55.4375L56.1386 62H53.6386L50.1158 55.4375H52.5448ZM59.055 62V47.4545H68.1744V49.3438H61.2496V53.7756H67.6985V55.6577H61.2496V60.1108H68.2596V62H59.055ZM73.1771 47.4545L77.2254 59.3011H77.3888L81.4371 47.4545H83.8092L78.5749 62H76.0393L70.805 47.4545H73.1771ZM88.9043 47.4545V62H86.7097V47.4545H88.9043ZM92.9004 62V47.4545H102.02V49.3438H95.095V53.7756H101.544V55.6577H95.095V60.1108H102.105V62H92.9004ZM108.599 62L104.565 47.4545H106.873L109.707 58.7188H109.842L112.789 47.4545H115.076L118.024 58.7259H118.159L120.986 47.4545H123.301L119.26 62H117.051L113.99 51.1051H113.876L110.815 62H108.599ZM133.996 51.2756C133.92 50.6032 133.608 50.0824 133.059 49.7131C132.509 49.339 131.818 49.152 130.985 49.152C130.388 49.152 129.872 49.2467 129.436 49.4361C129.001 49.6207 128.662 49.8764 128.421 50.2031C128.184 50.5251 128.066 50.892 128.066 51.304C128.066 51.6496 128.146 51.9479 128.307 52.1989C128.473 52.4498 128.688 52.6605 128.953 52.831C129.223 52.9967 129.512 53.1364 129.82 53.25C130.128 53.3589 130.424 53.4489 130.708 53.5199L132.128 53.8892C132.592 54.0028 133.068 54.1567 133.556 54.3509C134.043 54.545 134.496 54.8007 134.912 55.1179C135.329 55.4351 135.665 55.8281 135.921 56.2969C136.181 56.7656 136.311 57.3267 136.311 57.9801C136.311 58.804 136.098 59.5355 135.672 60.1747C135.251 60.8139 134.638 61.3182 133.833 61.6875C133.033 62.0568 132.064 62.2415 130.928 62.2415C129.839 62.2415 128.897 62.0687 128.101 61.723C127.306 61.3774 126.683 60.8873 126.233 60.2528C125.783 59.6136 125.535 58.8561 125.488 57.9801H127.689C127.732 58.5057 127.902 58.9437 128.201 59.294C128.504 59.6397 128.89 59.8977 129.358 60.0682C129.832 60.2339 130.35 60.3168 130.914 60.3168C131.534 60.3168 132.086 60.2197 132.569 60.0256C133.056 59.8267 133.44 59.5521 133.719 59.2017C133.998 58.8466 134.138 58.4323 134.138 57.9588C134.138 57.5279 134.015 57.1752 133.769 56.9006C133.527 56.6259 133.198 56.3987 132.782 56.2188C132.37 56.0388 131.903 55.8802 131.382 55.7429L129.664 55.2741C128.499 54.9569 127.576 54.4905 126.894 53.875C126.217 53.2595 125.878 52.4451 125.878 51.4318C125.878 50.5937 126.105 49.8622 126.56 49.2372C127.015 48.6122 127.63 48.1269 128.407 47.7812C129.183 47.4309 130.059 47.2557 131.034 47.2557C132.019 47.2557 132.888 47.4285 133.641 47.7741C134.399 48.1198 134.995 48.5956 135.431 49.2017C135.866 49.803 136.094 50.4943 136.113 51.2756H133.996Z" fill="black" fill-opacity="0.5"/>
<path d="M22.7051 9.08142C22.7051 9.28783 22.5977 9.49434 22.3831 9.70075L17.8802 14.0353L18.9463 20.3308C18.9546 20.3308 18.9587 20.4341 18.9587 20.5373C18.9587 20.7437 18.9133 20.8468 18.8225 20.95C18.7399 21.0532 18.6161 21.1565 18.4499 21.1565C18.293 21.1565 18.1279 21.1565 17.9545 21.0533L12.3845 18.0603L6.81497 21.0533C6.63302 21.1565 6.46758 21.1565 6.31876 21.1565C6.14507 21.1565 6.01276 21.0532 5.92183 20.95C5.83906 20.8468 5.79778 20.7437 5.79778 20.5373C5.79778 20.5373 5.80604 20.434 5.82255 20.3308L6.88938 14.0353L2.37416 9.70075C2.16744 9.49434 2.06403 9.28783 2.06403 9.08142C2.06403 8.7718 2.29562 8.56539 2.7587 8.56539L8.98568 7.63664L11.7767 1.96036C11.9335 1.65075 12.1368 1.44434 12.3845 1.44434C12.6322 1.44434 12.8355 1.65075 12.9924 1.96036L15.7831 7.63664L22.0105 8.56539C22.4739 8.56539 22.7051 8.7718 22.7051 9.08142Z" fill="#EE5125"/>
<path d="M51.0125 9.08142C51.0125 9.28783 50.9052 9.49434 50.6905 9.70075L46.1877 14.0353L47.2538 20.3308C47.2621 20.3308 47.2662 20.4341 47.2662 20.5373C47.2662 20.7437 47.2208 20.8468 47.13 20.95C47.0474 21.0532 46.9236 21.1565 46.7574 21.1565C46.6005 21.1565 46.4354 21.1565 46.262 21.0533L40.692 18.0603L35.1225 21.0533C34.9405 21.1565 34.7751 21.1565 34.6263 21.1565C34.4526 21.1565 34.3203 21.0532 34.2293 20.95C34.1466 20.8468 34.1053 20.7437 34.1053 20.5373C34.1053 20.5373 34.1135 20.434 34.13 20.3308L35.1969 14.0353L30.6817 9.70075C30.4749 9.49434 30.3715 9.28783 30.3715 9.08142C30.3715 8.7718 30.6031 8.56539 31.0662 8.56539L37.2932 7.63664L40.0842 1.96036C40.241 1.65075 40.4443 1.44434 40.692 1.44434C40.9397 1.44434 41.143 1.65075 41.2999 1.96036L44.0906 7.63664L50.318 8.56539C50.7814 8.56539 51.0125 8.7718 51.0125 9.08142Z" fill="#EE5125"/>
<path d="M79.3208 9.08142C79.3208 9.28783 79.2134 9.49434 78.9988 9.70075L74.4959 14.0353L75.562 20.3308C75.5703 20.3308 75.5744 20.4341 75.5744 20.5373C75.5744 20.7437 75.529 20.8468 75.4382 20.95C75.3556 21.0532 75.2318 21.1565 75.0656 21.1565C74.9087 21.1565 74.7436 21.1565 74.5702 21.0533L69.0002 18.0603L63.4307 21.0533C63.2487 21.1565 63.0833 21.1565 62.9345 21.1565C62.7608 21.1565 62.6285 21.0532 62.5375 20.95C62.4548 20.8468 62.4135 20.7437 62.4135 20.5373C62.4135 20.5373 62.4217 20.434 62.4383 20.3308L63.5051 14.0353L58.9899 9.70075C58.7831 9.49434 58.6797 9.28783 58.6797 9.08142C58.6797 8.7718 58.9113 8.56539 59.3744 8.56539L65.6014 7.63664L68.3924 1.96036C68.5492 1.65075 68.7526 1.44434 69.0002 1.44434C69.2479 1.44434 69.4513 1.65075 69.6081 1.96036L72.3988 7.63664L78.6262 8.56539C79.0896 8.56539 79.3208 8.7718 79.3208 9.08142Z" fill="#EE5125"/>
<path d="M107.628 9.08142C107.628 9.28783 107.521 9.49434 107.306 9.70075L102.804 14.0353L103.87 20.3308C103.878 20.3308 103.882 20.4341 103.882 20.5373C103.882 20.7437 103.837 20.8468 103.746 20.95C103.663 21.0532 103.54 21.1565 103.373 21.1565C103.216 21.1565 103.051 21.1565 102.878 21.0533L97.308 18.0603L91.7384 21.0533C91.5565 21.1565 91.391 21.1565 91.2422 21.1565C91.0685 21.1565 90.9362 21.0532 90.8453 20.95C90.7625 20.8468 90.7212 20.7437 90.7212 20.5373C90.7212 20.5373 90.7295 20.434 90.746 20.3308L91.8128 14.0353L87.2976 9.70075C87.0909 9.49434 86.9875 9.28783 86.9875 9.08142C86.9875 8.7718 87.2191 8.56539 87.6821 8.56539L93.9091 7.63664L96.7001 1.96036C96.857 1.65075 97.0603 1.44434 97.308 1.44434C97.5557 1.44434 97.759 1.65075 97.9159 1.96036L100.707 7.63664L106.934 8.56539C107.397 8.56539 107.628 8.7718 107.628 9.08142Z" fill="#EE5125"/>
<path d="M135.936 9.08142C135.936 9.28783 135.829 9.49434 135.614 9.70075L131.111 14.0353L132.177 20.3308C132.186 20.3308 132.19 20.4341 132.19 20.5373C132.19 20.7437 132.144 20.8468 132.053 20.95C131.971 21.0532 131.847 21.1565 131.681 21.1565C131.524 21.1565 131.359 21.1565 131.186 21.0533L125.616 18.0603L120.046 21.0533C119.864 21.1565 119.699 21.1565 119.55 21.1565C119.376 21.1565 119.244 21.0532 119.153 20.95C119.07 20.8468 119.029 20.7437 119.029 20.5373C119.029 20.5373 119.037 20.434 119.054 20.3308L120.12 14.0353L115.605 9.70075C115.398 9.49434 115.295 9.28783 115.295 9.08142C115.295 8.7718 115.527 8.56539 115.99 8.56539L122.217 7.63664L125.008 1.96036C125.165 1.65075 125.368 1.44434 125.616 1.44434C125.863 1.44434 126.067 1.65075 126.223 1.96036L129.014 7.63664L135.241 8.56539C135.705 8.56539 135.936 8.7718 135.936 9.08142Z" fill="#EE5125"/>
</svg>
