<svg width="89" height="38" viewBox="0 0 89 38" fill="none" xmlns="http://www.w3.org/2000/svg">
<path d="M17 3.00049H30.1264V6.99349H26.3629V16.6318H20.8783V6.99349H17V3.00049Z" fill="#0080C6"/>
<path d="M36.7819 8.55397L34.0052 16.6318H28.75L33.9363 3.00049H39.6504L44.9056 16.6318H39.6045L36.7819 8.55397Z" fill="#0080C6"/>
<path d="M43.6885 3.00049H56.8149V6.99349H53.0514V16.6318H47.5667V6.99349H43.6885V3.00049Z" fill="#0080C6"/>
<path d="M63.4704 8.55397L60.6936 16.6318H55.4385L60.5789 3.00049H66.3389L71.5941 16.6318H66.293L63.4704 8.55397Z" fill="#0080C6"/>
<path d="M66.4456 28.9091C67.2947 29.1615 67.7078 29.7582 68.0061 31.158C68.3733 32.8562 68.7404 34.0265 68.9011 34.3937H71.4254C71.173 33.843 70.8287 32.3284 70.3927 30.6073C70.0255 29.2763 69.4977 28.2895 68.4651 27.9223V27.8535C69.7961 27.4174 70.9435 26.2012 70.9435 24.4342C70.9435 23.2868 70.5075 22.3 69.7961 21.6804C69.0158 21.0149 67.9373 20.6477 66.4456 20.5789V22.4606C67.7078 22.6442 68.488 23.3097 68.488 24.6636C68.488 25.834 67.7078 26.6831 66.4456 26.8667V28.9091ZM61.8789 34.3937H64.3344V28.7714H65.5965C65.8949 28.7714 66.1932 28.7714 66.4456 28.8861V26.8896C66.1932 26.8896 66.0325 26.9585 65.7801 26.9585H64.3344V22.6213C64.5639 22.5524 65.1146 22.5065 65.8949 22.5065H66.4456V20.6248H65.6654C64.2196 20.6248 62.8427 20.7395 61.8789 20.8772V34.3937Z" fill="#0080C6"/>
<path d="M73.5596 33.7509C74.271 34.2328 75.7856 34.6689 77.2313 34.6689C80.7194 34.6689 82.3258 32.7412 82.3258 30.5611C82.3258 28.6105 81.1784 27.4172 78.8377 26.4993C77.0477 25.8338 76.2445 25.3519 76.2445 24.3192C76.2445 23.4701 76.91 22.621 78.4705 22.621C79.7326 22.621 80.6965 23.0341 81.1784 23.2865L81.775 21.29C81.0637 20.9228 79.9621 20.6245 78.5393 20.6245C75.602 20.6245 73.7202 22.3227 73.7202 24.5028C73.7202 26.4993 75.1659 27.7155 77.3919 28.4958C79.136 29.0924 79.8015 29.712 79.8015 30.7447C79.8015 31.8233 78.9065 32.6265 77.346 32.6265C76.0839 32.6265 74.8906 32.2134 74.1103 31.7315L73.5596 33.7509Z" fill="#0080C6"/>
<path d="M17.8643 28.8402C17.7954 27.0732 17.6577 24.962 17.6577 23.1261C17.1758 24.8243 16.6021 26.6602 16.0284 28.3583L13.986 34.279H12.0813L10.3143 28.4272C9.74057 26.729 9.25866 24.8243 8.89148 23.1261H8.82263C8.75379 24.8931 8.68495 27.0732 8.6161 28.9779L8.34073 34.4167H6L6.84909 20.7854H10.1536L11.9207 26.293C12.4026 27.8535 12.8386 29.4598 13.1828 31.0203H13.2517C13.5959 29.5287 14.1007 27.8535 14.5827 26.2241L16.4874 20.7854H19.746L20.5263 34.4167H18.0478L17.8643 28.8402Z" fill="#0080C6"/>
<path d="M29.0857 34.623C32.7804 34.5771 35.4882 31.9839 35.4882 27.509C35.4882 23.5848 33.1705 20.6245 29.2004 20.6245H29.0857V22.5981C31.5641 22.5981 32.8262 25.0306 32.8262 27.5549C32.8262 30.4234 31.4952 32.6265 29.0857 32.6265V34.623ZM29.0398 34.623H29.0857V32.6494C26.722 32.6494 25.3451 30.3775 25.3451 27.6926C25.3451 24.9847 26.6073 22.621 29.0857 22.621V20.6475C25.3451 20.6934 22.752 23.6307 22.752 27.7614C22.752 31.7315 25.1845 34.6459 28.9709 34.6459H29.0398V34.623Z" fill="#0080C6"/>
<path d="M53.2966 34.623C56.9913 34.5771 59.6762 31.9839 59.6762 27.509C59.6762 23.5848 57.3585 20.6245 53.3884 20.6245H53.2737V22.5981C55.7521 22.5981 57.0142 25.0306 57.0142 27.5549C57.0142 30.4234 55.6832 32.6265 53.2737 32.6265V34.623H53.2966ZM53.2507 34.623H53.2966V32.6494C50.9329 32.6494 49.556 30.3775 49.556 27.6926C49.556 24.9847 50.8182 22.621 53.2966 22.621V20.6475C49.556 20.6934 46.9629 23.6307 46.9629 27.7614C46.9629 31.7315 49.3954 34.6459 53.2048 34.6459H53.2507V34.623Z" fill="#0080C6"/>
<path d="M40.0785 34.394H42.5569V22.9428H46.4122V20.8545H36.1543V22.9428H40.0785V34.394Z" fill="#0080C6"/>
</svg>
