<svg width="97" height="28" viewBox="0 0 97 28" fill="none" xmlns="http://www.w3.org/2000/svg">
<path d="M55.3832 5.06733C53.8216 4.45771 53.1619 4.12535 53.1619 3.35874C53.1619 2.75747 53.7297 2.20297 54.9055 2.20297C55.7671 2.19747 56.6181 2.39305 57.3908 2.77417L57.992 0.602936C57.2855 0.268899 56.3085 0 54.9389 0C52.133 0 50.4094 1.54659 50.4094 3.58755C50.4094 5.34458 51.7255 6.4469 53.713 7.1584C55.1577 7.65945 55.7172 8.09871 55.7172 8.82858C55.7172 9.62192 55.0592 10.1397 53.8166 10.1397C52.7703 10.1248 51.7415 9.86875 50.8103 9.39143L50.2591 11.6178C50.9272 11.9936 52.2867 12.3677 53.6512 12.3677C56.9415 12.3677 58.468 10.6591 58.468 8.65154C58.4747 6.94629 57.496 5.84563 55.3832 5.06733Z" fill="#0080C6"/>
<path d="M59.4151 2.47515H62.6486V12.1739H65.3492V2.47515H68.6195V0.197021H59.4151V2.47515Z" fill="#0080C6"/>
<path d="M72.7731 7.1099H77.1791V4.90526H72.7731V2.41669H77.448V0.197021H70.0724V12.1739H77.6935V9.95255H72.7731V7.1099Z" fill="#0080C6"/>
<path d="M82.2565 7.1099H86.6624V4.90526H82.2565V2.41669H86.933V0.197021H79.5625V12.1739H87.1819V9.95255H82.2565V7.1099Z" fill="#0080C6"/>
<path d="M91.7448 9.89409V0.197021H89.0408V12.1739H96.5081V9.89409H91.7448Z" fill="#0080C6"/>
<path d="M10.8996 3.75785V0.197021H0.00170898V3.75785H3.13998V12.1639H7.76805V3.75785H10.8996Z" fill="#0080C6"/>
<path d="M33.6208 3.75785V0.197021H22.7245V3.75785H25.8595V12.1639H30.4892V3.75785H33.6208Z" fill="#0080C6"/>
<path d="M14.4337 12.1639L16.8438 6.10445L19.2472 12.1639H23.902L19.1854 0.197021H14.4922L9.78394 12.1639H14.4337Z" fill="#0080C6"/>
<path d="M36.9244 12.1639L39.3362 6.10445L41.7396 12.1639H46.3927L41.6778 0.197021H36.9846L32.2747 12.1639H36.9244Z" fill="#0080C6"/>
<path d="M16.4864 27.7686H15.4609L14.1782 21.1563L12.9105 27.7686H11.8817L10.4637 19.553H11.5593L12.4011 26.1652L13.6253 19.553H14.7327L15.9786 26.1652L16.8104 19.553H17.8943L16.4864 27.7686Z" fill="white"/>
<path d="M30.2537 27.7684C29.6925 27.7684 29.2616 27.6465 28.9626 27.3993C28.6086 27.1076 28.4315 26.6622 28.4315 26.0632V19.5562H29.3651V26.0298C29.3651 26.6294 29.6624 26.93 30.2537 26.93V27.7684Z" fill="white"/>
<path d="M33.9582 27.3877C33.7984 27.5472 33.6072 27.6717 33.3968 27.7534C33.1863 27.835 32.9611 27.8721 32.7356 27.8621C32.5143 27.8721 32.2934 27.8361 32.0867 27.7565C31.8801 27.6769 31.6921 27.5553 31.5348 27.3994C31.3688 27.2238 31.2391 27.0171 31.1531 26.7913C31.0671 26.5654 31.0266 26.3249 31.0337 26.0833H31.9573C31.9425 26.35 32.0338 26.6118 32.2112 26.8115C32.28 26.8817 32.3629 26.9365 32.4545 26.9722C32.546 27.0079 32.6441 27.0237 32.7423 27.0186C32.8479 27.022 32.953 27.0038 33.0512 26.965C33.1495 26.9262 33.2387 26.8677 33.3135 26.7931C33.3896 26.715 33.4489 26.622 33.4877 26.52C33.5264 26.4181 33.5439 26.3092 33.539 26.2002C33.539 25.7849 33.3118 25.4614 32.8575 25.2298L32.0842 24.8374C31.7515 24.6882 31.4674 24.4486 31.2642 24.1459C31.134 23.9053 31.0706 23.6343 31.0805 23.3609C31.0728 23.14 31.1108 22.92 31.1921 22.7145C31.2735 22.509 31.3964 22.3225 31.5531 22.1667C31.7112 22.0116 31.8992 21.8901 32.1056 21.8097C32.312 21.7294 32.5326 21.6917 32.754 21.6991C32.979 21.6856 33.2042 21.7209 33.4144 21.8025C33.6245 21.884 33.8146 22.01 33.9715 22.1717C34.2734 22.5236 34.4282 22.9781 34.4041 23.4411H33.4738C33.4926 23.1839 33.4146 22.9289 33.255 22.7262C33.1908 22.6583 33.113 22.6046 33.0267 22.5687C32.9404 22.5327 32.8475 22.5153 32.754 22.5175C32.6546 22.513 32.5554 22.5298 32.4629 22.5667C32.3705 22.6035 32.2869 22.6596 32.2179 22.7313C32.0791 22.8836 32.0064 23.0849 32.0158 23.2908C32.0115 23.4459 32.049 23.5993 32.1243 23.735C32.2507 23.9055 32.4202 24.0393 32.6154 24.1225L33.377 24.5033C33.7155 24.6531 34.0083 24.8899 34.2254 25.1898C34.4246 25.5353 34.5069 25.9359 34.46 26.332C34.413 26.7281 34.2394 27.0984 33.9649 27.3877H33.9582Z" fill="white"/>
<path d="M45.3789 27.7686H44.3868V21.918L43.0824 25.761H42.4711L41.1901 22.0098V27.7686H40.198V19.553H41.1316L42.7935 24.1226L44.4436 19.553H45.3789V27.7686Z" fill="white"/>
<path d="M54.2993 27.7686L53.1569 24.9527L52.5105 25.9798V27.7686H51.5752V19.553H52.5105V24.6303L54.2074 21.791H55.1995L53.7448 24.1226L55.3381 27.7686H54.2993Z" fill="white"/>
<path d="M64.2235 20.4415H62.8506V27.7686H61.8585V20.4415H60.4722V19.553H64.2235V20.4415Z" fill="white"/>
<path d="M74.4768 27.7685H73.5431V23.3726C73.5431 22.8158 73.3082 22.5375 72.8383 22.5375C72.3684 22.5375 72.134 22.8158 72.1352 23.3726V27.7685H71.1999V23.3726C71.2156 23.1481 71.1431 22.9264 70.9978 22.7546C70.9322 22.6848 70.8527 22.6296 70.7643 22.5928C70.6759 22.5559 70.5807 22.5382 70.485 22.5408C70.0151 22.5408 69.7802 22.8192 69.7802 23.3759V27.7718H68.8449V21.7909H69.7451V22.2519C69.8364 22.1001 69.9638 21.9733 70.1159 21.8828C70.3085 21.7604 70.5325 21.6966 70.7606 21.699C70.9892 21.6917 71.2157 21.7456 71.4165 21.8551C71.6174 21.9647 71.7853 22.1258 71.903 22.322C72.0355 22.1501 72.1958 22.0016 72.3773 21.8828C72.5822 21.759 72.8178 21.6953 73.0571 21.699C73.2572 21.6889 73.4572 21.7228 73.6427 21.7984C73.8283 21.874 73.995 21.9895 74.131 22.1366C74.3615 22.3905 74.4768 22.8025 74.4768 23.3726V27.7685Z" fill="white"/>
<path d="M82.4603 22.5992H82.1847C82.0389 22.59 81.8928 22.6121 81.7562 22.664C81.6196 22.716 81.4958 22.7966 81.3929 22.9003C81.2901 23.0041 81.2107 23.1287 81.16 23.2658C81.1093 23.4028 81.0885 23.5491 81.0991 23.6948V27.7684H80.1638V21.7908H81.064V22.4255C81.1677 22.2527 81.31 22.1063 81.4799 21.9979C81.7672 21.798 82.1102 21.6934 82.4603 21.6989V22.5992Z" fill="white"/>
<path d="M85.8892 22.5992H85.6119C85.4662 22.5902 85.3203 22.6125 85.184 22.6646C85.0476 22.7166 84.9239 22.7973 84.8213 22.901C84.7186 23.0048 84.6394 23.1293 84.5888 23.2662C84.5382 23.4031 84.5174 23.5492 84.5279 23.6948V27.7684H83.5927V21.7908H84.4979V22.4255C84.6016 22.2527 84.7439 22.1063 84.9138 21.9979C85.2011 21.798 85.5441 21.6934 85.8942 21.6989L85.8892 22.5992Z" fill="white"/>
<path d="M95.2505 27.7684H94.3035L93.4952 23.3958L92.7102 27.7684H91.7648L90.5306 21.7908H91.5911L92.2726 26.2919L93.0693 21.7908H93.911L94.7528 26.2919L95.4459 21.7908H96.5082L95.2505 27.7684Z" fill="white"/>
<path d="M57.3591 26.7647C57.4204 26.8448 57.4996 26.9094 57.5904 26.9535C57.6811 26.9976 57.7809 27.0199 57.8818 27.0186C57.9826 27.0214 58.0827 27.0023 58.1753 26.9625C58.2679 26.9227 58.3507 26.8632 58.4179 26.7881C58.57 26.5949 58.6444 26.3519 58.6267 26.1066H59.562C59.5724 26.5896 59.4021 27.0589 59.0843 27.4228C58.8138 27.7156 58.4152 27.862 57.8885 27.862C57.6696 27.8706 57.4514 27.834 57.2473 27.7544C57.0433 27.6748 56.8579 27.5539 56.7027 27.3994C56.3475 27.0386 56.1693 26.1657 56.1682 24.7805C56.1573 24.2439 56.188 23.7073 56.2601 23.1755C56.3302 22.7145 56.4727 22.376 56.6876 22.16C56.8413 22.0059 57.0254 21.8854 57.228 21.806C57.4307 21.7267 57.6476 21.6902 57.8651 21.699C58.0815 21.6886 58.2977 21.7243 58.4993 21.8038C58.7008 21.8833 58.8832 22.0047 59.0342 22.16C59.2569 22.4072 59.4067 22.788 59.4835 23.3024C59.5405 23.8662 59.5639 24.4328 59.5537 24.9993H57.1069C57.1069 25.9613 57.1909 26.5498 57.3591 26.7647ZM57.8601 22.5291C57.7541 22.529 57.6496 22.554 57.5552 22.6022C57.4609 22.6504 57.3793 22.7204 57.3173 22.8064C57.172 23.0135 57.0985 23.5112 57.0985 24.2945H58.6217C58.6217 23.4728 58.5482 22.9717 58.4029 22.7913C58.3393 22.7094 58.2577 22.6432 58.1645 22.5977C58.0713 22.5522 57.9688 22.5288 57.8651 22.5291H57.8601Z" fill="white"/>
<path d="M78.4935 27.3075C78.2096 27.6766 77.7854 27.862 77.2242 27.862C76.9836 27.8767 76.7431 27.8328 76.5232 27.7342C76.3033 27.6356 76.1106 27.4852 75.9615 27.2958C75.672 26.9183 75.5278 26.0799 75.5289 24.7805C75.5301 23.4811 75.6742 22.6421 75.9615 22.2636C76.1114 22.0752 76.3043 21.9257 76.5241 21.8274C76.7438 21.7292 76.9839 21.6852 77.2242 21.699C77.7854 21.699 78.2096 21.8828 78.4935 22.2519C78.7774 22.621 78.9211 23.4644 78.9211 24.7805C78.9211 26.0966 78.7791 26.9384 78.4935 27.3075ZM77.2242 22.5291C77.1233 22.525 77.023 22.546 76.9324 22.5904C76.8417 22.6347 76.7635 22.7009 76.7048 22.783C76.5444 23.0057 76.4637 23.6737 76.4626 24.7872C76.4626 25.8862 76.5444 26.5492 76.7048 26.7714C76.7632 26.8537 76.8414 26.9201 76.9321 26.9644C77.0229 27.0088 77.1233 27.0297 77.2242 27.0252C77.3269 27.0307 77.4293 27.0104 77.5221 26.966C77.6149 26.9217 77.6951 26.8547 77.7553 26.7714C77.9089 26.5554 77.9858 25.894 77.9858 24.7872C77.9858 23.6804 77.9089 23.0124 77.7553 22.783C77.6948 22.6999 77.6145 22.6333 77.5218 22.5889C77.4291 22.5446 77.3268 22.5241 77.2242 22.5291Z" fill="white"/>
<path d="M67.3551 27.3076C67.0689 27.6761 66.6458 27.861 66.0858 27.8621C65.8451 27.876 65.6045 27.8319 65.3845 27.7333C65.1644 27.6348 64.9713 27.4848 64.8214 27.2959C64.5319 26.9184 64.3877 26.08 64.3889 24.7806C64.39 23.4812 64.5342 22.6422 64.8214 22.2636C64.9715 22.0751 65.1647 21.9254 65.3847 21.8271C65.6048 21.7289 65.8452 21.685 66.0858 21.6991C66.6425 21.6991 67.0656 21.8834 67.3551 22.252C67.6446 22.6205 67.7866 23.4634 67.781 24.7806C67.781 26.0945 67.639 26.9368 67.3551 27.3076ZM66.0858 22.5292C65.9849 22.5248 65.8845 22.5457 65.7937 22.59C65.703 22.6344 65.6248 22.7007 65.5663 22.7831C65.4038 23.0058 65.3231 23.6738 65.3242 24.7873C65.3242 25.8863 65.4043 26.5493 65.5663 26.7715C65.6245 26.8541 65.7026 26.9208 65.7934 26.9651C65.8843 27.0095 65.9848 27.0302 66.0858 27.0253C66.1885 27.0308 66.2909 27.0105 66.3837 26.9661C66.4765 26.9218 66.5567 26.8548 66.6169 26.7715C66.7705 26.5555 66.8474 25.8941 66.8474 24.7873C66.8474 23.6805 66.7705 23.0124 66.6169 22.7831C66.5564 22.7 66.4761 22.6334 66.3834 22.589C66.2907 22.5447 66.1884 22.5242 66.0858 22.5292Z" fill="white"/>
<path d="M89.5735 27.3075C89.2879 27.6766 88.8653 27.862 88.3025 27.862C88.062 27.8765 87.8215 27.8326 87.6016 27.734C87.3817 27.6354 87.189 27.4851 87.0398 27.2958C86.7503 26.9183 86.6061 26.0799 86.6072 24.7805C86.6084 23.4811 86.7525 22.6421 87.0398 22.2636C87.1897 22.0752 87.3826 21.9257 87.6024 21.8274C87.8221 21.7292 88.0622 21.6852 88.3025 21.699C88.8653 21.699 89.2879 21.8828 89.5735 22.2519C89.8591 22.621 89.9994 23.4644 89.9994 24.7805C89.9994 26.0966 89.8574 26.9384 89.5735 27.3075ZM88.3025 22.5291C88.2018 22.5248 88.1017 22.5458 88.0113 22.5901C87.9208 22.6345 87.8429 22.7008 87.7847 22.783C87.6233 23.0057 87.542 23.6737 87.5409 24.7872C87.5409 25.8862 87.6227 26.5492 87.7847 26.7714C87.8427 26.8538 87.9206 26.9203 88.0111 26.9646C88.1016 27.009 88.2018 27.0299 88.3025 27.0252C88.4052 27.0311 88.5078 27.0108 88.6006 26.9665C88.6935 26.9221 88.7736 26.855 88.8336 26.7714C88.9873 26.5554 89.0641 25.894 89.0641 24.7872C89.0641 23.6804 88.9873 23.0124 88.8336 22.783C88.7734 22.6996 88.6932 22.6327 88.6004 22.5883C88.5076 22.544 88.4052 22.5236 88.3025 22.5291Z" fill="white"/>
<path d="M38.3274 27.3076C38.0435 27.6767 37.6192 27.8621 37.0581 27.8621C36.8175 27.877 36.5769 27.8333 36.3569 27.7347C36.137 27.6361 35.9443 27.4855 35.7954 27.2959C35.507 26.9184 35.3623 26.08 35.3612 24.7806C35.36 23.4812 35.5048 22.6422 35.7954 22.2636C35.9446 22.0746 36.1374 21.9245 36.3573 21.8262C36.5772 21.7279 36.8176 21.6843 37.0581 21.6991C37.6192 21.6991 38.0435 21.8829 38.3274 22.252C38.6113 22.6211 38.755 23.4645 38.755 24.7806C38.755 26.0967 38.613 26.9385 38.3274 27.3076ZM37.0647 22.5292C36.9639 22.5249 36.8635 22.5459 36.7728 22.5902C36.6821 22.6346 36.6039 22.7009 36.5453 22.7831C36.385 23.0058 36.3042 23.6738 36.3031 24.7873C36.3031 25.8863 36.385 26.5493 36.5453 26.7715C36.6037 26.8539 36.6819 26.9204 36.7726 26.9647C36.8634 27.0091 36.9638 27.0299 37.0647 27.0253C37.1674 27.0308 37.2699 27.0105 37.3627 26.9661C37.4555 26.9218 37.5356 26.8548 37.5959 26.7715C37.7495 26.5555 37.8263 25.8941 37.8263 24.7873C37.8263 23.6805 37.7495 23.0125 37.5959 22.7831C37.5353 22.7 37.4551 22.6334 37.3624 22.589C37.2697 22.5447 37.1674 22.5242 37.0647 22.5292Z" fill="white"/>
<path d="M50.0921 27.7685H49.2036V27.2391C49.1166 27.3956 48.999 27.5331 48.8578 27.6432C48.6542 27.7936 48.406 27.8712 48.153 27.8637C47.961 27.8708 47.7698 27.8351 47.5933 27.7591C47.4168 27.6832 47.2594 27.5688 47.1325 27.4245C46.8731 27.1327 46.7439 26.6823 46.7451 26.0733C46.7451 25.4904 46.9221 25.0394 47.2762 24.7238C47.5768 24.4543 47.9999 24.3196 48.5455 24.3196H49.1568V23.3743C49.1568 22.8042 48.9224 22.5191 48.4537 22.5191C48.3669 22.517 48.2808 22.5334 48.2009 22.5674C48.1211 22.6014 48.0495 22.6522 47.991 22.7162C47.8318 22.9099 47.7534 23.1576 47.7722 23.4077H46.8369C46.8233 23.1784 46.8562 22.9488 46.9337 22.7327C47.0112 22.5165 47.1317 22.3183 47.2879 22.15C47.4419 21.9995 47.625 21.882 47.8261 21.8047C48.0271 21.7275 48.2418 21.6921 48.457 21.7007C48.9581 21.7007 49.3522 21.8394 49.6261 22.1166C49.7883 22.2933 49.9136 22.5006 49.9947 22.7263C50.0759 22.952 50.1113 23.1915 50.0988 23.4311L50.0921 27.7685ZM47.9526 25.2181C47.7672 25.3852 47.6754 25.6607 47.6754 26.0382C47.6754 26.7063 47.9175 27.0403 48.4019 27.0403C48.5063 27.0426 48.6098 27.0204 48.7041 26.9754C48.7983 26.9304 48.8807 26.864 48.9447 26.7814C49.088 26.5889 49.1611 26.3532 49.1518 26.1134V25.006H48.6207C48.3789 24.9875 48.1394 25.0635 47.9526 25.2181Z" fill="white"/>
<path d="M26.4808 27.7684L26.0883 25.8294H24.1843L23.7918 27.7684H22.7529L24.6686 19.5562H25.6273L27.5313 27.7718L26.4808 27.7684ZM24.3713 24.9408H25.9062L25.1446 21.1562L24.3713 24.9408Z" fill="white"/>
<path d="M19.6197 26.7647C19.6809 26.8449 19.7601 26.9097 19.8509 26.9537C19.9417 26.9978 20.0415 27.02 20.1424 27.0186C20.2429 27.0216 20.3429 27.0025 20.4352 26.9626C20.5276 26.9228 20.61 26.8632 20.6769 26.7881C20.8296 26.5953 20.9042 26.352 20.8857 26.1067H21.821C21.8326 26.5895 21.6628 27.0591 21.345 27.4228C21.0727 27.7151 20.6769 27.862 20.1474 27.862C19.9288 27.8706 19.7108 27.834 19.507 27.7544C19.3033 27.6748 19.1182 27.5539 18.9633 27.3994C18.6059 27.0386 18.4277 26.1657 18.4288 24.7806C18.4171 24.244 18.4478 23.7073 18.5207 23.1755C18.5519 22.8002 18.7016 22.4446 18.9482 22.16C19.1007 22.0067 19.2833 21.8865 19.4846 21.8072C19.6858 21.7279 19.9012 21.691 20.1174 21.6991C20.3352 21.6871 20.5531 21.7221 20.7562 21.8016C20.9593 21.8811 21.143 22.0034 21.2948 22.16C21.5175 22.4072 21.6679 22.788 21.7458 23.3024C21.8011 23.8663 21.824 24.4329 21.8143 24.9994H19.3608C19.3608 25.9614 19.4471 26.5498 19.6197 26.7647ZM20.1207 22.5292C20.015 22.5293 19.9108 22.5545 19.8168 22.6026C19.7227 22.6508 19.6414 22.7207 19.5796 22.8064C19.4326 23.0135 19.3591 23.5112 19.3591 24.2945H20.8823C20.8823 23.4728 20.8105 22.9718 20.6635 22.7914C20.5998 22.7091 20.518 22.6427 20.4244 22.5972C20.3309 22.5517 20.2281 22.5284 20.1241 22.5292H20.1207Z" fill="white"/>
<mask id="mask0_2727_15565" style="mask-type:luminance" maskUnits="userSpaceOnUse" x="0" y="19" width="9" height="9">
<path d="M8.40435 23.0132L8.67158 21.1259H7.13501L7.38554 19.3054H5.49824L5.24771 21.1259H4.09027L4.3408 19.3054H2.4535L2.20297 21.1259H0.699806L0.425897 23.0132H1.94743L1.79711 24.1089H0.27391L0 25.9962H1.53657L1.28604 27.8167H3.17334L3.42387 25.9962H4.58131L4.33078 27.8167H6.21808L6.46861 25.9962H7.97177L8.24568 24.1089H6.72582L6.87614 23.0132H8.40435ZM4.84353 24.1089H3.68609L3.83641 23.0132H4.99718L4.84353 24.1089Z" fill="white"/>
</mask>
<g mask="url(#mask0_2727_15565)">
<path d="M4.46545 22.0581C4.81022 20.587 3.89717 19.115 2.42612 18.7702C0.955059 18.4255 -0.516952 19.3385 -0.861714 20.8096C-1.20648 22.2806 -0.293436 23.7526 1.17762 24.0974C2.64868 24.4422 4.12069 23.5291 4.46545 22.0581Z" fill="#519FD7"/>
<path d="M5.41503 26.8142C5.87053 24.9343 4.71581 23.0411 2.8359 22.5856C0.955987 22.1301 -0.937232 23.2848 -1.39273 25.1647C-1.84822 27.0446 -0.693499 28.9379 1.18641 29.3933C3.06632 29.8488 4.95954 28.6941 5.41503 26.8142Z" fill="#F79428"/>
<path d="M5.37794 24.767C7.30025 24.767 8.85859 23.2086 8.85859 21.2863C8.85859 19.364 7.30025 17.8057 5.37794 17.8057C3.45562 17.8057 1.89728 19.364 1.89728 21.2863C1.89728 23.2086 3.45562 24.767 5.37794 24.767Z" fill="#39B54A"/>
<path d="M9.432 26.5327C9.73957 24.6296 8.44615 22.8375 6.54306 22.53C4.63997 22.2224 2.84787 23.5158 2.5403 25.4189C2.23273 27.322 3.52616 29.1141 5.42925 29.4217C7.33234 29.7292 9.12443 28.4358 9.432 26.5327Z" fill="#EE312F"/>
<path d="M8.21247 24.6385C9.24591 24.2344 9.75604 23.069 9.35187 22.0355C8.9477 21.0021 7.78228 20.4919 6.74884 20.8961C5.7154 21.3003 5.20527 22.4657 5.60944 23.4991C6.01361 24.5326 7.17902 25.0427 8.21247 24.6385Z" fill="#519FD7"/>
<path d="M3.48396 20.5648C4.59363 20.5648 5.49319 19.6653 5.49319 18.5556C5.49319 17.4459 4.59363 16.5464 3.48396 16.5464C2.37429 16.5464 1.47473 17.4459 1.47473 18.5556C1.47473 19.6653 2.37429 20.5648 3.48396 20.5648Z" fill="#F79428"/>
<path d="M-0.865163 27.5111C0.244503 27.5111 1.14406 26.6116 1.14406 25.5019C1.14406 24.3922 0.244503 23.4927 -0.865163 23.4927C-1.97483 23.4927 -2.87439 24.3922 -2.87439 25.5019C-2.87439 26.6116 -1.97483 27.5111 -0.865163 27.5111Z" fill="#EE312F"/>
</g>
</svg>
