<svg width="99" height="32" viewBox="0 0 99 32" fill="none" xmlns="http://www.w3.org/2000/svg">
<path d="M43.844 23.108C43.3501 23.1122 42.8581 23.0475 42.3821 22.916C41.953 22.7979 41.5558 22.585 41.22 22.293C40.8771 21.9823 40.6176 21.5908 40.4651 21.154C40.2742 20.5867 40.1847 19.9903 40.2009 19.392V12.729H38.5959V10.236H40.2009V6.76099H43.1011V10.236H46.501V12.729H43.1011V18.936C43.0803 19.1549 43.1057 19.3758 43.1758 19.5842C43.2459 19.7927 43.3592 19.9841 43.5081 20.146C43.8304 20.4111 44.2414 20.5437 44.658 20.517C45.2836 20.5167 45.9004 20.3687 46.458 20.085V22.4579C46.092 22.6651 45.7016 22.826 45.2959 22.937C44.8221 23.0567 44.3346 23.1132 43.8459 23.105" fill="white"/>
<path d="M52.8579 23.155C52.24 23.1926 51.6214 23.0941 51.0459 22.8663C50.4703 22.6386 49.9519 22.2872 49.5271 21.837C48.704 20.8441 48.2845 19.5779 48.352 18.29V10.2371H51.2519V17.41C51.1962 18.229 51.4483 19.0393 51.9589 19.6821C52.2147 19.9514 52.5263 20.1616 52.8718 20.2979C53.2173 20.4341 53.5882 20.4933 53.9589 20.4711C54.3401 20.4861 54.7203 20.4216 55.0752 20.2816C55.43 20.1416 55.7518 19.9293 56.02 19.658C56.2974 19.3461 56.5102 18.9822 56.646 18.5873C56.7817 18.1925 56.8379 17.7747 56.811 17.358V10.2321H59.7109V22.8881H56.812V20.902C56.3917 21.5191 55.8639 22.0556 55.2539 22.486C54.544 22.9551 53.7041 23.1879 52.854 23.1511" fill="white"/>
<path d="M62.396 10.241H65.2961V13.092C65.653 12.1905 66.239 11.3977 66.9961 10.792C67.7953 10.1982 68.7841 9.91723 69.7761 10.002V13.069H69.6082C69.0104 13.0614 68.4167 13.1669 67.8582 13.38C67.3376 13.5832 66.8702 13.9027 66.4919 14.314C66.0866 14.7673 65.7841 15.3029 65.605 15.884C65.3854 16.5935 65.28 17.3334 65.293 18.076V22.892H62.3931L62.396 10.241Z" fill="white"/>
<path d="M71.5031 10.235H74.403V22.891H71.5031V10.235ZM71.384 5.53503H74.499V8.29102H71.384V5.53503Z" fill="white"/>
<path d="M81.4741 23.108C80.9802 23.1123 80.488 23.0476 80.012 22.916C79.5824 22.7983 79.185 22.5854 78.8491 22.293C78.5059 21.9826 78.2462 21.591 78.094 21.154C77.9031 20.5867 77.8138 19.9903 77.8301 19.392V12.729H76.2241V10.236H77.8301V6.76099H80.73V10.236H84.1301V12.729H80.73V18.936C80.7094 19.1549 80.7351 19.3757 80.8052 19.5842C80.8753 19.7926 80.9882 19.984 81.137 20.146C81.4592 20.4114 81.8705 20.5444 82.2871 20.5179C82.9128 20.5177 83.5293 20.3698 84.0869 20.086V22.459C83.7209 22.6662 83.3307 22.8271 82.925 22.938C82.4513 23.0578 81.9637 23.1143 81.4751 23.106" fill="white"/>
<path d="M91.831 20.638C92.3547 20.6473 92.8746 20.5465 93.3569 20.3422C93.8392 20.1379 94.2731 19.8346 94.6308 19.452C94.9706 19.0853 95.2314 18.6527 95.3969 18.181C95.5743 17.685 95.6636 17.1618 95.6608 16.635V16.587C95.6644 16.0464 95.5672 15.5099 95.374 15.005C95.1928 14.526 94.9211 14.0863 94.5739 13.71C94.2276 13.3409 93.8122 13.0436 93.351 12.835C92.8553 12.6215 92.3212 12.5115 91.7814 12.5115C91.2417 12.5115 90.7076 12.6215 90.2119 12.835C89.7554 13.0398 89.3442 13.3332 89.0019 13.698C88.66 14.0675 88.3987 14.504 88.2348 14.98C88.0581 15.4803 87.9689 16.0073 87.9709 16.538V16.586C87.967 17.1225 88.0648 17.6548 88.259 18.155C88.4412 18.6298 88.7126 19.0654 89.0588 19.438C89.4045 19.8073 89.82 20.1047 90.281 20.313C90.7668 20.5315 91.2942 20.6417 91.8269 20.636M91.779 23.177C90.8626 23.1851 89.9537 23.01 89.1059 22.662C88.3114 22.3375 87.5873 21.862 86.9738 21.262C86.373 20.6671 85.8971 19.9583 85.5739 19.177C85.2385 18.3721 85.0685 17.5079 85.0739 16.636V16.588C85.0683 15.7067 85.2438 14.8336 85.5898 14.023C86.2644 12.4284 87.5388 11.1628 89.1379 10.499C89.9925 10.1409 90.9113 9.96161 91.8378 9.97198C92.7632 9.96192 93.6811 10.137 94.5378 10.487C95.7392 10.9759 96.7664 11.814 97.4863 12.8929C98.2062 13.9719 98.5857 15.242 98.5759 16.539V16.587C98.5806 17.4604 98.4054 18.3254 98.061 19.128C97.3854 20.7259 96.1058 21.9921 94.5009 22.651C93.6427 23.0076 92.7212 23.1868 91.7919 23.178" fill="white"/>
<path d="M0.0010376 2.33105V28.718C0.0010376 28.718 10.601 24.1531 15.949 31.0001C21.293 24.1531 31.898 28.718 31.898 28.718V2.33105L28.6981 4.69907V24.4601C27.3064 24.1793 25.8907 24.034 24.471 24.0261C23.0363 24.0244 21.6073 24.2048 20.2181 24.563C18.6805 24.9599 17.2321 25.645 15.95 26.5821C14.8369 25.7861 13.6073 25.1671 12.305 24.747C10.729 24.2463 9.08253 24.0029 7.42902 24.0261C6.00931 24.034 4.59366 24.1793 3.20197 24.4601V4.70004L0.0010376 2.33105Z" fill="white"/>
<path d="M14.3477 22.5637V6.37322L14.0859 6.18572C12.0988 4.82503 9.7315 4.13063 7.32422 4.20135C5.93541 4.21176 4.55221 4.37949 3.20117 4.70135L0.000976562 2.33318C0.000976562 2.33318 9.0222 -1.37384 15.9502 3.58416C22.8822 -1.37384 31.8984 2.33318 31.8984 2.33318L28.6982 4.70135C27.3477 4.37657 25.9642 4.20879 24.5752 4.20135C22.1677 4.13132 19.7993 4.82565 17.8115 6.18572L17.5508 6.37322V22.5637H14.3477Z" fill="white"/>
</svg>
