<svg width="82" height="70" viewBox="0 0 82 70" fill="none" xmlns="http://www.w3.org/2000/svg">
<path d="M5.53977 49.0795C5.16098 49.0795 4.82197 49.0085 4.52273 48.8665C4.22348 48.7225 3.9858 48.5256 3.80966 48.2756C3.63542 48.0256 3.54261 47.7396 3.53125 47.4176H4.55398C4.57292 47.6562 4.67614 47.8513 4.86364 48.0028C5.05114 48.1525 5.27652 48.2273 5.53977 48.2273C5.74621 48.2273 5.92992 48.1799 6.09091 48.0852C6.25189 47.9905 6.37879 47.8589 6.47159 47.6903C6.56439 47.5218 6.60985 47.3295 6.60795 47.1136C6.60985 46.8939 6.56345 46.6989 6.46875 46.5284C6.37405 46.358 6.24432 46.2244 6.07955 46.1278C5.91477 46.0294 5.72538 45.9801 5.51136 45.9801C5.33712 45.9782 5.16572 46.0104 4.99716 46.0767C4.8286 46.143 4.69508 46.2301 4.59659 46.3381L3.64489 46.1818L3.94886 43.1818H7.32386V44.0625H4.82102L4.65341 45.6051H4.6875C4.79545 45.4782 4.94792 45.3731 5.14489 45.2898C5.34186 45.2045 5.55777 45.1619 5.79261 45.1619C6.14489 45.1619 6.45928 45.2453 6.7358 45.4119C7.01231 45.5767 7.23011 45.804 7.3892 46.0938C7.5483 46.3835 7.62784 46.715 7.62784 47.0881C7.62784 47.4725 7.53883 47.8153 7.3608 48.1165C7.18466 48.4157 6.93939 48.6515 6.625 48.8239C6.3125 48.9943 5.95076 49.0795 5.53977 49.0795ZM8.57955 49V48.2386L10.5994 46.2585C10.7926 46.0634 10.9536 45.8902 11.0824 45.7386C11.2112 45.5871 11.3078 45.4403 11.3722 45.2983C11.4366 45.1562 11.4688 45.0047 11.4688 44.8438C11.4688 44.66 11.4271 44.5028 11.3438 44.3722C11.2604 44.2396 11.1458 44.1373 11 44.0653C10.8542 43.9934 10.6884 43.9574 10.5028 43.9574C10.3116 43.9574 10.1439 43.9972 10 44.0767C9.85606 44.1544 9.74432 44.2652 9.66477 44.4091C9.58712 44.553 9.5483 44.7244 9.5483 44.9233H8.54545C8.54545 44.554 8.62973 44.233 8.7983 43.9602C8.96686 43.6875 9.19886 43.4763 9.49432 43.3267C9.79167 43.1771 10.1326 43.1023 10.517 43.1023C10.9072 43.1023 11.25 43.1752 11.5455 43.321C11.8409 43.4669 12.0701 43.6667 12.233 43.9205C12.3977 44.1742 12.4801 44.464 12.4801 44.7898C12.4801 45.0076 12.4384 45.2216 12.3551 45.4318C12.2718 45.642 12.125 45.875 11.9148 46.1307C11.7064 46.3864 11.4138 46.696 11.0369 47.0597L10.0341 48.0795V48.1193H12.5682V49H8.57955ZM16.3679 43.1818L17.8821 47.7614H17.9418L19.4531 43.1818H20.6122L18.5611 49H17.2599L15.2116 43.1818H16.3679ZM22.7962 49.0852C22.3587 49.0852 21.9808 48.9943 21.6626 48.8125C21.3464 48.6288 21.103 48.3693 20.9325 48.0341C20.7621 47.697 20.6768 47.3002 20.6768 46.8438C20.6768 46.3949 20.7621 46.0009 20.9325 45.6619C21.1049 45.321 21.3454 45.0559 21.6541 44.8665C21.9628 44.6752 22.3255 44.5795 22.7422 44.5795C23.0111 44.5795 23.2649 44.6231 23.5036 44.7102C23.7441 44.7955 23.9562 44.928 24.1399 45.108C24.3255 45.2879 24.4714 45.517 24.5774 45.7955C24.6835 46.072 24.7365 46.4015 24.7365 46.7841V47.0994H21.1598V46.4062H23.7507C23.7488 46.2093 23.7062 46.0341 23.6229 45.8807C23.5395 45.7254 23.4231 45.6032 23.2734 45.5142C23.1257 45.4252 22.9534 45.3807 22.7564 45.3807C22.5462 45.3807 22.3615 45.4318 22.2024 45.5341C22.0433 45.6345 21.9193 45.767 21.8303 45.9318C21.7431 46.0947 21.6986 46.2737 21.6967 46.4688V47.0739C21.6967 47.3277 21.7431 47.5455 21.8359 47.7273C21.9287 47.9072 22.0585 48.0455 22.2251 48.142C22.3918 48.2367 22.5869 48.2841 22.8104 48.2841C22.96 48.2841 23.0954 48.2633 23.2166 48.2216C23.3378 48.178 23.4429 48.1146 23.532 48.0312C23.621 47.9479 23.6882 47.8447 23.7337 47.7216L24.6939 47.8295C24.6333 48.0833 24.5178 48.3049 24.3473 48.4943C24.1787 48.6818 23.9628 48.8277 23.6996 48.9318C23.4363 49.0341 23.1352 49.0852 22.7962 49.0852ZM25.6065 49V44.6364H26.6037V45.3636H26.6491C26.7287 45.1117 26.8651 44.9176 27.0582 44.7812C27.2533 44.643 27.4759 44.5739 27.7259 44.5739C27.7827 44.5739 27.8461 44.5767 27.9162 44.5824C27.9882 44.5862 28.0478 44.5928 28.0952 44.6023V45.5483C28.0516 45.5331 27.9825 45.5199 27.8878 45.5085C27.795 45.4953 27.705 45.4886 27.6179 45.4886C27.4304 45.4886 27.2618 45.5294 27.1122 45.6108C26.9645 45.6903 26.848 45.8011 26.7628 45.9432C26.6776 46.0852 26.6349 46.2491 26.6349 46.4347V49H25.6065ZM28.7784 49V44.6364H29.8068V49H28.7784ZM29.2955 44.017C29.1326 44.017 28.9924 43.9631 28.875 43.8551C28.7576 43.7453 28.6989 43.6136 28.6989 43.4602C28.6989 43.3049 28.7576 43.1733 28.875 43.0653C28.9924 42.9555 29.1326 42.9006 29.2955 42.9006C29.4602 42.9006 29.6004 42.9555 29.7159 43.0653C29.8333 43.1733 29.892 43.3049 29.892 43.4602C29.892 43.6136 29.8333 43.7453 29.7159 43.8551C29.6004 43.9631 29.4602 44.017 29.2955 44.017ZM33.0746 44.6364V45.4318H30.495V44.6364H33.0746ZM31.1399 49V44.2244C31.1399 43.9309 31.2005 43.6866 31.3217 43.4915C31.4448 43.2964 31.6096 43.1506 31.8161 43.054C32.0225 42.9574 32.2517 42.9091 32.5036 42.9091C32.6816 42.9091 32.8397 42.9233 32.978 42.9517C33.1162 42.9801 33.2185 43.0057 33.2848 43.0284L33.0803 43.8239C33.0367 43.8106 32.9818 43.7973 32.9155 43.7841C32.8492 43.7689 32.7753 43.7614 32.6939 43.7614C32.5026 43.7614 32.3672 43.8078 32.2876 43.9006C32.21 43.9915 32.1712 44.1222 32.1712 44.2926V49H31.1399ZM33.88 49V44.6364H34.9084V49H33.88ZM34.397 44.017C34.2341 44.017 34.094 43.9631 33.9766 43.8551C33.8591 43.7453 33.8004 43.6136 33.8004 43.4602C33.8004 43.3049 33.8591 43.1733 33.9766 43.0653C34.094 42.9555 34.2341 42.9006 34.397 42.9006C34.5618 42.9006 34.7019 42.9555 34.8175 43.0653C34.9349 43.1733 34.9936 43.3049 34.9936 43.4602C34.9936 43.6136 34.9349 43.7453 34.8175 43.8551C34.7019 43.9631 34.5618 44.017 34.397 44.017ZM37.8977 49.0852C37.4602 49.0852 37.0824 48.9943 36.7642 48.8125C36.4479 48.6288 36.2045 48.3693 36.0341 48.0341C35.8636 47.697 35.7784 47.3002 35.7784 46.8438C35.7784 46.3949 35.8636 46.0009 36.0341 45.6619C36.2064 45.321 36.447 45.0559 36.7557 44.8665C37.0644 44.6752 37.4271 44.5795 37.8438 44.5795C38.1127 44.5795 38.3665 44.6231 38.6051 44.7102C38.8456 44.7955 39.0578 44.928 39.2415 45.108C39.4271 45.2879 39.5729 45.517 39.679 45.7955C39.785 46.072 39.8381 46.4015 39.8381 46.7841V47.0994H36.2614V46.4062H38.8523C38.8504 46.2093 38.8078 46.0341 38.7244 45.8807C38.6411 45.7254 38.5246 45.6032 38.375 45.5142C38.2273 45.4252 38.0549 45.3807 37.858 45.3807C37.6477 45.3807 37.4631 45.4318 37.304 45.5341C37.1449 45.6345 37.0208 45.767 36.9318 45.9318C36.8447 46.0947 36.8002 46.2737 36.7983 46.4688V47.0739C36.7983 47.3277 36.8447 47.5455 36.9375 47.7273C37.0303 47.9072 37.16 48.0455 37.3267 48.142C37.4934 48.2367 37.6884 48.2841 37.9119 48.2841C38.0616 48.2841 38.197 48.2633 38.3182 48.2216C38.4394 48.178 38.5445 48.1146 38.6335 48.0312C38.7225 47.9479 38.7898 47.8447 38.8352 47.7216L39.7955 47.8295C39.7348 48.0833 39.6193 48.3049 39.4489 48.4943C39.2803 48.6818 39.0644 48.8277 38.8011 48.9318C38.5379 49.0341 38.2367 49.0852 37.8977 49.0852ZM42.3274 49.0767C41.9846 49.0767 41.6778 48.9886 41.407 48.8125C41.1361 48.6364 40.9221 48.3807 40.7649 48.0455C40.6077 47.7102 40.5291 47.303 40.5291 46.8239C40.5291 46.339 40.6087 45.9299 40.7678 45.5966C40.9287 45.2614 41.1456 45.0085 41.4183 44.8381C41.6911 44.6657 41.995 44.5795 42.3303 44.5795C42.5859 44.5795 42.7962 44.6231 42.9609 44.7102C43.1257 44.7955 43.2564 44.8987 43.353 45.0199C43.4496 45.1392 43.5244 45.2519 43.5774 45.358H43.62V43.1818H44.6513V49H43.6399V48.3125H43.5774C43.5244 48.4186 43.4477 48.5312 43.3473 48.6506C43.2469 48.768 43.1143 48.8684 42.9496 48.9517C42.7848 49.035 42.5774 49.0767 42.3274 49.0767ZM42.6143 48.233C42.8321 48.233 43.0178 48.1742 43.1712 48.0568C43.3246 47.9375 43.4411 47.7718 43.5206 47.5597C43.6001 47.3475 43.6399 47.1004 43.6399 46.8182C43.6399 46.536 43.6001 46.2907 43.5206 46.0824C43.4429 45.8741 43.3274 45.7121 43.174 45.5966C43.0225 45.4811 42.8359 45.4233 42.6143 45.4233C42.3852 45.4233 42.1939 45.483 42.0405 45.6023C41.8871 45.7216 41.7715 45.8864 41.6939 46.0966C41.6162 46.3068 41.5774 46.5473 41.5774 46.8182C41.5774 47.0909 41.6162 47.3343 41.6939 47.5483C41.7734 47.7604 41.8899 47.928 42.0433 48.0511C42.1986 48.1723 42.389 48.233 42.6143 48.233ZM47.777 49V43.1818H49.9588C50.4058 43.1818 50.7808 43.2595 51.0838 43.4148C51.3887 43.5701 51.6188 43.7879 51.7741 44.0682C51.9313 44.3466 52.0099 44.6714 52.0099 45.0426C52.0099 45.4157 51.9304 45.7396 51.7713 46.0142C51.6141 46.2869 51.3821 46.4981 51.0753 46.6477C50.7685 46.7955 50.3916 46.8693 49.9446 46.8693H48.3906V45.9943H49.8026C50.0639 45.9943 50.2779 45.9583 50.4446 45.8864C50.6113 45.8125 50.7344 45.7055 50.8139 45.5653C50.8954 45.4233 50.9361 45.2491 50.9361 45.0426C50.9361 44.8362 50.8954 44.66 50.8139 44.5142C50.7325 44.3665 50.6084 44.2547 50.4418 44.179C50.2751 44.1013 50.0601 44.0625 49.7969 44.0625H48.831V49H47.777ZM50.7827 46.3636L52.223 49H51.0469L49.6321 46.3636H50.7827ZM54.804 49.0852C54.3665 49.0852 53.9886 48.9943 53.6705 48.8125C53.3542 48.6288 53.1108 48.3693 52.9403 48.0341C52.7699 47.697 52.6847 47.3002 52.6847 46.8438C52.6847 46.3949 52.7699 46.0009 52.9403 45.6619C53.1127 45.321 53.3532 45.0559 53.6619 44.8665C53.9706 44.6752 54.3333 44.5795 54.75 44.5795C55.0189 44.5795 55.2727 44.6231 55.5114 44.7102C55.7519 44.7955 55.964 44.928 56.1477 45.108C56.3333 45.2879 56.4792 45.517 56.5852 45.7955C56.6913 46.072 56.7443 46.4015 56.7443 46.7841V47.0994H53.1676V46.4062H55.7585C55.7566 46.2093 55.714 46.0341 55.6307 45.8807C55.5473 45.7254 55.4309 45.6032 55.2812 45.5142C55.1335 45.4252 54.9612 45.3807 54.7642 45.3807C54.554 45.3807 54.3693 45.4318 54.2102 45.5341C54.0511 45.6345 53.9271 45.767 53.8381 45.9318C53.7509 46.0947 53.7064 46.2737 53.7045 46.4688V47.0739C53.7045 47.3277 53.7509 47.5455 53.8438 47.7273C53.9366 47.9072 54.0663 48.0455 54.233 48.142C54.3996 48.2367 54.5947 48.2841 54.8182 48.2841C54.9678 48.2841 55.1032 48.2633 55.2244 48.2216C55.3456 48.178 55.4508 48.1146 55.5398 48.0312C55.6288 47.9479 55.696 47.8447 55.7415 47.7216L56.7017 47.8295C56.6411 48.0833 56.5256 48.3049 56.3551 48.4943C56.1866 48.6818 55.9706 48.8277 55.7074 48.9318C55.4441 49.0341 55.143 49.0852 54.804 49.0852ZM61.3871 44.6364L59.8331 49H58.6967L57.1428 44.6364H58.2393L59.2422 47.8778H59.2876L60.2933 44.6364H61.3871ZM62.0987 49V44.6364H63.1271V49H62.0987ZM62.6158 44.017C62.4529 44.017 62.3127 43.9631 62.1953 43.8551C62.0779 43.7453 62.0192 43.6136 62.0192 43.4602C62.0192 43.3049 62.0779 43.1733 62.1953 43.0653C62.3127 42.9555 62.4529 42.9006 62.6158 42.9006C62.7805 42.9006 62.9207 42.9555 63.0362 43.0653C63.1536 43.1733 63.2124 43.3049 63.2124 43.4602C63.2124 43.6136 63.1536 43.7453 63.0362 43.8551C62.9207 43.9631 62.7805 44.017 62.6158 44.017ZM66.1165 49.0852C65.679 49.0852 65.3011 48.9943 64.983 48.8125C64.6667 48.6288 64.4233 48.3693 64.2528 48.0341C64.0824 47.697 63.9972 47.3002 63.9972 46.8438C63.9972 46.3949 64.0824 46.0009 64.2528 45.6619C64.4252 45.321 64.6657 45.0559 64.9744 44.8665C65.2831 44.6752 65.6458 44.5795 66.0625 44.5795C66.3314 44.5795 66.5852 44.6231 66.8239 44.7102C67.0644 44.7955 67.2765 44.928 67.4602 45.108C67.6458 45.2879 67.7917 45.517 67.8977 45.7955C68.0038 46.072 68.0568 46.4015 68.0568 46.7841V47.0994H64.4801V46.4062H67.071C67.0691 46.2093 67.0265 46.0341 66.9432 45.8807C66.8598 45.7254 66.7434 45.6032 66.5938 45.5142C66.446 45.4252 66.2737 45.3807 66.0767 45.3807C65.8665 45.3807 65.6818 45.4318 65.5227 45.5341C65.3636 45.6345 65.2396 45.767 65.1506 45.9318C65.0634 46.0947 65.0189 46.2737 65.017 46.4688V47.0739C65.017 47.3277 65.0634 47.5455 65.1562 47.7273C65.2491 47.9072 65.3788 48.0455 65.5455 48.142C65.7121 48.2367 65.9072 48.2841 66.1307 48.2841C66.2803 48.2841 66.4157 48.2633 66.5369 48.2216C66.6581 48.178 66.7633 48.1146 66.8523 48.0312C66.9413 47.9479 67.0085 47.8447 67.054 47.7216L68.0142 47.8295C67.9536 48.0833 67.8381 48.3049 67.6676 48.4943C67.4991 48.6818 67.2831 48.8277 67.0199 48.9318C66.7566 49.0341 66.4555 49.0852 66.1165 49.0852ZM69.804 49L68.571 44.6364H69.6193L70.3864 47.7045H70.4261L71.2102 44.6364H72.2472L73.0312 47.6875H73.0739L73.8295 44.6364H74.8807L73.6449 49H72.5739L71.7557 46.0511H71.696L70.8778 49H69.804ZM79.0476 45.7898L78.1101 45.892C78.0836 45.7973 78.0372 45.7083 77.9709 45.625C77.9065 45.5417 77.8194 45.4744 77.7095 45.4233C77.5997 45.3722 77.4652 45.3466 77.3061 45.3466C77.0921 45.3466 76.9122 45.393 76.7663 45.4858C76.6224 45.5786 76.5514 45.6989 76.5533 45.8466C76.5514 45.9735 76.5978 46.0767 76.6925 46.1562C76.7891 46.2358 76.9482 46.3011 77.1697 46.3523L77.9141 46.5114C78.3269 46.6004 78.6338 46.7415 78.8345 46.9347C79.0372 47.1278 79.1394 47.3807 79.1413 47.6932C79.1394 47.9678 79.0589 48.2102 78.8999 48.4205C78.7427 48.6288 78.5239 48.7917 78.2436 48.9091C77.9633 49.0265 77.6413 49.0852 77.2777 49.0852C76.7436 49.0852 76.3137 48.9735 75.9879 48.75C75.6622 48.5246 75.468 48.2112 75.4055 47.8097L76.4084 47.7131C76.4538 47.91 76.5504 48.0587 76.6982 48.1591C76.8459 48.2595 77.0381 48.3097 77.2749 48.3097C77.5192 48.3097 77.7152 48.2595 77.8629 48.1591C78.0125 48.0587 78.0874 47.9347 78.0874 47.7869C78.0874 47.6619 78.0391 47.5587 77.9425 47.4773C77.8478 47.3958 77.7 47.3333 77.4993 47.2898L76.755 47.1335C76.3364 47.0464 76.0268 46.8996 75.826 46.6932C75.6252 46.4848 75.5258 46.2216 75.5277 45.9034C75.5258 45.6345 75.5987 45.4015 75.7464 45.2045C75.8961 45.0057 76.1035 44.8523 76.3686 44.7443C76.6357 44.6345 76.9434 44.5795 77.2919 44.5795C77.8033 44.5795 78.2057 44.6884 78.4993 44.9062C78.7947 45.1241 78.9775 45.4186 79.0476 45.7898Z" fill="black"/>
<g clip-path="url(#clip0_206_2007)">
<path d="M9.88695 8.13068C11.3461 8.40861 12.62 9.21926 13.5001 10.3542C14.3339 11.4196 14.8435 12.7861 14.8435 14.2453C14.8435 15.1949 14.3108 16.6541 13.338 18.4375C13.6391 18.947 13.9633 19.5029 14.3339 20.1051C15.5615 17.9743 16.4879 15.8202 16.4879 14.2453C16.4879 12.4619 15.9321 10.8174 14.9824 9.4972C14.0792 8.24648 12.8516 7.25055 11.3924 6.71783C10.605 6.39357 9.72482 6.23145 8.79837 6.23145C4.53667 6.23145 1.08563 9.82146 1.08563 14.2453C1.08563 17.4647 4.95358 23.0466 7.24655 26.0807C7.61714 26.5903 8.19617 26.8682 8.79837 26.8682C9.40056 26.8682 9.9796 26.5903 10.3502 26.0807C10.8366 25.4554 11.3693 24.7142 11.9483 23.9036C11.6009 23.394 11.2766 22.8845 10.9524 22.3749C10.3733 23.2087 9.74798 24.0657 9.0763 24.969C8.96049 25.1311 8.68256 25.1311 8.54359 24.969C4.90726 20.1746 2.75325 16.1677 2.75325 14.2453C2.75325 10.8174 5.46313 8.01487 8.79837 8.01487C9.16895 8.01487 9.51637 8.06119 9.88695 8.13068Z" fill="#D37728"/>
<path d="M13.4075 23.9036C13.9633 24.7142 14.5192 25.4554 15.0056 26.0807C15.3762 26.5903 15.9552 26.8682 16.5574 26.8682C17.1596 26.8682 17.7386 26.5903 18.1092 26.0807C20.379 23.0466 24.247 17.4415 24.247 14.2453C24.247 9.82146 20.7959 6.23145 16.5342 6.23145C15.6078 6.23145 14.7276 6.39357 13.917 6.71783C14.4729 7.13474 15.0056 7.59797 15.4457 8.13068C15.7931 8.06119 16.1637 8.01487 16.5342 8.01487C19.8695 8.01487 22.5794 10.7942 22.5794 14.2453C22.5794 16.1677 20.4253 20.1746 16.789 24.969C16.6732 25.1311 16.3953 25.1311 16.2563 24.969C15.5846 24.0657 14.9593 23.2087 14.3802 22.3749C13.4075 20.9389 12.5736 19.6187 11.9483 18.4375C10.9755 16.6309 10.466 15.1717 10.466 14.2453C10.466 12.7629 10.9755 11.4196 11.8093 10.3542C11.3693 9.98359 10.8597 9.70565 10.3038 9.4972C9.35421 10.8174 8.79834 12.4619 8.79834 14.2453C8.79834 15.8202 9.72479 17.9743 10.9523 20.1051C11.7167 21.4253 12.5736 22.7223 13.4075 23.9036Z" fill="#D37728"/>
<path d="M36.6847 12.6477V19.1792C36.6847 22.1902 35.0866 23.7652 32.0061 23.7652C28.9025 23.7652 27.4202 22.2134 27.4202 19.1561V12.5551C27.4202 12.1382 27.7444 11.7676 28.2308 11.7676C28.7404 11.7676 29.0878 12.1382 29.0878 12.5551V19.1097C29.0878 21.3564 30.0142 22.2828 32.0061 22.2828C33.9748 22.2828 35.0171 21.4027 35.0171 19.1561V12.6477C35.0171 12.1613 35.3645 11.7676 35.8277 11.7676C36.3373 11.7676 36.6847 12.1613 36.6847 12.6477Z" fill="#394053"/>
<path d="M46.2039 19.5267C46.2039 22.2829 44.6984 23.7653 42.0117 23.7653C41.3169 23.7653 40.7378 23.6494 40.2746 23.4873V25.9193C40.2746 26.3362 39.9735 26.6836 39.464 26.6836C38.9776 26.6836 38.6533 26.3362 38.6533 25.9193V16.2378C38.6533 15.8209 38.9544 15.543 39.3482 15.543C39.7882 15.543 39.9967 15.8209 40.043 16.2378L40.0893 16.8632C40.5757 16.0988 41.4095 15.543 42.6602 15.543C44.8606 15.543 46.2039 16.8168 46.2039 19.5267ZM44.5826 19.6194C44.5826 17.7433 43.7488 16.9327 42.3823 16.9327C41.1547 16.9327 40.2746 17.7896 40.2746 18.9014H40.2515V22.0513C40.6915 22.2366 41.2242 22.4219 41.9191 22.4219C43.5635 22.3987 44.5826 21.5881 44.5826 19.6194Z" fill="#394053"/>
<path d="M57.6688 14.8944C57.6688 15.3344 57.3446 15.566 56.974 15.566C56.5571 15.566 56.3718 15.4271 56.256 15.0565C56.0012 14.4775 55.4916 13.2267 53.4766 13.2267C51.2068 13.2267 49.7245 14.6627 49.7245 17.6274C49.7245 20.731 51.3226 22.2597 53.9167 22.2597C55.2369 22.2597 56.0707 21.8659 56.4644 21.727C56.6266 21.6806 56.7655 21.6343 56.9508 21.6343C57.3446 21.6343 57.5993 21.9354 57.5993 22.306C57.5993 22.6997 57.4372 22.885 57.1361 23.0703C56.3949 23.4872 55.0053 23.7652 53.7314 23.7652C50.2109 23.7652 48.0337 21.6806 48.0337 17.7432C48.0337 13.8753 50.1645 11.7676 53.4303 11.7676C56.3718 11.7676 57.6688 13.5047 57.6688 14.8944Z" fill="#394053"/>
<path d="M59.4059 13.0876C59.4059 12.4623 59.846 11.999 60.4482 11.999C61.0736 11.999 61.4905 12.4623 61.4905 13.0876C61.4905 13.713 61.0736 14.1762 60.4482 14.1762C59.846 14.1762 59.4059 13.713 59.4059 13.0876ZM61.2125 16.2607V22.9775C61.2125 23.3944 60.9114 23.7418 60.4019 23.7418C59.9155 23.7418 59.5912 23.3944 59.5912 22.9775V16.2607C59.5912 15.8438 59.9155 15.4964 60.4019 15.4964C60.8883 15.5196 61.2125 15.8438 61.2125 16.2607Z" fill="#394053"/>
<path d="M65.7522 17.0013V21.3093C65.7522 22.12 66.1227 22.3284 66.6786 22.3284C66.8176 22.3284 66.9565 22.3052 67.2345 22.2821C67.6977 22.2126 67.9293 22.56 67.9293 22.9074C67.9293 23.2317 67.744 23.556 67.3503 23.6254C67.026 23.6718 66.6554 23.7181 66.2849 23.7181C64.872 23.7181 64.1772 23.2085 64.1772 21.4251V17.0013H63.3665C63.0191 17.0013 62.718 16.7234 62.718 16.3296C62.718 15.9127 63.0191 15.6579 63.3665 15.6579H64.1772V14.1061C64.1772 13.6892 64.5014 13.3418 64.9878 13.3418C65.4742 13.3418 65.7753 13.6892 65.7753 14.1061V15.6579H67.304C67.6745 15.6579 67.9525 15.9127 67.9525 16.3296C67.9525 16.7234 67.6745 17.0013 67.304 17.0013H65.7522Z" fill="#394053"/>
<path d="M76.3832 16.1909C76.3832 16.3299 76.3369 16.492 76.2674 16.631L72.8395 24.807C72.2605 26.1735 71.4035 26.6367 70.1528 26.6367C69.8748 26.6367 69.7359 26.6135 69.6201 26.6135C69.2032 26.5672 68.9484 26.3124 68.9484 25.9187C68.9484 25.5481 69.18 25.2239 69.5969 25.247C69.7127 25.247 69.8285 25.2702 70.0833 25.2702C70.8708 25.2702 71.334 25.0154 71.5656 24.3901L71.913 23.5099L68.9484 16.6542C68.8789 16.5152 68.8326 16.3531 68.8326 16.2141C68.8326 15.7509 69.2032 15.4961 69.5969 15.4961C69.898 15.4961 70.2223 15.6814 70.3612 16.0288L72.6774 21.6107L74.9009 16.0056C75.0398 15.6582 75.3178 15.5193 75.6652 15.5193C75.9894 15.4961 76.3832 15.7277 76.3832 16.1909Z" fill="#394053"/>
<path d="M80.7144 16.538C80.7144 16.6538 80.6449 16.7233 80.5291 16.7233C80.4133 16.7233 80.3438 16.6538 80.3438 16.538L80.3206 15.4957L79.9037 16.4222C79.8574 16.5148 79.7879 16.5612 79.7184 16.5612C79.649 16.5612 79.5795 16.5148 79.5331 16.4453L79.0931 15.4726L79.0699 16.538C79.0699 16.6538 79.0004 16.7233 78.8846 16.7233C78.7688 16.7233 78.6993 16.6538 78.6993 16.538L78.7225 15.3568H78.1435V16.538C78.1435 16.6538 78.074 16.7233 77.9582 16.7233C77.8424 16.7233 77.7729 16.6538 77.7729 16.538V15.3568H77.356C77.2633 15.3568 77.1938 15.2873 77.1938 15.1946C77.1938 15.102 77.2633 15.0557 77.356 15.0557H78.9078C79.0931 15.0557 79.232 15.1483 79.3247 15.2873L79.6953 16.1211L80.089 15.2641C80.1585 15.1251 80.2743 15.0557 80.3901 15.0557C80.5522 15.0557 80.6681 15.1715 80.6681 15.3568L80.7144 16.538Z" fill="#394053"/>
</g>
<path d="M14.8334 61.133C14.8334 61.2497 14.7727 61.3664 14.6514 61.4831L12.1063 63.933L12.7089 67.4914C12.7136 67.4914 12.7159 67.5497 12.7159 67.6081C12.7159 67.7247 12.6902 67.783 12.6389 67.8413C12.5922 67.8997 12.5222 67.9581 12.4283 67.9581C12.3397 67.9581 12.2463 67.9581 12.1483 67.8997L9.00008 66.2081L5.85206 67.8997C5.74922 67.9581 5.65571 67.9581 5.5716 67.9581C5.47342 67.9581 5.39864 67.8997 5.34725 67.8413C5.30046 67.783 5.27713 67.7247 5.27713 67.6081C5.27713 67.6081 5.2818 67.5497 5.29113 67.4914L5.89412 63.933L3.34204 61.4831C3.2252 61.3664 3.16675 61.2497 3.16675 61.133C3.16675 60.958 3.29765 60.8413 3.55939 60.8413L7.07899 60.3164L8.6565 57.1081C8.74516 56.9331 8.86008 56.8164 9.00008 56.8164C9.14008 56.8164 9.255 56.9331 9.34366 57.1081L10.921 60.3164L14.4408 60.8413C14.7027 60.8413 14.8334 60.958 14.8334 61.133Z" fill="#F1C40F"/>
<path d="M30.8334 61.133C30.8334 61.2497 30.7727 61.3664 30.6514 61.4831L28.1063 63.933L28.7089 67.4914C28.7136 67.4914 28.7159 67.5497 28.7159 67.6081C28.7159 67.7247 28.6902 67.783 28.6389 67.8413C28.5922 67.8997 28.5222 67.9581 28.4283 67.9581C28.3397 67.9581 28.2463 67.9581 28.1483 67.8997L25.0001 66.2081L21.8521 67.8997C21.7492 67.9581 21.6557 67.9581 21.5716 67.9581C21.4734 67.9581 21.3986 67.8997 21.3472 67.8413C21.3005 67.783 21.2771 67.7247 21.2771 67.6081C21.2771 67.6081 21.2818 67.5497 21.2911 67.4914L21.8941 63.933L19.342 61.4831C19.2252 61.3664 19.1667 61.2497 19.1667 61.133C19.1667 60.958 19.2976 60.8413 19.5594 60.8413L23.079 60.3164L24.6565 57.1081C24.7452 56.9331 24.8601 56.8164 25.0001 56.8164C25.1401 56.8164 25.255 56.9331 25.3437 57.1081L26.921 60.3164L30.4408 60.8413C30.7027 60.8413 30.8334 60.958 30.8334 61.133Z" fill="#F1C40F"/>
<path d="M46.8334 61.133C46.8334 61.2497 46.7727 61.3664 46.6514 61.4831L44.1063 63.933L44.7089 67.4914C44.7136 67.4914 44.7159 67.5497 44.7159 67.6081C44.7159 67.7247 44.6902 67.783 44.6389 67.8413C44.5922 67.8997 44.5222 67.9581 44.4283 67.9581C44.3397 67.9581 44.2463 67.9581 44.1483 67.8997L41.0001 66.2081L37.8521 67.8997C37.7492 67.9581 37.6557 67.9581 37.5716 67.9581C37.4734 67.9581 37.3986 67.8997 37.3472 67.8413C37.3005 67.783 37.2771 67.7247 37.2771 67.6081C37.2771 67.6081 37.2818 67.5497 37.2911 67.4914L37.8941 63.933L35.342 61.4831C35.2252 61.3664 35.1667 61.2497 35.1667 61.133C35.1667 60.958 35.2976 60.8413 35.5594 60.8413L39.079 60.3164L40.6565 57.1081C40.7452 56.9331 40.8601 56.8164 41.0001 56.8164C41.1401 56.8164 41.255 56.9331 41.3437 57.1081L42.921 60.3164L46.4408 60.8413C46.7027 60.8413 46.8334 60.958 46.8334 61.133Z" fill="#F1C40F"/>
<path d="M62.8334 61.133C62.8334 61.2497 62.7727 61.3664 62.6514 61.4831L60.1063 63.933L60.7089 67.4914C60.7136 67.4914 60.7159 67.5497 60.7159 67.6081C60.7159 67.7247 60.6902 67.783 60.6389 67.8413C60.5922 67.8997 60.5222 67.9581 60.4283 67.9581C60.3397 67.9581 60.2463 67.9581 60.1483 67.8997L57.0001 66.2081L53.8521 67.8997C53.7492 67.9581 53.6557 67.9581 53.5716 67.9581C53.4734 67.9581 53.3986 67.8997 53.3472 67.8413C53.3005 67.783 53.2771 67.7247 53.2771 67.6081C53.2771 67.6081 53.2818 67.5497 53.2911 67.4914L53.8941 63.933L51.342 61.4831C51.2252 61.3664 51.1667 61.2497 51.1667 61.133C51.1667 60.958 51.2976 60.8413 51.5594 60.8413L55.079 60.3164L56.6565 57.1081C56.7452 56.9331 56.8601 56.8164 57.0001 56.8164C57.1401 56.8164 57.255 56.9331 57.3437 57.1081L58.921 60.3164L62.4408 60.8413C62.7027 60.8413 62.8334 60.958 62.8334 61.133Z" fill="#F1C40F"/>
<path d="M78.8334 61.133C78.8334 61.2497 78.7727 61.3664 78.6514 61.4831L76.1063 63.933L76.7089 67.4914C76.7136 67.4914 76.7159 67.5497 76.7159 67.6081C76.7159 67.7247 76.6902 67.783 76.6389 67.8413C76.5922 67.8997 76.5222 67.9581 76.4283 67.9581C76.3397 67.9581 76.2463 67.9581 76.1483 67.8997L73.0001 66.2081L69.8521 67.8997C69.7492 67.9581 69.6557 67.9581 69.5716 67.9581C69.4734 67.9581 69.3986 67.8997 69.3472 67.8413C69.3005 67.783 69.2771 67.7247 69.2771 67.6081C69.2771 67.6081 69.2818 67.5497 69.2911 67.4914L69.8941 63.933L67.342 61.4831C67.2252 61.3664 67.1667 61.2497 67.1667 61.133C67.1667 60.958 67.2976 60.8413 67.5594 60.8413L71.079 60.3164L72.6565 57.1081C72.7452 56.9331 72.8601 56.8164 73.0001 56.8164C73.1401 56.8164 73.255 56.9331 73.3437 57.1081L74.921 60.3164L78.4408 60.8413C78.7027 60.8413 78.8334 60.958 78.8334 61.133Z" fill="#F1C40F"/>
<defs>
<clipPath id="clip0_206_2007">
<rect width="80.092" height="21.1" fill="white" transform="translate(0.854004 6)"/>
</clipPath>
</defs>
</svg>
