<svg width="150" height="150" viewBox="0 0 150 150" fill="none" xmlns="http://www.w3.org/2000/svg">
<path d="M28.0026 66.0491V84.3419H21.6171V82.0689C20.3163 83.8651 18.4428 84.8924 15.7673 84.8924C11.4846 84.8924 9 82.3995 9 77.8167V66.0491H15.3855V76.4972C15.3855 78.9163 16.3785 79.9067 18.3674 79.9067C20.4702 79.9067 21.6171 78.7333 21.6171 76.3142V66.0491H28.0026Z" fill="#EE2C3C"/>
<path d="M51.7465 75.1775C51.7465 77.3028 51.3647 79.0267 50.7135 80.4569C49.3758 83.2065 46.8142 84.8552 43.2966 84.8552C40.8119 84.8552 38.9 84.0479 37.5607 82.3254V91.7464H31.1752V66.0488H37.4068V68.248C38.7831 66.378 40.7335 65.4983 43.2951 65.4983C46.8127 65.4983 49.3743 67.1484 50.712 69.9335C51.3647 71.3651 51.7465 73.0875 51.7465 75.1775ZM44.9422 75.1775C44.9422 73.8948 44.7883 72.9783 44.4834 72.3171C43.9107 71.1083 42.7624 70.484 41.1952 70.484C38.786 70.484 37.4867 71.9496 37.4867 74.6624V75.6528C37.4867 78.3655 38.786 79.8326 41.1952 79.8326C42.7638 79.8326 43.9107 79.2097 44.4834 77.9995C44.7883 77.3397 44.9422 76.4601 44.9422 75.1775Z" fill="#EE2C3C"/>
<path d="M83.905 66.049H90.2535V67.6991C91.2465 66.1597 92.3179 65.5354 93.848 65.5354C96.1418 65.5354 97.595 66.9656 97.595 69.091C97.595 71.144 96.1033 72.6465 93.925 72.6465C92.5857 72.6465 91.4403 71.9868 90.9431 70.9964C90.4074 71.2163 90.292 71.51 90.292 72.7926V84.3404H83.9065L83.905 66.049Z" fill="#EE2C3C"/>
<path d="M117.807 73.8211V84.3416H111.421V82.1794C110.16 83.8663 108.208 84.8552 105.111 84.8552C102.091 84.8552 99.8355 83.8294 98.8795 81.7764C98.4962 81.0429 98.3438 80.2001 98.3438 79.1729C98.3438 78.1826 98.4962 77.3767 98.8025 76.68C100.179 73.8211 103.889 73.1614 108.552 73.1614H111.42V72.8677C111.42 71.7681 111.343 71.3651 111.113 70.8884C110.731 70.0825 109.852 69.6782 108.475 69.6782C106.985 69.6782 106.143 70.0456 105.761 70.8515C105.608 71.2176 105.57 71.4744 105.531 71.9511H99.0319C99.0704 70.9608 99.2613 70.118 99.6046 69.3859C100.867 66.71 104.117 65.4998 108.399 65.4998C113.025 65.4998 115.741 66.6731 117.003 69.3121C117.539 70.5224 117.807 72.0249 117.807 73.8211ZM111.076 78.8437C111.344 78.3301 111.421 77.8179 111.421 76.8276V76.5708H108.973C107.138 76.5708 105.647 76.7538 105.227 77.7072C105.111 77.9272 105.036 78.184 105.036 78.5146C105.036 78.8451 105.074 79.1005 105.227 79.3942C105.61 80.2015 106.603 80.4938 107.751 80.4938C109.471 80.4924 110.581 79.9064 111.076 78.8437Z" fill="#EE2C3C"/>
<path d="M141 58.4614V84.3421H134.768V82.1429C133.392 83.976 131.48 84.8557 128.88 84.8557C125.363 84.8557 122.801 83.2425 121.463 80.4573C120.812 79.0272 120.43 77.3047 120.43 75.1779C120.43 73.088 120.812 71.3656 121.463 69.9354C122.764 67.1488 125.363 65.5002 128.88 65.5002C131.365 65.5002 133.24 66.3061 134.616 68.0299V58.4614H141ZM134.691 74.6643C134.691 71.9515 133.391 70.4859 130.983 70.4859C129.414 70.4859 128.269 71.1088 127.695 72.319C127.39 72.9788 127.236 73.8953 127.236 75.1793C127.236 76.4988 127.388 77.3785 127.695 78.0751C128.269 79.284 129.416 79.9083 130.983 79.9083C133.392 79.9083 134.691 78.4426 134.691 75.7298V74.6643Z" fill="#EE2C3C"/>
<path d="M69.475 70.575V75.2939H73.5919L73.438 75.9097C72.9245 77.9585 70.3688 79.3362 68.3045 79.3362C65.4321 79.3362 61.7133 78.0096 61.7133 71.6887C61.7133 66.4561 64.1076 63.9534 67.7688 63.9534C69.771 63.9534 71.3145 64.4074 72.2423 65.7439C72.6285 66.3313 72.9867 67.1358 73.0237 67.8054H80.3326C80.3326 67.8054 80.5057 64.5563 77.7503 61.7244C77.7059 61.679 77.663 61.6393 77.62 61.5967C75.3988 59.2854 72.0573 58 67.9212 58C59.4817 58 54.0285 63.3872 54.0285 71.7242C54.0285 81.3665 60.9364 84.7887 66.8513 84.7887C70.1705 84.7887 73.1613 83.8381 74.9785 81.9666L75.0644 84.3417H80.7839V84.1644V80.1009V70.575H69.475Z" fill="#EE2C3C"/>
</svg>
