<svg width="1440" height="448" viewBox="0 0 1440 448" fill="none" xmlns="http://www.w3.org/2000/svg">
<g clip-path="url(#clip0_2905_20495)">
<rect width="1440" height="448" fill="black"/>
<mask id="mask0_2905_20495" style="mask-type:luminance" maskUnits="userSpaceOnUse" x="0" y="0" width="1440" height="448">
<path d="M1440 0H0V448H1440V0Z" fill="white"/>
</mask>
<g mask="url(#mask0_2905_20495)">
<path d="M1198.14 -0.252563H1197.43V105.137H1198.14V-0.252563Z" fill="url(#paint0_linear_2905_20495)"/>
<path d="M1197.79 103.624C1191.52 103.624 1186.44 105.316 1186.44 107.405V120.046H1209.14V107.395C1209.14 105.316 1204.06 103.624 1197.79 103.624Z" fill="url(#paint1_linear_2905_20495)"/>
<path d="M1197.79 115.125C1191.54 115.125 1186.47 116.591 1186.47 118.4L1172.16 145.759H1223.41L1209.11 118.4C1209.11 116.591 1204.04 115.125 1197.79 115.125Z" fill="url(#paint2_linear_2905_20495)"/>
<path d="M1223.41 145.759C1223.41 150.474 1211.94 154.296 1197.79 154.296C1183.64 154.296 1172.16 150.479 1172.16 145.759C1172.16 141.039 1183.64 137.224 1197.79 137.224C1211.94 137.224 1223.41 141.046 1223.41 145.759Z" fill="#FFB49F"/>
<g opacity="0.2" filter="url(#filter0_f_2905_20495)" style="mix-blend-mode:screen">
<path d="M1197.62 502.863C1345.78 502.863 1465.88 421.033 1465.88 320.091C1465.88 219.148 1345.78 137.318 1197.62 137.318C1049.46 137.318 929.359 219.148 929.359 320.091C929.359 421.033 1049.46 502.863 1197.62 502.863Z" fill="#EE5125"/>
</g>
<g opacity="0.6" filter="url(#filter1_f_2905_20495)" style="mix-blend-mode:screen">
<path d="M1197.62 339.686C1279.64 339.686 1346.13 294.385 1346.13 238.502C1346.13 182.62 1279.64 137.318 1197.62 137.318C1115.6 137.318 1049.11 182.62 1049.11 238.502C1049.11 294.385 1115.6 339.686 1197.62 339.686Z" fill="#EE5125"/>
</g>
<g style="mix-blend-mode:color-burn">
<path d="M1124.98 613.78H1119.49L1159.85 187.881H1165.33L1124.98 613.78Z" fill="url(#paint3_linear_2905_20495)"/>
<path d="M1193.24 613.78H1187.76L1228.11 187.881H1233.59L1193.24 613.78Z" fill="url(#paint4_linear_2905_20495)"/>
<path d="M1206.38 446.163H1138.12L1138.64 440.679H1206.9L1206.38 446.163Z" fill="url(#paint5_linear_2905_20495)"/>
<path d="M1210.42 403.572H1142.15L1142.67 398.089H1210.94L1210.42 403.572Z" fill="url(#paint6_linear_2905_20495)"/>
<path d="M1214.45 360.982H1146.19L1146.71 355.501H1214.97L1214.45 360.982Z" fill="url(#paint7_linear_2905_20495)"/>
<path d="M1218.49 318.391H1150.22L1150.74 312.91H1219.01L1218.49 318.391Z" fill="url(#paint8_linear_2905_20495)"/>
<path d="M1222.52 275.803H1154.26L1154.78 270.319H1223.04L1222.52 275.803Z" fill="url(#paint9_linear_2905_20495)"/>
<path d="M1226.56 233.212H1158.29L1158.81 227.731H1227.07L1226.56 233.212Z" fill="url(#paint10_linear_2905_20495)"/>
</g>
<path d="M1231 440.679H1162.74V446.16H1231V440.679Z" fill="#C0C0C0"/>
<path d="M1231 398.089H1162.74V403.57H1231V398.089Z" fill="#C0C0C0"/>
<path d="M1231 355.501H1162.74V360.982H1231V355.501Z" fill="#C0C0C0"/>
<path d="M1231 312.91H1162.74V318.391H1231V312.91Z" fill="#C0C0C0"/>
<path d="M1231 270.319H1162.74V275.8H1231V270.319Z" fill="#C0C0C0"/>
<path d="M1231 227.731H1162.74V233.212H1231V227.731Z" fill="#C0C0C0"/>
<path d="M1165.48 187.881H1160V613.78H1165.48V187.881Z" fill="#C0C0C0"/>
<path d="M1233.74 187.881H1228.26V613.78H1233.74V187.881Z" fill="#C0C0C0"/>
</g>
</g>
<defs>
<filter id="filter0_f_2905_20495" x="729.359" y="-62.6816" width="936.52" height="765.545" filterUnits="userSpaceOnUse" color-interpolation-filters="sRGB">
<feFlood flood-opacity="0" result="BackgroundImageFix"/>
<feBlend mode="normal" in="SourceGraphic" in2="BackgroundImageFix" result="shape"/>
<feGaussianBlur stdDeviation="100" result="effect1_foregroundBlur_2905_20495"/>
</filter>
<filter id="filter1_f_2905_20495" x="849.109" y="-62.6816" width="697.023" height="602.368" filterUnits="userSpaceOnUse" color-interpolation-filters="sRGB">
<feFlood flood-opacity="0" result="BackgroundImageFix"/>
<feBlend mode="normal" in="SourceGraphic" in2="BackgroundImageFix" result="shape"/>
<feGaussianBlur stdDeviation="100" result="effect1_foregroundBlur_2905_20495"/>
</filter>
<linearGradient id="paint0_linear_2905_20495" x1="1197.79" y1="-0.252563" x2="1197.79" y2="105.137" gradientUnits="userSpaceOnUse">
<stop stop-color="#020202"/>
<stop offset="0.12" stop-color="#666666"/>
<stop offset="0.21" stop-color="#484848"/>
<stop offset="0.35" stop-color="#181818"/>
<stop offset="0.53" stop-color="#3D3D3D"/>
<stop offset="0.66" stop-color="#555555"/>
<stop offset="0.75" stop-color="#5D5D5D"/>
<stop offset="1" stop-color="#0E0E0E"/>
</linearGradient>
<linearGradient id="paint1_linear_2905_20495" x1="1186.43" y1="111.835" x2="1209.14" y2="111.835" gradientUnits="userSpaceOnUse">
<stop stop-color="#020202"/>
<stop offset="0.12" stop-color="#666666"/>
<stop offset="0.21" stop-color="#484848"/>
<stop offset="0.35" stop-color="#181818"/>
<stop offset="0.53" stop-color="#3D3D3D"/>
<stop offset="0.66" stop-color="#555555"/>
<stop offset="0.75" stop-color="#5D5D5D"/>
<stop offset="1" stop-color="#0E0E0E"/>
</linearGradient>
<linearGradient id="paint2_linear_2905_20495" x1="1172.16" y1="130.443" x2="1223.41" y2="130.443" gradientUnits="userSpaceOnUse">
<stop stop-color="#020202"/>
<stop offset="0.12" stop-color="#666666"/>
<stop offset="0.21" stop-color="#484848"/>
<stop offset="0.35" stop-color="#181818"/>
<stop offset="0.53" stop-color="#3D3D3D"/>
<stop offset="0.66" stop-color="#555555"/>
<stop offset="0.75" stop-color="#5D5D5D"/>
<stop offset="1" stop-color="#0E0E0E"/>
</linearGradient>
<linearGradient id="paint3_linear_2905_20495" x1="1126.19" y1="578.385" x2="1160.75" y2="199.732" gradientUnits="userSpaceOnUse">
<stop offset="0.18" stop-color="white"/>
<stop offset="1" stop-color="#707070"/>
</linearGradient>
<linearGradient id="paint4_linear_2905_20495" x1="1193.89" y1="584.563" x2="1228.44" y2="205.911" gradientUnits="userSpaceOnUse">
<stop offset="0.18" stop-color="white"/>
<stop offset="1" stop-color="#707070"/>
</linearGradient>
<linearGradient id="paint5_linear_2905_20495" x1="1159.9" y1="581.462" x2="1194.45" y2="202.806" gradientUnits="userSpaceOnUse">
<stop offset="0.18" stop-color="white"/>
<stop offset="1" stop-color="#707070"/>
</linearGradient>
<linearGradient id="paint6_linear_2905_20495" x1="1160.04" y1="581.475" x2="1194.59" y2="202.821" gradientUnits="userSpaceOnUse">
<stop offset="0.18" stop-color="white"/>
<stop offset="1" stop-color="#707070"/>
</linearGradient>
<linearGradient id="paint7_linear_2905_20495" x1="1160.19" y1="581.487" x2="1194.74" y2="202.834" gradientUnits="userSpaceOnUse">
<stop offset="0.18" stop-color="white"/>
<stop offset="1" stop-color="#707070"/>
</linearGradient>
<linearGradient id="paint8_linear_2905_20495" x1="1160.33" y1="581.5" x2="1194.88" y2="202.847" gradientUnits="userSpaceOnUse">
<stop offset="0.18" stop-color="white"/>
<stop offset="1" stop-color="#707070"/>
</linearGradient>
<linearGradient id="paint9_linear_2905_20495" x1="1160.47" y1="581.516" x2="1195.02" y2="202.86" gradientUnits="userSpaceOnUse">
<stop offset="0.18" stop-color="white"/>
<stop offset="1" stop-color="#707070"/>
</linearGradient>
<linearGradient id="paint10_linear_2905_20495" x1="1160.61" y1="581.528" x2="1195.17" y2="202.872" gradientUnits="userSpaceOnUse">
<stop offset="0.18" stop-color="white"/>
<stop offset="1" stop-color="#707070"/>
</linearGradient>
<clipPath id="clip0_2905_20495">
<rect width="1440" height="448" fill="white"/>
</clipPath>
</defs>
</svg>
