<svg width="16" height="16" viewBox="0 0 16 16" fill="none" xmlns="http://www.w3.org/2000/svg">
<path d="M12.0552 6.5355C12.049 6.19 11.7628 5.909 11.4172 5.909H9.93467V4.90733C9.93467 4.50017 9.6035 4.169 9.19633 4.169H6.80333C6.39617 4.169 6.065 4.50017 6.065 4.90733V5.909H4.5825C4.237 5.909 3.95067 6.19017 3.9445 6.5355C3.93567 7.02317 3.925 7.63633 4.1005 8.14767C4.10017 8.15217 4.09983 8.1565 4.09983 8.16117V11.2247C4.09983 11.559 4.37183 11.831 4.70617 11.831H11.2935C11.6278 11.831 11.8998 11.559 11.8998 11.2247V8.161C11.8998 8.1565 11.8995 8.152 11.8992 8.1475C12.0747 7.63617 12.0638 7.02317 12.0552 6.5355ZM6.4545 4.90717C6.4545 4.71483 6.611 4.55833 6.80333 4.55833H9.19633C9.38867 4.55833 9.54517 4.71483 9.54517 4.90717V5.90883H9.29467V5.21733C9.29467 4.992 9.11133 4.80883 8.88617 4.80883H7.1135C6.88817 4.80883 6.705 4.99217 6.705 5.21733V5.90883H6.4545V4.90717ZM7.09467 5.90883V5.21733C7.09467 5.2075 7.10367 5.1985 7.11367 5.1985H8.88633C8.89617 5.1985 8.90533 5.2075 8.90533 5.21733V5.90883H7.09467ZM11.2935 11.4413H4.70617C4.58667 11.4413 4.48933 11.3442 4.48933 11.2245V8.7755C4.75367 9.02217 5.11667 9.1475 5.56983 9.1475H6.14733C6.25483 9.1475 6.34217 9.06033 6.34217 8.95267C6.34217 8.845 6.255 8.75783 6.14733 8.75783H5.56983C5.19717 8.75783 4.92167 8.66183 4.72767 8.4645C4.30717 8.03633 4.32267 7.173 4.334 6.5425C4.3365 6.408 4.44783 6.2985 4.5825 6.2985H6.2595H6.25983H6.26017H6.89967H6.9H6.90033H9.09983H9.10017H9.1005H9.74H9.74033H9.74067H11.4177C11.5522 6.2985 11.6637 6.408 11.6662 6.5425C11.6775 7.173 11.693 8.03633 11.2725 8.4645C11.0785 8.662 10.8032 8.75783 10.4303 8.75783H9.85283C9.74533 8.75783 9.658 8.845 9.658 8.95267C9.658 9.06033 9.74517 9.1475 9.85283 9.1475H10.4303C10.8833 9.1475 11.2463 9.02217 11.5108 8.7755V11.2245C11.5103 11.344 11.413 11.4413 11.2935 11.4413ZM7.99983 7.48167C7.12617 7.48167 6.4155 8.19233 6.4155 9.066C6.4155 9.93967 7.12617 10.6503 7.99983 10.6503C8.8735 10.6503 9.58417 9.93967 9.58417 9.066C9.58417 8.19233 8.87333 7.48167 7.99983 7.48167ZM7.99983 10.2607C7.341 10.2607 6.80517 9.72467 6.80517 9.066C6.80517 8.40733 7.34117 7.87133 7.99983 7.87133C8.6585 7.87133 9.1945 8.40733 9.1945 9.066C9.1945 9.72467 8.6585 10.2607 7.99983 10.2607ZM8.53567 9.32633C8.61167 9.4025 8.61167 9.52583 8.53567 9.60183C8.49767 9.63983 8.44783 9.65883 8.398 9.65883C8.34817 9.65883 8.29833 9.63983 8.26033 9.60183L7.86233 9.20383C7.82583 9.16733 7.80533 9.11783 7.80533 9.066V8.38133C7.80533 8.27383 7.8925 8.1865 8.00017 8.1865C8.10783 8.1865 8.195 8.27367 8.195 8.38133V8.98533L8.53567 9.32633ZM14.8038 11.9283C14.8508 12.0252 14.8105 12.1417 14.7138 12.1887L13.9157 12.5767C13.8532 12.6072 13.779 12.6018 13.7213 12.5628C13.6637 12.5238 13.6312 12.457 13.6362 12.3877L13.6993 11.5023C13.707 11.395 13.8005 11.3138 13.9075 11.3218C14.0148 11.3295 14.0957 11.4227 14.088 11.53L14.0762 11.6952C14.7545 10.5848 15.1102 9.32017 15.1102 7.99983C15.11 4.07933 11.9203 0.889667 7.99983 0.889667C4.07933 0.889667 0.889667 4.07933 0.889667 7.99983C0.889667 11.9203 4.07933 15.11 7.99983 15.11C9.55917 15.11 11.0393 14.6147 12.2802 13.6777C12.366 13.6128 12.4882 13.6298 12.553 13.7157C12.6178 13.8015 12.6008 13.9237 12.515 13.9885C11.206 14.9772 9.64467 15.4997 7.99983 15.4997C5.9965 15.4997 4.11317 14.7195 2.69667 13.303C1.28017 11.8865 0.5 10.0032 0.5 7.99983C0.5 5.9965 1.28017 4.11317 2.69667 2.69667C4.11317 1.28017 5.9965 0.5 7.99983 0.5C10.0032 0.5 11.8865 1.28017 13.303 2.69667C14.7195 4.11317 15.4997 5.9965 15.4997 7.99983C15.4997 9.39583 15.1228 10.7328 14.4038 11.9062L14.5435 11.8383C14.6402 11.7913 14.7567 11.8315 14.8038 11.9283Z" fill="black"/>
</svg>
