<svg width="45" height="45" viewBox="0 0 45 45" fill="none" xmlns="http://www.w3.org/2000/svg">
<mask id="mask0_2720_14836" style="mask-type:luminance" maskUnits="userSpaceOnUse" x="0" y="0" width="46" height="46">
<path d="M45.0059 22.503C45.0059 28.4712 42.6351 34.1949 38.4149 38.415C34.1948 42.6352 28.4711 45.006 22.5029 45.006C16.5347 45.006 10.811 42.6352 6.59089 38.415C2.37076 34.1949 -9.15527e-05 28.4712 -9.15527e-05 22.503C-9.15527e-05 16.5348 2.37076 10.8111 6.59089 6.59098C10.811 2.37085 16.5347 0 22.5029 0C28.4711 0 34.1948 2.37085 38.4149 6.59098C42.6351 10.8111 45.0059 16.5348 45.0059 22.503Z" fill="white"/>
</mask>
<g mask="url(#mask0_2720_14836)">
<path d="M0.0110779 45.002L0.0110779 30.002L45.0111 30.002V45.002H0.0110779Z" fill="#27AE60"/>
<path d="M0.0110779 30.002L0.0110779 15.002L45.0111 15.002V30.002L0.0110779 30.002Z" fill="white"/>
<path d="M0.0110779 15.002L0.0110779 0.00195694L45.0111 0.00195694V15.002L0.0110779 15.002Z" fill="#F39C12"/>
<path d="M22.5031 29.0676C26.1262 29.0676 29.0633 26.1305 29.0633 22.5074C29.0633 18.8843 26.1262 15.9473 22.5031 15.9473C18.88 15.9473 15.943 18.8843 15.943 22.5074C15.943 26.1305 18.88 29.0676 22.5031 29.0676Z" fill="#000088"/>
<path d="M22.5031 28.2479C25.6733 28.2479 28.2432 25.6779 28.2432 22.5077C28.2432 19.3375 25.6733 16.7676 22.5031 16.7676C19.3329 16.7676 16.763 19.3375 16.763 22.5077C16.763 25.6779 19.3329 28.2479 22.5031 28.2479Z" fill="white"/>
<path d="M22.5032 23.6554C23.1372 23.6554 23.6512 23.1414 23.6512 22.5074C23.6512 21.8734 23.1372 21.3594 22.5032 21.3594C21.8692 21.3594 21.3552 21.8734 21.3552 22.5074C21.3552 23.1414 21.8692 23.6554 22.5032 23.6554Z" fill="#000088"/>
<path d="M28.1566 23.5422C28.3137 23.563 28.458 23.4524 28.4787 23.2953C28.4995 23.1382 28.389 22.9939 28.2318 22.9732C28.0747 22.9524 27.9304 23.0629 27.9097 23.2201C27.8889 23.3772 27.9994 23.5214 28.1566 23.5422Z" fill="#000088"/>
<path d="M22.5031 28.2482L22.6999 24.8041L22.5031 23.1641L22.3063 24.8041L22.5031 28.2482Z" fill="#000088"/>
<path d="M27.6965 24.9703C27.8429 25.031 28.0108 24.9616 28.0716 24.8152C28.1323 24.6688 28.0629 24.5009 27.9165 24.4401C27.7701 24.3793 27.6022 24.4488 27.5414 24.5952C27.4806 24.7416 27.5501 24.9095 27.6965 24.9703Z" fill="#000088"/>
<path d="M21.0163 28.0521L22.0985 24.7761L22.3331 23.1408L21.7182 24.6741L21.0163 28.0521Z" fill="#000088"/>
<path d="M26.882 26.2296C27.0077 26.3262 27.1879 26.3026 27.2844 26.1769C27.381 26.0512 27.3574 25.871 27.2317 25.7744C27.106 25.6779 26.9258 25.7015 26.8292 25.8272C26.7327 25.9529 26.7563 26.1331 26.882 26.2296Z" fill="#000088"/>
<path d="M19.6329 27.4778L21.5254 24.5936L22.175 23.075L21.1845 24.3968L19.6329 27.4778Z" fill="#000088"/>
<path d="M25.7692 27.2381C25.8656 27.3639 26.0457 27.3877 26.1716 27.2913C26.2974 27.1949 26.3212 27.0148 26.2248 26.8889C26.1284 26.7631 25.9483 26.7393 25.8224 26.8357C25.6966 26.9321 25.6728 27.1122 25.7692 27.2381Z" fill="#000088"/>
<path d="M18.4432 26.566L21.0184 24.27L22.0392 22.9712L20.7401 23.9916L18.4432 26.566Z" fill="#000088"/>
<path d="M24.4344 27.9221C24.495 28.0686 24.6628 28.1382 24.8093 28.0776C24.9558 28.017 25.0254 27.8492 24.9648 27.7027C24.9042 27.5562 24.7364 27.4866 24.5899 27.5472C24.4434 27.6078 24.3738 27.7756 24.4344 27.9221Z" fill="#000088"/>
<path d="M17.5319 25.3785L20.6129 23.8269L21.9348 22.8364L20.4161 23.486L17.5319 25.3785Z" fill="#000088"/>
<path d="M22.9669 28.24C22.9875 28.3971 23.1316 28.5079 23.2887 28.4873C23.4459 28.4667 23.5566 28.3226 23.536 28.1654C23.5154 28.0083 23.3713 27.8975 23.2142 27.9181C23.057 27.9387 22.9463 28.0828 22.9669 28.24Z" fill="#000088"/>
<path d="M16.9578 23.9957L20.3359 23.2948L21.8693 22.6804L20.2341 22.9145L16.9578 23.9957Z" fill="#000088"/>
<path d="M21.469 28.1605C21.4483 28.3176 21.5588 28.4618 21.7159 28.4826C21.8731 28.5034 22.0173 28.3928 22.0381 28.2357C22.0588 28.0786 21.9483 27.9343 21.7912 27.9136C21.634 27.8928 21.4898 28.0033 21.469 28.1605Z" fill="#000088"/>
<path d="M16.763 22.5073L20.2069 22.7041L21.8469 22.5073L20.2069 22.3105L16.763 22.5073Z" fill="#000088"/>
<path d="M20.0401 27.7013C19.9794 27.8477 20.0488 28.0156 20.1952 28.0764C20.3416 28.1371 20.5095 28.0677 20.5703 27.9213C20.631 27.7749 20.5616 27.607 20.4152 27.5462C20.2688 27.4855 20.1009 27.5549 20.0401 27.7013Z" fill="#000088"/>
<path d="M16.958 21.0208L20.2339 22.1029L21.8691 22.3376L20.3358 21.7227L16.958 21.0208Z" fill="#000088"/>
<path d="M18.7808 26.8897C18.6842 27.0154 18.7078 27.1956 18.8336 27.2921C18.9593 27.3887 19.1395 27.3651 19.236 27.2394C19.3326 27.1136 19.309 26.9334 19.1832 26.8369C19.0575 26.7403 18.8773 26.7639 18.7808 26.8897Z" fill="#000088"/>
<path d="M17.5311 19.6401L20.4158 21.5326L21.9347 22.1822L20.6126 21.1917L17.5311 19.6401Z" fill="#000088"/>
<path d="M17.773 25.7775C17.6471 25.874 17.6233 26.0541 17.7197 26.1799C17.8161 26.3058 17.9963 26.3296 18.1221 26.2332C18.248 26.1368 18.2718 25.9566 18.1754 25.8308C18.0789 25.7049 17.8988 25.6811 17.773 25.7775Z" fill="#000088"/>
<path d="M18.4436 18.4512L20.74 21.0265L22.039 22.0474L21.0184 20.7482L18.4436 18.4512Z" fill="#000088"/>
<path d="M17.0896 24.4416C16.9431 24.5021 16.8735 24.67 16.9341 24.8165C16.9947 24.963 17.1626 25.0326 17.309 24.972C17.4555 24.9114 17.5252 24.7436 17.4646 24.5971C17.404 24.4506 17.2361 24.381 17.0896 24.4416Z" fill="#000088"/>
<path d="M19.6324 17.539L21.1842 20.6202L22.1748 21.9422L21.5251 20.4234L19.6324 17.539Z" fill="#000088"/>
<path d="M16.7733 22.9749C16.6161 22.9955 16.5054 23.1396 16.526 23.2968C16.5466 23.454 16.6907 23.5647 16.8479 23.5441C17.005 23.5235 17.1158 23.3794 17.0952 23.2222C17.0746 23.0651 16.9305 22.9543 16.7733 22.9749Z" fill="#000088"/>
<path d="M21.0174 16.9671L21.7184 20.3455L22.3329 21.879L22.0987 20.2436L21.0174 16.9671Z" fill="#000088"/>
<path d="M16.8489 21.4763C16.6917 21.4555 16.5475 21.5661 16.5267 21.7233C16.506 21.8804 16.6165 22.0246 16.7737 22.0454C16.9308 22.0662 17.0751 21.9556 17.0958 21.7985C17.1166 21.6413 17.006 21.4971 16.8489 21.4763Z" fill="#000088"/>
<path d="M22.5025 16.7671L22.3059 20.2114L22.5028 21.8516L22.6995 20.2114L22.5025 16.7671Z" fill="#000088"/>
<path d="M17.3088 20.0443C17.1624 19.9836 16.9944 20.053 16.9337 20.1995C16.8729 20.3459 16.9424 20.5138 17.0888 20.5746C17.2352 20.6353 17.4032 20.5659 17.4639 20.4195C17.5247 20.273 17.4552 20.1051 17.3088 20.0443Z" fill="#000088"/>
<path d="M23.9893 16.9631L22.9073 20.2394L22.6728 21.8748L23.2876 20.3414L23.9893 16.9631Z" fill="#000088"/>
<path d="M18.1232 18.7879C17.9975 18.6913 17.8173 18.715 17.7208 18.8407C17.6242 18.9664 17.6479 19.1466 17.7736 19.2431C17.8993 19.3397 18.0795 19.3161 18.176 19.1903C18.2726 19.0646 18.249 18.8844 18.1232 18.7879Z" fill="#000088"/>
<path d="M25.3728 17.5393L23.4804 20.4238L22.8308 21.9426L23.8213 20.6206L25.3728 17.5393Z" fill="#000088"/>
<path d="M19.2364 17.7795C19.14 17.6536 18.9598 17.6298 18.834 17.7262C18.7082 17.8226 18.6844 18.0028 18.7808 18.1286C18.8772 18.2544 19.0574 18.2783 19.1832 18.1819C19.309 18.0854 19.3328 17.9053 19.2364 17.7795Z" fill="#000088"/>
<path d="M26.563 18.4511L23.9878 20.7474L22.967 22.0463L24.2661 21.0258L26.563 18.4511Z" fill="#000088"/>
<path d="M20.5717 17.0945C20.5112 16.948 20.3433 16.8783 20.1968 16.9389C20.0503 16.9995 19.9807 17.1674 20.0413 17.3139C20.1018 17.4603 20.2697 17.53 20.4162 17.4694C20.5627 17.4088 20.6323 17.241 20.5717 17.0945Z" fill="#000088"/>
<path d="M27.4748 19.6381L24.3934 21.1896L23.0713 22.1801L24.5902 21.5306L27.4748 19.6381Z" fill="#000088"/>
<path d="M22.0395 16.7776C22.0189 16.6204 21.8748 16.5097 21.7177 16.5303C21.5605 16.5508 21.4497 16.6949 21.4703 16.8521C21.4909 17.0093 21.635 17.12 21.7922 17.0995C21.9493 17.0789 22.0601 16.9348 22.0395 16.7776Z" fill="#000088"/>
<path d="M28.049 21.0221L24.6705 21.7228L23.1368 22.3372L24.7723 22.1031L28.049 21.0221Z" fill="#000088"/>
<path d="M23.5375 16.8552C23.5583 16.698 23.4478 16.5538 23.2906 16.533C23.1335 16.5122 22.9892 16.6228 22.9684 16.7799C22.9477 16.9371 23.0582 17.0813 23.2154 17.1021C23.3725 17.1229 23.5168 17.0123 23.5375 16.8552Z" fill="#000088"/>
<path d="M28.2438 22.5076L24.7995 22.3106L23.1593 22.5073L24.7995 22.7042L28.2438 22.5076Z" fill="#000088"/>
<path d="M24.9666 17.3144C25.0274 17.1679 24.9579 17 24.8115 16.9392C24.6651 16.8784 24.4972 16.9479 24.4364 17.0943C24.3756 17.2407 24.445 17.4086 24.5914 17.4694C24.7379 17.5302 24.9058 17.4608 24.9666 17.3144Z" fill="#000088"/>
<path d="M28.0484 23.9952L24.7723 22.9128L23.1369 22.678L24.6703 23.2931L28.0484 23.9952Z" fill="#000088"/>
<path d="M26.2255 18.128C26.3221 18.0023 26.2985 17.8221 26.1728 17.7255C26.0471 17.6289 25.8669 17.6525 25.7703 17.7782C25.6737 17.904 25.6973 18.0841 25.8231 18.1807C25.9488 18.2773 26.129 18.2537 26.2255 18.128Z" fill="#000088"/>
<path d="M27.4742 25.3778L24.5898 23.4851L23.071 22.8354L24.393 23.826L27.4742 25.3778Z" fill="#000088"/>
<path d="M27.233 19.2411C27.3588 19.1447 27.3827 18.9645 27.2863 18.8387C27.1899 18.7128 27.0097 18.689 26.8839 18.7854C26.758 18.8818 26.7342 19.062 26.8306 19.1878C26.927 19.3136 27.1072 19.3375 27.233 19.2411Z" fill="#000088"/>
<path d="M26.5619 26.5686L24.2658 23.9931L22.9669 22.9722L23.9873 24.2715L26.5619 26.5686Z" fill="#000088"/>
<path d="M27.9164 20.5751C28.0628 20.5145 28.1325 20.3467 28.0719 20.2002C28.0113 20.0537 27.8435 19.984 27.697 20.0446C27.5505 20.1052 27.4809 20.273 27.5414 20.4195C27.602 20.566 27.7699 20.6357 27.9164 20.5751Z" fill="#000088"/>
<path d="M25.3734 27.4768L23.8219 24.3955L22.8315 23.0735L23.481 24.5923L25.3734 27.4768Z" fill="#000088"/>
<path d="M28.2323 22.0437C28.3895 22.0231 28.5002 21.879 28.4797 21.7218C28.4591 21.5646 28.315 21.4539 28.1578 21.4745C28.0006 21.495 27.8899 21.6391 27.9105 21.7963C27.931 21.9535 28.0751 22.0642 28.2323 22.0437Z" fill="#000088"/>
<path d="M23.9878 28.0544L23.2871 24.6761L22.6727 23.1425L22.9068 24.7779L23.9878 28.0544Z" fill="#000088"/>
</g>
</svg>
