<svg width="16" height="16" viewBox="0 0 16 16" fill="none" xmlns="http://www.w3.org/2000/svg">
<g clip-path="url(#clip0_2189_10737)">
<path d="M7.99995 12.5717C8.16927 12.5717 8.33858 12.4871 8.46557 12.3601C9.73544 10.7516 12.6985 6.77266 12.6985 4.67736C12.6985 2.09529 10.6032 0 8.02111 0C5.43904 0 3.34375 2.09529 3.34375 4.67736C3.34375 6.77266 6.30679 10.7516 7.57666 12.3601C7.66132 12.4871 7.83063 12.5717 7.99995 12.5717ZM7.99995 0.423291C10.3492 0.423291 12.254 2.3281 12.254 4.67736C12.254 6.688 9.10051 10.8574 8.12694 12.1061C8.08461 12.1485 8.04228 12.1696 7.99995 12.1696C7.95762 12.1696 7.91529 12.1696 7.87296 12.1061C6.89939 10.8786 3.74588 6.70916 3.74588 4.67736C3.74588 2.3281 5.65069 0.423291 7.99995 0.423291Z" fill="black"/>
<path d="M10.1177 4.65552C10.1177 3.49147 9.16527 2.53906 8.00122 2.53906C6.83717 2.53906 5.88477 3.49147 5.88477 4.65552C5.88477 5.81957 6.83717 6.77197 8.00122 6.77197C9.16527 6.77197 10.1177 5.81957 10.1177 4.65552ZM6.30806 4.65552C6.30806 3.72428 7.06998 2.96235 8.00122 2.96235C8.93246 2.96235 9.69438 3.72428 9.69438 4.65552C9.69438 5.58676 8.93246 6.34868 8.00122 6.34868C7.06998 6.34868 6.30806 5.58676 6.30806 4.65552Z" fill="black"/>
<path d="M8.00011 16.0007C11.5558 16.0007 14.4553 14.3499 14.4553 12.3181C14.4553 11.2176 13.6087 10.1805 12.1484 9.48206C12.0425 9.43973 11.9156 9.48206 11.8732 9.58788C11.8309 9.6937 11.8732 9.82069 11.979 9.86302C13.2912 10.498 14.0532 11.3869 14.0532 12.3181C14.0532 14.1171 11.3441 15.5774 8.02127 15.5774C4.69844 15.5774 1.98938 14.1171 1.98938 12.3181C1.98938 11.3445 2.8148 10.4133 4.23282 9.79953C4.33864 9.7572 4.38097 9.63021 4.33864 9.52439C4.29631 9.41856 4.16933 9.37624 4.0635 9.41856C2.43383 10.117 1.54492 11.1752 1.54492 12.3181C1.54492 14.3499 4.44447 16.0007 8.00011 16.0007Z" fill="black"/>
</g>
<defs>
<clipPath id="clip0_2189_10737">
<rect width="16" height="16" fill="white"/>
</clipPath>
</defs>
</svg>
