<svg width="54" height="54" viewBox="0 0 54 54" fill="none" xmlns="http://www.w3.org/2000/svg">
<rect width="54" height="54" rx="27" fill="white"/>
<g clip-path="url(#clip0_2223_12819)">
<path fill-rule="evenodd" clip-rule="evenodd" d="M18.7231 9.98926H30.0905L39.7246 20.0312V39.563C39.7246 42.0098 37.7451 43.9893 35.3068 43.9893H18.7231C16.2764 43.9893 14.2969 42.0098 14.2969 39.563V14.4155C14.2968 11.9688 16.2763 9.98926 18.7231 9.98926Z" fill="#E5252A"/>
<path opacity="0.302" fill-rule="evenodd" clip-rule="evenodd" d="M30.082 9.9895V19.955H39.7247L30.082 9.9895Z" fill="white"/>
<path d="M19.2109 35.3704V29.16H21.8531C22.5073 29.16 23.0256 29.3384 23.4164 29.7037C23.8072 30.0605 24.0026 30.5448 24.0026 31.148C24.0026 31.7512 23.8072 32.2354 23.4164 32.5923C23.0256 32.9576 22.5073 33.136 21.8531 33.136H20.7996V35.3704H19.2109ZM20.7996 31.7852H21.6747C21.9126 31.7852 22.0995 31.7342 22.227 31.6153C22.3544 31.5048 22.4224 31.3519 22.4224 31.148C22.4224 30.9441 22.3544 30.7912 22.227 30.6808C22.0995 30.5618 21.9126 30.5109 21.6747 30.5109H20.7996V31.7852ZM24.6567 35.3704V29.16H26.8571C27.2904 29.16 27.6982 29.2194 28.0805 29.3469C28.4628 29.4743 28.8111 29.6528 29.117 29.8991C29.4228 30.137 29.6692 30.4598 29.8476 30.8676C30.0175 31.2754 30.111 31.7427 30.111 32.2694C30.111 32.7877 30.0176 33.2549 29.8476 33.6627C29.6692 34.0705 29.4228 34.3934 29.117 34.6312C28.8111 34.8776 28.4628 35.056 28.0805 35.1835C27.6982 35.3109 27.2904 35.3704 26.8571 35.3704H24.6567ZM26.2114 34.0196H26.6702C26.9166 34.0196 27.146 33.9941 27.3584 33.9346C27.5622 33.8751 27.7577 33.7817 27.9446 33.6542C28.123 33.5268 28.2674 33.3484 28.3693 33.1105C28.4713 32.8727 28.5223 32.5923 28.5223 32.2694C28.5223 31.9381 28.4713 31.6577 28.3693 31.4199C28.2674 31.182 28.123 31.0036 27.9446 30.8761C27.7577 30.7487 27.5623 30.6552 27.3584 30.5958C27.146 30.5363 26.9166 30.5108 26.6702 30.5108H26.2114V34.0196ZM30.9096 35.3704V29.16H35.3274V30.5108H32.4983V31.5048H34.7582V32.8471H32.4983V35.3704H30.9096Z" fill="white"/>
</g>
<defs>
<clipPath id="clip0_2223_12819">
<rect width="34" height="34" fill="white" transform="translate(10 9.98853)"/>
</clipPath>
</defs>
</svg>
