<svg width="15" height="16" viewBox="0 0 15 16" fill="none" xmlns="http://www.w3.org/2000/svg">
<path d="M5.80709 5.61489C7.35481 5.61489 8.61454 4.35592 8.61454 2.80745C8.61454 1.25898 7.35556 0 5.80709 0C4.25937 0 2.99965 1.25898 2.99965 2.80745C2.99965 4.35517 4.2593 5.61489 5.80709 5.61489ZM5.80709 0.326993C7.1741 0.326993 8.28772 1.43988 8.28772 2.80762C8.28772 4.17462 7.17415 5.28755 5.80709 5.28755C4.44003 5.28755 3.32647 4.17466 3.32647 2.80692C3.32715 1.4406 4.438 0.326993 5.80709 0.326993ZM13.422 13.5412C13.4465 13.5276 13.471 13.5133 13.4988 13.5045C13.897 13.3618 14.132 12.9569 14.0553 12.539C14.0322 12.4086 14.0675 12.2761 14.1545 12.1755C14.4289 11.8521 14.4289 11.384 14.1545 11.0606C14.0695 10.96 14.0328 10.8276 14.0573 10.6971C14.1341 10.2799 13.899 9.87432 13.5008 9.73164C13.3758 9.68612 13.28 9.591 13.2345 9.46532C13.0918 9.06513 12.6869 8.8321 12.2691 8.90887C12.1386 8.93333 12.0061 8.89664 11.9056 8.81171C11.5822 8.53723 11.114 8.53723 10.7906 8.81171C10.7852 8.81715 10.7784 8.81851 10.773 8.82394C9.71918 7.08665 7.83177 6.01111 5.80702 6.01111C4.26269 6.01111 2.80459 6.61648 1.70603 7.71714C0.606729 8.81645 0 10.2738 0 11.8181V12.4914C0 12.8896 0.32341 13.213 0.721542 13.213H8.80262C8.89978 13.3414 9.03362 13.444 9.19601 13.5017C9.22386 13.5119 9.24832 13.5242 9.27278 13.5384L8.4534 14.6989C8.39429 14.7825 8.39089 14.8884 8.44321 14.9775C8.49553 15.0665 8.59133 15.1133 8.69188 15.1011L9.59484 14.9985C9.60707 14.9965 9.61386 15.0019 9.61929 15.0121L9.98278 15.8451C10.0242 15.9389 10.1132 15.998 10.2158 16H10.2192C10.3198 16 10.4088 15.9429 10.4522 15.8505L11.0454 14.5684C11.1446 14.6065 11.2472 14.6255 11.3518 14.6255C11.4564 14.6255 11.559 14.6045 11.6582 14.5684L12.2514 15.8505C12.2928 15.9429 12.3839 16 12.4844 16H12.4878C12.5904 15.998 12.6794 15.9389 12.7208 15.8451L13.0843 15.0121C13.0898 15.0019 13.0965 14.9965 13.1088 14.9985L14.0117 15.1011C14.1123 15.1113 14.2081 15.0644 14.2604 14.9775C14.3127 14.8885 14.3093 14.7825 14.2502 14.6989L13.422 13.5412ZM6.60405 6.39915L6.22493 7.31433H5.38788L5.00876 6.39576C5.26966 6.35771 5.53598 6.33665 5.80707 6.33665C6.07681 6.33869 6.34315 6.36111 6.60405 6.39915ZM5.40691 7.64114H6.20522L6.93085 10.6326L5.80572 11.7509L4.68058 10.6326L5.40691 7.64114ZM0.721512 12.8869C0.504097 12.8869 0.326772 12.7096 0.326772 12.4922V11.8189C0.326772 9.18416 2.19655 6.97661 4.68048 6.45481L5.10851 7.49161L4.34348 10.6448C4.3299 10.7005 4.34688 10.7597 4.38697 10.7997L5.69146 12.0974C5.72272 12.1287 5.76484 12.1443 5.80628 12.1443C5.84773 12.1443 5.88985 12.1287 5.92111 12.0974L7.2256 10.7997C7.26569 10.7597 7.28267 10.7005 7.26909 10.6448L6.50406 7.49161L6.93006 6.4582C8.36703 6.76259 9.63958 7.64244 10.44 8.911C10.4346 8.911 10.4298 8.911 10.4244 8.90896C10.0072 8.83219 9.6016 9.06727 9.45892 9.46541C9.4134 9.59042 9.31828 9.68621 9.1926 9.73173C8.79445 9.87441 8.55938 10.2793 8.63615 10.6972C8.66061 10.8276 8.62392 10.9601 8.539 11.0607C8.26451 11.3841 8.26451 11.8522 8.539 12.1756C8.62392 12.2762 8.66061 12.4087 8.63615 12.5391C8.61373 12.6594 8.62053 12.7756 8.64634 12.889H0.721629L0.721512 12.8869ZM10.2179 15.574L9.91689 14.8851C9.85575 14.7445 9.70967 14.6609 9.5568 14.6779L8.80875 14.7628L9.47867 13.8116C9.63358 14.1839 10.0229 14.3993 10.4251 14.3266C10.5433 14.3055 10.6616 14.3334 10.7574 14.4034L10.2179 15.574ZM11.0026 14.1758C10.8633 14.0575 10.688 13.993 10.5087 13.993C10.4618 13.993 10.4163 13.9964 10.3694 14.0052C10.1105 14.0521 9.85983 13.9081 9.77083 13.6594C9.69269 13.442 9.52351 13.2735 9.3061 13.1947C9.05878 13.1057 8.91271 12.8556 8.96027 12.5961C9.00171 12.3698 8.93921 12.1388 8.78973 11.9629C8.6192 11.7631 8.6192 11.4723 8.78973 11.2726C8.93921 11.0966 9.00172 10.8656 8.96027 10.6394C8.91339 10.3805 9.05742 10.1298 9.3061 10.0408C9.52351 9.96265 9.69202 9.79347 9.77083 9.57605C9.85983 9.32874 10.1119 9.18267 10.3694 9.23022C10.597 9.27166 10.8266 9.20916 11.0026 9.05968C11.2024 8.88915 11.4932 8.88915 11.6929 9.05968C11.8689 9.20916 12.0999 9.27167 12.3261 9.23022C12.585 9.18334 12.8357 9.32738 12.9247 9.57605C13.0028 9.79347 13.172 9.96197 13.3894 10.0408C13.6368 10.1298 13.7828 10.3798 13.7353 10.6394C13.6938 10.8656 13.7563 11.0966 13.9058 11.2726C14.0763 11.4723 14.0763 11.7631 13.9058 11.9629C13.7563 12.1388 13.6938 12.3698 13.7353 12.5961C13.7822 12.855 13.6381 13.1057 13.3894 13.1947C13.172 13.2728 13.0035 13.442 12.9247 13.6594C12.8357 13.9067 12.5857 14.0528 12.3261 14.0052C12.0999 13.9638 11.8689 14.0263 11.6929 14.1758C11.4932 14.3443 11.2024 14.3443 11.0026 14.1758ZM13.1368 14.6765C12.9839 14.6588 12.8392 14.7424 12.7767 14.8837L12.4757 15.5727L11.9349 14.402C12.0307 14.3327 12.1502 14.3048 12.2671 14.3252C12.6686 14.3986 13.0566 14.1825 13.2135 13.8102L13.8835 14.7614L13.1368 14.6765ZM13.3841 11.617C13.3841 10.4953 12.4709 9.5801 11.3472 9.5801C10.2254 9.5801 9.31023 10.4932 9.31023 11.617C9.31023 12.7388 10.2234 13.6539 11.3472 13.6539C12.4709 13.6539 13.3841 12.7408 13.3841 11.617ZM11.3472 13.3271C10.4041 13.3271 9.63773 12.5601 9.63773 11.6177C9.63773 10.6747 10.4048 9.90828 11.3472 9.90828C12.2902 9.90828 13.0566 10.6754 13.0566 11.6177C13.0566 12.5601 12.2895 13.3271 11.3472 13.3271ZM12.5749 11.2379C12.5382 11.1251 12.4465 11.0449 12.3296 11.0238L11.8567 10.9389L11.6291 10.5143C11.5734 10.4096 11.4674 10.3471 11.3492 10.3471C11.231 10.3471 11.1263 10.4096 11.0692 10.5143L10.8416 10.9389L10.3688 11.0238C10.2519 11.0449 10.1602 11.1244 10.1235 11.2379C10.0868 11.3506 10.1133 11.4689 10.1969 11.5558L10.5291 11.9037L10.4646 12.38C10.4489 12.4982 10.4958 12.6096 10.593 12.6789C10.6487 12.719 10.7132 12.7401 10.7791 12.7401C10.826 12.7401 10.8729 12.7299 10.9184 12.7068L11.3512 12.4982L11.784 12.7068C11.892 12.7591 12.0116 12.7469 12.1094 12.6769C12.2052 12.6076 12.2535 12.4941 12.2379 12.3779L12.1733 11.9016L12.5056 11.5538C12.5837 11.4695 12.6116 11.3513 12.5749 11.2379ZM11.8791 11.7338C11.8445 11.7705 11.8289 11.8188 11.8357 11.8697L11.909 12.4071L11.4205 12.1707C11.3981 12.1605 11.3737 12.1551 11.3492 12.1551C11.3247 12.1551 11.3003 12.1605 11.2779 12.1707L10.7893 12.4071L10.8627 11.8697C10.8695 11.8208 10.8539 11.7705 10.8192 11.7338L10.4435 11.3405L10.9775 11.2433C11.0265 11.2345 11.0679 11.2032 11.0924 11.1597L11.3499 10.6814L11.6074 11.1597C11.6318 11.2032 11.6733 11.2345 11.7222 11.2433L12.2562 11.3405L11.8791 11.7338Z" fill="black"/>
</svg>
