<svg width="54" height="54" viewBox="0 0 54 54" fill="none" xmlns="http://www.w3.org/2000/svg">
<g clip-path="url(#clip0_2189_11133)">
<path d="M43.4906 35.3229V15.9168C43.4772 15.2284 43.1167 14.5936 42.5318 14.2293L33.1741 5.67664L33.0974 5.75334C32.7273 5.22984 32.1271 4.91536 31.4866 4.90957H12.8473C12.2413 4.88847 11.6507 5.11283 11.2116 5.53086C10.7705 5.9489 10.5174 6.52608 10.5078 7.13397V30.4139C10.8453 29.2288 11.3631 28.1051 12.0419 27.0772V7.13402C12.0822 6.72557 12.4369 6.42068 12.8473 6.44371H31.4866C31.5978 6.4322 31.711 6.46672 31.7973 6.53959C31.8836 6.61246 31.9373 6.71601 31.9468 6.82723V13.4624C31.9871 14.5266 32.8385 15.378 33.9028 15.4183H41.6499L41.7649 15.5334H41.8033C41.9183 15.6293 41.9874 15.7673 41.995 15.9169V31.5264C42.787 32.6558 43.3008 33.9575 43.4906 35.3229ZM33.9027 13.8839C33.6687 13.8686 33.4789 13.6941 33.4424 13.462V7.97759L39.9239 13.8837L33.9027 13.8839Z" fill="black"/>
<path d="M22.8562 26.8471C22.8562 26.6439 22.7756 26.4483 22.6318 26.3044C22.488 26.1606 22.2924 26.0801 22.0891 26.0801C18.7141 26.0801 15.7608 28.0744 14.9174 30.9125C14.7928 31.3152 15.0152 31.7428 15.416 31.8713H15.6461C15.9702 31.8751 16.2617 31.6757 16.3748 31.3727C17.0268 29.1866 19.443 27.6142 22.0895 27.6142C22.2928 27.6142 22.4884 27.5337 22.6322 27.3899C22.776 27.246 22.8562 27.0504 22.8562 26.8471Z" fill="black"/>
<path d="M45.3708 44.2592C45.3708 43.8354 45.0275 43.4922 44.6037 43.4922C44.1799 43.4922 43.8367 43.8354 43.8367 44.2592C43.8367 45.7933 42.4943 47.0206 40.8452 47.0206C40.4214 47.0206 40.0781 47.3639 40.0781 47.7876C40.0781 48.2114 40.4214 48.5547 40.8452 48.5547C43.3381 48.5547 45.3708 46.5987 45.3708 44.2592Z" fill="black"/>
<path d="M46.0604 48.8611C47.28 47.6089 47.9953 45.9483 48.0662 44.2013C48.1372 42.4544 47.5619 40.7419 46.4477 39.3939C45.3355 38.0458 43.7631 37.156 42.0334 36.8952V36.6268C42.043 34.759 41.3162 32.9603 40.0103 31.6254C38.7025 30.2888 36.921 29.5237 35.0531 29.493C33.8124 29.491 32.5947 29.8228 31.5247 30.4518C30.8612 28.3865 29.5611 26.5859 27.8122 25.3031C26.0614 24.0221 23.952 23.328 21.7833 23.3184C16.1457 23.3184 11.5818 27.9973 11.5818 33.7502C11.576 34.8164 11.7313 35.8768 12.042 36.895C10.4676 37.0715 9.00257 37.7906 7.89994 38.9277C6.59019 40.2566 5.85962 42.0477 5.86728 43.9134C5.85769 45.7639 6.58254 47.5434 7.88462 48.8608C9.18666 50.1762 10.9585 50.9222 12.8089 50.9318H21.6301V49.3977H12.8089C11.365 49.3766 9.98812 48.7841 8.97945 47.7485C7.97269 46.713 7.4185 45.3189 7.43961 43.875C7.43003 42.4157 7.9938 41.0101 9.01205 39.963C10.015 38.9486 11.3822 38.381 12.8089 38.3906H13.1158C13.3727 38.3868 13.6105 38.2544 13.7486 38.0378C13.8867 37.823 13.9097 37.5526 13.8061 37.3167C13.3229 36.1891 13.0755 34.9753 13.0774 33.75C13.1158 28.8409 17.0277 24.8522 21.7832 24.8522C23.7909 24.8733 25.7316 25.5809 27.2809 26.858C28.8284 28.1352 29.8946 29.9032 30.2973 31.8707C30.3567 32.1277 30.5446 32.3348 30.7939 32.4211C31.0432 32.5054 31.3193 32.4575 31.5245 32.2926C32.5102 31.4603 33.7624 31.0116 35.053 31.027C38.1096 31.0692 40.5585 33.5697 40.5374 36.6263C40.5336 36.9082 40.5067 37.192 40.4607 37.4701C40.4262 37.6925 40.4933 37.9188 40.6409 38.0875C40.7886 38.2582 41.0034 38.3541 41.2277 38.3522C44.2211 38.4154 46.6007 40.8815 46.5585 43.8749C46.5719 45.3361 46.0062 46.7417 44.9861 47.7868C43.9909 48.8147 42.6197 49.3957 41.1892 49.3976H31.9846V50.9317H41.1892C43.0263 50.9279 44.7828 50.1819 46.0599 48.8606L46.0604 48.8611Z" fill="black"/>
<path d="M23.9322 54.0011H29.6852C29.8884 54.0011 30.084 53.9205 30.2279 53.7767C30.3717 53.6329 30.4522 53.4373 30.4522 53.234V46.484H31.0275C31.551 46.4897 32.0304 46.1906 32.2548 45.717C32.4868 45.2414 32.4274 44.6757 32.1014 44.2595L28.0361 39.1585C27.781 38.8344 27.3937 38.6465 26.9814 38.6465C26.5691 38.6465 26.1817 38.8344 25.9267 39.1585L21.9381 44.2208C21.6121 44.6369 21.5526 45.2026 21.7847 45.6782C22.009 46.1518 22.4884 46.451 23.0119 46.4452H23.1654V53.2335C23.1654 53.4368 23.2459 53.6324 23.3897 53.7762C23.5335 53.92 23.7291 54.0006 23.9324 54.0006L23.9322 54.0011ZM27.0004 40.3091L30.6822 44.9497H29.6851C29.2613 44.9497 28.918 45.293 28.918 45.7168V52.4668H24.6992V45.6785C24.6992 45.4752 24.6187 45.2796 24.4749 45.1358C24.3311 44.992 24.1355 44.9114 23.9322 44.9114H23.3569L27.0004 40.3091Z" fill="black"/>
</g>
<defs>
<clipPath id="clip0_2189_11133">
<rect width="54" height="54" fill="white"/>
</clipPath>
</defs>
</svg>
