<svg width="24" height="24" viewBox="0 0 24 24" fill="none" xmlns="http://www.w3.org/2000/svg">
<g clip-path="url(#clip0_2223_12786)">
<path d="M18.3795 10.0747C20.9143 10.0747 23.0018 7.98723 23.0018 5.45241C23.0018 2.91758 20.9143 0.830078 18.3795 0.830078C15.8447 0.830078 13.7572 2.91758 13.7572 5.45241C13.7572 6.19794 13.9435 6.9062 14.2418 7.53991L6.60001 12.4977C6.00358 12.0504 5.25804 11.8267 4.47523 11.8267C2.46228 11.8267 0.859375 13.4669 0.859375 15.4426C0.859375 17.4183 2.46228 19.0585 4.47523 19.0585C5.63081 19.0585 6.67456 18.4993 7.34554 17.6419L14.279 20.1768C14.3536 21.8169 15.7328 23.1216 17.373 23.1216C19.0877 23.1216 20.5043 21.7051 20.5043 19.9904C20.5043 18.2756 19.0877 16.8591 17.373 16.8591C15.9192 16.8591 14.7264 17.8656 14.3536 19.2076L7.83014 16.8218C8.01653 16.3745 8.12836 15.9272 8.12836 15.4426C8.12836 14.5852 7.83014 13.7651 7.30827 13.1687L14.7636 8.32272C15.621 9.36647 16.9257 10.0747 18.3795 10.0747ZM17.4103 17.8283C18.6031 17.8283 19.6096 18.7975 19.6096 20.0276C19.6096 21.2578 18.6404 22.227 17.4103 22.227C16.1802 22.227 15.211 21.2578 15.211 20.0276C15.211 18.7975 16.1802 17.8283 17.4103 17.8283ZM4.47523 18.1265C2.98415 18.1265 1.7913 16.9337 1.7913 15.4426C1.7913 13.9515 3.02143 12.7587 4.47523 12.7587C5.92902 12.7587 7.15916 13.9515 7.15916 15.4426C7.15916 16.9337 5.9663 18.1265 4.47523 18.1265ZM18.3795 1.762C20.4297 1.762 22.0699 3.40218 22.0699 5.45241C22.0699 7.50263 20.4297 9.14281 18.3795 9.14281C16.3293 9.14281 14.6891 7.50263 14.6891 5.45241C14.6891 3.40218 16.3665 1.762 18.3795 1.762Z" fill="black" stroke="black" stroke-width="0.5"/>
</g>
<defs>
<clipPath id="clip0_2223_12786">
<rect width="24" height="24" fill="white"/>
</clipPath>
</defs>
</svg>
