<svg width="48" height="48" viewBox="0 0 48 48" fill="none" xmlns="http://www.w3.org/2000/svg">
<g clip-path="url(#clip0_2720_15462)">
<path d="M24 48C37.2548 48 48 37.2548 48 24C48 10.7452 37.2548 0 24 0C10.7452 0 0 10.7452 0 24C0 37.2548 10.7452 48 24 48Z" fill="#F0F0F0"/>
<path d="M4.96125 9.38867C3.07603 11.8415 1.6545 14.6685 0.826782 17.7396H13.3122L4.96125 9.38867Z" fill="#0052B4"/>
<path d="M47.1732 17.7395C46.3455 14.6685 44.9239 11.8415 43.0388 9.38867L34.688 17.7395H47.1732Z" fill="#0052B4"/>
<path d="M0.826782 30.2607C1.65459 33.3318 3.07613 36.1588 4.96125 38.6115L13.3119 30.2607H0.826782Z" fill="#0052B4"/>
<path d="M38.6117 4.96171C36.159 3.07649 33.332 1.65496 30.2609 0.827148V13.3125L38.6117 4.96171Z" fill="#0052B4"/>
<path d="M9.38831 43.0382C11.8411 44.9234 14.6681 46.3449 17.7392 47.1727V34.6875L9.38831 43.0382Z" fill="#0052B4"/>
<path d="M17.7391 0.827148C14.668 1.65496 11.841 3.07649 9.38831 4.96162L17.7391 13.3124V0.827148Z" fill="#0052B4"/>
<path d="M30.2609 47.1727C33.3319 46.3449 36.159 44.9234 38.6116 43.0383L30.2609 34.6875V47.1727Z" fill="#0052B4"/>
<path d="M34.688 30.2607L43.0388 38.6116C44.9239 36.1589 46.3455 33.3318 47.1732 30.2607H34.688Z" fill="#0052B4"/>
<path d="M47.7968 20.8696H27.1306H27.1305V0.203156C26.1057 0.06975 25.061 0 24 0C22.9388 0 21.8943 0.06975 20.8696 0.203156V20.8694V20.8695H0.203156C0.06975 21.8943 0 22.939 0 24C0 25.0612 0.06975 26.1057 0.203156 27.1304H20.8694H20.8695V47.7968C21.8943 47.9303 22.9388 48 24 48C25.061 48 26.1057 47.9303 27.1304 47.7968V27.1306V27.1305H47.7968C47.9303 26.1057 48 25.0612 48 24C48 22.939 47.9303 21.8943 47.7968 20.8696Z" fill="#D80027"/>
<path d="M30.2609 30.2608L40.9706 40.9705C41.4631 40.4781 41.933 39.9633 42.3813 39.4297L33.2124 30.2607H30.2609V30.2608Z" fill="#D80027"/>
<path d="M17.7391 30.2607H17.7389L7.02942 40.9703C7.52179 41.4628 8.03657 41.9327 8.5702 42.381L17.7391 33.2119V30.2607Z" fill="#D80027"/>
<path d="M17.7391 17.7392V17.739L7.02946 7.0293C6.5369 7.52167 6.06703 8.03645 5.61871 8.57008L14.7877 17.7391L17.7391 17.7392Z" fill="#D80027"/>
<path d="M30.2609 17.7396L40.9706 7.0298C40.4782 6.53723 39.9634 6.06736 39.4298 5.61914L30.2609 14.7882V17.7396Z" fill="#D80027"/>
</g>
<defs>
<clipPath id="clip0_2720_15462">
<rect width="48" height="48" fill="white"/>
</clipPath>
</defs>
</svg>
