<svg width="48" height="48" viewBox="0 0 48 48" fill="none" xmlns="http://www.w3.org/2000/svg">
<path fill-rule="evenodd" clip-rule="evenodd" d="M47.9571 25.7176V25.7296C47.9571 25.7697 47.9381 25.8138 47.9341 25.8538C47.9341 25.934 47.9205 26.0102 47.9165 26.0904C47.9125 26.1224 47.9057 26.1585 47.9017 26.1905C47.8977 26.2627 47.8883 26.3309 47.8803 26.399C47.8442 26.7798 47.7954 27.1606 47.7392 27.5334C47.7232 27.6496 47.7048 27.7659 47.6848 27.8781C47.6808 27.9142 47.6776 27.9502 47.6696 27.9863C47.6535 28.0825 47.6379 28.1747 47.6179 28.2669C47.5858 28.4593 47.5499 28.6557 47.5098 28.8481C47.5098 28.8521 47.5099 28.8561 47.5059 28.8602C47.4658 29.0565 47.4217 29.249 47.3776 29.4453C47.3696 29.4814 47.3616 29.5175 47.3495 29.5536C47.0608 30.7761 46.6758 31.9586 46.2026 33.105C46.1946 33.125 46.1866 33.1411 46.1785 33.1611C46.0943 33.3735 46.0021 33.582 45.9059 33.7904C45.4166 34.8927 44.8391 35.9509 44.1894 36.957C43.3433 38.2717 42.3688 39.4983 41.29 40.6207C39.8704 42.0957 38.2662 43.3904 36.5138 44.4687C33.7947 46.1361 30.7189 47.2825 27.4344 47.7555C27.3983 47.7595 27.3622 47.7675 27.3261 47.7716C27.0655 47.8076 26.8048 47.8397 26.5442 47.8637C26.2674 47.8958 25.9867 47.9198 25.706 47.9399C25.4533 47.9559 25.2007 47.972 24.948 47.98C24.8999 47.984 24.8478 47.984 24.7957 47.984C24.531 47.996 24.2663 48 24.0016 48C19.4218 48 15.1349 46.7053 11.4895 44.4687C9.73298 43.3904 8.12885 42.0957 6.71325 40.6207C5.63045 39.4983 4.65995 38.2717 3.80977 36.957C3.12403 35.8948 2.5225 34.7764 2.00919 33.61C1.94499 33.4617 1.88086 33.3094 1.82067 33.1611C1.81266 33.1411 1.80465 33.125 1.79664 33.105C1.32344 31.9586 0.938397 30.7761 0.649706 29.5536C0.637632 29.5175 0.629623 29.4814 0.621614 29.4453C0.477268 28.8201 0.35695 28.1908 0.26066 27.5494C0.224618 27.2848 0.192522 27.0243 0.164429 26.7638C0.128328 26.4231 0.0962916 26.0864 0.0722034 25.7737C0.0641944 25.7136 0.0601894 25.6535 0.0561853 25.5933C0.0561853 25.5773 0.0521803 25.5612 0.0521803 25.5452C0.0160791 25.0402 0 24.5271 0 24.014C0 23.5691 0.0120741 23.1242 0.0401063 22.6832C0.0842166 21.7894 0.184512 20.9115 0.332862 20.0498C0.6096 18.3702 1.06673 16.7509 1.67633 15.2077C1.69635 15.1596 1.71643 15.1155 1.73245 15.0674C1.79264 14.9191 1.84876 14.6746 1.90489 14.5342C3.58922 10.582 6.30418 7.0954 9.71696 4.50936H9.72096C9.72497 4.50936 9.72497 4.6016 9.72897 4.6016C10.4348 4.20473 11.1687 3.66766 11.9306 3.2227C11.9427 3.2147 11.9547 3.23071 11.9667 3.2227C15.5078 1.15839 19.6224 0 24.0016 0C24.4147 0 24.8277 0.0260775 25.2368 0.0460903C25.6459 0.0661641 26.0469 0.105219 26.4479 0.145306C26.8529 0.185392 27.254 0.243006 27.655 0.303106C28.048 0.367268 28.441 0.436162 28.8261 0.516336C38.186 2.44031 45.585 9.83615 47.51 19.1916C47.5901 19.5764 47.6583 19.9694 47.7225 20.3623C47.7827 20.7631 47.8348 21.164 47.875 21.5689C47.915 21.9697 47.9471 22.3705 47.9671 22.7794C47.9872 23.1883 47.9993 23.6012 47.9993 24.014C47.9993 24.3187 47.9952 24.6233 47.9792 24.9239C47.9752 25.1323 47.9631 25.3408 47.9471 25.5452C47.9471 25.5452 47.9541 25.5653 47.9541 25.5933C47.9541 25.6334 47.9571 25.6775 47.9571 25.7176Z" fill="#3C3CA3"/>
<path fill-rule="evenodd" clip-rule="evenodd" d="M47.9993 24.0138C47.9993 24.3184 48.0043 24.6231 47.9882 24.9237C47.9802 25.1922 47.9571 25.4568 47.9571 25.7173V25.7293C47.9571 25.8496 47.9281 25.9698 47.92 26.0901C47.916 26.1222 47.9075 26.1583 47.9035 26.1903C47.8995 26.2625 47.8892 26.3306 47.8811 26.3987C47.8777 26.436 47.8701 26.4723 47.8663 26.5095C47.8343 26.8277 47.7944 27.1439 47.7484 27.4581C47.7448 27.4828 47.7426 27.5085 47.7389 27.5331C47.7228 27.6494 47.7066 27.7656 47.6866 27.8778C47.6826 27.9139 47.6785 27.95 47.6705 27.9861C47.6544 28.0822 47.6383 28.1744 47.6183 28.2666C47.5862 28.459 47.5501 28.6555 47.51 28.8478C47.51 28.8518 47.51 28.8558 47.506 28.8599C47.4659 29.0563 47.4218 29.2487 47.3776 29.4451C47.3697 29.481 47.3616 29.5169 47.3497 29.5529C45.2988 38.2349 38.5247 45.0918 29.886 47.2684C29.8596 47.275 29.8331 47.2812 29.8068 47.2878C29.4672 47.3721 29.1249 47.4491 28.7799 47.5188C28.7128 47.5324 28.6461 47.5467 28.579 47.5598C28.2002 47.6329 27.8194 47.7002 27.4344 47.7552C27.3983 47.7593 27.3622 47.7673 27.3261 47.7714C27.0655 47.8074 26.8048 47.8394 26.5442 47.8635C26.2674 47.8956 25.9867 47.9196 25.706 47.9396C25.4534 47.9557 25.2007 47.9717 24.9481 47.9797C24.8999 47.9837 24.8478 47.9837 24.7957 47.9837C24.531 47.9957 24.2663 47.9997 24.0016 47.9997C19.4218 47.9997 15.1349 46.7051 11.4895 44.4684C9.73298 43.3901 8.12886 42.0955 6.71325 40.6204C5.63045 39.498 4.65996 38.2715 3.80978 36.9567C3.12403 35.8945 2.5225 34.7762 2.00919 33.6098C1.945 33.4614 1.88087 33.3092 1.82067 33.1608C1.81267 33.1408 1.80466 33.1247 1.79665 33.1047C1.32344 31.9583 0.938402 30.7759 0.649711 29.5533C0.637637 29.5172 0.629628 29.4812 0.621619 29.4451C0.477273 28.8198 0.356955 28.1905 0.260664 27.5492C0.224623 27.2846 0.192527 27.024 0.164434 26.7635C0.128333 26.4228 0.0962963 26.0861 0.0722082 25.7734C0.0641991 25.7133 0.0601941 25.6949 0.0561901 25.6348C0.0561901 25.6187 0.0521851 25.6283 0.0521851 25.6283H25.2381L25.2368 0.101562C25.2368 0.101562 26.0469 0.132795 26.4479 0.172882C26.8529 0.212968 27.254 0.254693 27.655 0.314792C28.0481 0.374892 28.437 0.437842 28.8261 0.522018C38.2061 2.43399 45.597 9.81879 47.51 19.1943C47.5942 19.5831 47.6624 19.9707 47.7225 20.3635C47.7827 20.7643 47.8348 21.1645 47.875 21.5693C47.915 21.9701 47.9471 22.3747 47.9671 22.7795C47.9872 23.1884 47.9993 23.6009 47.9993 24.0138Z" fill="#F02449"/>
<path fill-rule="evenodd" clip-rule="evenodd" d="M35.6726 3.05371C37.558 4.10494 39.2869 5.40306 40.8155 6.90409H25.2214V3.05371H35.6726Z" fill="#FAEFE1"/>
<path fill-rule="evenodd" clip-rule="evenodd" d="M43.8736 10.5674C44.6942 11.7765 45.4064 13.0653 45.9979 14.4181H25.2214V10.5674H43.8736Z" fill="#FAEFE1"/>
<path fill-rule="evenodd" clip-rule="evenodd" d="M47.2571 18.0801C47.5749 19.327 47.7934 20.6138 47.9071 21.9307H25.2214V18.0801H47.2571Z" fill="#FAEFE1"/>
<path fill-rule="evenodd" clip-rule="evenodd" d="M47.9471 25.6289C47.9431 25.6289 47.9351 25.7837 47.927 25.8718C47.915 26.0602 47.899 26.2358 47.8789 26.4202C47.8428 26.8009 47.7947 27.1734 47.7386 27.5462C47.7225 27.6624 47.7065 27.7724 47.6864 27.8846C47.6664 28.0169 47.6463 28.1752 47.6182 28.2995C47.5501 28.6963 47.4699 29.077 47.3817 29.508H0.621612C0.33286 28.215 0.136334 26.4909 0.0561829 25.6289L47.9471 25.6289Z" fill="#FAEFE1"/>
<path fill-rule="evenodd" clip-rule="evenodd" d="M46.2106 32.9561C45.6572 34.2491 44.9875 35.5421 44.2054 36.8351H3.80973C3.02775 35.5421 2.35002 34.2491 1.7966 32.9561H46.2106Z" fill="#FAEFE1"/>
<path fill-rule="evenodd" clip-rule="evenodd" d="M41.314 40.7139C39.8944 42.0069 38.2903 43.7309 36.5337 44.1619H11.4895C9.73292 43.7309 8.1288 42.0069 6.7132 40.7139H41.314Z" fill="#FAEFE1"/>
<path fill-rule="evenodd" clip-rule="evenodd" d="M11.9305 4.48906L12.1872 5.98815L10.8478 5.28272L9.5083 5.98815L9.72885 4.6975C10.4347 4.30069 11.1685 3.71546 11.9305 3.27051L13.0173 3.42685L11.9305 4.48906Z" fill="#FAEFE1"/>
<path fill-rule="evenodd" clip-rule="evenodd" d="M18.3111 1.84668L18.981 3.21054L20.4788 3.42922L19.3949 4.49088L19.6508 5.98986L18.3111 5.28219L16.9715 5.98986L17.2273 4.49088L16.1435 3.42922L17.6413 3.21054L18.3111 1.84668Z" fill="#FAEFE1"/>
<path fill-rule="evenodd" clip-rule="evenodd" d="M7.20023 7.8457L7.87008 9.20962L9.36784 9.42831L8.28407 10.4899L8.53987 11.9889L7.20023 11.2811L5.86059 11.9889L6.1164 10.4899L5.03262 9.42831L6.53038 9.20962L7.20023 7.8457Z" fill="#FAEFE1"/>
<path fill-rule="evenodd" clip-rule="evenodd" d="M14.497 7.8457L15.1668 9.20962L16.6646 9.42831L15.5808 10.4899L15.8367 11.9889L14.497 11.2811L13.1573 11.9889L13.4132 10.4899L12.3293 9.42831L13.8272 9.20962L14.497 7.8457Z" fill="#FAEFE1"/>
<path fill-rule="evenodd" clip-rule="evenodd" d="M21.7936 7.8457L22.4635 9.20962L23.9613 9.42831L22.8775 10.4899L23.1333 11.9889L21.7936 11.2811L20.454 11.9889L20.7099 10.4899L19.6261 9.42831L21.1239 9.20962L21.7936 7.8457Z" fill="#FAEFE1"/>
<path fill-rule="evenodd" clip-rule="evenodd" d="M4.47144 15.8212L4.72409 17.3203L3.38469 16.6148L2.04523 17.3203L2.30189 15.8212L1.67627 15.2079C1.75248 15.0235 1.82868 14.8431 1.90483 14.6588L2.7149 14.5425L3.38469 13.1797L4.05436 14.5425L5.55424 14.759L4.47144 15.8212Z" fill="#FAEFE1"/>
<path fill-rule="evenodd" clip-rule="evenodd" d="M10.8486 13.1777L11.5184 14.5417L13.0162 14.7603L11.9325 15.822L12.1883 17.321L10.8486 16.6132L9.50894 17.321L9.7648 15.822L8.68103 14.7603L10.1788 14.5417L10.8486 13.1777Z" fill="#FAEFE1"/>
<path fill-rule="evenodd" clip-rule="evenodd" d="M18.3112 13.1777L18.981 14.5417L20.4788 14.7603L19.395 15.822L19.6509 17.321L18.3112 16.6132L16.9715 17.321L17.2274 15.822L16.1436 14.7603L17.6414 14.5417L18.3112 13.1777Z" fill="#FAEFE1"/>
<path fill-rule="evenodd" clip-rule="evenodd" d="M0.986384 21.8215L1.24304 23.3207L0.039917 22.6833C0.0840273 21.7894 0.184323 20.9116 0.332673 20.0498L0.57331 20.5429L2.06913 20.7593L0.986384 21.8215Z" fill="#FAEFE1"/>
<path fill-rule="evenodd" clip-rule="evenodd" d="M7.20014 19.1777L7.86999 20.5416L9.36775 20.7603L8.28398 21.8219L8.53978 23.3209L7.20014 22.6132L5.8605 23.3209L6.11631 21.8219L5.03253 20.7603L6.53029 20.5416L7.20014 19.1777Z" fill="#FAEFE1"/>
<path fill-rule="evenodd" clip-rule="evenodd" d="M14.4968 19.1777L15.1667 20.5416L16.6645 20.7603L15.5807 21.8219L15.8365 23.3209L14.4968 22.6132L13.1572 23.3209L13.4131 21.8219L12.3292 20.7603L13.827 20.5416L14.4968 19.1777Z" fill="#FAEFE1"/>
<path fill-rule="evenodd" clip-rule="evenodd" d="M21.7936 19.1777L22.4634 20.5416L23.9613 20.7603L22.8774 21.8219L23.1333 23.3209L21.7936 22.6132L20.4539 23.3209L20.7098 21.8219L19.626 20.7603L21.1238 20.5416L21.7936 19.1777Z" fill="#FAEFE1"/>
</svg>
